%TF.GenerationSoftware,KiCad,Pcbnew,9.0.7*%
%TF.CreationDate,2026-02-06T13:00:59+01:00*%
%TF.ProjectId,RPi_PCB_KOSMOS_4.0_v2,5250695f-5043-4425-9f4b-4f534d4f535f,rev?*%
%TF.SameCoordinates,Original*%
%TF.FileFunction,Copper,L2,Bot*%
%TF.FilePolarity,Positive*%
%FSLAX46Y46*%
G04 Gerber Fmt 4.6, Leading zero omitted, Abs format (unit mm)*
G04 Created by KiCad (PCBNEW 9.0.7) date 2026-02-06 13:00:59*
%MOMM*%
%LPD*%
G01*
G04 APERTURE LIST*
%TA.AperFunction,ComponentPad*%
%ADD10R,1.500000X1.400000*%
%TD*%
%TA.AperFunction,ComponentPad*%
%ADD11C,1.500000*%
%TD*%
%TA.AperFunction,ComponentPad*%
%ADD12R,1.800000X1.725000*%
%TD*%
%TA.AperFunction,ComponentPad*%
%ADD13C,1.800000*%
%TD*%
%TA.AperFunction,ComponentPad*%
%ADD14R,1.800000X1.800000*%
%TD*%
%TA.AperFunction,ComponentPad*%
%ADD15C,1.600000*%
%TD*%
%TA.AperFunction,ComponentPad*%
%ADD16R,1.650000X1.650000*%
%TD*%
%TA.AperFunction,ComponentPad*%
%ADD17C,1.650000*%
%TD*%
%TA.AperFunction,ComponentPad*%
%ADD18R,1.500000X1.500000*%
%TD*%
%TA.AperFunction,SMDPad,CuDef*%
%ADD19R,1.000000X2.100000*%
%TD*%
%TA.AperFunction,SMDPad,CuDef*%
%ADD20R,0.950000X2.100000*%
%TD*%
%TA.AperFunction,SMDPad,CuDef*%
%ADD21R,1.010000X2.100000*%
%TD*%
%TA.AperFunction,SMDPad,CuDef*%
%ADD22R,0.990000X2.100000*%
%TD*%
%TA.AperFunction,Conductor*%
%ADD23C,0.800000*%
%TD*%
%ADD24R,1.500000X1.400000*%
%ADD25C,1.500000*%
%ADD26R,1.800000X1.725000*%
%ADD27C,1.800000*%
%ADD28R,1.800000X1.800000*%
%ADD29C,1.600000*%
%ADD30R,1.650000X1.650000*%
%ADD31C,1.650000*%
%ADD32R,1.500000X1.500000*%
%ADD33C,2.200000*%
%ADD34C,1.000000*%
%ADD35R,1.000000X2.100000*%
%ADD36R,0.950000X2.100000*%
%ADD37R,1.010000X2.100000*%
%ADD38R,0.990000X2.100000*%
%TA.AperFunction,Profile*%
%ADD39C,0.050000*%
%TD*%
G04 APERTURE END LIST*
D10*
%TO.P,J4,1,1*%
%TO.N,SDA*%
X171225000Y-83000000D03*
D11*
%TO.P,J4,2,2*%
%TO.N,SCL*%
X171225000Y-80500000D03*
%TO.P,J4,3,3*%
%TO.N,GPIO4*%
X171225000Y-78000000D03*
%TO.P,J4,4,4*%
%TO.N,GND*%
X171225000Y-75500000D03*
%TD*%
D12*
%TO.P,J1,1,1*%
%TO.N,+5V*%
X150500000Y-60500000D03*
D13*
%TO.P,J1,2,2*%
%TO.N,GND*%
X150500000Y-65500000D03*
%TD*%
D14*
%TO.P,D1,1,K*%
%TO.N,GND*%
X190290000Y-69000000D03*
D13*
%TO.P,D1,2,A*%
%TO.N,Net-(D1-A)*%
X187750000Y-69000000D03*
%TD*%
D15*
%TO.P,R2,1*%
%TO.N,GPIO13*%
X184000000Y-59500000D03*
%TO.P,R2,2*%
%TO.N,Net-(D2-A)*%
X194160000Y-59500000D03*
%TD*%
%TO.P,R5,1*%
%TO.N,GND*%
X157500000Y-66250000D03*
%TO.P,R5,2*%
X167660000Y-66250000D03*
%TD*%
D14*
%TO.P,D2,1,K*%
%TO.N,GND*%
X201000000Y-62500000D03*
D13*
%TO.P,D2,2,A*%
%TO.N,Net-(D2-A)*%
X201000000Y-59960000D03*
%TD*%
D15*
%TO.P,R4,1*%
%TO.N,GPIO6*%
X189910000Y-63500000D03*
%TO.P,R4,2*%
%TO.N,GND*%
X179750000Y-63500000D03*
%TD*%
%TO.P,R1,1*%
%TO.N,GPIO17*%
X173250000Y-67250000D03*
%TO.P,R1,2*%
%TO.N,Net-(D1-A)*%
X183410000Y-67250000D03*
%TD*%
D10*
%TO.P,J7,1,1*%
%TO.N,GND*%
X171225000Y-97500000D03*
D11*
%TO.P,J7,2,2*%
%TO.N,+3.3V*%
X171225000Y-95000000D03*
%TO.P,J7,3,3*%
%TO.N,SCL*%
X171225000Y-92500000D03*
%TO.P,J7,4,4*%
%TO.N,SDA*%
X171225000Y-90000000D03*
%TD*%
D16*
%TO.P,J5,1,1*%
%TO.N,+3.3V*%
X194750000Y-66750000D03*
D17*
%TO.P,J5,2,2*%
%TO.N,GPIO6*%
X194750000Y-64250000D03*
%TD*%
D11*
%TO.P,J3,1,1*%
%TO.N,GND*%
X181750000Y-75500000D03*
%TO.P,J3,2,2*%
%TO.N,+3.3V*%
X181750000Y-78000000D03*
%TO.P,J3,3,3*%
%TO.N,SCL*%
X181750000Y-80500000D03*
%TO.P,J3,4,4*%
%TO.N,SDA*%
X181750000Y-83000000D03*
%TD*%
D18*
%TO.P,IC1,1,PPS*%
%TO.N,unconnected-(IC1-PPS-Pad1)*%
X151750000Y-89670000D03*
D11*
%TO.P,IC1,2,RX*%
%TO.N,RPI_TX*%
X151750000Y-92210000D03*
%TO.P,IC1,3,TX*%
%TO.N,RPI_RX*%
X151750000Y-94750000D03*
%TO.P,IC1,4,GND*%
%TO.N,GND*%
X151750000Y-97290000D03*
%TO.P,IC1,5,VCC*%
%TO.N,+3.3V*%
X151750000Y-99830000D03*
%TD*%
D16*
%TO.P,J6,1,1*%
%TO.N,+3.3V*%
X175250000Y-63500000D03*
D17*
%TO.P,J6,2,2*%
%TO.N,GPIO27*%
X172750000Y-63500000D03*
%TD*%
D15*
%TO.P,R3,1*%
%TO.N,GPIO27*%
X169000000Y-59500000D03*
%TO.P,R3,2*%
%TO.N,GND*%
X179160000Y-59500000D03*
%TD*%
D16*
%TO.P,J9,1,1*%
%TO.N,GPIO37*%
X203500000Y-67500000D03*
D17*
%TO.P,J9,2,2*%
%TO.N,GND*%
X201000000Y-67500000D03*
%TD*%
D11*
%TO.P,J2,1,1*%
%TO.N,SDA*%
X181750000Y-90000000D03*
%TO.P,J2,2,2*%
%TO.N,SCL*%
X181750000Y-92500000D03*
%TO.P,J2,3,3*%
%TO.N,+3.3V*%
X181750000Y-95000000D03*
%TO.P,J2,4,4*%
%TO.N,GND*%
X181750000Y-97500000D03*
%TD*%
%TO.P,IC2,1,GND*%
%TO.N,GND*%
X163960000Y-83080000D03*
%TO.P,IC2,2,3V3*%
%TO.N,+3.3V*%
X163960000Y-80540000D03*
%TO.P,IC2,3,SDA*%
%TO.N,SDA*%
X163960000Y-78000000D03*
%TO.P,IC2,4,SCL*%
%TO.N,SCL*%
X163960000Y-75460000D03*
%TO.P,IC2,5,/INT*%
%TO.N,unconnected-(IC2-{slash}INT-Pad5)*%
X163960000Y-72920000D03*
%TD*%
D19*
%TO.P,J8,1,1*%
%TO.N,+5V*%
X152140000Y-49875000D03*
%TO.P,J8,2,2*%
%TO.N,+3.3V*%
X152140000Y-55775000D03*
%TO.P,J8,3,3*%
%TO.N,+5V*%
X154680000Y-49875000D03*
%TO.P,J8,4,4*%
%TO.N,SDA*%
X154680000Y-55775000D03*
%TO.P,J8,5,5*%
%TO.N,GND*%
X157220000Y-49875000D03*
D20*
%TO.P,J8,6,6*%
%TO.N,SCL*%
X157245000Y-55775000D03*
D21*
%TO.P,J8,7,7*%
%TO.N,RPI_TX*%
X159765000Y-49875000D03*
D22*
%TO.P,J8,8,8*%
%TO.N,GPIO4*%
X159765000Y-55775000D03*
D19*
%TO.P,J8,9,9*%
%TO.N,RPI_RX*%
X162300000Y-49875000D03*
%TO.P,J8,10,10*%
%TO.N,GND*%
X162300000Y-55775000D03*
%TO.P,J8,11,11*%
%TO.N,unconnected-(J8-Pad11)*%
X164840000Y-49875000D03*
%TO.P,J8,12,12*%
%TO.N,GPIO17*%
X164840000Y-55775000D03*
%TO.P,J8,13,13*%
%TO.N,GND*%
X167380000Y-49875000D03*
%TO.P,J8,14,14*%
%TO.N,GPIO27*%
X167380000Y-55775000D03*
%TO.P,J8,15,15*%
%TO.N,unconnected-(J8-Pad15)*%
X169920000Y-49875000D03*
%TO.P,J8,16,16*%
%TO.N,unconnected-(J8-Pad16)*%
X169920000Y-55775000D03*
%TO.P,J8,17,17*%
%TO.N,unconnected-(J8-Pad17)*%
X172460000Y-49875000D03*
%TO.P,J8,18,18*%
%TO.N,+3.3V*%
X172460000Y-55775000D03*
%TO.P,J8,19,19*%
%TO.N,GND*%
X175000000Y-49875000D03*
%TO.P,J8,20,20*%
%TO.N,unconnected-(J8-Pad20)*%
X175000000Y-55775000D03*
%TO.P,J8,21,21*%
%TO.N,unconnected-(J8-Pad21)*%
X177540000Y-49875000D03*
%TO.P,J8,22,22*%
%TO.N,unconnected-(J8-Pad22)*%
X177540000Y-55775000D03*
%TO.P,J8,23,23*%
%TO.N,unconnected-(J8-Pad23)*%
X180080000Y-49875000D03*
%TO.P,J8,24,24*%
%TO.N,unconnected-(J8-Pad24)*%
X180080000Y-55775000D03*
%TO.P,J8,25,25*%
%TO.N,unconnected-(J8-Pad25)*%
X182620000Y-49875000D03*
%TO.P,J8,26,26*%
%TO.N,GND*%
X182620000Y-55775000D03*
%TO.P,J8,27,27*%
%TO.N,unconnected-(J8-Pad27)*%
X185160000Y-49875000D03*
%TO.P,J8,28,28*%
%TO.N,unconnected-(J8-Pad28)*%
X185160000Y-55775000D03*
%TO.P,J8,29,29*%
%TO.N,GND*%
X187700000Y-49875000D03*
%TO.P,J8,30,30*%
%TO.N,GPIO13*%
X187700000Y-55775000D03*
%TO.P,J8,31,31*%
%TO.N,unconnected-(J8-Pad31)*%
X190240000Y-49875000D03*
%TO.P,J8,32,32*%
%TO.N,GPIO6*%
X190240000Y-55775000D03*
D22*
%TO.P,J8,33,33*%
%TO.N,GND*%
X192775000Y-49875000D03*
D21*
%TO.P,J8,34,34*%
%TO.N,unconnected-(J8-Pad34)*%
X192775000Y-55775000D03*
D19*
%TO.P,J8,35,35*%
%TO.N,unconnected-(J8-Pad35)*%
X195320000Y-49875000D03*
%TO.P,J8,36,36*%
%TO.N,unconnected-(J8-Pad36)*%
X195320000Y-55775000D03*
%TO.P,J8,37,37*%
%TO.N,unconnected-(J8-Pad37)*%
X197860000Y-49875000D03*
%TO.P,J8,38,38*%
%TO.N,GPIO37*%
X197860000Y-55775000D03*
%TO.P,J8,39,39*%
%TO.N,unconnected-(J8-Pad39)*%
X200400000Y-49875000D03*
%TO.P,J8,40,40*%
%TO.N,GND*%
X200400000Y-55775000D03*
%TD*%
D23*
%TO.N,GPIO13*%
X187700000Y-57550000D02*
X187700000Y-55650000D01*
X185750000Y-59500000D02*
X187700000Y-57550000D01*
X184000000Y-59500000D02*
X185750000Y-59500000D01*
%TO.N,Net-(D2-A)*%
X200540000Y-59500000D02*
X201000000Y-59960000D01*
X194160000Y-59500000D02*
X200540000Y-59500000D01*
%TO.N,+3.3V*%
X171225000Y-95025000D02*
X166420000Y-99830000D01*
X177250000Y-65500000D02*
X179000000Y-65500000D01*
X181525000Y-78000000D02*
X181750000Y-78000000D01*
X170750000Y-95000000D02*
X168500000Y-92750000D01*
X177500000Y-95000000D02*
X171225000Y-95000000D01*
X168500000Y-85080000D02*
X163960000Y-80540000D01*
X171225000Y-95000000D02*
X171225000Y-95025000D01*
X181750000Y-78000000D02*
X179000000Y-75250000D01*
X171225000Y-95000000D02*
X170750000Y-95000000D01*
X185500000Y-81975000D02*
X181525000Y-78000000D01*
X194750000Y-66750000D02*
X193500000Y-65500000D01*
X163540000Y-80540000D02*
X163960000Y-80540000D01*
X181750000Y-95000000D02*
X185500000Y-91250000D01*
X177500000Y-95000000D02*
X181750000Y-95000000D01*
X179000000Y-75250000D02*
X179000000Y-65500000D01*
X152140000Y-55650000D02*
X152150000Y-55650000D01*
X179000000Y-65500000D02*
X193500000Y-65500000D01*
X185500000Y-91250000D02*
X185500000Y-81975000D01*
X168500000Y-92750000D02*
X168500000Y-85080000D01*
X166420000Y-99830000D02*
X151750000Y-99830000D01*
X175250000Y-63500000D02*
X177250000Y-65500000D01*
X175250000Y-63500000D02*
X172460000Y-60710000D01*
X172460000Y-60710000D02*
X172460000Y-55775000D01*
%TO.N,Net-(D1-A)*%
X183410000Y-67250000D02*
X186500000Y-67250000D01*
X187750000Y-68500000D02*
X187750000Y-69000000D01*
X186500000Y-67250000D02*
X187750000Y-68500000D01*
%TO.N,GPIO6*%
X194000000Y-63500000D02*
X194750000Y-64250000D01*
X190240000Y-55650000D02*
X190240000Y-63170000D01*
X190240000Y-63170000D02*
X189910000Y-63500000D01*
X189910000Y-63500000D02*
X194000000Y-63500000D01*
%TO.N,GPIO27*%
X167380000Y-55650000D02*
X167380000Y-57880000D01*
X167380000Y-57880000D02*
X169000000Y-59500000D01*
X172390000Y-63890000D02*
X172500000Y-64000000D01*
X169000000Y-59500000D02*
X169000000Y-59750000D01*
X169000000Y-59750000D02*
X172750000Y-63500000D01*
%TO.N,GPIO17*%
X173250000Y-67250000D02*
X164840000Y-58840000D01*
X164840000Y-58840000D02*
X164840000Y-55650000D01*
%TO.N,+5V*%
X151500000Y-50000000D02*
X150500000Y-51000000D01*
X150500000Y-51000000D02*
X150500000Y-60500000D01*
X152140000Y-50000000D02*
X154680000Y-50000000D01*
X152140000Y-50000000D02*
X151500000Y-50000000D01*
%TO.N,SDA*%
X160000000Y-74750000D02*
X163250000Y-78000000D01*
X171250000Y-82975000D02*
X171225000Y-83000000D01*
X163250000Y-78000000D02*
X163960000Y-78000000D01*
X171225000Y-83000000D02*
X166225000Y-78000000D01*
X163960000Y-78000000D02*
X166225000Y-78000000D01*
X154680000Y-60180000D02*
X160000000Y-65500000D01*
X181750000Y-83000000D02*
X181750000Y-90000000D01*
X154680000Y-55650000D02*
X154680000Y-60180000D01*
X171225000Y-83000000D02*
X181750000Y-83000000D01*
X181750000Y-90000000D02*
X171225000Y-90000000D01*
X160000000Y-65500000D02*
X160000000Y-74750000D01*
%TO.N,SCL*%
X162960000Y-75460000D02*
X163960000Y-75460000D01*
X161250000Y-65000000D02*
X161250000Y-73750000D01*
X161250000Y-73750000D02*
X162960000Y-75460000D01*
X171225000Y-80500000D02*
X181525000Y-80500000D01*
X183500000Y-90750000D02*
X181750000Y-92500000D01*
X171250000Y-80475000D02*
X171225000Y-80500000D01*
X171225000Y-80500000D02*
X166185000Y-75460000D01*
X181750000Y-92500000D02*
X171225000Y-92500000D01*
X166185000Y-75460000D02*
X163960000Y-75460000D01*
X157220000Y-60970000D02*
X161250000Y-65000000D01*
X183500000Y-82475000D02*
X183500000Y-90750000D01*
X157220000Y-55650000D02*
X157220000Y-60970000D01*
X181525000Y-80500000D02*
X183500000Y-82475000D01*
%TO.N,GPIO4*%
X162500000Y-69275000D02*
X162500000Y-64500000D01*
X159760000Y-61760000D02*
X159760000Y-55650000D01*
X162500000Y-64500000D02*
X159760000Y-61760000D01*
X171225000Y-78000000D02*
X162500000Y-69275000D01*
%TO.N,RPI_TX*%
X147750000Y-51750000D02*
X151500000Y-48000000D01*
X151000000Y-92210000D02*
X147750000Y-88960000D01*
X151750000Y-92210000D02*
X151000000Y-92210000D01*
X151500000Y-48000000D02*
X157760000Y-48000000D01*
X147750000Y-88960000D02*
X147750000Y-51750000D01*
X157760000Y-48000000D02*
X159760000Y-50000000D01*
%TO.N,RPI_RX*%
X159300000Y-47000000D02*
X150750000Y-47000000D01*
X150250000Y-94750000D02*
X151750000Y-94750000D01*
X146500000Y-91000000D02*
X150250000Y-94750000D01*
X150750000Y-47000000D02*
X146500000Y-51250000D01*
X162300000Y-50000000D02*
X159300000Y-47000000D01*
X146500000Y-51250000D02*
X146500000Y-91000000D01*
%TO.N,GPIO37*%
X202206368Y-58000000D02*
X199000000Y-58000000D01*
X203500000Y-59293632D02*
X202206368Y-58000000D01*
X203500000Y-67500000D02*
X203500000Y-59293632D01*
X199000000Y-58000000D02*
X197860000Y-56860000D01*
X197860000Y-56860000D02*
X197860000Y-55650000D01*
%TD*%
%TA.AperFunction,Conductor*%
%TO.N,GND*%
G36*
X149319414Y-46520185D02*
G01*
X149365169Y-46572989D01*
X149375113Y-46642147D01*
X149346088Y-46705703D01*
X149340056Y-46712181D01*
X145584308Y-50467927D01*
X145584306Y-50467929D01*
X145539310Y-50529863D01*
X145532550Y-50539168D01*
X145502895Y-50579984D01*
X145473240Y-50620800D01*
X145387454Y-50789163D01*
X145329059Y-50968881D01*
X145299500Y-51155513D01*
X145299500Y-91094486D01*
X145329059Y-91281118D01*
X145387454Y-91460836D01*
X145423265Y-91531118D01*
X145473240Y-91629199D01*
X145584310Y-91782074D01*
X149467927Y-95665690D01*
X149620801Y-95776760D01*
X149691218Y-95812639D01*
X149789163Y-95862545D01*
X149789165Y-95862545D01*
X149789168Y-95862547D01*
X149885497Y-95893846D01*
X149968881Y-95920940D01*
X150155514Y-95950500D01*
X150155519Y-95950500D01*
X150344482Y-95950500D01*
X150724189Y-95950500D01*
X150791228Y-95970185D01*
X150797074Y-95974182D01*
X150846478Y-96010076D01*
X150937361Y-96076106D01*
X151154815Y-96186904D01*
X151386924Y-96262321D01*
X151627973Y-96300500D01*
X151627974Y-96300500D01*
X151872026Y-96300500D01*
X151872027Y-96300500D01*
X152113076Y-96262321D01*
X152345185Y-96186904D01*
X152562639Y-96076106D01*
X152760083Y-95932655D01*
X152932655Y-95760083D01*
X153076106Y-95562639D01*
X153186904Y-95345185D01*
X153262321Y-95113076D01*
X153300500Y-94872027D01*
X153300500Y-94627973D01*
X153262321Y-94386924D01*
X153186904Y-94154815D01*
X153076106Y-93937361D01*
X153057779Y-93912136D01*
X152932660Y-93739923D01*
X152932656Y-93739918D01*
X152760419Y-93567681D01*
X152726934Y-93506358D01*
X152731918Y-93436666D01*
X152760419Y-93392319D01*
X152830191Y-93322547D01*
X152932655Y-93220083D01*
X153076106Y-93022639D01*
X153186904Y-92805185D01*
X153262321Y-92573076D01*
X153300500Y-92332027D01*
X153300500Y-92087973D01*
X153262321Y-91846924D01*
X153186904Y-91614815D01*
X153076106Y-91397361D01*
X153005006Y-91299500D01*
X152957563Y-91234199D01*
X152934083Y-91168393D01*
X152949909Y-91100339D01*
X152991911Y-91056319D01*
X153002262Y-91049816D01*
X153129816Y-90922262D01*
X153225789Y-90769522D01*
X153285368Y-90599255D01*
X153300500Y-90464954D01*
X153300500Y-88875046D01*
X153293999Y-88817345D01*
X153285369Y-88740750D01*
X153285368Y-88740745D01*
X153262538Y-88675500D01*
X153225789Y-88570478D01*
X153129816Y-88417738D01*
X153002262Y-88290184D01*
X152849523Y-88194211D01*
X152679254Y-88134631D01*
X152679249Y-88134630D01*
X152544960Y-88119500D01*
X152544954Y-88119500D01*
X150955046Y-88119500D01*
X150955039Y-88119500D01*
X150820750Y-88134630D01*
X150820745Y-88134631D01*
X150650476Y-88194211D01*
X150497737Y-88290184D01*
X150370184Y-88417737D01*
X150274211Y-88570476D01*
X150214631Y-88740745D01*
X150214630Y-88740750D01*
X150199500Y-88875039D01*
X150199500Y-89412374D01*
X150179815Y-89479413D01*
X150127011Y-89525168D01*
X150057853Y-89535112D01*
X149994297Y-89506087D01*
X149987819Y-89500055D01*
X148986819Y-88499055D01*
X148953334Y-88437732D01*
X148950500Y-88411374D01*
X148950500Y-62124161D01*
X148970185Y-62057122D01*
X149022989Y-62011367D01*
X149092147Y-62001423D01*
X149140473Y-62019168D01*
X149250475Y-62088288D01*
X149420745Y-62147868D01*
X149420750Y-62147869D01*
X149510536Y-62157985D01*
X149555040Y-62162999D01*
X149555043Y-62163000D01*
X149555046Y-62163000D01*
X151444957Y-62163000D01*
X151444958Y-62162999D01*
X151523696Y-62154128D01*
X151579249Y-62147869D01*
X151579252Y-62147868D01*
X151579255Y-62147868D01*
X151749522Y-62088289D01*
X151902262Y-61992316D01*
X152029816Y-61864762D01*
X152125789Y-61712022D01*
X152185368Y-61541755D01*
X152200500Y-61407454D01*
X152200500Y-59592546D01*
X152195565Y-59548746D01*
X152185369Y-59458250D01*
X152185368Y-59458245D01*
X152125788Y-59287976D01*
X152029815Y-59135237D01*
X151902260Y-59007682D01*
X151758527Y-58917368D01*
X151712237Y-58865034D01*
X151700500Y-58812375D01*
X151700500Y-57749500D01*
X151720185Y-57682461D01*
X151772989Y-57636706D01*
X151824500Y-57625500D01*
X152684957Y-57625500D01*
X152684958Y-57625499D01*
X152752104Y-57617934D01*
X152819249Y-57610369D01*
X152819252Y-57610368D01*
X152819255Y-57610368D01*
X152989522Y-57550789D01*
X153142262Y-57454816D01*
X153267819Y-57329259D01*
X153329142Y-57295774D01*
X153398834Y-57300758D01*
X153454767Y-57342630D01*
X153479184Y-57408094D01*
X153479500Y-57416940D01*
X153479500Y-60274486D01*
X153509059Y-60461118D01*
X153567454Y-60640836D01*
X153653240Y-60809199D01*
X153764310Y-60962074D01*
X153764312Y-60962076D01*
X158763181Y-65960945D01*
X158796666Y-66022268D01*
X158799500Y-66048626D01*
X158799500Y-74844486D01*
X158829059Y-75031118D01*
X158887454Y-75210836D01*
X158955550Y-75344481D01*
X158973240Y-75379199D01*
X159084310Y-75532074D01*
X162467926Y-78915690D01*
X162620801Y-79026760D01*
X162789168Y-79112547D01*
X162895123Y-79146974D01*
X162906524Y-79153960D01*
X162916231Y-79156072D01*
X162944485Y-79177223D01*
X162949581Y-79182319D01*
X162983066Y-79243642D01*
X162978082Y-79313334D01*
X162949581Y-79357681D01*
X162777343Y-79529918D01*
X162777339Y-79529923D01*
X162633896Y-79727357D01*
X162633894Y-79727361D01*
X162608684Y-79776836D01*
X162598521Y-79793421D01*
X162513242Y-79910797D01*
X162427454Y-80079163D01*
X162369059Y-80258881D01*
X162339500Y-80445513D01*
X162339500Y-80634486D01*
X162369059Y-80821118D01*
X162427454Y-81000836D01*
X162513240Y-81169199D01*
X162598519Y-81286575D01*
X162608685Y-81303166D01*
X162633892Y-81352637D01*
X162633893Y-81352638D01*
X162777339Y-81550076D01*
X162777343Y-81550081D01*
X162949918Y-81722656D01*
X162949923Y-81722660D01*
X162987554Y-81750000D01*
X163147361Y-81866106D01*
X163285923Y-81936706D01*
X163364810Y-81976902D01*
X163364812Y-81976902D01*
X163364815Y-81976904D01*
X163596924Y-82052321D01*
X163768192Y-82079447D01*
X163831326Y-82109376D01*
X163836475Y-82114239D01*
X167263181Y-85540944D01*
X167296666Y-85602267D01*
X167299500Y-85628625D01*
X167299500Y-92844486D01*
X167329059Y-93031118D01*
X167387454Y-93210836D01*
X167434392Y-93302956D01*
X167473240Y-93379199D01*
X167584310Y-93532074D01*
X167584311Y-93532075D01*
X167584312Y-93532076D01*
X169214554Y-95162318D01*
X169248039Y-95223641D01*
X169243055Y-95293333D01*
X169214554Y-95337680D01*
X165959055Y-98593181D01*
X165897732Y-98626666D01*
X165871374Y-98629500D01*
X152775811Y-98629500D01*
X152708772Y-98609815D01*
X152702926Y-98605818D01*
X152562642Y-98503896D01*
X152562641Y-98503895D01*
X152562639Y-98503894D01*
X152345185Y-98393096D01*
X152113076Y-98317679D01*
X152113074Y-98317678D01*
X152113072Y-98317678D01*
X151944769Y-98291021D01*
X151872027Y-98279500D01*
X151627973Y-98279500D01*
X151572093Y-98288350D01*
X151386927Y-98317678D01*
X151154812Y-98393097D01*
X150937357Y-98503896D01*
X150739923Y-98647339D01*
X150739918Y-98647343D01*
X150567343Y-98819918D01*
X150567339Y-98819923D01*
X150423896Y-99017357D01*
X150313097Y-99234812D01*
X150237678Y-99466927D01*
X150199500Y-99707973D01*
X150199500Y-99952026D01*
X150237678Y-100193072D01*
X150313097Y-100425187D01*
X150423896Y-100642642D01*
X150567339Y-100840076D01*
X150567343Y-100840081D01*
X150739918Y-101012656D01*
X150739923Y-101012660D01*
X150797074Y-101054182D01*
X150937361Y-101156106D01*
X151154815Y-101266904D01*
X151386924Y-101342321D01*
X151627973Y-101380500D01*
X151627974Y-101380500D01*
X151872026Y-101380500D01*
X151872027Y-101380500D01*
X152113076Y-101342321D01*
X152345185Y-101266904D01*
X152562639Y-101156106D01*
X152659327Y-101085857D01*
X152702926Y-101054182D01*
X152768732Y-101030702D01*
X152775811Y-101030500D01*
X166514486Y-101030500D01*
X166701118Y-101000940D01*
X166880832Y-100942547D01*
X167049199Y-100856760D01*
X167202074Y-100745690D01*
X171378230Y-96569532D01*
X171439551Y-96536049D01*
X171446501Y-96534743D01*
X171588076Y-96512321D01*
X171820185Y-96436904D01*
X172037639Y-96326106D01*
X172134327Y-96255857D01*
X172177926Y-96224182D01*
X172243732Y-96200702D01*
X172250811Y-96200500D01*
X177405519Y-96200500D01*
X180724189Y-96200500D01*
X180791228Y-96220185D01*
X180797074Y-96224182D01*
X180849568Y-96262321D01*
X180937361Y-96326106D01*
X181154815Y-96436904D01*
X181386924Y-96512321D01*
X181627973Y-96550500D01*
X181627974Y-96550500D01*
X181872026Y-96550500D01*
X181872027Y-96550500D01*
X182113076Y-96512321D01*
X182345185Y-96436904D01*
X182562639Y-96326106D01*
X182760083Y-96182655D01*
X182932655Y-96010083D01*
X183076106Y-95812639D01*
X183186904Y-95595185D01*
X183262321Y-95363076D01*
X183289447Y-95191806D01*
X183319376Y-95128672D01*
X183324221Y-95123541D01*
X186415690Y-92032073D01*
X186526760Y-91879199D01*
X186612547Y-91710832D01*
X186670940Y-91531118D01*
X186677465Y-91489923D01*
X186700500Y-91344486D01*
X186700500Y-81880513D01*
X186670940Y-81693881D01*
X186643846Y-81610497D01*
X186612547Y-81514168D01*
X186612545Y-81514165D01*
X186612545Y-81514163D01*
X186530244Y-81352639D01*
X186526760Y-81345801D01*
X186415690Y-81192927D01*
X186282073Y-81059310D01*
X183336819Y-78114055D01*
X183303334Y-78052732D01*
X183300500Y-78026374D01*
X183300500Y-77877973D01*
X183262321Y-77636927D01*
X183262321Y-77636924D01*
X183186904Y-77404815D01*
X183076106Y-77187361D01*
X183057779Y-77162136D01*
X182932660Y-76989923D01*
X182932656Y-76989918D01*
X182760081Y-76817343D01*
X182760076Y-76817339D01*
X182562642Y-76673896D01*
X182562641Y-76673895D01*
X182562639Y-76673894D01*
X182345185Y-76563096D01*
X182113076Y-76487679D01*
X182113074Y-76487678D01*
X181941805Y-76460551D01*
X181878671Y-76430621D01*
X181873523Y-76425759D01*
X180236819Y-74789055D01*
X180203334Y-74727732D01*
X180200500Y-74701374D01*
X180200500Y-66824500D01*
X180220185Y-66757461D01*
X180272989Y-66711706D01*
X180324500Y-66700500D01*
X181735007Y-66700500D01*
X181802046Y-66720185D01*
X181847801Y-66772989D01*
X181857745Y-66842147D01*
X181852937Y-66862820D01*
X181848910Y-66875212D01*
X181809500Y-67124038D01*
X181809500Y-67375961D01*
X181848910Y-67624785D01*
X181926760Y-67864383D01*
X182005413Y-68018747D01*
X182035228Y-68077262D01*
X182041132Y-68088848D01*
X182189201Y-68292649D01*
X182189205Y-68292654D01*
X182367345Y-68470794D01*
X182367350Y-68470798D01*
X182499616Y-68566894D01*
X182571155Y-68618870D01*
X182714184Y-68691747D01*
X182795616Y-68733239D01*
X182795618Y-68733239D01*
X182795621Y-68733241D01*
X183035215Y-68811090D01*
X183284038Y-68850500D01*
X183284039Y-68850500D01*
X183535961Y-68850500D01*
X183535962Y-68850500D01*
X183784785Y-68811090D01*
X184024379Y-68733241D01*
X184248845Y-68618870D01*
X184335111Y-68556194D01*
X184447993Y-68474182D01*
X184513799Y-68450702D01*
X184520878Y-68450500D01*
X185951374Y-68450500D01*
X185980814Y-68459144D01*
X186010801Y-68465668D01*
X186015816Y-68469422D01*
X186018413Y-68470185D01*
X186039055Y-68486819D01*
X186057807Y-68505571D01*
X186091292Y-68566894D01*
X186089901Y-68625343D01*
X186078599Y-68667525D01*
X186078594Y-68667547D01*
X186049501Y-68888533D01*
X186049500Y-68888549D01*
X186049500Y-69111450D01*
X186049501Y-69111466D01*
X186078594Y-69332452D01*
X186078595Y-69332457D01*
X186078596Y-69332463D01*
X186078597Y-69332465D01*
X186136290Y-69547780D01*
X186136293Y-69547790D01*
X186221593Y-69753722D01*
X186221595Y-69753726D01*
X186333052Y-69946774D01*
X186333057Y-69946780D01*
X186333058Y-69946782D01*
X186468751Y-70123622D01*
X186468757Y-70123629D01*
X186626370Y-70281242D01*
X186626376Y-70281247D01*
X186803226Y-70416948D01*
X186996274Y-70528405D01*
X187202219Y-70613710D01*
X187417537Y-70671404D01*
X187638543Y-70700500D01*
X187638550Y-70700500D01*
X187861450Y-70700500D01*
X187861457Y-70700500D01*
X188082463Y-70671404D01*
X188297781Y-70613710D01*
X188503726Y-70528405D01*
X188696774Y-70416948D01*
X188873624Y-70281247D01*
X189031247Y-70123624D01*
X189166948Y-69946774D01*
X189278405Y-69753726D01*
X189363710Y-69547781D01*
X189421404Y-69332463D01*
X189450500Y-69111457D01*
X189450500Y-68888543D01*
X189421404Y-68667537D01*
X189363710Y-68452219D01*
X189278405Y-68246274D01*
X189166948Y-68053226D01*
X189031247Y-67876376D01*
X189031242Y-67876370D01*
X188873629Y-67718757D01*
X188873622Y-67718751D01*
X188696782Y-67583058D01*
X188696780Y-67583057D01*
X188696774Y-67583052D01*
X188503726Y-67471595D01*
X188481609Y-67462433D01*
X188382488Y-67421376D01*
X188342260Y-67394496D01*
X187859945Y-66912181D01*
X187826460Y-66850858D01*
X187831444Y-66781166D01*
X187873316Y-66725233D01*
X187938780Y-66700816D01*
X187947626Y-66700500D01*
X192951374Y-66700500D01*
X192980814Y-66709144D01*
X193010801Y-66715668D01*
X193015816Y-66719422D01*
X193018413Y-66720185D01*
X193039055Y-66736819D01*
X193088181Y-66785945D01*
X193121666Y-66847268D01*
X193124500Y-66873626D01*
X193124500Y-67619960D01*
X193139630Y-67754249D01*
X193139631Y-67754254D01*
X193199211Y-67924523D01*
X193280081Y-68053226D01*
X193295184Y-68077262D01*
X193422738Y-68204816D01*
X193575478Y-68300789D01*
X193745745Y-68360368D01*
X193745750Y-68360369D01*
X193830841Y-68369956D01*
X193880040Y-68375499D01*
X193880043Y-68375500D01*
X193880046Y-68375500D01*
X195619957Y-68375500D01*
X195619958Y-68375499D01*
X195687104Y-68367934D01*
X195754249Y-68360369D01*
X195754252Y-68360368D01*
X195754255Y-68360368D01*
X195924522Y-68300789D01*
X196077262Y-68204816D01*
X196204816Y-68077262D01*
X196300789Y-67924522D01*
X196360368Y-67754255D01*
X196375500Y-67619954D01*
X196375500Y-65880046D01*
X196360368Y-65745745D01*
X196300789Y-65575478D01*
X196204816Y-65422738D01*
X196107316Y-65325238D01*
X196073831Y-65263915D01*
X196078815Y-65194223D01*
X196094677Y-65164674D01*
X196140252Y-65101947D01*
X196256410Y-64873975D01*
X196335474Y-64630639D01*
X196375500Y-64377930D01*
X196375500Y-64122070D01*
X196335474Y-63869361D01*
X196256410Y-63626025D01*
X196256410Y-63626024D01*
X196216185Y-63547080D01*
X196140252Y-63398053D01*
X196121038Y-63371607D01*
X195989867Y-63191064D01*
X195989863Y-63191059D01*
X195808940Y-63010136D01*
X195808935Y-63010132D01*
X195601950Y-62859750D01*
X195601949Y-62859749D01*
X195601947Y-62859748D01*
X195528910Y-62822533D01*
X195373975Y-62743589D01*
X195373972Y-62743588D01*
X195130640Y-62664526D01*
X194912926Y-62630043D01*
X194877930Y-62624500D01*
X194877929Y-62624500D01*
X194873626Y-62624500D01*
X194806587Y-62604815D01*
X194785945Y-62588181D01*
X194782076Y-62584312D01*
X194782074Y-62584310D01*
X194629199Y-62473240D01*
X194598013Y-62457350D01*
X194460836Y-62387454D01*
X194281118Y-62329059D01*
X194094486Y-62299500D01*
X194094481Y-62299500D01*
X191564500Y-62299500D01*
X191497461Y-62279815D01*
X191451706Y-62227011D01*
X191440500Y-62175500D01*
X191440500Y-57426940D01*
X191460185Y-57359901D01*
X191512989Y-57314146D01*
X191582147Y-57304202D01*
X191645703Y-57333227D01*
X191652181Y-57339259D01*
X191767738Y-57454816D01*
X191920478Y-57550789D01*
X192090739Y-57610366D01*
X192090745Y-57610368D01*
X192090750Y-57610369D01*
X192181246Y-57620565D01*
X192225040Y-57625499D01*
X192225043Y-57625500D01*
X192225046Y-57625500D01*
X193324957Y-57625500D01*
X193324958Y-57625499D01*
X193392104Y-57617934D01*
X193459249Y-57610369D01*
X193459252Y-57610368D01*
X193459255Y-57610368D01*
X193629522Y-57550789D01*
X193782262Y-57454816D01*
X193909816Y-57327262D01*
X193945006Y-57271256D01*
X193997341Y-57224966D01*
X194066394Y-57214318D01*
X194130243Y-57242693D01*
X194154992Y-57271255D01*
X194190184Y-57327262D01*
X194317738Y-57454816D01*
X194470478Y-57550789D01*
X194640739Y-57610366D01*
X194640745Y-57610368D01*
X194640750Y-57610369D01*
X194731246Y-57620565D01*
X194775040Y-57625499D01*
X194775043Y-57625500D01*
X194775046Y-57625500D01*
X195864957Y-57625500D01*
X195864958Y-57625499D01*
X195932104Y-57617934D01*
X195999249Y-57610369D01*
X195999252Y-57610368D01*
X195999255Y-57610368D01*
X196169522Y-57550789D01*
X196322262Y-57454816D01*
X196449816Y-57327262D01*
X196485006Y-57271256D01*
X196508077Y-57250850D01*
X196529679Y-57228890D01*
X196534012Y-57227909D01*
X196537341Y-57224966D01*
X196567779Y-57220272D01*
X196597828Y-57213476D01*
X196602004Y-57214994D01*
X196606394Y-57214318D01*
X196634537Y-57226825D01*
X196663491Y-57237354D01*
X196667192Y-57241337D01*
X196670243Y-57242693D01*
X196688652Y-57262104D01*
X196692028Y-57266537D01*
X196730184Y-57327262D01*
X196764092Y-57361170D01*
X196769154Y-57367817D01*
X196771207Y-57373186D01*
X196780987Y-57386647D01*
X196833240Y-57489199D01*
X196944310Y-57642074D01*
X196944312Y-57642076D01*
X197390055Y-58087819D01*
X197423540Y-58149142D01*
X197418556Y-58218834D01*
X197376684Y-58274767D01*
X197311220Y-58299184D01*
X197302374Y-58299500D01*
X195270878Y-58299500D01*
X195203839Y-58279815D01*
X195197993Y-58275818D01*
X194998848Y-58131132D01*
X194998847Y-58131131D01*
X194998845Y-58131130D01*
X194913842Y-58087819D01*
X194774383Y-58016760D01*
X194534785Y-57938910D01*
X194534779Y-57938909D01*
X194285962Y-57899500D01*
X194034038Y-57899500D01*
X193909626Y-57919205D01*
X193785214Y-57938910D01*
X193545616Y-58016760D01*
X193321151Y-58131132D01*
X193117350Y-58279201D01*
X193117345Y-58279205D01*
X192939205Y-58457345D01*
X192939201Y-58457350D01*
X192791132Y-58661151D01*
X192676760Y-58885616D01*
X192598910Y-59125214D01*
X192559500Y-59374038D01*
X192559500Y-59625961D01*
X192598910Y-59874785D01*
X192676760Y-60114383D01*
X192714134Y-60187732D01*
X192777317Y-60311736D01*
X192791132Y-60338848D01*
X192939201Y-60542649D01*
X192939205Y-60542654D01*
X193117345Y-60720794D01*
X193117350Y-60720798D01*
X193295117Y-60849952D01*
X193321155Y-60868870D01*
X193395562Y-60906782D01*
X193545616Y-60983239D01*
X193545618Y-60983239D01*
X193545621Y-60983241D01*
X193785215Y-61061090D01*
X194034038Y-61100500D01*
X194034039Y-61100500D01*
X194285961Y-61100500D01*
X194285962Y-61100500D01*
X194534785Y-61061090D01*
X194774379Y-60983241D01*
X194998845Y-60868870D01*
X195082168Y-60808331D01*
X195197993Y-60724182D01*
X195263799Y-60700702D01*
X195270878Y-60700500D01*
X199392368Y-60700500D01*
X199459407Y-60720185D01*
X199499755Y-60762500D01*
X199583047Y-60906766D01*
X199583058Y-60906782D01*
X199718751Y-61083622D01*
X199718757Y-61083629D01*
X199876370Y-61241242D01*
X199876377Y-61241248D01*
X199951713Y-61299055D01*
X200053226Y-61376948D01*
X200246274Y-61488405D01*
X200452219Y-61573710D01*
X200667537Y-61631404D01*
X200888543Y-61660500D01*
X200888550Y-61660500D01*
X201111450Y-61660500D01*
X201111457Y-61660500D01*
X201332463Y-61631404D01*
X201547781Y-61573710D01*
X201753726Y-61488405D01*
X201946774Y-61376948D01*
X202100015Y-61259362D01*
X202165183Y-61234169D01*
X202233628Y-61248207D01*
X202283617Y-61297021D01*
X202299500Y-61357739D01*
X202299500Y-65897001D01*
X202279815Y-65964040D01*
X202241473Y-66001994D01*
X202172740Y-66045182D01*
X202172737Y-66045184D01*
X202045184Y-66172737D01*
X201949211Y-66325476D01*
X201889631Y-66495745D01*
X201889630Y-66495750D01*
X201874500Y-66630039D01*
X201874500Y-68369960D01*
X201889630Y-68504249D01*
X201889631Y-68504254D01*
X201949211Y-68674523D01*
X202014065Y-68777736D01*
X202045184Y-68827262D01*
X202172738Y-68954816D01*
X202325478Y-69050789D01*
X202495745Y-69110368D01*
X202495750Y-69110369D01*
X202586246Y-69120565D01*
X202630040Y-69125499D01*
X202630043Y-69125500D01*
X202630046Y-69125500D01*
X204369957Y-69125500D01*
X204369958Y-69125499D01*
X204437104Y-69117934D01*
X204504249Y-69110369D01*
X204504252Y-69110368D01*
X204504255Y-69110368D01*
X204674522Y-69050789D01*
X204827262Y-68954816D01*
X204954816Y-68827262D01*
X205050789Y-68674522D01*
X205110368Y-68504255D01*
X205113757Y-68474182D01*
X205125499Y-68369960D01*
X205125500Y-68369956D01*
X205125500Y-66630043D01*
X205125499Y-66630039D01*
X205110369Y-66495750D01*
X205110368Y-66495745D01*
X205050789Y-66325478D01*
X204954816Y-66172738D01*
X204827262Y-66045184D01*
X204801832Y-66029205D01*
X204758527Y-66001994D01*
X204712236Y-65949659D01*
X204700500Y-65897001D01*
X204700500Y-59199145D01*
X204670940Y-59012513D01*
X204626531Y-58875838D01*
X204612547Y-58832800D01*
X204612545Y-58832797D01*
X204612545Y-58832795D01*
X204526759Y-58664432D01*
X204524375Y-58661151D01*
X204415690Y-58511559D01*
X204282073Y-58377942D01*
X202988442Y-57084310D01*
X202835567Y-56973240D01*
X202667204Y-56887454D01*
X202487486Y-56829059D01*
X202300854Y-56799500D01*
X202300849Y-56799500D01*
X199548626Y-56799500D01*
X199481587Y-56779815D01*
X199460945Y-56763181D01*
X199196819Y-56499055D01*
X199163334Y-56437732D01*
X199160500Y-56411374D01*
X199160500Y-54680043D01*
X199160499Y-54680039D01*
X199160263Y-54677948D01*
X199145368Y-54545745D01*
X199085789Y-54375478D01*
X198989816Y-54222738D01*
X198935998Y-54168920D01*
X199649499Y-54168920D01*
X199678340Y-54313907D01*
X199678343Y-54313917D01*
X199734912Y-54450488D01*
X199734919Y-54450501D01*
X199817048Y-54573415D01*
X199817051Y-54573419D01*
X199921580Y-54677948D01*
X199921584Y-54677951D01*
X200044498Y-54760080D01*
X200044511Y-54760087D01*
X200181082Y-54816656D01*
X200181087Y-54816658D01*
X200181091Y-54816658D01*
X200181092Y-54816659D01*
X200326079Y-54845500D01*
X200326082Y-54845500D01*
X200473920Y-54845500D01*
X200571462Y-54826096D01*
X200618913Y-54816658D01*
X200755495Y-54760084D01*
X200878416Y-54677951D01*
X200982951Y-54573416D01*
X201065084Y-54450495D01*
X201121658Y-54313913D01*
X201139794Y-54222738D01*
X201150500Y-54168920D01*
X201150500Y-54021079D01*
X201121659Y-53876092D01*
X201121658Y-53876091D01*
X201121658Y-53876087D01*
X201081901Y-53780104D01*
X201065087Y-53739511D01*
X201065080Y-53739498D01*
X200982951Y-53616584D01*
X200982948Y-53616580D01*
X200878419Y-53512051D01*
X200878415Y-53512048D01*
X200755501Y-53429919D01*
X200755488Y-53429912D01*
X200618917Y-53373343D01*
X200618907Y-53373340D01*
X200473920Y-53344500D01*
X200473918Y-53344500D01*
X200326082Y-53344500D01*
X200326080Y-53344500D01*
X200181092Y-53373340D01*
X200181082Y-53373343D01*
X200044511Y-53429912D01*
X200044498Y-53429919D01*
X199921584Y-53512048D01*
X199921580Y-53512051D01*
X199817051Y-53616580D01*
X199817048Y-53616584D01*
X199734919Y-53739498D01*
X199734912Y-53739511D01*
X199678343Y-53876082D01*
X199678340Y-53876092D01*
X199649500Y-54021079D01*
X199649500Y-54021082D01*
X199649500Y-54168918D01*
X199649500Y-54168920D01*
X199649499Y-54168920D01*
X198935998Y-54168920D01*
X198862262Y-54095184D01*
X198817799Y-54067246D01*
X198709524Y-53999212D01*
X198709520Y-53999210D01*
X198665261Y-53983723D01*
X198608485Y-53943001D01*
X198584599Y-53890872D01*
X198581658Y-53876087D01*
X198541901Y-53780104D01*
X198525087Y-53739511D01*
X198525080Y-53739498D01*
X198442951Y-53616584D01*
X198442948Y-53616580D01*
X198338419Y-53512051D01*
X198338415Y-53512048D01*
X198215501Y-53429919D01*
X198215488Y-53429912D01*
X198078917Y-53373343D01*
X198078907Y-53373340D01*
X197933920Y-53344500D01*
X197933918Y-53344500D01*
X197786082Y-53344500D01*
X197786080Y-53344500D01*
X197641092Y-53373340D01*
X197641082Y-53373343D01*
X197504511Y-53429912D01*
X197504498Y-53429919D01*
X197381584Y-53512048D01*
X197381580Y-53512051D01*
X197277051Y-53616580D01*
X197277048Y-53616584D01*
X197194919Y-53739498D01*
X197194912Y-53739511D01*
X197138342Y-53876084D01*
X197138340Y-53876093D01*
X197135398Y-53890880D01*
X197103010Y-53952789D01*
X197054739Y-53983723D01*
X197010474Y-53999212D01*
X196857737Y-54095184D01*
X196730182Y-54222739D01*
X196694993Y-54278743D01*
X196642658Y-54325033D01*
X196573605Y-54335681D01*
X196509757Y-54307306D01*
X196485007Y-54278743D01*
X196449817Y-54222739D01*
X196322262Y-54095184D01*
X196169524Y-53999212D01*
X196169520Y-53999210D01*
X196125261Y-53983723D01*
X196068485Y-53943001D01*
X196044599Y-53890872D01*
X196041658Y-53876087D01*
X196001901Y-53780104D01*
X195985087Y-53739511D01*
X195985080Y-53739498D01*
X195902951Y-53616584D01*
X195902948Y-53616580D01*
X195798419Y-53512051D01*
X195798415Y-53512048D01*
X195675501Y-53429919D01*
X195675488Y-53429912D01*
X195538917Y-53373343D01*
X195538907Y-53373340D01*
X195393920Y-53344500D01*
X195393918Y-53344500D01*
X195246082Y-53344500D01*
X195246080Y-53344500D01*
X195101092Y-53373340D01*
X195101082Y-53373343D01*
X194964511Y-53429912D01*
X194964498Y-53429919D01*
X194841584Y-53512048D01*
X194841580Y-53512051D01*
X194737051Y-53616580D01*
X194737048Y-53616584D01*
X194654919Y-53739498D01*
X194654912Y-53739511D01*
X194598342Y-53876084D01*
X194598340Y-53876093D01*
X194595398Y-53890880D01*
X194563010Y-53952789D01*
X194514739Y-53983723D01*
X194470474Y-53999212D01*
X194317737Y-54095184D01*
X194190182Y-54222739D01*
X194154993Y-54278743D01*
X194102658Y-54325033D01*
X194033605Y-54335681D01*
X193969757Y-54307306D01*
X193945007Y-54278743D01*
X193909817Y-54222739D01*
X193782262Y-54095184D01*
X193629524Y-53999212D01*
X193629520Y-53999210D01*
X193585261Y-53983723D01*
X193528485Y-53943001D01*
X193504599Y-53890872D01*
X193501658Y-53876087D01*
X193461901Y-53780104D01*
X193445087Y-53739511D01*
X193445080Y-53739498D01*
X193362951Y-53616584D01*
X193362948Y-53616580D01*
X193258419Y-53512051D01*
X193258415Y-53512048D01*
X193135501Y-53429919D01*
X193135488Y-53429912D01*
X192998917Y-53373343D01*
X192998907Y-53373340D01*
X192853920Y-53344500D01*
X192853918Y-53344500D01*
X192706082Y-53344500D01*
X192706080Y-53344500D01*
X192561092Y-53373340D01*
X192561082Y-53373343D01*
X192424511Y-53429912D01*
X192424498Y-53429919D01*
X192301584Y-53512048D01*
X192301580Y-53512051D01*
X192197051Y-53616580D01*
X192197048Y-53616584D01*
X192114919Y-53739498D01*
X192114912Y-53739511D01*
X192058343Y-53876082D01*
X192058341Y-53876088D01*
X192056148Y-53887116D01*
X192023761Y-53949026D01*
X191975487Y-53979962D01*
X191920476Y-53999211D01*
X191920475Y-53999212D01*
X191767737Y-54095184D01*
X191640184Y-54222737D01*
X191640179Y-54222743D01*
X191609993Y-54270785D01*
X191557659Y-54317076D01*
X191488605Y-54327724D01*
X191424757Y-54299349D01*
X191400007Y-54270785D01*
X191369820Y-54222743D01*
X191369815Y-54222737D01*
X191242262Y-54095184D01*
X191089524Y-53999212D01*
X191089520Y-53999210D01*
X191045261Y-53983723D01*
X190988485Y-53943001D01*
X190964599Y-53890872D01*
X190961658Y-53876087D01*
X190921901Y-53780104D01*
X190905087Y-53739511D01*
X190905080Y-53739498D01*
X190822951Y-53616584D01*
X190822948Y-53616580D01*
X190718419Y-53512051D01*
X190718415Y-53512048D01*
X190595501Y-53429919D01*
X190595488Y-53429912D01*
X190458917Y-53373343D01*
X190458907Y-53373340D01*
X190313920Y-53344500D01*
X190313918Y-53344500D01*
X190166082Y-53344500D01*
X190166080Y-53344500D01*
X190021092Y-53373340D01*
X190021082Y-53373343D01*
X189884511Y-53429912D01*
X189884498Y-53429919D01*
X189761584Y-53512048D01*
X189761580Y-53512051D01*
X189657051Y-53616580D01*
X189657048Y-53616584D01*
X189574919Y-53739498D01*
X189574912Y-53739511D01*
X189518342Y-53876084D01*
X189518340Y-53876093D01*
X189515398Y-53890880D01*
X189483010Y-53952789D01*
X189434739Y-53983723D01*
X189390474Y-53999212D01*
X189237737Y-54095184D01*
X189110182Y-54222739D01*
X189074993Y-54278743D01*
X189022658Y-54325033D01*
X188953605Y-54335681D01*
X188889757Y-54307306D01*
X188865007Y-54278743D01*
X188829817Y-54222739D01*
X188702262Y-54095184D01*
X188549524Y-53999212D01*
X188549520Y-53999210D01*
X188505261Y-53983723D01*
X188448485Y-53943001D01*
X188424599Y-53890872D01*
X188421658Y-53876087D01*
X188381901Y-53780104D01*
X188365087Y-53739511D01*
X188365080Y-53739498D01*
X188282951Y-53616584D01*
X188282948Y-53616580D01*
X188178419Y-53512051D01*
X188178415Y-53512048D01*
X188055501Y-53429919D01*
X188055488Y-53429912D01*
X187918917Y-53373343D01*
X187918907Y-53373340D01*
X187773920Y-53344500D01*
X187773918Y-53344500D01*
X187626082Y-53344500D01*
X187626080Y-53344500D01*
X187481092Y-53373340D01*
X187481082Y-53373343D01*
X187344511Y-53429912D01*
X187344498Y-53429919D01*
X187221584Y-53512048D01*
X187221580Y-53512051D01*
X187117051Y-53616580D01*
X187117048Y-53616584D01*
X187034919Y-53739498D01*
X187034912Y-53739511D01*
X186978342Y-53876084D01*
X186978340Y-53876093D01*
X186975398Y-53890880D01*
X186943010Y-53952789D01*
X186894739Y-53983723D01*
X186850474Y-53999212D01*
X186697737Y-54095184D01*
X186570182Y-54222739D01*
X186534993Y-54278743D01*
X186482658Y-54325033D01*
X186413605Y-54335681D01*
X186349757Y-54307306D01*
X186325007Y-54278743D01*
X186289817Y-54222739D01*
X186162262Y-54095184D01*
X186009524Y-53999212D01*
X186009520Y-53999210D01*
X185965261Y-53983723D01*
X185908485Y-53943001D01*
X185884599Y-53890872D01*
X185881658Y-53876087D01*
X185841901Y-53780104D01*
X185825087Y-53739511D01*
X185825080Y-53739498D01*
X185742951Y-53616584D01*
X185742948Y-53616580D01*
X185638419Y-53512051D01*
X185638415Y-53512048D01*
X185515501Y-53429919D01*
X185515488Y-53429912D01*
X185378917Y-53373343D01*
X185378907Y-53373340D01*
X185233920Y-53344500D01*
X185233918Y-53344500D01*
X185086082Y-53344500D01*
X185086080Y-53344500D01*
X184941092Y-53373340D01*
X184941082Y-53373343D01*
X184804511Y-53429912D01*
X184804498Y-53429919D01*
X184681584Y-53512048D01*
X184681580Y-53512051D01*
X184577051Y-53616580D01*
X184577048Y-53616584D01*
X184494919Y-53739498D01*
X184494912Y-53739511D01*
X184438342Y-53876084D01*
X184438340Y-53876093D01*
X184435398Y-53890880D01*
X184403010Y-53952789D01*
X184354739Y-53983723D01*
X184310474Y-53999212D01*
X184157737Y-54095184D01*
X184030184Y-54222737D01*
X183934211Y-54375476D01*
X183874631Y-54545745D01*
X183874630Y-54545750D01*
X183859500Y-54680039D01*
X183859500Y-56869960D01*
X183874630Y-57004249D01*
X183874631Y-57004254D01*
X183934211Y-57174523D01*
X184009411Y-57294202D01*
X184030184Y-57327262D01*
X184157738Y-57454816D01*
X184310478Y-57550789D01*
X184480739Y-57610366D01*
X184480745Y-57610368D01*
X184480750Y-57610369D01*
X184571246Y-57620565D01*
X184615040Y-57625499D01*
X184615043Y-57625500D01*
X185627373Y-57625500D01*
X185694412Y-57645185D01*
X185740167Y-57697989D01*
X185750111Y-57767147D01*
X185721086Y-57830703D01*
X185715054Y-57837181D01*
X185289055Y-58263181D01*
X185262127Y-58277884D01*
X185236309Y-58294477D01*
X185230108Y-58295368D01*
X185227732Y-58296666D01*
X185201374Y-58299500D01*
X185110878Y-58299500D01*
X185043839Y-58279815D01*
X185037993Y-58275818D01*
X184838848Y-58131132D01*
X184838847Y-58131131D01*
X184838845Y-58131130D01*
X184753842Y-58087819D01*
X184614383Y-58016760D01*
X184374785Y-57938910D01*
X184374779Y-57938909D01*
X184125962Y-57899500D01*
X183874038Y-57899500D01*
X183749626Y-57919205D01*
X183625214Y-57938910D01*
X183385616Y-58016760D01*
X183161151Y-58131132D01*
X182957350Y-58279201D01*
X182957345Y-58279205D01*
X182779205Y-58457345D01*
X182779201Y-58457350D01*
X182631132Y-58661151D01*
X182516760Y-58885616D01*
X182438910Y-59125214D01*
X182399500Y-59374038D01*
X182399500Y-59625961D01*
X182438910Y-59874785D01*
X182516760Y-60114383D01*
X182554134Y-60187732D01*
X182617317Y-60311736D01*
X182631132Y-60338848D01*
X182779201Y-60542649D01*
X182779205Y-60542654D01*
X182957345Y-60720794D01*
X182957350Y-60720798D01*
X183135117Y-60849952D01*
X183161155Y-60868870D01*
X183235562Y-60906782D01*
X183385616Y-60983239D01*
X183385618Y-60983239D01*
X183385621Y-60983241D01*
X183625215Y-61061090D01*
X183874038Y-61100500D01*
X183874039Y-61100500D01*
X184125961Y-61100500D01*
X184125962Y-61100500D01*
X184374785Y-61061090D01*
X184614379Y-60983241D01*
X184838845Y-60868870D01*
X184922168Y-60808331D01*
X185037993Y-60724182D01*
X185103799Y-60700702D01*
X185110878Y-60700500D01*
X185844486Y-60700500D01*
X186031118Y-60670940D01*
X186210832Y-60612547D01*
X186379199Y-60526760D01*
X186532074Y-60415690D01*
X188615690Y-58332074D01*
X188726760Y-58179199D01*
X188805015Y-58025613D01*
X188852989Y-57974818D01*
X188920810Y-57958023D01*
X188986945Y-57980560D01*
X189030397Y-58035275D01*
X189039500Y-58081909D01*
X189039500Y-62090946D01*
X189019815Y-62157985D01*
X188988386Y-62191264D01*
X188867342Y-62279208D01*
X188689205Y-62457345D01*
X188689201Y-62457350D01*
X188541132Y-62661151D01*
X188426760Y-62885616D01*
X188348910Y-63125214D01*
X188309500Y-63374038D01*
X188309500Y-63625961D01*
X188348910Y-63874785D01*
X188426760Y-64114382D01*
X188429217Y-64119203D01*
X188442114Y-64187872D01*
X188415839Y-64252613D01*
X188358733Y-64292871D01*
X188318733Y-64299500D01*
X177798626Y-64299500D01*
X177731587Y-64279815D01*
X177710945Y-64263181D01*
X176911819Y-63464055D01*
X176878334Y-63402732D01*
X176875500Y-63376374D01*
X176875500Y-62630043D01*
X176875499Y-62630039D01*
X176860369Y-62495750D01*
X176860368Y-62495745D01*
X176800788Y-62325476D01*
X176738918Y-62227011D01*
X176704816Y-62172738D01*
X176577262Y-62045184D01*
X176507617Y-62001423D01*
X176424523Y-61949211D01*
X176254254Y-61889631D01*
X176254249Y-61889630D01*
X176119960Y-61874500D01*
X176119954Y-61874500D01*
X175373625Y-61874500D01*
X175306586Y-61854815D01*
X175285944Y-61838181D01*
X173696819Y-60249055D01*
X173663334Y-60187732D01*
X173660500Y-60161374D01*
X173660500Y-57416940D01*
X173680185Y-57349901D01*
X173732989Y-57304146D01*
X173802147Y-57294202D01*
X173865703Y-57323227D01*
X173872181Y-57329259D01*
X173997738Y-57454816D01*
X174150478Y-57550789D01*
X174320739Y-57610366D01*
X174320745Y-57610368D01*
X174320750Y-57610369D01*
X174411246Y-57620565D01*
X174455040Y-57625499D01*
X174455043Y-57625500D01*
X174455046Y-57625500D01*
X175544957Y-57625500D01*
X175544958Y-57625499D01*
X175612104Y-57617934D01*
X175679249Y-57610369D01*
X175679252Y-57610368D01*
X175679255Y-57610368D01*
X175849522Y-57550789D01*
X176002262Y-57454816D01*
X176129816Y-57327262D01*
X176165006Y-57271256D01*
X176217341Y-57224966D01*
X176286394Y-57214318D01*
X176350243Y-57242693D01*
X176374992Y-57271255D01*
X176410184Y-57327262D01*
X176537738Y-57454816D01*
X176690478Y-57550789D01*
X176860739Y-57610366D01*
X176860745Y-57610368D01*
X176860750Y-57610369D01*
X176951246Y-57620565D01*
X176995040Y-57625499D01*
X176995043Y-57625500D01*
X176995046Y-57625500D01*
X178084957Y-57625500D01*
X178084958Y-57625499D01*
X178152104Y-57617934D01*
X178219249Y-57610369D01*
X178219252Y-57610368D01*
X178219255Y-57610368D01*
X178389522Y-57550789D01*
X178542262Y-57454816D01*
X178669816Y-57327262D01*
X178705006Y-57271256D01*
X178757341Y-57224966D01*
X178826394Y-57214318D01*
X178890243Y-57242693D01*
X178914992Y-57271255D01*
X178950184Y-57327262D01*
X179077738Y-57454816D01*
X179230478Y-57550789D01*
X179400739Y-57610366D01*
X179400745Y-57610368D01*
X179400750Y-57610369D01*
X179491246Y-57620565D01*
X179535040Y-57625499D01*
X179535043Y-57625500D01*
X179535046Y-57625500D01*
X180624957Y-57625500D01*
X180624958Y-57625499D01*
X180692104Y-57617934D01*
X180759249Y-57610369D01*
X180759252Y-57610368D01*
X180759255Y-57610368D01*
X180929522Y-57550789D01*
X181082262Y-57454816D01*
X181209816Y-57327262D01*
X181305789Y-57174522D01*
X181365368Y-57004255D01*
X181380500Y-56869954D01*
X181380500Y-54680046D01*
X181365368Y-54545745D01*
X181305789Y-54375478D01*
X181209816Y-54222738D01*
X181155998Y-54168920D01*
X181869499Y-54168920D01*
X181898340Y-54313907D01*
X181898343Y-54313917D01*
X181954912Y-54450488D01*
X181954919Y-54450501D01*
X182037048Y-54573415D01*
X182037051Y-54573419D01*
X182141580Y-54677948D01*
X182141584Y-54677951D01*
X182264498Y-54760080D01*
X182264511Y-54760087D01*
X182401082Y-54816656D01*
X182401087Y-54816658D01*
X182401091Y-54816658D01*
X182401092Y-54816659D01*
X182546079Y-54845500D01*
X182546082Y-54845500D01*
X182693920Y-54845500D01*
X182791462Y-54826096D01*
X182838913Y-54816658D01*
X182975495Y-54760084D01*
X183098416Y-54677951D01*
X183202951Y-54573416D01*
X183285084Y-54450495D01*
X183341658Y-54313913D01*
X183359794Y-54222738D01*
X183370500Y-54168920D01*
X183370500Y-54021079D01*
X183341659Y-53876092D01*
X183341658Y-53876091D01*
X183341658Y-53876087D01*
X183301901Y-53780104D01*
X183285087Y-53739511D01*
X183285080Y-53739498D01*
X183202951Y-53616584D01*
X183202948Y-53616580D01*
X183098419Y-53512051D01*
X183098415Y-53512048D01*
X182975501Y-53429919D01*
X182975488Y-53429912D01*
X182838917Y-53373343D01*
X182838907Y-53373340D01*
X182693920Y-53344500D01*
X182693918Y-53344500D01*
X182546082Y-53344500D01*
X182546080Y-53344500D01*
X182401092Y-53373340D01*
X182401082Y-53373343D01*
X182264511Y-53429912D01*
X182264498Y-53429919D01*
X182141584Y-53512048D01*
X182141580Y-53512051D01*
X182037051Y-53616580D01*
X182037048Y-53616584D01*
X181954919Y-53739498D01*
X181954912Y-53739511D01*
X181898343Y-53876082D01*
X181898340Y-53876092D01*
X181869500Y-54021079D01*
X181869500Y-54021082D01*
X181869500Y-54168918D01*
X181869500Y-54168920D01*
X181869499Y-54168920D01*
X181155998Y-54168920D01*
X181082262Y-54095184D01*
X181037799Y-54067246D01*
X180929524Y-53999212D01*
X180929520Y-53999210D01*
X180885261Y-53983723D01*
X180828485Y-53943001D01*
X180804599Y-53890872D01*
X180801658Y-53876087D01*
X180761901Y-53780104D01*
X180745087Y-53739511D01*
X180745080Y-53739498D01*
X180662951Y-53616584D01*
X180662948Y-53616580D01*
X180558419Y-53512051D01*
X180558415Y-53512048D01*
X180435501Y-53429919D01*
X180435488Y-53429912D01*
X180298917Y-53373343D01*
X180298907Y-53373340D01*
X180153920Y-53344500D01*
X180153918Y-53344500D01*
X180006082Y-53344500D01*
X180006080Y-53344500D01*
X179861092Y-53373340D01*
X179861082Y-53373343D01*
X179724511Y-53429912D01*
X179724498Y-53429919D01*
X179601584Y-53512048D01*
X179601580Y-53512051D01*
X179497051Y-53616580D01*
X179497048Y-53616584D01*
X179414919Y-53739498D01*
X179414912Y-53739511D01*
X179358342Y-53876084D01*
X179358340Y-53876093D01*
X179355398Y-53890880D01*
X179323010Y-53952789D01*
X179274739Y-53983723D01*
X179230474Y-53999212D01*
X179077737Y-54095184D01*
X178950182Y-54222739D01*
X178914993Y-54278743D01*
X178862658Y-54325033D01*
X178793605Y-54335681D01*
X178729757Y-54307306D01*
X178705007Y-54278743D01*
X178669817Y-54222739D01*
X178542262Y-54095184D01*
X178389524Y-53999212D01*
X178389520Y-53999210D01*
X178345261Y-53983723D01*
X178288485Y-53943001D01*
X178264599Y-53890872D01*
X178261658Y-53876087D01*
X178221901Y-53780104D01*
X178205087Y-53739511D01*
X178205080Y-53739498D01*
X178122951Y-53616584D01*
X178122948Y-53616580D01*
X178018419Y-53512051D01*
X178018415Y-53512048D01*
X177895501Y-53429919D01*
X177895488Y-53429912D01*
X177758917Y-53373343D01*
X177758907Y-53373340D01*
X177613920Y-53344500D01*
X177613918Y-53344500D01*
X177466082Y-53344500D01*
X177466080Y-53344500D01*
X177321092Y-53373340D01*
X177321082Y-53373343D01*
X177184511Y-53429912D01*
X177184498Y-53429919D01*
X177061584Y-53512048D01*
X177061580Y-53512051D01*
X176957051Y-53616580D01*
X176957048Y-53616584D01*
X176874919Y-53739498D01*
X176874912Y-53739511D01*
X176818342Y-53876084D01*
X176818340Y-53876093D01*
X176815398Y-53890880D01*
X176783010Y-53952789D01*
X176734739Y-53983723D01*
X176690474Y-53999212D01*
X176537737Y-54095184D01*
X176410182Y-54222739D01*
X176374993Y-54278743D01*
X176322658Y-54325033D01*
X176253605Y-54335681D01*
X176189757Y-54307306D01*
X176165007Y-54278743D01*
X176129817Y-54222739D01*
X176002262Y-54095184D01*
X175849524Y-53999212D01*
X175849520Y-53999210D01*
X175805261Y-53983723D01*
X175748485Y-53943001D01*
X175724599Y-53890872D01*
X175721658Y-53876087D01*
X175681901Y-53780104D01*
X175665087Y-53739511D01*
X175665080Y-53739498D01*
X175582951Y-53616584D01*
X175582948Y-53616580D01*
X175478419Y-53512051D01*
X175478415Y-53512048D01*
X175355501Y-53429919D01*
X175355488Y-53429912D01*
X175218917Y-53373343D01*
X175218907Y-53373340D01*
X175073920Y-53344500D01*
X175073918Y-53344500D01*
X174926082Y-53344500D01*
X174926080Y-53344500D01*
X174781092Y-53373340D01*
X174781082Y-53373343D01*
X174644511Y-53429912D01*
X174644498Y-53429919D01*
X174521584Y-53512048D01*
X174521580Y-53512051D01*
X174417051Y-53616580D01*
X174417048Y-53616584D01*
X174334919Y-53739498D01*
X174334912Y-53739511D01*
X174278342Y-53876084D01*
X174278340Y-53876093D01*
X174275398Y-53890880D01*
X174243010Y-53952789D01*
X174194739Y-53983723D01*
X174150474Y-53999212D01*
X173997737Y-54095184D01*
X173870182Y-54222739D01*
X173834993Y-54278743D01*
X173782658Y-54325033D01*
X173713605Y-54335681D01*
X173649757Y-54307306D01*
X173625007Y-54278743D01*
X173589817Y-54222739D01*
X173462262Y-54095184D01*
X173309524Y-53999212D01*
X173309520Y-53999210D01*
X173265261Y-53983723D01*
X173208485Y-53943001D01*
X173184599Y-53890872D01*
X173181658Y-53876087D01*
X173141901Y-53780104D01*
X173125087Y-53739511D01*
X173125080Y-53739498D01*
X173042951Y-53616584D01*
X173042948Y-53616580D01*
X172938419Y-53512051D01*
X172938415Y-53512048D01*
X172815501Y-53429919D01*
X172815488Y-53429912D01*
X172678917Y-53373343D01*
X172678907Y-53373340D01*
X172533920Y-53344500D01*
X172533918Y-53344500D01*
X172386082Y-53344500D01*
X172386080Y-53344500D01*
X172241092Y-53373340D01*
X172241082Y-53373343D01*
X172104511Y-53429912D01*
X172104498Y-53429919D01*
X171981584Y-53512048D01*
X171981580Y-53512051D01*
X171877051Y-53616580D01*
X171877048Y-53616584D01*
X171794919Y-53739498D01*
X171794912Y-53739511D01*
X171738342Y-53876084D01*
X171738340Y-53876093D01*
X171735398Y-53890880D01*
X171703010Y-53952789D01*
X171654739Y-53983723D01*
X171610474Y-53999212D01*
X171457737Y-54095184D01*
X171330182Y-54222739D01*
X171294993Y-54278743D01*
X171242658Y-54325033D01*
X171173605Y-54335681D01*
X171109757Y-54307306D01*
X171085007Y-54278743D01*
X171049817Y-54222739D01*
X170922262Y-54095184D01*
X170769524Y-53999212D01*
X170769520Y-53999210D01*
X170725261Y-53983723D01*
X170668485Y-53943001D01*
X170644599Y-53890872D01*
X170641658Y-53876087D01*
X170601901Y-53780104D01*
X170585087Y-53739511D01*
X170585080Y-53739498D01*
X170502951Y-53616584D01*
X170502948Y-53616580D01*
X170398419Y-53512051D01*
X170398415Y-53512048D01*
X170275501Y-53429919D01*
X170275488Y-53429912D01*
X170138917Y-53373343D01*
X170138907Y-53373340D01*
X169993920Y-53344500D01*
X169993918Y-53344500D01*
X169846082Y-53344500D01*
X169846080Y-53344500D01*
X169701092Y-53373340D01*
X169701082Y-53373343D01*
X169564511Y-53429912D01*
X169564498Y-53429919D01*
X169441584Y-53512048D01*
X169441580Y-53512051D01*
X169337051Y-53616580D01*
X169337048Y-53616584D01*
X169254919Y-53739498D01*
X169254912Y-53739511D01*
X169198342Y-53876084D01*
X169198340Y-53876093D01*
X169195398Y-53890880D01*
X169163010Y-53952789D01*
X169114739Y-53983723D01*
X169070474Y-53999212D01*
X168917737Y-54095184D01*
X168790182Y-54222739D01*
X168754993Y-54278743D01*
X168702658Y-54325033D01*
X168633605Y-54335681D01*
X168569757Y-54307306D01*
X168545007Y-54278743D01*
X168509817Y-54222739D01*
X168382262Y-54095184D01*
X168229524Y-53999212D01*
X168229520Y-53999210D01*
X168185261Y-53983723D01*
X168128485Y-53943001D01*
X168104599Y-53890872D01*
X168101658Y-53876087D01*
X168061901Y-53780104D01*
X168045087Y-53739511D01*
X168045080Y-53739498D01*
X167962951Y-53616584D01*
X167962948Y-53616580D01*
X167858419Y-53512051D01*
X167858415Y-53512048D01*
X167735501Y-53429919D01*
X167735488Y-53429912D01*
X167598917Y-53373343D01*
X167598907Y-53373340D01*
X167453920Y-53344500D01*
X167453918Y-53344500D01*
X167306082Y-53344500D01*
X167306080Y-53344500D01*
X167161092Y-53373340D01*
X167161082Y-53373343D01*
X167024511Y-53429912D01*
X167024498Y-53429919D01*
X166901584Y-53512048D01*
X166901580Y-53512051D01*
X166797051Y-53616580D01*
X166797048Y-53616584D01*
X166714919Y-53739498D01*
X166714912Y-53739511D01*
X166658342Y-53876084D01*
X166658340Y-53876093D01*
X166655398Y-53890880D01*
X166623010Y-53952789D01*
X166574739Y-53983723D01*
X166530474Y-53999212D01*
X166377737Y-54095184D01*
X166250182Y-54222739D01*
X166214993Y-54278743D01*
X166162658Y-54325033D01*
X166093605Y-54335681D01*
X166029757Y-54307306D01*
X166005007Y-54278743D01*
X165969817Y-54222739D01*
X165842262Y-54095184D01*
X165689524Y-53999212D01*
X165689520Y-53999210D01*
X165645261Y-53983723D01*
X165588485Y-53943001D01*
X165564599Y-53890872D01*
X165561658Y-53876087D01*
X165521901Y-53780104D01*
X165505087Y-53739511D01*
X165505080Y-53739498D01*
X165422951Y-53616584D01*
X165422948Y-53616580D01*
X165318419Y-53512051D01*
X165318415Y-53512048D01*
X165195501Y-53429919D01*
X165195488Y-53429912D01*
X165058917Y-53373343D01*
X165058907Y-53373340D01*
X164913920Y-53344500D01*
X164913918Y-53344500D01*
X164766082Y-53344500D01*
X164766080Y-53344500D01*
X164621092Y-53373340D01*
X164621082Y-53373343D01*
X164484511Y-53429912D01*
X164484498Y-53429919D01*
X164361584Y-53512048D01*
X164361580Y-53512051D01*
X164257051Y-53616580D01*
X164257048Y-53616584D01*
X164174919Y-53739498D01*
X164174912Y-53739511D01*
X164118342Y-53876084D01*
X164118340Y-53876093D01*
X164115398Y-53890880D01*
X164083010Y-53952789D01*
X164034739Y-53983723D01*
X163990474Y-53999212D01*
X163837737Y-54095184D01*
X163710184Y-54222737D01*
X163614211Y-54375476D01*
X163554631Y-54545745D01*
X163554630Y-54545750D01*
X163539500Y-54680039D01*
X163539500Y-56869960D01*
X163554630Y-57004249D01*
X163554631Y-57004254D01*
X163614212Y-57174525D01*
X163620492Y-57184519D01*
X163639500Y-57250493D01*
X163639500Y-58934486D01*
X163669059Y-59121118D01*
X163727454Y-59300836D01*
X163764753Y-59374038D01*
X163813240Y-59469199D01*
X163924310Y-59622074D01*
X163924312Y-59622076D01*
X171615610Y-67313374D01*
X171649095Y-67374697D01*
X171650402Y-67381657D01*
X171688909Y-67624785D01*
X171766760Y-67864383D01*
X171845413Y-68018747D01*
X171875228Y-68077262D01*
X171881132Y-68088848D01*
X172029201Y-68292649D01*
X172029205Y-68292654D01*
X172207345Y-68470794D01*
X172207350Y-68470798D01*
X172339616Y-68566894D01*
X172411155Y-68618870D01*
X172554184Y-68691747D01*
X172635616Y-68733239D01*
X172635618Y-68733239D01*
X172635621Y-68733241D01*
X172875215Y-68811090D01*
X173124038Y-68850500D01*
X173124039Y-68850500D01*
X173375961Y-68850500D01*
X173375962Y-68850500D01*
X173624785Y-68811090D01*
X173864379Y-68733241D01*
X174088845Y-68618870D01*
X174292656Y-68470793D01*
X174470793Y-68292656D01*
X174618870Y-68088845D01*
X174733241Y-67864379D01*
X174811090Y-67624785D01*
X174850500Y-67375962D01*
X174850500Y-67124038D01*
X174811090Y-66875215D01*
X174733241Y-66635621D01*
X174733239Y-66635618D01*
X174733239Y-66635616D01*
X174691747Y-66554184D01*
X174618870Y-66411155D01*
X174556621Y-66325476D01*
X174470798Y-66207350D01*
X174470794Y-66207345D01*
X174292654Y-66029205D01*
X174292649Y-66029201D01*
X174088848Y-65881132D01*
X174088847Y-65881131D01*
X174088845Y-65881130D01*
X174018747Y-65845413D01*
X173864383Y-65766760D01*
X173624785Y-65688909D01*
X173381657Y-65650402D01*
X173318522Y-65620473D01*
X173313374Y-65615610D01*
X173002821Y-65305057D01*
X172969336Y-65243734D01*
X172974320Y-65174042D01*
X173016192Y-65118109D01*
X173071099Y-65094904D01*
X173130639Y-65085474D01*
X173373975Y-65006410D01*
X173601947Y-64890252D01*
X173664672Y-64844679D01*
X173730476Y-64821199D01*
X173798530Y-64837024D01*
X173825238Y-64857316D01*
X173922738Y-64954816D01*
X174075478Y-65050789D01*
X174174602Y-65085474D01*
X174245745Y-65110368D01*
X174245750Y-65110369D01*
X174336246Y-65120565D01*
X174380040Y-65125499D01*
X174380043Y-65125500D01*
X174380046Y-65125500D01*
X175126374Y-65125500D01*
X175193413Y-65145185D01*
X175214055Y-65161819D01*
X176467926Y-66415690D01*
X176620801Y-66526760D01*
X176789168Y-66612547D01*
X176968882Y-66670940D01*
X177038870Y-66682025D01*
X177155513Y-66700500D01*
X177155518Y-66700500D01*
X177155519Y-66700500D01*
X177675500Y-66700500D01*
X177742539Y-66720185D01*
X177788294Y-66772989D01*
X177799500Y-66824500D01*
X177799500Y-75344486D01*
X177829059Y-75531118D01*
X177887454Y-75710836D01*
X177973240Y-75879199D01*
X178084310Y-76032074D01*
X178084312Y-76032076D01*
X180175759Y-78123523D01*
X180209244Y-78184846D01*
X180210551Y-78191805D01*
X180237678Y-78363073D01*
X180313097Y-78595187D01*
X180423896Y-78812642D01*
X180567339Y-79010076D01*
X180567343Y-79010081D01*
X180645081Y-79087819D01*
X180678566Y-79149142D01*
X180673582Y-79218834D01*
X180631710Y-79274767D01*
X180566246Y-79299184D01*
X180557400Y-79299500D01*
X172417600Y-79299500D01*
X172350561Y-79279815D01*
X172304806Y-79227011D01*
X172294862Y-79157853D01*
X172323887Y-79094297D01*
X172329919Y-79087819D01*
X172407655Y-79010083D01*
X172551106Y-78812639D01*
X172661904Y-78595185D01*
X172737321Y-78363076D01*
X172775500Y-78122027D01*
X172775500Y-77877973D01*
X172737321Y-77636924D01*
X172661904Y-77404815D01*
X172551106Y-77187361D01*
X172532779Y-77162136D01*
X172407660Y-76989923D01*
X172407656Y-76989918D01*
X172235081Y-76817343D01*
X172235076Y-76817339D01*
X172037642Y-76673896D01*
X172037641Y-76673895D01*
X172037639Y-76673894D01*
X171820185Y-76563096D01*
X171588076Y-76487679D01*
X171588074Y-76487678D01*
X171416805Y-76460551D01*
X171353671Y-76430621D01*
X171348523Y-76425759D01*
X163736819Y-68814055D01*
X163703334Y-68752732D01*
X163700500Y-68726374D01*
X163700500Y-64405520D01*
X163696130Y-64377930D01*
X163696130Y-64377928D01*
X163670940Y-64218882D01*
X163670940Y-64218881D01*
X163612545Y-64039163D01*
X163567290Y-63950347D01*
X163526760Y-63870801D01*
X163415690Y-63717926D01*
X160996819Y-61299055D01*
X160963334Y-61237732D01*
X160960500Y-61211374D01*
X160960500Y-57250493D01*
X160979508Y-57184519D01*
X160985787Y-57174525D01*
X160985788Y-57174523D01*
X160985789Y-57174522D01*
X161045368Y-57004255D01*
X161060500Y-56869954D01*
X161060500Y-54680046D01*
X161045368Y-54545745D01*
X160985789Y-54375478D01*
X160889816Y-54222738D01*
X160835998Y-54168920D01*
X161549499Y-54168920D01*
X161578340Y-54313907D01*
X161578343Y-54313917D01*
X161634912Y-54450488D01*
X161634919Y-54450501D01*
X161717048Y-54573415D01*
X161717051Y-54573419D01*
X161821580Y-54677948D01*
X161821584Y-54677951D01*
X161944498Y-54760080D01*
X161944511Y-54760087D01*
X162081082Y-54816656D01*
X162081087Y-54816658D01*
X162081091Y-54816658D01*
X162081092Y-54816659D01*
X162226079Y-54845500D01*
X162226082Y-54845500D01*
X162373920Y-54845500D01*
X162471462Y-54826096D01*
X162518913Y-54816658D01*
X162655495Y-54760084D01*
X162778416Y-54677951D01*
X162882951Y-54573416D01*
X162965084Y-54450495D01*
X163021658Y-54313913D01*
X163039794Y-54222738D01*
X163050500Y-54168920D01*
X163050500Y-54021079D01*
X163021659Y-53876092D01*
X163021658Y-53876091D01*
X163021658Y-53876087D01*
X162981901Y-53780104D01*
X162965087Y-53739511D01*
X162965080Y-53739498D01*
X162882951Y-53616584D01*
X162882948Y-53616580D01*
X162778419Y-53512051D01*
X162778415Y-53512048D01*
X162655501Y-53429919D01*
X162655488Y-53429912D01*
X162518917Y-53373343D01*
X162518907Y-53373340D01*
X162373920Y-53344500D01*
X162373918Y-53344500D01*
X162226082Y-53344500D01*
X162226080Y-53344500D01*
X162081092Y-53373340D01*
X162081082Y-53373343D01*
X161944511Y-53429912D01*
X161944498Y-53429919D01*
X161821584Y-53512048D01*
X161821580Y-53512051D01*
X161717051Y-53616580D01*
X161717048Y-53616584D01*
X161634919Y-53739498D01*
X161634912Y-53739511D01*
X161578343Y-53876082D01*
X161578340Y-53876092D01*
X161549500Y-54021079D01*
X161549500Y-54021082D01*
X161549500Y-54168918D01*
X161549500Y-54168920D01*
X161549499Y-54168920D01*
X160835998Y-54168920D01*
X160762262Y-54095184D01*
X160717799Y-54067246D01*
X160609524Y-53999212D01*
X160609520Y-53999210D01*
X160565261Y-53983723D01*
X160508485Y-53943001D01*
X160484599Y-53890872D01*
X160481658Y-53876087D01*
X160441901Y-53780104D01*
X160425087Y-53739511D01*
X160425080Y-53739498D01*
X160342951Y-53616584D01*
X160342948Y-53616580D01*
X160238419Y-53512051D01*
X160238415Y-53512048D01*
X160115501Y-53429919D01*
X160115488Y-53429912D01*
X159978917Y-53373343D01*
X159978907Y-53373340D01*
X159833920Y-53344500D01*
X159833918Y-53344500D01*
X159686082Y-53344500D01*
X159686080Y-53344500D01*
X159541092Y-53373340D01*
X159541082Y-53373343D01*
X159404511Y-53429912D01*
X159404498Y-53429919D01*
X159281584Y-53512048D01*
X159281580Y-53512051D01*
X159177051Y-53616580D01*
X159177048Y-53616584D01*
X159094919Y-53739498D01*
X159094912Y-53739511D01*
X159038342Y-53876084D01*
X159038339Y-53876096D01*
X159034650Y-53894639D01*
X159002263Y-53956549D01*
X158953991Y-53987484D01*
X158920475Y-53999212D01*
X158767737Y-54095184D01*
X158640184Y-54222737D01*
X158599994Y-54286700D01*
X158547659Y-54332991D01*
X158478605Y-54343639D01*
X158414757Y-54315264D01*
X158390006Y-54286700D01*
X158349819Y-54222743D01*
X158349816Y-54222738D01*
X158222262Y-54095184D01*
X158177799Y-54067246D01*
X158069524Y-53999212D01*
X158069520Y-53999210D01*
X158025261Y-53983723D01*
X157968485Y-53943001D01*
X157944599Y-53890872D01*
X157941658Y-53876087D01*
X157901901Y-53780104D01*
X157885087Y-53739511D01*
X157885080Y-53739498D01*
X157802951Y-53616584D01*
X157802948Y-53616580D01*
X157698419Y-53512051D01*
X157698415Y-53512048D01*
X157575501Y-53429919D01*
X157575488Y-53429912D01*
X157438917Y-53373343D01*
X157438907Y-53373340D01*
X157293920Y-53344500D01*
X157293918Y-53344500D01*
X157146082Y-53344500D01*
X157146080Y-53344500D01*
X157001092Y-53373340D01*
X157001082Y-53373343D01*
X156864511Y-53429912D01*
X156864498Y-53429919D01*
X156741584Y-53512048D01*
X156741580Y-53512051D01*
X156637051Y-53616580D01*
X156637048Y-53616584D01*
X156554919Y-53739498D01*
X156554912Y-53739511D01*
X156498342Y-53876084D01*
X156498340Y-53876090D01*
X156491575Y-53910103D01*
X156459189Y-53972013D01*
X156423770Y-53997625D01*
X156420484Y-53999207D01*
X156267737Y-54095184D01*
X156140182Y-54222739D01*
X156079993Y-54318530D01*
X156027659Y-54364820D01*
X155958605Y-54375468D01*
X155894757Y-54347093D01*
X155870007Y-54318530D01*
X155809817Y-54222739D01*
X155682262Y-54095184D01*
X155529524Y-53999212D01*
X155529520Y-53999210D01*
X155485261Y-53983723D01*
X155428485Y-53943001D01*
X155404599Y-53890872D01*
X155401658Y-53876087D01*
X155361901Y-53780104D01*
X155345087Y-53739511D01*
X155345080Y-53739498D01*
X155262951Y-53616584D01*
X155262948Y-53616580D01*
X155158419Y-53512051D01*
X155158415Y-53512048D01*
X155035501Y-53429919D01*
X155035488Y-53429912D01*
X154898917Y-53373343D01*
X154898907Y-53373340D01*
X154753920Y-53344500D01*
X154753918Y-53344500D01*
X154606082Y-53344500D01*
X154606080Y-53344500D01*
X154461092Y-53373340D01*
X154461082Y-53373343D01*
X154324511Y-53429912D01*
X154324498Y-53429919D01*
X154201584Y-53512048D01*
X154201580Y-53512051D01*
X154097051Y-53616580D01*
X154097048Y-53616584D01*
X154014919Y-53739498D01*
X154014912Y-53739511D01*
X153958342Y-53876084D01*
X153958340Y-53876093D01*
X153955398Y-53890880D01*
X153923010Y-53952789D01*
X153874739Y-53983723D01*
X153830474Y-53999212D01*
X153677737Y-54095184D01*
X153550182Y-54222739D01*
X153514993Y-54278743D01*
X153462658Y-54325033D01*
X153393605Y-54335681D01*
X153329757Y-54307306D01*
X153305007Y-54278743D01*
X153269817Y-54222739D01*
X153142262Y-54095184D01*
X152989524Y-53999212D01*
X152989520Y-53999210D01*
X152945261Y-53983723D01*
X152888485Y-53943001D01*
X152864599Y-53890872D01*
X152861658Y-53876087D01*
X152821901Y-53780104D01*
X152805087Y-53739511D01*
X152805080Y-53739498D01*
X152722951Y-53616584D01*
X152722948Y-53616580D01*
X152618419Y-53512051D01*
X152618415Y-53512048D01*
X152495501Y-53429919D01*
X152495488Y-53429912D01*
X152358917Y-53373343D01*
X152358907Y-53373340D01*
X152213920Y-53344500D01*
X152213918Y-53344500D01*
X152066082Y-53344500D01*
X152066080Y-53344500D01*
X151921092Y-53373340D01*
X151921086Y-53373342D01*
X151871951Y-53393694D01*
X151802481Y-53401161D01*
X151740003Y-53369885D01*
X151704351Y-53309796D01*
X151700500Y-53279132D01*
X151700500Y-52643713D01*
X203399500Y-52643713D01*
X203399500Y-52856286D01*
X203432753Y-53066239D01*
X203498444Y-53268414D01*
X203594951Y-53457820D01*
X203719890Y-53629786D01*
X203870213Y-53780109D01*
X204042179Y-53905048D01*
X204042181Y-53905049D01*
X204042184Y-53905051D01*
X204231588Y-54001557D01*
X204433757Y-54067246D01*
X204643713Y-54100500D01*
X204643714Y-54100500D01*
X204856286Y-54100500D01*
X204856287Y-54100500D01*
X205066243Y-54067246D01*
X205268412Y-54001557D01*
X205457816Y-53905051D01*
X205482502Y-53887116D01*
X205629786Y-53780109D01*
X205629788Y-53780106D01*
X205629792Y-53780104D01*
X205780104Y-53629792D01*
X205780106Y-53629788D01*
X205780109Y-53629786D01*
X205905048Y-53457820D01*
X205905047Y-53457820D01*
X205905051Y-53457816D01*
X206001557Y-53268412D01*
X206067246Y-53066243D01*
X206100500Y-52856287D01*
X206100500Y-52643713D01*
X206067246Y-52433757D01*
X206001557Y-52231588D01*
X205905051Y-52042184D01*
X205905049Y-52042181D01*
X205905048Y-52042179D01*
X205780109Y-51870213D01*
X205629786Y-51719890D01*
X205457820Y-51594951D01*
X205268414Y-51498444D01*
X205268413Y-51498443D01*
X205268412Y-51498443D01*
X205066243Y-51432754D01*
X205066241Y-51432753D01*
X205066240Y-51432753D01*
X204904957Y-51407208D01*
X204856287Y-51399500D01*
X204643713Y-51399500D01*
X204595042Y-51407208D01*
X204433760Y-51432753D01*
X204231585Y-51498444D01*
X204042179Y-51594951D01*
X203870213Y-51719890D01*
X203719890Y-51870213D01*
X203594951Y-52042179D01*
X203498444Y-52231585D01*
X203432753Y-52433760D01*
X203399500Y-52643713D01*
X151700500Y-52643713D01*
X151700500Y-52370867D01*
X151720185Y-52303828D01*
X151772989Y-52258073D01*
X151842147Y-52248129D01*
X151871952Y-52256306D01*
X151921082Y-52276656D01*
X151921087Y-52276658D01*
X151921091Y-52276658D01*
X151921092Y-52276659D01*
X152066079Y-52305500D01*
X152066082Y-52305500D01*
X152213920Y-52305500D01*
X152311462Y-52286096D01*
X152358913Y-52276658D01*
X152495495Y-52220084D01*
X152618416Y-52137951D01*
X152722951Y-52033416D01*
X152805084Y-51910495D01*
X152861658Y-51773913D01*
X152864598Y-51759128D01*
X152896980Y-51697218D01*
X152945263Y-51666275D01*
X152989522Y-51650789D01*
X153142262Y-51554816D01*
X153269816Y-51427262D01*
X153305006Y-51371256D01*
X153357341Y-51324966D01*
X153426394Y-51314318D01*
X153490243Y-51342693D01*
X153514992Y-51371255D01*
X153550184Y-51427262D01*
X153677738Y-51554816D01*
X153768080Y-51611582D01*
X153795670Y-51628918D01*
X153830478Y-51650789D01*
X153874737Y-51666275D01*
X153931512Y-51706996D01*
X153955398Y-51759120D01*
X153958339Y-51773905D01*
X153958342Y-51773915D01*
X154014912Y-51910488D01*
X154014919Y-51910501D01*
X154097048Y-52033415D01*
X154097051Y-52033419D01*
X154201580Y-52137948D01*
X154201584Y-52137951D01*
X154324498Y-52220080D01*
X154324511Y-52220087D01*
X154461082Y-52276656D01*
X154461087Y-52276658D01*
X154461091Y-52276658D01*
X154461092Y-52276659D01*
X154606079Y-52305500D01*
X154606082Y-52305500D01*
X154753920Y-52305500D01*
X154851462Y-52286096D01*
X154898913Y-52276658D01*
X155035495Y-52220084D01*
X155158416Y-52137951D01*
X155262951Y-52033416D01*
X155345084Y-51910495D01*
X155401658Y-51773913D01*
X155404598Y-51759128D01*
X155436980Y-51697218D01*
X155485263Y-51666275D01*
X155529522Y-51650789D01*
X155564326Y-51628920D01*
X156469499Y-51628920D01*
X156498340Y-51773907D01*
X156498343Y-51773917D01*
X156554912Y-51910488D01*
X156554919Y-51910501D01*
X156637048Y-52033415D01*
X156637051Y-52033419D01*
X156741580Y-52137948D01*
X156741584Y-52137951D01*
X156864498Y-52220080D01*
X156864511Y-52220087D01*
X157001082Y-52276656D01*
X157001087Y-52276658D01*
X157001091Y-52276658D01*
X157001092Y-52276659D01*
X157146079Y-52305500D01*
X157146082Y-52305500D01*
X157293920Y-52305500D01*
X157391462Y-52286096D01*
X157438913Y-52276658D01*
X157575495Y-52220084D01*
X157698416Y-52137951D01*
X157802951Y-52033416D01*
X157885084Y-51910495D01*
X157941658Y-51773913D01*
X157963069Y-51666275D01*
X157970500Y-51628920D01*
X157970500Y-51481079D01*
X157941659Y-51336092D01*
X157941658Y-51336091D01*
X157941658Y-51336087D01*
X157941656Y-51336082D01*
X157885087Y-51199511D01*
X157885080Y-51199498D01*
X157802951Y-51076584D01*
X157802948Y-51076580D01*
X157698419Y-50972051D01*
X157698415Y-50972048D01*
X157575501Y-50889919D01*
X157575488Y-50889912D01*
X157438917Y-50833343D01*
X157438907Y-50833340D01*
X157293920Y-50804500D01*
X157293918Y-50804500D01*
X157146082Y-50804500D01*
X157146080Y-50804500D01*
X157001092Y-50833340D01*
X157001082Y-50833343D01*
X156864511Y-50889912D01*
X156864498Y-50889919D01*
X156741584Y-50972048D01*
X156741580Y-50972051D01*
X156637051Y-51076580D01*
X156637048Y-51076584D01*
X156554919Y-51199498D01*
X156554912Y-51199511D01*
X156498343Y-51336082D01*
X156498340Y-51336092D01*
X156469500Y-51481079D01*
X156469500Y-51481082D01*
X156469500Y-51628918D01*
X156469500Y-51628920D01*
X156469499Y-51628920D01*
X155564326Y-51628920D01*
X155682262Y-51554816D01*
X155809816Y-51427262D01*
X155905789Y-51274522D01*
X155965368Y-51104255D01*
X155980500Y-50969954D01*
X155980500Y-49324500D01*
X156000185Y-49257461D01*
X156052989Y-49211706D01*
X156104500Y-49200500D01*
X157211374Y-49200500D01*
X157278413Y-49220185D01*
X157299055Y-49236819D01*
X158423181Y-50360945D01*
X158456666Y-50422268D01*
X158459500Y-50448626D01*
X158459500Y-50969960D01*
X158474630Y-51104249D01*
X158474631Y-51104254D01*
X158534211Y-51274523D01*
X158618721Y-51409019D01*
X158630184Y-51427262D01*
X158757738Y-51554816D01*
X158848080Y-51611582D01*
X158875670Y-51628918D01*
X158910478Y-51650789D01*
X158954737Y-51666275D01*
X159011512Y-51706996D01*
X159035398Y-51759120D01*
X159038339Y-51773905D01*
X159038342Y-51773915D01*
X159094912Y-51910488D01*
X159094919Y-51910501D01*
X159177048Y-52033415D01*
X159177051Y-52033419D01*
X159281580Y-52137948D01*
X159281584Y-52137951D01*
X159404498Y-52220080D01*
X159404511Y-52220087D01*
X159541082Y-52276656D01*
X159541087Y-52276658D01*
X159541091Y-52276658D01*
X159541092Y-52276659D01*
X159686079Y-52305500D01*
X159686082Y-52305500D01*
X159833920Y-52305500D01*
X159931462Y-52286096D01*
X159978913Y-52276658D01*
X160115495Y-52220084D01*
X160238416Y-52137951D01*
X160342951Y-52033416D01*
X160425084Y-51910495D01*
X160481658Y-51773913D01*
X160483850Y-51762888D01*
X160516233Y-51700978D01*
X160564513Y-51670036D01*
X160619522Y-51650789D01*
X160772262Y-51554816D01*
X160899816Y-51427262D01*
X160930007Y-51379212D01*
X160982340Y-51332923D01*
X161051394Y-51322274D01*
X161115242Y-51350649D01*
X161139991Y-51379211D01*
X161170184Y-51427262D01*
X161297738Y-51554816D01*
X161388080Y-51611582D01*
X161415670Y-51628918D01*
X161450478Y-51650789D01*
X161494737Y-51666275D01*
X161551512Y-51706996D01*
X161575398Y-51759120D01*
X161578339Y-51773905D01*
X161578342Y-51773915D01*
X161634912Y-51910488D01*
X161634919Y-51910501D01*
X161717048Y-52033415D01*
X161717051Y-52033419D01*
X161821580Y-52137948D01*
X161821584Y-52137951D01*
X161944498Y-52220080D01*
X161944511Y-52220087D01*
X162081082Y-52276656D01*
X162081087Y-52276658D01*
X162081091Y-52276658D01*
X162081092Y-52276659D01*
X162226079Y-52305500D01*
X162226082Y-52305500D01*
X162373920Y-52305500D01*
X162471462Y-52286096D01*
X162518913Y-52276658D01*
X162655495Y-52220084D01*
X162778416Y-52137951D01*
X162882951Y-52033416D01*
X162965084Y-51910495D01*
X163021658Y-51773913D01*
X163024598Y-51759128D01*
X163056980Y-51697218D01*
X163105263Y-51666275D01*
X163149522Y-51650789D01*
X163302262Y-51554816D01*
X163429816Y-51427262D01*
X163465006Y-51371256D01*
X163517341Y-51324966D01*
X163586394Y-51314318D01*
X163650243Y-51342693D01*
X163674992Y-51371255D01*
X163710184Y-51427262D01*
X163837738Y-51554816D01*
X163928080Y-51611582D01*
X163955670Y-51628918D01*
X163990478Y-51650789D01*
X164034737Y-51666275D01*
X164091512Y-51706996D01*
X164115398Y-51759120D01*
X164118339Y-51773905D01*
X164118342Y-51773915D01*
X164174912Y-51910488D01*
X164174919Y-51910501D01*
X164257048Y-52033415D01*
X164257051Y-52033419D01*
X164361580Y-52137948D01*
X164361584Y-52137951D01*
X164484498Y-52220080D01*
X164484511Y-52220087D01*
X164621082Y-52276656D01*
X164621087Y-52276658D01*
X164621091Y-52276658D01*
X164621092Y-52276659D01*
X164766079Y-52305500D01*
X164766082Y-52305500D01*
X164913920Y-52305500D01*
X165011462Y-52286096D01*
X165058913Y-52276658D01*
X165195495Y-52220084D01*
X165318416Y-52137951D01*
X165422951Y-52033416D01*
X165505084Y-51910495D01*
X165561658Y-51773913D01*
X165564598Y-51759128D01*
X165596980Y-51697218D01*
X165645263Y-51666275D01*
X165689522Y-51650789D01*
X165724326Y-51628920D01*
X166629499Y-51628920D01*
X166658340Y-51773907D01*
X166658343Y-51773917D01*
X166714912Y-51910488D01*
X166714919Y-51910501D01*
X166797048Y-52033415D01*
X166797051Y-52033419D01*
X166901580Y-52137948D01*
X166901584Y-52137951D01*
X167024498Y-52220080D01*
X167024511Y-52220087D01*
X167161082Y-52276656D01*
X167161087Y-52276658D01*
X167161091Y-52276658D01*
X167161092Y-52276659D01*
X167306079Y-52305500D01*
X167306082Y-52305500D01*
X167453920Y-52305500D01*
X167551462Y-52286096D01*
X167598913Y-52276658D01*
X167735495Y-52220084D01*
X167858416Y-52137951D01*
X167962951Y-52033416D01*
X168045084Y-51910495D01*
X168101658Y-51773913D01*
X168123069Y-51666275D01*
X168130500Y-51628920D01*
X168130500Y-51481079D01*
X168101659Y-51336092D01*
X168101658Y-51336091D01*
X168101658Y-51336087D01*
X168101656Y-51336082D01*
X168045087Y-51199511D01*
X168045080Y-51199498D01*
X167962951Y-51076584D01*
X167962948Y-51076580D01*
X167858419Y-50972051D01*
X167858415Y-50972048D01*
X167735501Y-50889919D01*
X167735488Y-50889912D01*
X167598917Y-50833343D01*
X167598907Y-50833340D01*
X167453920Y-50804500D01*
X167453918Y-50804500D01*
X167306082Y-50804500D01*
X167306080Y-50804500D01*
X167161092Y-50833340D01*
X167161082Y-50833343D01*
X167024511Y-50889912D01*
X167024498Y-50889919D01*
X166901584Y-50972048D01*
X166901580Y-50972051D01*
X166797051Y-51076580D01*
X166797048Y-51076584D01*
X166714919Y-51199498D01*
X166714912Y-51199511D01*
X166658343Y-51336082D01*
X166658340Y-51336092D01*
X166629500Y-51481079D01*
X166629500Y-51481082D01*
X166629500Y-51628918D01*
X166629500Y-51628920D01*
X166629499Y-51628920D01*
X165724326Y-51628920D01*
X165842262Y-51554816D01*
X165969816Y-51427262D01*
X166065789Y-51274522D01*
X166125368Y-51104255D01*
X166140500Y-50969954D01*
X166140500Y-48780046D01*
X166140499Y-48780039D01*
X168619500Y-48780039D01*
X168619500Y-50969960D01*
X168634630Y-51104249D01*
X168634631Y-51104254D01*
X168694211Y-51274523D01*
X168778721Y-51409019D01*
X168790184Y-51427262D01*
X168917738Y-51554816D01*
X169008080Y-51611582D01*
X169035670Y-51628918D01*
X169070478Y-51650789D01*
X169114737Y-51666275D01*
X169171512Y-51706996D01*
X169195398Y-51759120D01*
X169198339Y-51773905D01*
X169198342Y-51773915D01*
X169254912Y-51910488D01*
X169254919Y-51910501D01*
X169337048Y-52033415D01*
X169337051Y-52033419D01*
X169441580Y-52137948D01*
X169441584Y-52137951D01*
X169564498Y-52220080D01*
X169564511Y-52220087D01*
X169701082Y-52276656D01*
X169701087Y-52276658D01*
X169701091Y-52276658D01*
X169701092Y-52276659D01*
X169846079Y-52305500D01*
X169846082Y-52305500D01*
X169993920Y-52305500D01*
X170091462Y-52286096D01*
X170138913Y-52276658D01*
X170275495Y-52220084D01*
X170398416Y-52137951D01*
X170502951Y-52033416D01*
X170585084Y-51910495D01*
X170641658Y-51773913D01*
X170644598Y-51759128D01*
X170676980Y-51697218D01*
X170725263Y-51666275D01*
X170769522Y-51650789D01*
X170922262Y-51554816D01*
X171049816Y-51427262D01*
X171085006Y-51371256D01*
X171137341Y-51324966D01*
X171206394Y-51314318D01*
X171270243Y-51342693D01*
X171294992Y-51371255D01*
X171330184Y-51427262D01*
X171457738Y-51554816D01*
X171548080Y-51611582D01*
X171575670Y-51628918D01*
X171610478Y-51650789D01*
X171654737Y-51666275D01*
X171711512Y-51706996D01*
X171735398Y-51759120D01*
X171738339Y-51773905D01*
X171738342Y-51773915D01*
X171794912Y-51910488D01*
X171794919Y-51910501D01*
X171877048Y-52033415D01*
X171877051Y-52033419D01*
X171981580Y-52137948D01*
X171981584Y-52137951D01*
X172104498Y-52220080D01*
X172104511Y-52220087D01*
X172241082Y-52276656D01*
X172241087Y-52276658D01*
X172241091Y-52276658D01*
X172241092Y-52276659D01*
X172386079Y-52305500D01*
X172386082Y-52305500D01*
X172533920Y-52305500D01*
X172631462Y-52286096D01*
X172678913Y-52276658D01*
X172815495Y-52220084D01*
X172938416Y-52137951D01*
X173042951Y-52033416D01*
X173125084Y-51910495D01*
X173181658Y-51773913D01*
X173184598Y-51759128D01*
X173216980Y-51697218D01*
X173265263Y-51666275D01*
X173309522Y-51650789D01*
X173344326Y-51628920D01*
X174249499Y-51628920D01*
X174278340Y-51773907D01*
X174278343Y-51773917D01*
X174334912Y-51910488D01*
X174334919Y-51910501D01*
X174417048Y-52033415D01*
X174417051Y-52033419D01*
X174521580Y-52137948D01*
X174521584Y-52137951D01*
X174644498Y-52220080D01*
X174644511Y-52220087D01*
X174781082Y-52276656D01*
X174781087Y-52276658D01*
X174781091Y-52276658D01*
X174781092Y-52276659D01*
X174926079Y-52305500D01*
X174926082Y-52305500D01*
X175073920Y-52305500D01*
X175171462Y-52286096D01*
X175218913Y-52276658D01*
X175355495Y-52220084D01*
X175478416Y-52137951D01*
X175582951Y-52033416D01*
X175665084Y-51910495D01*
X175721658Y-51773913D01*
X175743069Y-51666275D01*
X175750500Y-51628920D01*
X175750500Y-51481079D01*
X175721659Y-51336092D01*
X175721658Y-51336091D01*
X175721658Y-51336087D01*
X175721656Y-51336082D01*
X175665087Y-51199511D01*
X175665080Y-51199498D01*
X175582951Y-51076584D01*
X175582948Y-51076580D01*
X175478419Y-50972051D01*
X175478415Y-50972048D01*
X175355501Y-50889919D01*
X175355488Y-50889912D01*
X175218917Y-50833343D01*
X175218907Y-50833340D01*
X175073920Y-50804500D01*
X175073918Y-50804500D01*
X174926082Y-50804500D01*
X174926080Y-50804500D01*
X174781092Y-50833340D01*
X174781082Y-50833343D01*
X174644511Y-50889912D01*
X174644498Y-50889919D01*
X174521584Y-50972048D01*
X174521580Y-50972051D01*
X174417051Y-51076580D01*
X174417048Y-51076584D01*
X174334919Y-51199498D01*
X174334912Y-51199511D01*
X174278343Y-51336082D01*
X174278340Y-51336092D01*
X174249500Y-51481079D01*
X174249500Y-51481082D01*
X174249500Y-51628918D01*
X174249500Y-51628920D01*
X174249499Y-51628920D01*
X173344326Y-51628920D01*
X173462262Y-51554816D01*
X173589816Y-51427262D01*
X173685789Y-51274522D01*
X173745368Y-51104255D01*
X173760500Y-50969954D01*
X173760500Y-48780046D01*
X173760499Y-48780039D01*
X176239500Y-48780039D01*
X176239500Y-50969960D01*
X176254630Y-51104249D01*
X176254631Y-51104254D01*
X176314211Y-51274523D01*
X176398721Y-51409019D01*
X176410184Y-51427262D01*
X176537738Y-51554816D01*
X176628080Y-51611582D01*
X176655670Y-51628918D01*
X176690478Y-51650789D01*
X176734737Y-51666275D01*
X176791512Y-51706996D01*
X176815398Y-51759120D01*
X176818339Y-51773905D01*
X176818342Y-51773915D01*
X176874912Y-51910488D01*
X176874919Y-51910501D01*
X176957048Y-52033415D01*
X176957051Y-52033419D01*
X177061580Y-52137948D01*
X177061584Y-52137951D01*
X177184498Y-52220080D01*
X177184511Y-52220087D01*
X177321082Y-52276656D01*
X177321087Y-52276658D01*
X177321091Y-52276658D01*
X177321092Y-52276659D01*
X177466079Y-52305500D01*
X177466082Y-52305500D01*
X177613920Y-52305500D01*
X177711462Y-52286096D01*
X177758913Y-52276658D01*
X177895495Y-52220084D01*
X178018416Y-52137951D01*
X178122951Y-52033416D01*
X178205084Y-51910495D01*
X178261658Y-51773913D01*
X178264598Y-51759128D01*
X178296980Y-51697218D01*
X178345263Y-51666275D01*
X178389522Y-51650789D01*
X178542262Y-51554816D01*
X178669816Y-51427262D01*
X178705006Y-51371256D01*
X178757341Y-51324966D01*
X178826394Y-51314318D01*
X178890243Y-51342693D01*
X178914992Y-51371255D01*
X178950184Y-51427262D01*
X179077738Y-51554816D01*
X179168080Y-51611582D01*
X179195670Y-51628918D01*
X179230478Y-51650789D01*
X179274737Y-51666275D01*
X179331512Y-51706996D01*
X179355398Y-51759120D01*
X179358339Y-51773905D01*
X179358342Y-51773915D01*
X179414912Y-51910488D01*
X179414919Y-51910501D01*
X179497048Y-52033415D01*
X179497051Y-52033419D01*
X179601580Y-52137948D01*
X179601584Y-52137951D01*
X179724498Y-52220080D01*
X179724511Y-52220087D01*
X179861082Y-52276656D01*
X179861087Y-52276658D01*
X179861091Y-52276658D01*
X179861092Y-52276659D01*
X180006079Y-52305500D01*
X180006082Y-52305500D01*
X180153920Y-52305500D01*
X180251462Y-52286096D01*
X180298913Y-52276658D01*
X180435495Y-52220084D01*
X180558416Y-52137951D01*
X180662951Y-52033416D01*
X180745084Y-51910495D01*
X180801658Y-51773913D01*
X180804598Y-51759128D01*
X180836980Y-51697218D01*
X180885263Y-51666275D01*
X180929522Y-51650789D01*
X181082262Y-51554816D01*
X181209816Y-51427262D01*
X181245006Y-51371256D01*
X181297341Y-51324966D01*
X181366394Y-51314318D01*
X181430243Y-51342693D01*
X181454992Y-51371255D01*
X181490184Y-51427262D01*
X181617738Y-51554816D01*
X181708080Y-51611582D01*
X181735670Y-51628918D01*
X181770478Y-51650789D01*
X181814737Y-51666275D01*
X181871512Y-51706996D01*
X181895398Y-51759120D01*
X181898339Y-51773905D01*
X181898342Y-51773915D01*
X181954912Y-51910488D01*
X181954919Y-51910501D01*
X182037048Y-52033415D01*
X182037051Y-52033419D01*
X182141580Y-52137948D01*
X182141584Y-52137951D01*
X182264498Y-52220080D01*
X182264511Y-52220087D01*
X182401082Y-52276656D01*
X182401087Y-52276658D01*
X182401091Y-52276658D01*
X182401092Y-52276659D01*
X182546079Y-52305500D01*
X182546082Y-52305500D01*
X182693920Y-52305500D01*
X182791462Y-52286096D01*
X182838913Y-52276658D01*
X182975495Y-52220084D01*
X183098416Y-52137951D01*
X183202951Y-52033416D01*
X183285084Y-51910495D01*
X183341658Y-51773913D01*
X183344598Y-51759128D01*
X183376980Y-51697218D01*
X183425263Y-51666275D01*
X183469522Y-51650789D01*
X183622262Y-51554816D01*
X183749816Y-51427262D01*
X183785006Y-51371256D01*
X183837341Y-51324966D01*
X183906394Y-51314318D01*
X183970243Y-51342693D01*
X183994992Y-51371255D01*
X184030184Y-51427262D01*
X184157738Y-51554816D01*
X184248080Y-51611582D01*
X184275670Y-51628918D01*
X184310478Y-51650789D01*
X184354737Y-51666275D01*
X184411512Y-51706996D01*
X184435398Y-51759120D01*
X184438339Y-51773905D01*
X184438342Y-51773915D01*
X184494912Y-51910488D01*
X184494919Y-51910501D01*
X184577048Y-52033415D01*
X184577051Y-52033419D01*
X184681580Y-52137948D01*
X184681584Y-52137951D01*
X184804498Y-52220080D01*
X184804511Y-52220087D01*
X184941082Y-52276656D01*
X184941087Y-52276658D01*
X184941091Y-52276658D01*
X184941092Y-52276659D01*
X185086079Y-52305500D01*
X185086082Y-52305500D01*
X185233920Y-52305500D01*
X185331462Y-52286096D01*
X185378913Y-52276658D01*
X185515495Y-52220084D01*
X185638416Y-52137951D01*
X185742951Y-52033416D01*
X185825084Y-51910495D01*
X185881658Y-51773913D01*
X185884598Y-51759128D01*
X185916980Y-51697218D01*
X185965263Y-51666275D01*
X186009522Y-51650789D01*
X186044326Y-51628920D01*
X186949499Y-51628920D01*
X186978340Y-51773907D01*
X186978343Y-51773917D01*
X187034912Y-51910488D01*
X187034919Y-51910501D01*
X187117048Y-52033415D01*
X187117051Y-52033419D01*
X187221580Y-52137948D01*
X187221584Y-52137951D01*
X187344498Y-52220080D01*
X187344511Y-52220087D01*
X187481082Y-52276656D01*
X187481087Y-52276658D01*
X187481091Y-52276658D01*
X187481092Y-52276659D01*
X187626079Y-52305500D01*
X187626082Y-52305500D01*
X187773920Y-52305500D01*
X187871462Y-52286096D01*
X187918913Y-52276658D01*
X188055495Y-52220084D01*
X188178416Y-52137951D01*
X188282951Y-52033416D01*
X188365084Y-51910495D01*
X188421658Y-51773913D01*
X188443069Y-51666275D01*
X188450500Y-51628920D01*
X188450500Y-51481079D01*
X188421659Y-51336092D01*
X188421658Y-51336091D01*
X188421658Y-51336087D01*
X188421656Y-51336082D01*
X188365087Y-51199511D01*
X188365080Y-51199498D01*
X188282951Y-51076584D01*
X188282948Y-51076580D01*
X188178419Y-50972051D01*
X188178415Y-50972048D01*
X188055501Y-50889919D01*
X188055488Y-50889912D01*
X187918917Y-50833343D01*
X187918907Y-50833340D01*
X187773920Y-50804500D01*
X187773918Y-50804500D01*
X187626082Y-50804500D01*
X187626080Y-50804500D01*
X187481092Y-50833340D01*
X187481082Y-50833343D01*
X187344511Y-50889912D01*
X187344498Y-50889919D01*
X187221584Y-50972048D01*
X187221580Y-50972051D01*
X187117051Y-51076580D01*
X187117048Y-51076584D01*
X187034919Y-51199498D01*
X187034912Y-51199511D01*
X186978343Y-51336082D01*
X186978340Y-51336092D01*
X186949500Y-51481079D01*
X186949500Y-51481082D01*
X186949500Y-51628918D01*
X186949500Y-51628920D01*
X186949499Y-51628920D01*
X186044326Y-51628920D01*
X186162262Y-51554816D01*
X186289816Y-51427262D01*
X186385789Y-51274522D01*
X186445368Y-51104255D01*
X186460500Y-50969954D01*
X186460500Y-48780046D01*
X186460499Y-48780039D01*
X188939500Y-48780039D01*
X188939500Y-50969960D01*
X188954630Y-51104249D01*
X188954631Y-51104254D01*
X189014211Y-51274523D01*
X189098721Y-51409019D01*
X189110184Y-51427262D01*
X189237738Y-51554816D01*
X189328080Y-51611582D01*
X189355670Y-51628918D01*
X189390478Y-51650789D01*
X189434737Y-51666275D01*
X189491512Y-51706996D01*
X189515398Y-51759120D01*
X189518339Y-51773905D01*
X189518342Y-51773915D01*
X189574912Y-51910488D01*
X189574919Y-51910501D01*
X189657048Y-52033415D01*
X189657051Y-52033419D01*
X189761580Y-52137948D01*
X189761584Y-52137951D01*
X189884498Y-52220080D01*
X189884511Y-52220087D01*
X190021082Y-52276656D01*
X190021087Y-52276658D01*
X190021091Y-52276658D01*
X190021092Y-52276659D01*
X190166079Y-52305500D01*
X190166082Y-52305500D01*
X190313920Y-52305500D01*
X190411462Y-52286096D01*
X190458913Y-52276658D01*
X190595495Y-52220084D01*
X190718416Y-52137951D01*
X190822951Y-52033416D01*
X190905084Y-51910495D01*
X190961658Y-51773913D01*
X190964598Y-51759128D01*
X190996980Y-51697218D01*
X191045263Y-51666275D01*
X191089522Y-51650789D01*
X191124326Y-51628920D01*
X192029499Y-51628920D01*
X192058340Y-51773907D01*
X192058343Y-51773917D01*
X192114912Y-51910488D01*
X192114919Y-51910501D01*
X192197048Y-52033415D01*
X192197051Y-52033419D01*
X192301580Y-52137948D01*
X192301584Y-52137951D01*
X192424498Y-52220080D01*
X192424511Y-52220087D01*
X192561082Y-52276656D01*
X192561087Y-52276658D01*
X192561091Y-52276658D01*
X192561092Y-52276659D01*
X192706079Y-52305500D01*
X192706082Y-52305500D01*
X192853920Y-52305500D01*
X192951462Y-52286096D01*
X192998913Y-52276658D01*
X193135495Y-52220084D01*
X193258416Y-52137951D01*
X193362951Y-52033416D01*
X193445084Y-51910495D01*
X193501658Y-51773913D01*
X193523069Y-51666275D01*
X193530500Y-51628920D01*
X193530500Y-51481079D01*
X193501659Y-51336092D01*
X193501658Y-51336091D01*
X193501658Y-51336087D01*
X193501656Y-51336082D01*
X193445087Y-51199511D01*
X193445080Y-51199498D01*
X193362951Y-51076584D01*
X193362948Y-51076580D01*
X193258419Y-50972051D01*
X193258415Y-50972048D01*
X193135501Y-50889919D01*
X193135488Y-50889912D01*
X192998917Y-50833343D01*
X192998907Y-50833340D01*
X192853920Y-50804500D01*
X192853918Y-50804500D01*
X192706082Y-50804500D01*
X192706080Y-50804500D01*
X192561092Y-50833340D01*
X192561082Y-50833343D01*
X192424511Y-50889912D01*
X192424498Y-50889919D01*
X192301584Y-50972048D01*
X192301580Y-50972051D01*
X192197051Y-51076580D01*
X192197048Y-51076584D01*
X192114919Y-51199498D01*
X192114912Y-51199511D01*
X192058343Y-51336082D01*
X192058340Y-51336092D01*
X192029500Y-51481079D01*
X192029500Y-51481082D01*
X192029500Y-51628918D01*
X192029500Y-51628920D01*
X192029499Y-51628920D01*
X191124326Y-51628920D01*
X191242262Y-51554816D01*
X191369816Y-51427262D01*
X191465789Y-51274522D01*
X191525368Y-51104255D01*
X191540500Y-50969954D01*
X191540500Y-48780046D01*
X191540499Y-48780039D01*
X194019500Y-48780039D01*
X194019500Y-50969960D01*
X194034630Y-51104249D01*
X194034631Y-51104254D01*
X194094211Y-51274523D01*
X194178721Y-51409019D01*
X194190184Y-51427262D01*
X194317738Y-51554816D01*
X194408080Y-51611582D01*
X194435670Y-51628918D01*
X194470478Y-51650789D01*
X194514737Y-51666275D01*
X194571512Y-51706996D01*
X194595398Y-51759120D01*
X194598339Y-51773905D01*
X194598342Y-51773915D01*
X194654912Y-51910488D01*
X194654919Y-51910501D01*
X194737048Y-52033415D01*
X194737051Y-52033419D01*
X194841580Y-52137948D01*
X194841584Y-52137951D01*
X194964498Y-52220080D01*
X194964511Y-52220087D01*
X195101082Y-52276656D01*
X195101087Y-52276658D01*
X195101091Y-52276658D01*
X195101092Y-52276659D01*
X195246079Y-52305500D01*
X195246082Y-52305500D01*
X195393920Y-52305500D01*
X195491462Y-52286096D01*
X195538913Y-52276658D01*
X195675495Y-52220084D01*
X195798416Y-52137951D01*
X195902951Y-52033416D01*
X195985084Y-51910495D01*
X196041658Y-51773913D01*
X196044598Y-51759128D01*
X196076980Y-51697218D01*
X196125263Y-51666275D01*
X196169522Y-51650789D01*
X196322262Y-51554816D01*
X196449816Y-51427262D01*
X196485006Y-51371256D01*
X196537341Y-51324966D01*
X196606394Y-51314318D01*
X196670243Y-51342693D01*
X196694992Y-51371255D01*
X196730184Y-51427262D01*
X196857738Y-51554816D01*
X196948080Y-51611582D01*
X196975670Y-51628918D01*
X197010478Y-51650789D01*
X197054737Y-51666275D01*
X197111512Y-51706996D01*
X197135398Y-51759120D01*
X197138339Y-51773905D01*
X197138342Y-51773915D01*
X197194912Y-51910488D01*
X197194919Y-51910501D01*
X197277048Y-52033415D01*
X197277051Y-52033419D01*
X197381580Y-52137948D01*
X197381584Y-52137951D01*
X197504498Y-52220080D01*
X197504511Y-52220087D01*
X197641082Y-52276656D01*
X197641087Y-52276658D01*
X197641091Y-52276658D01*
X197641092Y-52276659D01*
X197786079Y-52305500D01*
X197786082Y-52305500D01*
X197933920Y-52305500D01*
X198031462Y-52286096D01*
X198078913Y-52276658D01*
X198215495Y-52220084D01*
X198338416Y-52137951D01*
X198442951Y-52033416D01*
X198525084Y-51910495D01*
X198581658Y-51773913D01*
X198584598Y-51759128D01*
X198616980Y-51697218D01*
X198665263Y-51666275D01*
X198709522Y-51650789D01*
X198862262Y-51554816D01*
X198989816Y-51427262D01*
X199025006Y-51371256D01*
X199077341Y-51324966D01*
X199146394Y-51314318D01*
X199210243Y-51342693D01*
X199234992Y-51371255D01*
X199270184Y-51427262D01*
X199397738Y-51554816D01*
X199488080Y-51611582D01*
X199515670Y-51628918D01*
X199550478Y-51650789D01*
X199594737Y-51666275D01*
X199651512Y-51706996D01*
X199675398Y-51759120D01*
X199678339Y-51773905D01*
X199678342Y-51773915D01*
X199734912Y-51910488D01*
X199734919Y-51910501D01*
X199817048Y-52033415D01*
X199817051Y-52033419D01*
X199921580Y-52137948D01*
X199921584Y-52137951D01*
X200044498Y-52220080D01*
X200044511Y-52220087D01*
X200181082Y-52276656D01*
X200181087Y-52276658D01*
X200181091Y-52276658D01*
X200181092Y-52276659D01*
X200326079Y-52305500D01*
X200326082Y-52305500D01*
X200473920Y-52305500D01*
X200571462Y-52286096D01*
X200618913Y-52276658D01*
X200755495Y-52220084D01*
X200878416Y-52137951D01*
X200982951Y-52033416D01*
X201065084Y-51910495D01*
X201121658Y-51773913D01*
X201124598Y-51759128D01*
X201156980Y-51697218D01*
X201205263Y-51666275D01*
X201249522Y-51650789D01*
X201402262Y-51554816D01*
X201529816Y-51427262D01*
X201625789Y-51274522D01*
X201685368Y-51104255D01*
X201700500Y-50969954D01*
X201700500Y-48780046D01*
X201685368Y-48645745D01*
X201625789Y-48475478D01*
X201529816Y-48322738D01*
X201402262Y-48195184D01*
X201249523Y-48099211D01*
X201079254Y-48039631D01*
X201079249Y-48039630D01*
X200944960Y-48024500D01*
X200944954Y-48024500D01*
X199855046Y-48024500D01*
X199855039Y-48024500D01*
X199720750Y-48039630D01*
X199720745Y-48039631D01*
X199550476Y-48099211D01*
X199397737Y-48195184D01*
X199270182Y-48322739D01*
X199234993Y-48378743D01*
X199182658Y-48425033D01*
X199113605Y-48435681D01*
X199049757Y-48407306D01*
X199025007Y-48378743D01*
X198989817Y-48322739D01*
X198862262Y-48195184D01*
X198709523Y-48099211D01*
X198539254Y-48039631D01*
X198539249Y-48039630D01*
X198404960Y-48024500D01*
X198404954Y-48024500D01*
X197315046Y-48024500D01*
X197315039Y-48024500D01*
X197180750Y-48039630D01*
X197180745Y-48039631D01*
X197010476Y-48099211D01*
X196857737Y-48195184D01*
X196730182Y-48322739D01*
X196694993Y-48378743D01*
X196642658Y-48425033D01*
X196573605Y-48435681D01*
X196509757Y-48407306D01*
X196485007Y-48378743D01*
X196449817Y-48322739D01*
X196322262Y-48195184D01*
X196169523Y-48099211D01*
X195999254Y-48039631D01*
X195999249Y-48039630D01*
X195864960Y-48024500D01*
X195864954Y-48024500D01*
X194775046Y-48024500D01*
X194775039Y-48024500D01*
X194640750Y-48039630D01*
X194640745Y-48039631D01*
X194470476Y-48099211D01*
X194317737Y-48195184D01*
X194190184Y-48322737D01*
X194094211Y-48475476D01*
X194034631Y-48645745D01*
X194034630Y-48645750D01*
X194019500Y-48780039D01*
X191540499Y-48780039D01*
X191525368Y-48645745D01*
X191465789Y-48475478D01*
X191369816Y-48322738D01*
X191242262Y-48195184D01*
X191089523Y-48099211D01*
X190919254Y-48039631D01*
X190919249Y-48039630D01*
X190784960Y-48024500D01*
X190784954Y-48024500D01*
X189695046Y-48024500D01*
X189695039Y-48024500D01*
X189560750Y-48039630D01*
X189560745Y-48039631D01*
X189390476Y-48099211D01*
X189237737Y-48195184D01*
X189110184Y-48322737D01*
X189014211Y-48475476D01*
X188954631Y-48645745D01*
X188954630Y-48645750D01*
X188939500Y-48780039D01*
X186460499Y-48780039D01*
X186445368Y-48645745D01*
X186385789Y-48475478D01*
X186289816Y-48322738D01*
X186162262Y-48195184D01*
X186009523Y-48099211D01*
X185839254Y-48039631D01*
X185839249Y-48039630D01*
X185704960Y-48024500D01*
X185704954Y-48024500D01*
X184615046Y-48024500D01*
X184615039Y-48024500D01*
X184480750Y-48039630D01*
X184480745Y-48039631D01*
X184310476Y-48099211D01*
X184157737Y-48195184D01*
X184030182Y-48322739D01*
X183994993Y-48378743D01*
X183942658Y-48425033D01*
X183873605Y-48435681D01*
X183809757Y-48407306D01*
X183785007Y-48378743D01*
X183749817Y-48322739D01*
X183622262Y-48195184D01*
X183469523Y-48099211D01*
X183299254Y-48039631D01*
X183299249Y-48039630D01*
X183164960Y-48024500D01*
X183164954Y-48024500D01*
X182075046Y-48024500D01*
X182075039Y-48024500D01*
X181940750Y-48039630D01*
X181940745Y-48039631D01*
X181770476Y-48099211D01*
X181617737Y-48195184D01*
X181490182Y-48322739D01*
X181454993Y-48378743D01*
X181402658Y-48425033D01*
X181333605Y-48435681D01*
X181269757Y-48407306D01*
X181245007Y-48378743D01*
X181209817Y-48322739D01*
X181082262Y-48195184D01*
X180929523Y-48099211D01*
X180759254Y-48039631D01*
X180759249Y-48039630D01*
X180624960Y-48024500D01*
X180624954Y-48024500D01*
X179535046Y-48024500D01*
X179535039Y-48024500D01*
X179400750Y-48039630D01*
X179400745Y-48039631D01*
X179230476Y-48099211D01*
X179077737Y-48195184D01*
X178950182Y-48322739D01*
X178914993Y-48378743D01*
X178862658Y-48425033D01*
X178793605Y-48435681D01*
X178729757Y-48407306D01*
X178705007Y-48378743D01*
X178669817Y-48322739D01*
X178542262Y-48195184D01*
X178389523Y-48099211D01*
X178219254Y-48039631D01*
X178219249Y-48039630D01*
X178084960Y-48024500D01*
X178084954Y-48024500D01*
X176995046Y-48024500D01*
X176995039Y-48024500D01*
X176860750Y-48039630D01*
X176860745Y-48039631D01*
X176690476Y-48099211D01*
X176537737Y-48195184D01*
X176410184Y-48322737D01*
X176314211Y-48475476D01*
X176254631Y-48645745D01*
X176254630Y-48645750D01*
X176239500Y-48780039D01*
X173760499Y-48780039D01*
X173745368Y-48645745D01*
X173685789Y-48475478D01*
X173589816Y-48322738D01*
X173462262Y-48195184D01*
X173309523Y-48099211D01*
X173139254Y-48039631D01*
X173139249Y-48039630D01*
X173004960Y-48024500D01*
X173004954Y-48024500D01*
X171915046Y-48024500D01*
X171915039Y-48024500D01*
X171780750Y-48039630D01*
X171780745Y-48039631D01*
X171610476Y-48099211D01*
X171457737Y-48195184D01*
X171330182Y-48322739D01*
X171294993Y-48378743D01*
X171242658Y-48425033D01*
X171173605Y-48435681D01*
X171109757Y-48407306D01*
X171085007Y-48378743D01*
X171049817Y-48322739D01*
X170922262Y-48195184D01*
X170769523Y-48099211D01*
X170599254Y-48039631D01*
X170599249Y-48039630D01*
X170464960Y-48024500D01*
X170464954Y-48024500D01*
X169375046Y-48024500D01*
X169375039Y-48024500D01*
X169240750Y-48039630D01*
X169240745Y-48039631D01*
X169070476Y-48099211D01*
X168917737Y-48195184D01*
X168790184Y-48322737D01*
X168694211Y-48475476D01*
X168634631Y-48645745D01*
X168634630Y-48645750D01*
X168619500Y-48780039D01*
X166140499Y-48780039D01*
X166125368Y-48645745D01*
X166065789Y-48475478D01*
X165969816Y-48322738D01*
X165842262Y-48195184D01*
X165689523Y-48099211D01*
X165519254Y-48039631D01*
X165519249Y-48039630D01*
X165384960Y-48024500D01*
X165384954Y-48024500D01*
X164295046Y-48024500D01*
X164295039Y-48024500D01*
X164160750Y-48039630D01*
X164160745Y-48039631D01*
X163990476Y-48099211D01*
X163837737Y-48195184D01*
X163710182Y-48322739D01*
X163674993Y-48378743D01*
X163622658Y-48425033D01*
X163553605Y-48435681D01*
X163489757Y-48407306D01*
X163465007Y-48378743D01*
X163429817Y-48322739D01*
X163302262Y-48195184D01*
X163149523Y-48099211D01*
X162979254Y-48039631D01*
X162979249Y-48039630D01*
X162844960Y-48024500D01*
X162844954Y-48024500D01*
X162073625Y-48024500D01*
X162006586Y-48004815D01*
X161985944Y-47988181D01*
X160709945Y-46712181D01*
X160676460Y-46650858D01*
X160681444Y-46581166D01*
X160723316Y-46525233D01*
X160788780Y-46500816D01*
X160797626Y-46500500D01*
X207875500Y-46500500D01*
X207942539Y-46520185D01*
X207988294Y-46572989D01*
X207999500Y-46624500D01*
X207999500Y-71975500D01*
X207979815Y-72042539D01*
X207927011Y-72088294D01*
X207875500Y-72099500D01*
X190184108Y-72099500D01*
X190056812Y-72133608D01*
X189942686Y-72199500D01*
X189942683Y-72199502D01*
X189849502Y-72292683D01*
X189849500Y-72292686D01*
X189783608Y-72406812D01*
X189749500Y-72534108D01*
X189749500Y-104875500D01*
X189729815Y-104942539D01*
X189677011Y-104988294D01*
X189625500Y-104999500D01*
X144624500Y-104999500D01*
X144557461Y-104979815D01*
X144511706Y-104927011D01*
X144500500Y-104875500D01*
X144500500Y-101893713D01*
X145399500Y-101893713D01*
X145399500Y-102106286D01*
X145432753Y-102316239D01*
X145498444Y-102518414D01*
X145594951Y-102707820D01*
X145719890Y-102879786D01*
X145870213Y-103030109D01*
X146042179Y-103155048D01*
X146042181Y-103155049D01*
X146042184Y-103155051D01*
X146231588Y-103251557D01*
X146433757Y-103317246D01*
X146643713Y-103350500D01*
X146643714Y-103350500D01*
X146856286Y-103350500D01*
X146856287Y-103350500D01*
X147066243Y-103317246D01*
X147268412Y-103251557D01*
X147457816Y-103155051D01*
X147479789Y-103139086D01*
X147629786Y-103030109D01*
X147629788Y-103030106D01*
X147629792Y-103030104D01*
X147780104Y-102879792D01*
X147780106Y-102879788D01*
X147780109Y-102879786D01*
X147905048Y-102707820D01*
X147905047Y-102707820D01*
X147905051Y-102707816D01*
X148001557Y-102518412D01*
X148067246Y-102316243D01*
X148100500Y-102106287D01*
X148100500Y-101893713D01*
X148067246Y-101683757D01*
X148001557Y-101481588D01*
X147905051Y-101292184D01*
X147905049Y-101292181D01*
X147905048Y-101292179D01*
X147780109Y-101120213D01*
X147629786Y-100969890D01*
X147457820Y-100844951D01*
X147268414Y-100748444D01*
X147268413Y-100748443D01*
X147268412Y-100748443D01*
X147066243Y-100682754D01*
X147066241Y-100682753D01*
X147066240Y-100682753D01*
X146904957Y-100657208D01*
X146856287Y-100649500D01*
X146643713Y-100649500D01*
X146595042Y-100657208D01*
X146433760Y-100682753D01*
X146231585Y-100748444D01*
X146042179Y-100844951D01*
X145870213Y-100969890D01*
X145719890Y-101120213D01*
X145594951Y-101292179D01*
X145498444Y-101481585D01*
X145432753Y-101683760D01*
X145399500Y-101893713D01*
X144500500Y-101893713D01*
X144500500Y-46624500D01*
X144520185Y-46557461D01*
X144572989Y-46511706D01*
X144624500Y-46500500D01*
X149252375Y-46500500D01*
X149319414Y-46520185D01*
G37*
%TD.AperFunction*%
%TD*%
D24*
%TO.C,J4*%
X171225000Y-83000000D03*
D25*
X171225000Y-80500000D03*
X171225000Y-78000000D03*
X171225000Y-75500000D03*
%TD*%
D26*
%TO.C,J1*%
X150500000Y-60500000D03*
D27*
X150500000Y-65500000D03*
%TD*%
D28*
%TO.C,D1*%
X190290000Y-69000000D03*
D27*
X187750000Y-69000000D03*
%TD*%
D29*
%TO.C,R2*%
X184000000Y-59500000D03*
X194160000Y-59500000D03*
%TD*%
%TO.C,R5*%
X157500000Y-66250000D03*
X167660000Y-66250000D03*
%TD*%
D28*
%TO.C,D2*%
X201000000Y-62500000D03*
D27*
X201000000Y-59960000D03*
%TD*%
D29*
%TO.C,R4*%
X189910000Y-63500000D03*
X179750000Y-63500000D03*
%TD*%
%TO.C,R1*%
X173250000Y-67250000D03*
X183410000Y-67250000D03*
%TD*%
D24*
%TO.C,J7*%
X171225000Y-97500000D03*
D25*
X171225000Y-95000000D03*
X171225000Y-92500000D03*
X171225000Y-90000000D03*
%TD*%
D30*
%TO.C,J5*%
X194750000Y-66750000D03*
D31*
X194750000Y-64250000D03*
%TD*%
D25*
%TO.C,J3*%
X181750000Y-75500000D03*
X181750000Y-78000000D03*
X181750000Y-80500000D03*
X181750000Y-83000000D03*
%TD*%
D32*
%TO.C,IC1*%
X151750000Y-89670000D03*
D25*
X151750000Y-92210000D03*
X151750000Y-94750000D03*
X151750000Y-97290000D03*
X151750000Y-99830000D03*
%TD*%
D30*
%TO.C,J6*%
X175250000Y-63500000D03*
D31*
X172750000Y-63500000D03*
%TD*%
D29*
%TO.C,R3*%
X169000000Y-59500000D03*
X179160000Y-59500000D03*
%TD*%
D30*
%TO.C,J9*%
X203500000Y-67500000D03*
D31*
X201000000Y-67500000D03*
%TD*%
D33*
%TO.C,REF\u002A\u002A*%
X204750000Y-52750000D03*
%TD*%
D25*
%TO.C,J2*%
X181750000Y-90000000D03*
X181750000Y-92500000D03*
X181750000Y-95000000D03*
X181750000Y-97500000D03*
%TD*%
D33*
%TO.C,REF\u002A\u002A*%
X146750000Y-102000000D03*
%TD*%
D25*
%TO.C,IC2*%
X163960000Y-83080000D03*
X163960000Y-80540000D03*
X163960000Y-78000000D03*
X163960000Y-75460000D03*
X163960000Y-72920000D03*
%TD*%
D34*
%TO.C,J8*%
X152140000Y-51555000D03*
X152140000Y-54095000D03*
X154680000Y-51555000D03*
X154680000Y-54095000D03*
X157220000Y-51555000D03*
X157220000Y-54095000D03*
X159760000Y-51555000D03*
X159760000Y-54095000D03*
X162300000Y-51555000D03*
X162300000Y-54095000D03*
X164840000Y-51555000D03*
X164840000Y-54095000D03*
X167380000Y-51555000D03*
X167380000Y-54095000D03*
X169920000Y-51555000D03*
X169920000Y-54095000D03*
X172460000Y-51555000D03*
X172460000Y-54095000D03*
X175000000Y-51555000D03*
X175000000Y-54095000D03*
X177540000Y-51555000D03*
X177540000Y-54095000D03*
X180080000Y-51555000D03*
X180080000Y-54095000D03*
X182620000Y-51555000D03*
X182620000Y-54095000D03*
X185160000Y-51555000D03*
X185160000Y-54095000D03*
X187700000Y-51555000D03*
X187700000Y-54095000D03*
X190240000Y-51555000D03*
X190240000Y-54095000D03*
X192780000Y-51555000D03*
X192780000Y-54095000D03*
X195320000Y-51555000D03*
X195320000Y-54095000D03*
X197860000Y-51555000D03*
X197860000Y-54095000D03*
X200400000Y-51555000D03*
X200400000Y-54095000D03*
D35*
X152140000Y-49875000D03*
X152140000Y-55775000D03*
X154680000Y-49875000D03*
X154680000Y-55775000D03*
X157220000Y-49875000D03*
D36*
X157245000Y-55775000D03*
D37*
X159765000Y-49875000D03*
D38*
X159765000Y-55775000D03*
D35*
X162300000Y-49875000D03*
X162300000Y-55775000D03*
X164840000Y-49875000D03*
X164840000Y-55775000D03*
X167380000Y-49875000D03*
X167380000Y-55775000D03*
X169920000Y-49875000D03*
X169920000Y-55775000D03*
X172460000Y-49875000D03*
X172460000Y-55775000D03*
X175000000Y-49875000D03*
X175000000Y-55775000D03*
X177540000Y-49875000D03*
X177540000Y-55775000D03*
X180080000Y-49875000D03*
X180080000Y-55775000D03*
X182620000Y-49875000D03*
X182620000Y-55775000D03*
X185160000Y-49875000D03*
X185160000Y-55775000D03*
X187700000Y-49875000D03*
X187700000Y-55775000D03*
X190240000Y-49875000D03*
X190240000Y-55775000D03*
D38*
X192775000Y-49875000D03*
D37*
X192775000Y-55775000D03*
D35*
X195320000Y-49875000D03*
X195320000Y-55775000D03*
X197860000Y-49875000D03*
X197860000Y-55775000D03*
X200400000Y-49875000D03*
X200400000Y-55775000D03*
%TD*%
D39*
X144000000Y-46000000D02*
X208500000Y-46000000D01*
X190250000Y-72600000D02*
X190250000Y-105500000D01*
X190250000Y-72600000D02*
X208500000Y-72600000D01*
X144000000Y-46000000D02*
X144000000Y-105500000D01*
X144000000Y-105500000D02*
X190250000Y-105500000D01*
X208500000Y-46000000D02*
X208500000Y-72600000D01*
M02*
