%TF.GenerationSoftware,KiCad,Pcbnew,9.0.7*%
%TF.CreationDate,2026-02-06T13:01:08+01:00*%
%TF.ProjectId,RPi_PCB_KOSMOS_4.0_v2,5250695f-5043-4425-9f4b-4f534d4f535f,rev?*%
%TF.SameCoordinates,Original*%
%TF.FileFunction,Drillmap*%
%TF.FilePolarity,Positive*%
%FSLAX45Y45*%
G04 Gerber Fmt 4.5, Leading zero omitted, Abs format (unit mm)*
G04 Created by KiCad (PCBNEW 9.0.7) date 2026-02-06 13:01:08*
%MOMM*%
%LPD*%
G01*
G04 APERTURE LIST*
%ADD10C,0.050000*%
%ADD11C,0.200000*%
%ADD12C,0.100000*%
%ADD13C,0.110000*%
%ADD14C,0.125000*%
%ADD15C,0.220000*%
G04 APERTURE END LIST*
D10*
X14400000Y-4600000D02*
X20850000Y-4600000D01*
X19025000Y-7260000D02*
X19025000Y-10550000D01*
X19025000Y-7260000D02*
X20850000Y-7260000D01*
X14400000Y-4600000D02*
X14400000Y-10550000D01*
X14400000Y-10550000D02*
X19025000Y-10550000D01*
X20850000Y-4600000D02*
X20850000Y-7260000D01*
D11*
D12*
X15710000Y-6585000D02*
X15790000Y-6665000D01*
X15790000Y-6585000D02*
X15710000Y-6665000D01*
X16726000Y-6585000D02*
X16806000Y-6665000D01*
X16806000Y-6585000D02*
X16726000Y-6665000D01*
X16860000Y-5910000D02*
X16940000Y-5990000D01*
X16940000Y-5910000D02*
X16860000Y-5990000D01*
X17285000Y-6685000D02*
X17365000Y-6765000D01*
X17365000Y-6685000D02*
X17285000Y-6765000D01*
X17876000Y-5910000D02*
X17956000Y-5990000D01*
X17956000Y-5910000D02*
X17876000Y-5990000D01*
X17935000Y-6310000D02*
X18015000Y-6390000D01*
X18015000Y-6310000D02*
X17935000Y-6390000D01*
X18301000Y-6685000D02*
X18381000Y-6765000D01*
X18381000Y-6685000D02*
X18301000Y-6765000D01*
X18360000Y-5910000D02*
X18440000Y-5990000D01*
X18440000Y-5910000D02*
X18360000Y-5990000D01*
X18951000Y-6310000D02*
X19031000Y-6390000D01*
X19031000Y-6310000D02*
X18951000Y-6390000D01*
X19376000Y-5910000D02*
X19456000Y-5990000D01*
X19456000Y-5910000D02*
X19376000Y-5990000D01*
X18820000Y-6900000D02*
G75*
G02*
X18730000Y-6900000I-45000J0D01*
G01*
X18730000Y-6900000D02*
G75*
G02*
X18820000Y-6900000I45000J0D01*
G01*
X19074000Y-6900000D02*
G75*
G02*
X18984000Y-6900000I-45000J0D01*
G01*
X18984000Y-6900000D02*
G75*
G02*
X19074000Y-6900000I45000J0D01*
G01*
X20145000Y-5996000D02*
G75*
G02*
X20055000Y-5996000I-45000J0D01*
G01*
X20055000Y-5996000D02*
G75*
G02*
X20145000Y-5996000I45000J0D01*
G01*
X20145000Y-6250000D02*
G75*
G02*
X20055000Y-6250000I-45000J0D01*
G01*
X20055000Y-6250000D02*
G75*
G02*
X20145000Y-6250000I45000J0D01*
G01*
X15175000Y-8917000D02*
X15175000Y-9017000D01*
X15125000Y-8967000D02*
X15225000Y-8967000D01*
X15175000Y-9171000D02*
X15175000Y-9271000D01*
X15125000Y-9221000D02*
X15225000Y-9221000D01*
X15175000Y-9425000D02*
X15175000Y-9525000D01*
X15125000Y-9475000D02*
X15225000Y-9475000D01*
X15175000Y-9679000D02*
X15175000Y-9779000D01*
X15125000Y-9729000D02*
X15225000Y-9729000D01*
X15175000Y-9933000D02*
X15175000Y-10033000D01*
X15125000Y-9983000D02*
X15225000Y-9983000D01*
X16396000Y-7242000D02*
X16396000Y-7342000D01*
X16346000Y-7292000D02*
X16446000Y-7292000D01*
X16396000Y-7496000D02*
X16396000Y-7596000D01*
X16346000Y-7546000D02*
X16446000Y-7546000D01*
X16396000Y-7750000D02*
X16396000Y-7850000D01*
X16346000Y-7800000D02*
X16446000Y-7800000D01*
X16396000Y-8004000D02*
X16396000Y-8104000D01*
X16346000Y-8054000D02*
X16446000Y-8054000D01*
X16396000Y-8258000D02*
X16396000Y-8358000D01*
X16346000Y-8308000D02*
X16446000Y-8308000D01*
X17122500Y-7500000D02*
X17122500Y-7600000D01*
X17072500Y-7550000D02*
X17172500Y-7550000D01*
X17122500Y-7750000D02*
X17122500Y-7850000D01*
X17072500Y-7800000D02*
X17172500Y-7800000D01*
X17122500Y-8000000D02*
X17122500Y-8100000D01*
X17072500Y-8050000D02*
X17172500Y-8050000D01*
X17122500Y-8250000D02*
X17122500Y-8350000D01*
X17072500Y-8300000D02*
X17172500Y-8300000D01*
X17122500Y-8950000D02*
X17122500Y-9050000D01*
X17072500Y-9000000D02*
X17172500Y-9000000D01*
X17122500Y-9200000D02*
X17122500Y-9300000D01*
X17072500Y-9250000D02*
X17172500Y-9250000D01*
X17122500Y-9450000D02*
X17122500Y-9550000D01*
X17072500Y-9500000D02*
X17172500Y-9500000D01*
X17122500Y-9700000D02*
X17122500Y-9800000D01*
X17072500Y-9750000D02*
X17172500Y-9750000D01*
X18175000Y-7500000D02*
X18175000Y-7600000D01*
X18125000Y-7550000D02*
X18225000Y-7550000D01*
X18175000Y-7750000D02*
X18175000Y-7850000D01*
X18125000Y-7800000D02*
X18225000Y-7800000D01*
X18175000Y-8000000D02*
X18175000Y-8100000D01*
X18125000Y-8050000D02*
X18225000Y-8050000D01*
X18175000Y-8250000D02*
X18175000Y-8350000D01*
X18125000Y-8300000D02*
X18225000Y-8300000D01*
X18175000Y-8950000D02*
X18175000Y-9050000D01*
X18125000Y-9000000D02*
X18225000Y-9000000D01*
X18175000Y-9200000D02*
X18175000Y-9300000D01*
X18125000Y-9250000D02*
X18225000Y-9250000D01*
X18175000Y-9450000D02*
X18175000Y-9550000D01*
X18125000Y-9500000D02*
X18225000Y-9500000D01*
X18175000Y-9700000D02*
X18175000Y-9800000D01*
X18125000Y-9750000D02*
X18225000Y-9750000D01*
D13*
X17313891Y-6388891D02*
X17313891Y-6311109D01*
X17236109Y-6311109D01*
X17236109Y-6388891D01*
X17313891Y-6388891D01*
X17563891Y-6388891D02*
X17563891Y-6311109D01*
X17486109Y-6311109D01*
X17486109Y-6388891D01*
X17563891Y-6388891D01*
X19513891Y-6463891D02*
X19513891Y-6386109D01*
X19436109Y-6386109D01*
X19436109Y-6463891D01*
X19513891Y-6463891D01*
X19513891Y-6713891D02*
X19513891Y-6636109D01*
X19436109Y-6636109D01*
X19436109Y-6713891D01*
X19513891Y-6713891D01*
X20138891Y-6788891D02*
X20138891Y-6711109D01*
X20061109Y-6711109D01*
X20061109Y-6788891D01*
X20138891Y-6788891D01*
X20388891Y-6788891D02*
X20388891Y-6711109D01*
X20311109Y-6711109D01*
X20311109Y-6788891D01*
X20388891Y-6788891D01*
D14*
X15050000Y-6112500D02*
X15112500Y-6050000D01*
X15050000Y-5987500D01*
X14987500Y-6050000D01*
X15050000Y-6112500D01*
X15050000Y-6612500D02*
X15112500Y-6550000D01*
X15050000Y-6487500D01*
X14987500Y-6550000D01*
X15050000Y-6612500D01*
D12*
X15164000Y-5105500D02*
X15264000Y-5205500D01*
X15264000Y-5105500D02*
X15164000Y-5205500D01*
X15264000Y-5155500D02*
G75*
G02*
X15164000Y-5155500I-50000J0D01*
G01*
X15164000Y-5155500D02*
G75*
G02*
X15264000Y-5155500I50000J0D01*
G01*
X15164000Y-5359500D02*
X15264000Y-5459500D01*
X15264000Y-5359500D02*
X15164000Y-5459500D01*
X15264000Y-5409500D02*
G75*
G02*
X15164000Y-5409500I-50000J0D01*
G01*
X15164000Y-5409500D02*
G75*
G02*
X15264000Y-5409500I50000J0D01*
G01*
X15418000Y-5105500D02*
X15518000Y-5205500D01*
X15518000Y-5105500D02*
X15418000Y-5205500D01*
X15518000Y-5155500D02*
G75*
G02*
X15418000Y-5155500I-50000J0D01*
G01*
X15418000Y-5155500D02*
G75*
G02*
X15518000Y-5155500I50000J0D01*
G01*
X15418000Y-5359500D02*
X15518000Y-5459500D01*
X15518000Y-5359500D02*
X15418000Y-5459500D01*
X15518000Y-5409500D02*
G75*
G02*
X15418000Y-5409500I-50000J0D01*
G01*
X15418000Y-5409500D02*
G75*
G02*
X15518000Y-5409500I50000J0D01*
G01*
X15672000Y-5105500D02*
X15772000Y-5205500D01*
X15772000Y-5105500D02*
X15672000Y-5205500D01*
X15772000Y-5155500D02*
G75*
G02*
X15672000Y-5155500I-50000J0D01*
G01*
X15672000Y-5155500D02*
G75*
G02*
X15772000Y-5155500I50000J0D01*
G01*
X15672000Y-5359500D02*
X15772000Y-5459500D01*
X15772000Y-5359500D02*
X15672000Y-5459500D01*
X15772000Y-5409500D02*
G75*
G02*
X15672000Y-5409500I-50000J0D01*
G01*
X15672000Y-5409500D02*
G75*
G02*
X15772000Y-5409500I50000J0D01*
G01*
X15926000Y-5105500D02*
X16026000Y-5205500D01*
X16026000Y-5105500D02*
X15926000Y-5205500D01*
X16026000Y-5155500D02*
G75*
G02*
X15926000Y-5155500I-50000J0D01*
G01*
X15926000Y-5155500D02*
G75*
G02*
X16026000Y-5155500I50000J0D01*
G01*
X15926000Y-5359500D02*
X16026000Y-5459500D01*
X16026000Y-5359500D02*
X15926000Y-5459500D01*
X16026000Y-5409500D02*
G75*
G02*
X15926000Y-5409500I-50000J0D01*
G01*
X15926000Y-5409500D02*
G75*
G02*
X16026000Y-5409500I50000J0D01*
G01*
X16180000Y-5105500D02*
X16280000Y-5205500D01*
X16280000Y-5105500D02*
X16180000Y-5205500D01*
X16280000Y-5155500D02*
G75*
G02*
X16180000Y-5155500I-50000J0D01*
G01*
X16180000Y-5155500D02*
G75*
G02*
X16280000Y-5155500I50000J0D01*
G01*
X16180000Y-5359500D02*
X16280000Y-5459500D01*
X16280000Y-5359500D02*
X16180000Y-5459500D01*
X16280000Y-5409500D02*
G75*
G02*
X16180000Y-5409500I-50000J0D01*
G01*
X16180000Y-5409500D02*
G75*
G02*
X16280000Y-5409500I50000J0D01*
G01*
X16434000Y-5105500D02*
X16534000Y-5205500D01*
X16534000Y-5105500D02*
X16434000Y-5205500D01*
X16534000Y-5155500D02*
G75*
G02*
X16434000Y-5155500I-50000J0D01*
G01*
X16434000Y-5155500D02*
G75*
G02*
X16534000Y-5155500I50000J0D01*
G01*
X16434000Y-5359500D02*
X16534000Y-5459500D01*
X16534000Y-5359500D02*
X16434000Y-5459500D01*
X16534000Y-5409500D02*
G75*
G02*
X16434000Y-5409500I-50000J0D01*
G01*
X16434000Y-5409500D02*
G75*
G02*
X16534000Y-5409500I50000J0D01*
G01*
X16688000Y-5105500D02*
X16788000Y-5205500D01*
X16788000Y-5105500D02*
X16688000Y-5205500D01*
X16788000Y-5155500D02*
G75*
G02*
X16688000Y-5155500I-50000J0D01*
G01*
X16688000Y-5155500D02*
G75*
G02*
X16788000Y-5155500I50000J0D01*
G01*
X16688000Y-5359500D02*
X16788000Y-5459500D01*
X16788000Y-5359500D02*
X16688000Y-5459500D01*
X16788000Y-5409500D02*
G75*
G02*
X16688000Y-5409500I-50000J0D01*
G01*
X16688000Y-5409500D02*
G75*
G02*
X16788000Y-5409500I50000J0D01*
G01*
X16942000Y-5105500D02*
X17042000Y-5205500D01*
X17042000Y-5105500D02*
X16942000Y-5205500D01*
X17042000Y-5155500D02*
G75*
G02*
X16942000Y-5155500I-50000J0D01*
G01*
X16942000Y-5155500D02*
G75*
G02*
X17042000Y-5155500I50000J0D01*
G01*
X16942000Y-5359500D02*
X17042000Y-5459500D01*
X17042000Y-5359500D02*
X16942000Y-5459500D01*
X17042000Y-5409500D02*
G75*
G02*
X16942000Y-5409500I-50000J0D01*
G01*
X16942000Y-5409500D02*
G75*
G02*
X17042000Y-5409500I50000J0D01*
G01*
X17196000Y-5105500D02*
X17296000Y-5205500D01*
X17296000Y-5105500D02*
X17196000Y-5205500D01*
X17296000Y-5155500D02*
G75*
G02*
X17196000Y-5155500I-50000J0D01*
G01*
X17196000Y-5155500D02*
G75*
G02*
X17296000Y-5155500I50000J0D01*
G01*
X17196000Y-5359500D02*
X17296000Y-5459500D01*
X17296000Y-5359500D02*
X17196000Y-5459500D01*
X17296000Y-5409500D02*
G75*
G02*
X17196000Y-5409500I-50000J0D01*
G01*
X17196000Y-5409500D02*
G75*
G02*
X17296000Y-5409500I50000J0D01*
G01*
X17450000Y-5105500D02*
X17550000Y-5205500D01*
X17550000Y-5105500D02*
X17450000Y-5205500D01*
X17550000Y-5155500D02*
G75*
G02*
X17450000Y-5155500I-50000J0D01*
G01*
X17450000Y-5155500D02*
G75*
G02*
X17550000Y-5155500I50000J0D01*
G01*
X17450000Y-5359500D02*
X17550000Y-5459500D01*
X17550000Y-5359500D02*
X17450000Y-5459500D01*
X17550000Y-5409500D02*
G75*
G02*
X17450000Y-5409500I-50000J0D01*
G01*
X17450000Y-5409500D02*
G75*
G02*
X17550000Y-5409500I50000J0D01*
G01*
X17704000Y-5105500D02*
X17804000Y-5205500D01*
X17804000Y-5105500D02*
X17704000Y-5205500D01*
X17804000Y-5155500D02*
G75*
G02*
X17704000Y-5155500I-50000J0D01*
G01*
X17704000Y-5155500D02*
G75*
G02*
X17804000Y-5155500I50000J0D01*
G01*
X17704000Y-5359500D02*
X17804000Y-5459500D01*
X17804000Y-5359500D02*
X17704000Y-5459500D01*
X17804000Y-5409500D02*
G75*
G02*
X17704000Y-5409500I-50000J0D01*
G01*
X17704000Y-5409500D02*
G75*
G02*
X17804000Y-5409500I50000J0D01*
G01*
X17958000Y-5105500D02*
X18058000Y-5205500D01*
X18058000Y-5105500D02*
X17958000Y-5205500D01*
X18058000Y-5155500D02*
G75*
G02*
X17958000Y-5155500I-50000J0D01*
G01*
X17958000Y-5155500D02*
G75*
G02*
X18058000Y-5155500I50000J0D01*
G01*
X17958000Y-5359500D02*
X18058000Y-5459500D01*
X18058000Y-5359500D02*
X17958000Y-5459500D01*
X18058000Y-5409500D02*
G75*
G02*
X17958000Y-5409500I-50000J0D01*
G01*
X17958000Y-5409500D02*
G75*
G02*
X18058000Y-5409500I50000J0D01*
G01*
X18212000Y-5105500D02*
X18312000Y-5205500D01*
X18312000Y-5105500D02*
X18212000Y-5205500D01*
X18312000Y-5155500D02*
G75*
G02*
X18212000Y-5155500I-50000J0D01*
G01*
X18212000Y-5155500D02*
G75*
G02*
X18312000Y-5155500I50000J0D01*
G01*
X18212000Y-5359500D02*
X18312000Y-5459500D01*
X18312000Y-5359500D02*
X18212000Y-5459500D01*
X18312000Y-5409500D02*
G75*
G02*
X18212000Y-5409500I-50000J0D01*
G01*
X18212000Y-5409500D02*
G75*
G02*
X18312000Y-5409500I50000J0D01*
G01*
X18466000Y-5105500D02*
X18566000Y-5205500D01*
X18566000Y-5105500D02*
X18466000Y-5205500D01*
X18566000Y-5155500D02*
G75*
G02*
X18466000Y-5155500I-50000J0D01*
G01*
X18466000Y-5155500D02*
G75*
G02*
X18566000Y-5155500I50000J0D01*
G01*
X18466000Y-5359500D02*
X18566000Y-5459500D01*
X18566000Y-5359500D02*
X18466000Y-5459500D01*
X18566000Y-5409500D02*
G75*
G02*
X18466000Y-5409500I-50000J0D01*
G01*
X18466000Y-5409500D02*
G75*
G02*
X18566000Y-5409500I50000J0D01*
G01*
X18720000Y-5105500D02*
X18820000Y-5205500D01*
X18820000Y-5105500D02*
X18720000Y-5205500D01*
X18820000Y-5155500D02*
G75*
G02*
X18720000Y-5155500I-50000J0D01*
G01*
X18720000Y-5155500D02*
G75*
G02*
X18820000Y-5155500I50000J0D01*
G01*
X18720000Y-5359500D02*
X18820000Y-5459500D01*
X18820000Y-5359500D02*
X18720000Y-5459500D01*
X18820000Y-5409500D02*
G75*
G02*
X18720000Y-5409500I-50000J0D01*
G01*
X18720000Y-5409500D02*
G75*
G02*
X18820000Y-5409500I50000J0D01*
G01*
X18974000Y-5105500D02*
X19074000Y-5205500D01*
X19074000Y-5105500D02*
X18974000Y-5205500D01*
X19074000Y-5155500D02*
G75*
G02*
X18974000Y-5155500I-50000J0D01*
G01*
X18974000Y-5155500D02*
G75*
G02*
X19074000Y-5155500I50000J0D01*
G01*
X18974000Y-5359500D02*
X19074000Y-5459500D01*
X19074000Y-5359500D02*
X18974000Y-5459500D01*
X19074000Y-5409500D02*
G75*
G02*
X18974000Y-5409500I-50000J0D01*
G01*
X18974000Y-5409500D02*
G75*
G02*
X19074000Y-5409500I50000J0D01*
G01*
X19228000Y-5105500D02*
X19328000Y-5205500D01*
X19328000Y-5105500D02*
X19228000Y-5205500D01*
X19328000Y-5155500D02*
G75*
G02*
X19228000Y-5155500I-50000J0D01*
G01*
X19228000Y-5155500D02*
G75*
G02*
X19328000Y-5155500I50000J0D01*
G01*
X19228000Y-5359500D02*
X19328000Y-5459500D01*
X19328000Y-5359500D02*
X19228000Y-5459500D01*
X19328000Y-5409500D02*
G75*
G02*
X19228000Y-5409500I-50000J0D01*
G01*
X19228000Y-5409500D02*
G75*
G02*
X19328000Y-5409500I50000J0D01*
G01*
X19482000Y-5105500D02*
X19582000Y-5205500D01*
X19582000Y-5105500D02*
X19482000Y-5205500D01*
X19582000Y-5155500D02*
G75*
G02*
X19482000Y-5155500I-50000J0D01*
G01*
X19482000Y-5155500D02*
G75*
G02*
X19582000Y-5155500I50000J0D01*
G01*
X19482000Y-5359500D02*
X19582000Y-5459500D01*
X19582000Y-5359500D02*
X19482000Y-5459500D01*
X19582000Y-5409500D02*
G75*
G02*
X19482000Y-5409500I-50000J0D01*
G01*
X19482000Y-5409500D02*
G75*
G02*
X19582000Y-5409500I50000J0D01*
G01*
X19736000Y-5105500D02*
X19836000Y-5205500D01*
X19836000Y-5105500D02*
X19736000Y-5205500D01*
X19836000Y-5155500D02*
G75*
G02*
X19736000Y-5155500I-50000J0D01*
G01*
X19736000Y-5155500D02*
G75*
G02*
X19836000Y-5155500I50000J0D01*
G01*
X19736000Y-5359500D02*
X19836000Y-5459500D01*
X19836000Y-5359500D02*
X19736000Y-5459500D01*
X19836000Y-5409500D02*
G75*
G02*
X19736000Y-5409500I-50000J0D01*
G01*
X19736000Y-5409500D02*
G75*
G02*
X19836000Y-5409500I50000J0D01*
G01*
X19990000Y-5105500D02*
X20090000Y-5205500D01*
X20090000Y-5105500D02*
X19990000Y-5205500D01*
X20090000Y-5155500D02*
G75*
G02*
X19990000Y-5155500I-50000J0D01*
G01*
X19990000Y-5155500D02*
G75*
G02*
X20090000Y-5155500I50000J0D01*
G01*
X19990000Y-5359500D02*
X20090000Y-5459500D01*
X20090000Y-5359500D02*
X19990000Y-5459500D01*
X20090000Y-5409500D02*
G75*
G02*
X19990000Y-5409500I-50000J0D01*
G01*
X19990000Y-5409500D02*
G75*
G02*
X20090000Y-5409500I50000J0D01*
G01*
D15*
X14565000Y-10090000D02*
X14785000Y-10310000D01*
X14785000Y-10090000D02*
X14565000Y-10310000D01*
X14675000Y-10090000D02*
X14675000Y-10310000D01*
X14565000Y-10200000D02*
X14785000Y-10200000D01*
X20365000Y-5165000D02*
X20585000Y-5385000D01*
X20585000Y-5165000D02*
X20365000Y-5385000D01*
X20475000Y-5165000D02*
X20475000Y-5385000D01*
X20365000Y-5275000D02*
X20585000Y-5275000D01*
D11*
X14658277Y-10863984D02*
X14658277Y-10663984D01*
X14658277Y-10663984D02*
X14705896Y-10663984D01*
X14705896Y-10663984D02*
X14734467Y-10673508D01*
X14734467Y-10673508D02*
X14753515Y-10692555D01*
X14753515Y-10692555D02*
X14763039Y-10711603D01*
X14763039Y-10711603D02*
X14772562Y-10749698D01*
X14772562Y-10749698D02*
X14772562Y-10778270D01*
X14772562Y-10778270D02*
X14763039Y-10816365D01*
X14763039Y-10816365D02*
X14753515Y-10835412D01*
X14753515Y-10835412D02*
X14734467Y-10854460D01*
X14734467Y-10854460D02*
X14705896Y-10863984D01*
X14705896Y-10863984D02*
X14658277Y-10863984D01*
X14858277Y-10863984D02*
X14858277Y-10730650D01*
X14858277Y-10768746D02*
X14867801Y-10749698D01*
X14867801Y-10749698D02*
X14877324Y-10740174D01*
X14877324Y-10740174D02*
X14896372Y-10730650D01*
X14896372Y-10730650D02*
X14915420Y-10730650D01*
X14982086Y-10863984D02*
X14982086Y-10730650D01*
X14982086Y-10663984D02*
X14972562Y-10673508D01*
X14972562Y-10673508D02*
X14982086Y-10683031D01*
X14982086Y-10683031D02*
X14991610Y-10673508D01*
X14991610Y-10673508D02*
X14982086Y-10663984D01*
X14982086Y-10663984D02*
X14982086Y-10683031D01*
X15105896Y-10863984D02*
X15086848Y-10854460D01*
X15086848Y-10854460D02*
X15077324Y-10835412D01*
X15077324Y-10835412D02*
X15077324Y-10663984D01*
X15210658Y-10863984D02*
X15191610Y-10854460D01*
X15191610Y-10854460D02*
X15182086Y-10835412D01*
X15182086Y-10835412D02*
X15182086Y-10663984D01*
X15439229Y-10863984D02*
X15439229Y-10663984D01*
X15439229Y-10663984D02*
X15505896Y-10806841D01*
X15505896Y-10806841D02*
X15572562Y-10663984D01*
X15572562Y-10663984D02*
X15572562Y-10863984D01*
X15753515Y-10863984D02*
X15753515Y-10759222D01*
X15753515Y-10759222D02*
X15743991Y-10740174D01*
X15743991Y-10740174D02*
X15724943Y-10730650D01*
X15724943Y-10730650D02*
X15686848Y-10730650D01*
X15686848Y-10730650D02*
X15667801Y-10740174D01*
X15753515Y-10854460D02*
X15734467Y-10863984D01*
X15734467Y-10863984D02*
X15686848Y-10863984D01*
X15686848Y-10863984D02*
X15667801Y-10854460D01*
X15667801Y-10854460D02*
X15658277Y-10835412D01*
X15658277Y-10835412D02*
X15658277Y-10816365D01*
X15658277Y-10816365D02*
X15667801Y-10797317D01*
X15667801Y-10797317D02*
X15686848Y-10787793D01*
X15686848Y-10787793D02*
X15734467Y-10787793D01*
X15734467Y-10787793D02*
X15753515Y-10778270D01*
X15848753Y-10730650D02*
X15848753Y-10930650D01*
X15848753Y-10740174D02*
X15867801Y-10730650D01*
X15867801Y-10730650D02*
X15905896Y-10730650D01*
X15905896Y-10730650D02*
X15924943Y-10740174D01*
X15924943Y-10740174D02*
X15934467Y-10749698D01*
X15934467Y-10749698D02*
X15943991Y-10768746D01*
X15943991Y-10768746D02*
X15943991Y-10825889D01*
X15943991Y-10825889D02*
X15934467Y-10844936D01*
X15934467Y-10844936D02*
X15924943Y-10854460D01*
X15924943Y-10854460D02*
X15905896Y-10863984D01*
X15905896Y-10863984D02*
X15867801Y-10863984D01*
X15867801Y-10863984D02*
X15848753Y-10854460D01*
X16029705Y-10844936D02*
X16039229Y-10854460D01*
X16039229Y-10854460D02*
X16029705Y-10863984D01*
X16029705Y-10863984D02*
X16020182Y-10854460D01*
X16020182Y-10854460D02*
X16029705Y-10844936D01*
X16029705Y-10844936D02*
X16029705Y-10863984D01*
X16029705Y-10740174D02*
X16039229Y-10749698D01*
X16039229Y-10749698D02*
X16029705Y-10759222D01*
X16029705Y-10759222D02*
X16020182Y-10749698D01*
X16020182Y-10749698D02*
X16029705Y-10740174D01*
X16029705Y-10740174D02*
X16029705Y-10759222D01*
D12*
X14317500Y-11152500D02*
X14397500Y-11232500D01*
X14397500Y-11152500D02*
X14317500Y-11232500D01*
D11*
X14696372Y-11083984D02*
X14715420Y-11083984D01*
X14715420Y-11083984D02*
X14734467Y-11093508D01*
X14734467Y-11093508D02*
X14743991Y-11103031D01*
X14743991Y-11103031D02*
X14753515Y-11122079D01*
X14753515Y-11122079D02*
X14763039Y-11160174D01*
X14763039Y-11160174D02*
X14763039Y-11207793D01*
X14763039Y-11207793D02*
X14753515Y-11245888D01*
X14753515Y-11245888D02*
X14743991Y-11264936D01*
X14743991Y-11264936D02*
X14734467Y-11274460D01*
X14734467Y-11274460D02*
X14715420Y-11283984D01*
X14715420Y-11283984D02*
X14696372Y-11283984D01*
X14696372Y-11283984D02*
X14677324Y-11274460D01*
X14677324Y-11274460D02*
X14667801Y-11264936D01*
X14667801Y-11264936D02*
X14658277Y-11245888D01*
X14658277Y-11245888D02*
X14648753Y-11207793D01*
X14648753Y-11207793D02*
X14648753Y-11160174D01*
X14648753Y-11160174D02*
X14658277Y-11122079D01*
X14658277Y-11122079D02*
X14667801Y-11103031D01*
X14667801Y-11103031D02*
X14677324Y-11093508D01*
X14677324Y-11093508D02*
X14696372Y-11083984D01*
X14848753Y-11264936D02*
X14858277Y-11274460D01*
X14858277Y-11274460D02*
X14848753Y-11283984D01*
X14848753Y-11283984D02*
X14839229Y-11274460D01*
X14839229Y-11274460D02*
X14848753Y-11264936D01*
X14848753Y-11264936D02*
X14848753Y-11283984D01*
X14972562Y-11169698D02*
X14953515Y-11160174D01*
X14953515Y-11160174D02*
X14943991Y-11150650D01*
X14943991Y-11150650D02*
X14934467Y-11131603D01*
X14934467Y-11131603D02*
X14934467Y-11122079D01*
X14934467Y-11122079D02*
X14943991Y-11103031D01*
X14943991Y-11103031D02*
X14953515Y-11093508D01*
X14953515Y-11093508D02*
X14972562Y-11083984D01*
X14972562Y-11083984D02*
X15010658Y-11083984D01*
X15010658Y-11083984D02*
X15029705Y-11093508D01*
X15029705Y-11093508D02*
X15039229Y-11103031D01*
X15039229Y-11103031D02*
X15048753Y-11122079D01*
X15048753Y-11122079D02*
X15048753Y-11131603D01*
X15048753Y-11131603D02*
X15039229Y-11150650D01*
X15039229Y-11150650D02*
X15029705Y-11160174D01*
X15029705Y-11160174D02*
X15010658Y-11169698D01*
X15010658Y-11169698D02*
X14972562Y-11169698D01*
X14972562Y-11169698D02*
X14953515Y-11179222D01*
X14953515Y-11179222D02*
X14943991Y-11188746D01*
X14943991Y-11188746D02*
X14934467Y-11207793D01*
X14934467Y-11207793D02*
X14934467Y-11245888D01*
X14934467Y-11245888D02*
X14943991Y-11264936D01*
X14943991Y-11264936D02*
X14953515Y-11274460D01*
X14953515Y-11274460D02*
X14972562Y-11283984D01*
X14972562Y-11283984D02*
X15010658Y-11283984D01*
X15010658Y-11283984D02*
X15029705Y-11274460D01*
X15029705Y-11274460D02*
X15039229Y-11264936D01*
X15039229Y-11264936D02*
X15048753Y-11245888D01*
X15048753Y-11245888D02*
X15048753Y-11207793D01*
X15048753Y-11207793D02*
X15039229Y-11188746D01*
X15039229Y-11188746D02*
X15029705Y-11179222D01*
X15029705Y-11179222D02*
X15010658Y-11169698D01*
X15172562Y-11083984D02*
X15191610Y-11083984D01*
X15191610Y-11083984D02*
X15210658Y-11093508D01*
X15210658Y-11093508D02*
X15220182Y-11103031D01*
X15220182Y-11103031D02*
X15229705Y-11122079D01*
X15229705Y-11122079D02*
X15239229Y-11160174D01*
X15239229Y-11160174D02*
X15239229Y-11207793D01*
X15239229Y-11207793D02*
X15229705Y-11245888D01*
X15229705Y-11245888D02*
X15220182Y-11264936D01*
X15220182Y-11264936D02*
X15210658Y-11274460D01*
X15210658Y-11274460D02*
X15191610Y-11283984D01*
X15191610Y-11283984D02*
X15172562Y-11283984D01*
X15172562Y-11283984D02*
X15153515Y-11274460D01*
X15153515Y-11274460D02*
X15143991Y-11264936D01*
X15143991Y-11264936D02*
X15134467Y-11245888D01*
X15134467Y-11245888D02*
X15124943Y-11207793D01*
X15124943Y-11207793D02*
X15124943Y-11160174D01*
X15124943Y-11160174D02*
X15134467Y-11122079D01*
X15134467Y-11122079D02*
X15143991Y-11103031D01*
X15143991Y-11103031D02*
X15153515Y-11093508D01*
X15153515Y-11093508D02*
X15172562Y-11083984D01*
X15363039Y-11083984D02*
X15382086Y-11083984D01*
X15382086Y-11083984D02*
X15401134Y-11093508D01*
X15401134Y-11093508D02*
X15410658Y-11103031D01*
X15410658Y-11103031D02*
X15420182Y-11122079D01*
X15420182Y-11122079D02*
X15429705Y-11160174D01*
X15429705Y-11160174D02*
X15429705Y-11207793D01*
X15429705Y-11207793D02*
X15420182Y-11245888D01*
X15420182Y-11245888D02*
X15410658Y-11264936D01*
X15410658Y-11264936D02*
X15401134Y-11274460D01*
X15401134Y-11274460D02*
X15382086Y-11283984D01*
X15382086Y-11283984D02*
X15363039Y-11283984D01*
X15363039Y-11283984D02*
X15343991Y-11274460D01*
X15343991Y-11274460D02*
X15334467Y-11264936D01*
X15334467Y-11264936D02*
X15324943Y-11245888D01*
X15324943Y-11245888D02*
X15315420Y-11207793D01*
X15315420Y-11207793D02*
X15315420Y-11160174D01*
X15315420Y-11160174D02*
X15324943Y-11122079D01*
X15324943Y-11122079D02*
X15334467Y-11103031D01*
X15334467Y-11103031D02*
X15343991Y-11093508D01*
X15343991Y-11093508D02*
X15363039Y-11083984D01*
X15515420Y-11283984D02*
X15515420Y-11150650D01*
X15515420Y-11169698D02*
X15524943Y-11160174D01*
X15524943Y-11160174D02*
X15543991Y-11150650D01*
X15543991Y-11150650D02*
X15572563Y-11150650D01*
X15572563Y-11150650D02*
X15591610Y-11160174D01*
X15591610Y-11160174D02*
X15601134Y-11179222D01*
X15601134Y-11179222D02*
X15601134Y-11283984D01*
X15601134Y-11179222D02*
X15610658Y-11160174D01*
X15610658Y-11160174D02*
X15629705Y-11150650D01*
X15629705Y-11150650D02*
X15658277Y-11150650D01*
X15658277Y-11150650D02*
X15677324Y-11160174D01*
X15677324Y-11160174D02*
X15686848Y-11179222D01*
X15686848Y-11179222D02*
X15686848Y-11283984D01*
X15782086Y-11283984D02*
X15782086Y-11150650D01*
X15782086Y-11169698D02*
X15791610Y-11160174D01*
X15791610Y-11160174D02*
X15810658Y-11150650D01*
X15810658Y-11150650D02*
X15839229Y-11150650D01*
X15839229Y-11150650D02*
X15858277Y-11160174D01*
X15858277Y-11160174D02*
X15867801Y-11179222D01*
X15867801Y-11179222D02*
X15867801Y-11283984D01*
X15867801Y-11179222D02*
X15877324Y-11160174D01*
X15877324Y-11160174D02*
X15896372Y-11150650D01*
X15896372Y-11150650D02*
X15924943Y-11150650D01*
X15924943Y-11150650D02*
X15943991Y-11160174D01*
X15943991Y-11160174D02*
X15953515Y-11179222D01*
X15953515Y-11179222D02*
X15953515Y-11283984D01*
X16343991Y-11074460D02*
X16172563Y-11331603D01*
X16601134Y-11083984D02*
X16620182Y-11083984D01*
X16620182Y-11083984D02*
X16639229Y-11093508D01*
X16639229Y-11093508D02*
X16648753Y-11103031D01*
X16648753Y-11103031D02*
X16658277Y-11122079D01*
X16658277Y-11122079D02*
X16667801Y-11160174D01*
X16667801Y-11160174D02*
X16667801Y-11207793D01*
X16667801Y-11207793D02*
X16658277Y-11245888D01*
X16658277Y-11245888D02*
X16648753Y-11264936D01*
X16648753Y-11264936D02*
X16639229Y-11274460D01*
X16639229Y-11274460D02*
X16620182Y-11283984D01*
X16620182Y-11283984D02*
X16601134Y-11283984D01*
X16601134Y-11283984D02*
X16582086Y-11274460D01*
X16582086Y-11274460D02*
X16572563Y-11264936D01*
X16572563Y-11264936D02*
X16563039Y-11245888D01*
X16563039Y-11245888D02*
X16553515Y-11207793D01*
X16553515Y-11207793D02*
X16553515Y-11160174D01*
X16553515Y-11160174D02*
X16563039Y-11122079D01*
X16563039Y-11122079D02*
X16572563Y-11103031D01*
X16572563Y-11103031D02*
X16582086Y-11093508D01*
X16582086Y-11093508D02*
X16601134Y-11083984D01*
X16753515Y-11264936D02*
X16763039Y-11274460D01*
X16763039Y-11274460D02*
X16753515Y-11283984D01*
X16753515Y-11283984D02*
X16743991Y-11274460D01*
X16743991Y-11274460D02*
X16753515Y-11264936D01*
X16753515Y-11264936D02*
X16753515Y-11283984D01*
X16886848Y-11083984D02*
X16905896Y-11083984D01*
X16905896Y-11083984D02*
X16924944Y-11093508D01*
X16924944Y-11093508D02*
X16934468Y-11103031D01*
X16934468Y-11103031D02*
X16943991Y-11122079D01*
X16943991Y-11122079D02*
X16953515Y-11160174D01*
X16953515Y-11160174D02*
X16953515Y-11207793D01*
X16953515Y-11207793D02*
X16943991Y-11245888D01*
X16943991Y-11245888D02*
X16934468Y-11264936D01*
X16934468Y-11264936D02*
X16924944Y-11274460D01*
X16924944Y-11274460D02*
X16905896Y-11283984D01*
X16905896Y-11283984D02*
X16886848Y-11283984D01*
X16886848Y-11283984D02*
X16867801Y-11274460D01*
X16867801Y-11274460D02*
X16858277Y-11264936D01*
X16858277Y-11264936D02*
X16848753Y-11245888D01*
X16848753Y-11245888D02*
X16839229Y-11207793D01*
X16839229Y-11207793D02*
X16839229Y-11160174D01*
X16839229Y-11160174D02*
X16848753Y-11122079D01*
X16848753Y-11122079D02*
X16858277Y-11103031D01*
X16858277Y-11103031D02*
X16867801Y-11093508D01*
X16867801Y-11093508D02*
X16886848Y-11083984D01*
X17020182Y-11083984D02*
X17143991Y-11083984D01*
X17143991Y-11083984D02*
X17077325Y-11160174D01*
X17077325Y-11160174D02*
X17105896Y-11160174D01*
X17105896Y-11160174D02*
X17124944Y-11169698D01*
X17124944Y-11169698D02*
X17134468Y-11179222D01*
X17134468Y-11179222D02*
X17143991Y-11198269D01*
X17143991Y-11198269D02*
X17143991Y-11245888D01*
X17143991Y-11245888D02*
X17134468Y-11264936D01*
X17134468Y-11264936D02*
X17124944Y-11274460D01*
X17124944Y-11274460D02*
X17105896Y-11283984D01*
X17105896Y-11283984D02*
X17048753Y-11283984D01*
X17048753Y-11283984D02*
X17029706Y-11274460D01*
X17029706Y-11274460D02*
X17020182Y-11264936D01*
X17334468Y-11283984D02*
X17220182Y-11283984D01*
X17277325Y-11283984D02*
X17277325Y-11083984D01*
X17277325Y-11083984D02*
X17258277Y-11112555D01*
X17258277Y-11112555D02*
X17239229Y-11131603D01*
X17239229Y-11131603D02*
X17220182Y-11141127D01*
X17515420Y-11083984D02*
X17420182Y-11083984D01*
X17420182Y-11083984D02*
X17410658Y-11179222D01*
X17410658Y-11179222D02*
X17420182Y-11169698D01*
X17420182Y-11169698D02*
X17439229Y-11160174D01*
X17439229Y-11160174D02*
X17486849Y-11160174D01*
X17486849Y-11160174D02*
X17505896Y-11169698D01*
X17505896Y-11169698D02*
X17515420Y-11179222D01*
X17515420Y-11179222D02*
X17524944Y-11198269D01*
X17524944Y-11198269D02*
X17524944Y-11245888D01*
X17524944Y-11245888D02*
X17515420Y-11264936D01*
X17515420Y-11264936D02*
X17505896Y-11274460D01*
X17505896Y-11274460D02*
X17486849Y-11283984D01*
X17486849Y-11283984D02*
X17439229Y-11283984D01*
X17439229Y-11283984D02*
X17420182Y-11274460D01*
X17420182Y-11274460D02*
X17410658Y-11264936D01*
X17601134Y-11083984D02*
X17601134Y-11122079D01*
X17677325Y-11083984D02*
X17677325Y-11122079D01*
X17972563Y-11360174D02*
X17963039Y-11350650D01*
X17963039Y-11350650D02*
X17943991Y-11322079D01*
X17943991Y-11322079D02*
X17934468Y-11303031D01*
X17934468Y-11303031D02*
X17924944Y-11274460D01*
X17924944Y-11274460D02*
X17915420Y-11226841D01*
X17915420Y-11226841D02*
X17915420Y-11188746D01*
X17915420Y-11188746D02*
X17924944Y-11141127D01*
X17924944Y-11141127D02*
X17934468Y-11112555D01*
X17934468Y-11112555D02*
X17943991Y-11093508D01*
X17943991Y-11093508D02*
X17963039Y-11064936D01*
X17963039Y-11064936D02*
X17972563Y-11055412D01*
X18153515Y-11283984D02*
X18039230Y-11283984D01*
X18096372Y-11283984D02*
X18096372Y-11083984D01*
X18096372Y-11083984D02*
X18077325Y-11112555D01*
X18077325Y-11112555D02*
X18058277Y-11131603D01*
X18058277Y-11131603D02*
X18039230Y-11141127D01*
X18277325Y-11083984D02*
X18296372Y-11083984D01*
X18296372Y-11083984D02*
X18315420Y-11093508D01*
X18315420Y-11093508D02*
X18324944Y-11103031D01*
X18324944Y-11103031D02*
X18334468Y-11122079D01*
X18334468Y-11122079D02*
X18343991Y-11160174D01*
X18343991Y-11160174D02*
X18343991Y-11207793D01*
X18343991Y-11207793D02*
X18334468Y-11245888D01*
X18334468Y-11245888D02*
X18324944Y-11264936D01*
X18324944Y-11264936D02*
X18315420Y-11274460D01*
X18315420Y-11274460D02*
X18296372Y-11283984D01*
X18296372Y-11283984D02*
X18277325Y-11283984D01*
X18277325Y-11283984D02*
X18258277Y-11274460D01*
X18258277Y-11274460D02*
X18248753Y-11264936D01*
X18248753Y-11264936D02*
X18239230Y-11245888D01*
X18239230Y-11245888D02*
X18229706Y-11207793D01*
X18229706Y-11207793D02*
X18229706Y-11160174D01*
X18229706Y-11160174D02*
X18239230Y-11122079D01*
X18239230Y-11122079D02*
X18248753Y-11103031D01*
X18248753Y-11103031D02*
X18258277Y-11093508D01*
X18258277Y-11093508D02*
X18277325Y-11083984D01*
X18582087Y-11283984D02*
X18582087Y-11083984D01*
X18667801Y-11283984D02*
X18667801Y-11179222D01*
X18667801Y-11179222D02*
X18658277Y-11160174D01*
X18658277Y-11160174D02*
X18639230Y-11150650D01*
X18639230Y-11150650D02*
X18610658Y-11150650D01*
X18610658Y-11150650D02*
X18591611Y-11160174D01*
X18591611Y-11160174D02*
X18582087Y-11169698D01*
X18791611Y-11283984D02*
X18772563Y-11274460D01*
X18772563Y-11274460D02*
X18763039Y-11264936D01*
X18763039Y-11264936D02*
X18753515Y-11245888D01*
X18753515Y-11245888D02*
X18753515Y-11188746D01*
X18753515Y-11188746D02*
X18763039Y-11169698D01*
X18763039Y-11169698D02*
X18772563Y-11160174D01*
X18772563Y-11160174D02*
X18791611Y-11150650D01*
X18791611Y-11150650D02*
X18820182Y-11150650D01*
X18820182Y-11150650D02*
X18839230Y-11160174D01*
X18839230Y-11160174D02*
X18848753Y-11169698D01*
X18848753Y-11169698D02*
X18858277Y-11188746D01*
X18858277Y-11188746D02*
X18858277Y-11245888D01*
X18858277Y-11245888D02*
X18848753Y-11264936D01*
X18848753Y-11264936D02*
X18839230Y-11274460D01*
X18839230Y-11274460D02*
X18820182Y-11283984D01*
X18820182Y-11283984D02*
X18791611Y-11283984D01*
X18972563Y-11283984D02*
X18953515Y-11274460D01*
X18953515Y-11274460D02*
X18943992Y-11255412D01*
X18943992Y-11255412D02*
X18943992Y-11083984D01*
X19124944Y-11274460D02*
X19105896Y-11283984D01*
X19105896Y-11283984D02*
X19067801Y-11283984D01*
X19067801Y-11283984D02*
X19048753Y-11274460D01*
X19048753Y-11274460D02*
X19039230Y-11255412D01*
X19039230Y-11255412D02*
X19039230Y-11179222D01*
X19039230Y-11179222D02*
X19048753Y-11160174D01*
X19048753Y-11160174D02*
X19067801Y-11150650D01*
X19067801Y-11150650D02*
X19105896Y-11150650D01*
X19105896Y-11150650D02*
X19124944Y-11160174D01*
X19124944Y-11160174D02*
X19134468Y-11179222D01*
X19134468Y-11179222D02*
X19134468Y-11198269D01*
X19134468Y-11198269D02*
X19039230Y-11217317D01*
X19210658Y-11274460D02*
X19229706Y-11283984D01*
X19229706Y-11283984D02*
X19267801Y-11283984D01*
X19267801Y-11283984D02*
X19286849Y-11274460D01*
X19286849Y-11274460D02*
X19296373Y-11255412D01*
X19296373Y-11255412D02*
X19296373Y-11245888D01*
X19296373Y-11245888D02*
X19286849Y-11226841D01*
X19286849Y-11226841D02*
X19267801Y-11217317D01*
X19267801Y-11217317D02*
X19239230Y-11217317D01*
X19239230Y-11217317D02*
X19220182Y-11207793D01*
X19220182Y-11207793D02*
X19210658Y-11188746D01*
X19210658Y-11188746D02*
X19210658Y-11179222D01*
X19210658Y-11179222D02*
X19220182Y-11160174D01*
X19220182Y-11160174D02*
X19239230Y-11150650D01*
X19239230Y-11150650D02*
X19267801Y-11150650D01*
X19267801Y-11150650D02*
X19286849Y-11160174D01*
X19363039Y-11360174D02*
X19372563Y-11350650D01*
X19372563Y-11350650D02*
X19391611Y-11322079D01*
X19391611Y-11322079D02*
X19401134Y-11303031D01*
X19401134Y-11303031D02*
X19410658Y-11274460D01*
X19410658Y-11274460D02*
X19420182Y-11226841D01*
X19420182Y-11226841D02*
X19420182Y-11188746D01*
X19420182Y-11188746D02*
X19410658Y-11141127D01*
X19410658Y-11141127D02*
X19401134Y-11112555D01*
X19401134Y-11112555D02*
X19391611Y-11093508D01*
X19391611Y-11093508D02*
X19372563Y-11064936D01*
X19372563Y-11064936D02*
X19363039Y-11055412D01*
D12*
X14397500Y-11456500D02*
G75*
G02*
X14307500Y-11456500I-45000J0D01*
G01*
X14307500Y-11456500D02*
G75*
G02*
X14397500Y-11456500I45000J0D01*
G01*
D11*
X14696372Y-11347984D02*
X14715420Y-11347984D01*
X14715420Y-11347984D02*
X14734467Y-11357508D01*
X14734467Y-11357508D02*
X14743991Y-11367031D01*
X14743991Y-11367031D02*
X14753515Y-11386079D01*
X14753515Y-11386079D02*
X14763039Y-11424174D01*
X14763039Y-11424174D02*
X14763039Y-11471793D01*
X14763039Y-11471793D02*
X14753515Y-11509888D01*
X14753515Y-11509888D02*
X14743991Y-11528936D01*
X14743991Y-11528936D02*
X14734467Y-11538460D01*
X14734467Y-11538460D02*
X14715420Y-11547984D01*
X14715420Y-11547984D02*
X14696372Y-11547984D01*
X14696372Y-11547984D02*
X14677324Y-11538460D01*
X14677324Y-11538460D02*
X14667801Y-11528936D01*
X14667801Y-11528936D02*
X14658277Y-11509888D01*
X14658277Y-11509888D02*
X14648753Y-11471793D01*
X14648753Y-11471793D02*
X14648753Y-11424174D01*
X14648753Y-11424174D02*
X14658277Y-11386079D01*
X14658277Y-11386079D02*
X14667801Y-11367031D01*
X14667801Y-11367031D02*
X14677324Y-11357508D01*
X14677324Y-11357508D02*
X14696372Y-11347984D01*
X14848753Y-11528936D02*
X14858277Y-11538460D01*
X14858277Y-11538460D02*
X14848753Y-11547984D01*
X14848753Y-11547984D02*
X14839229Y-11538460D01*
X14839229Y-11538460D02*
X14848753Y-11528936D01*
X14848753Y-11528936D02*
X14848753Y-11547984D01*
X14953515Y-11547984D02*
X14991610Y-11547984D01*
X14991610Y-11547984D02*
X15010658Y-11538460D01*
X15010658Y-11538460D02*
X15020182Y-11528936D01*
X15020182Y-11528936D02*
X15039229Y-11500365D01*
X15039229Y-11500365D02*
X15048753Y-11462269D01*
X15048753Y-11462269D02*
X15048753Y-11386079D01*
X15048753Y-11386079D02*
X15039229Y-11367031D01*
X15039229Y-11367031D02*
X15029705Y-11357508D01*
X15029705Y-11357508D02*
X15010658Y-11347984D01*
X15010658Y-11347984D02*
X14972562Y-11347984D01*
X14972562Y-11347984D02*
X14953515Y-11357508D01*
X14953515Y-11357508D02*
X14943991Y-11367031D01*
X14943991Y-11367031D02*
X14934467Y-11386079D01*
X14934467Y-11386079D02*
X14934467Y-11433698D01*
X14934467Y-11433698D02*
X14943991Y-11452746D01*
X14943991Y-11452746D02*
X14953515Y-11462269D01*
X14953515Y-11462269D02*
X14972562Y-11471793D01*
X14972562Y-11471793D02*
X15010658Y-11471793D01*
X15010658Y-11471793D02*
X15029705Y-11462269D01*
X15029705Y-11462269D02*
X15039229Y-11452746D01*
X15039229Y-11452746D02*
X15048753Y-11433698D01*
X15172562Y-11347984D02*
X15191610Y-11347984D01*
X15191610Y-11347984D02*
X15210658Y-11357508D01*
X15210658Y-11357508D02*
X15220182Y-11367031D01*
X15220182Y-11367031D02*
X15229705Y-11386079D01*
X15229705Y-11386079D02*
X15239229Y-11424174D01*
X15239229Y-11424174D02*
X15239229Y-11471793D01*
X15239229Y-11471793D02*
X15229705Y-11509888D01*
X15229705Y-11509888D02*
X15220182Y-11528936D01*
X15220182Y-11528936D02*
X15210658Y-11538460D01*
X15210658Y-11538460D02*
X15191610Y-11547984D01*
X15191610Y-11547984D02*
X15172562Y-11547984D01*
X15172562Y-11547984D02*
X15153515Y-11538460D01*
X15153515Y-11538460D02*
X15143991Y-11528936D01*
X15143991Y-11528936D02*
X15134467Y-11509888D01*
X15134467Y-11509888D02*
X15124943Y-11471793D01*
X15124943Y-11471793D02*
X15124943Y-11424174D01*
X15124943Y-11424174D02*
X15134467Y-11386079D01*
X15134467Y-11386079D02*
X15143991Y-11367031D01*
X15143991Y-11367031D02*
X15153515Y-11357508D01*
X15153515Y-11357508D02*
X15172562Y-11347984D01*
X15363039Y-11347984D02*
X15382086Y-11347984D01*
X15382086Y-11347984D02*
X15401134Y-11357508D01*
X15401134Y-11357508D02*
X15410658Y-11367031D01*
X15410658Y-11367031D02*
X15420182Y-11386079D01*
X15420182Y-11386079D02*
X15429705Y-11424174D01*
X15429705Y-11424174D02*
X15429705Y-11471793D01*
X15429705Y-11471793D02*
X15420182Y-11509888D01*
X15420182Y-11509888D02*
X15410658Y-11528936D01*
X15410658Y-11528936D02*
X15401134Y-11538460D01*
X15401134Y-11538460D02*
X15382086Y-11547984D01*
X15382086Y-11547984D02*
X15363039Y-11547984D01*
X15363039Y-11547984D02*
X15343991Y-11538460D01*
X15343991Y-11538460D02*
X15334467Y-11528936D01*
X15334467Y-11528936D02*
X15324943Y-11509888D01*
X15324943Y-11509888D02*
X15315420Y-11471793D01*
X15315420Y-11471793D02*
X15315420Y-11424174D01*
X15315420Y-11424174D02*
X15324943Y-11386079D01*
X15324943Y-11386079D02*
X15334467Y-11367031D01*
X15334467Y-11367031D02*
X15343991Y-11357508D01*
X15343991Y-11357508D02*
X15363039Y-11347984D01*
X15515420Y-11547984D02*
X15515420Y-11414650D01*
X15515420Y-11433698D02*
X15524943Y-11424174D01*
X15524943Y-11424174D02*
X15543991Y-11414650D01*
X15543991Y-11414650D02*
X15572563Y-11414650D01*
X15572563Y-11414650D02*
X15591610Y-11424174D01*
X15591610Y-11424174D02*
X15601134Y-11443222D01*
X15601134Y-11443222D02*
X15601134Y-11547984D01*
X15601134Y-11443222D02*
X15610658Y-11424174D01*
X15610658Y-11424174D02*
X15629705Y-11414650D01*
X15629705Y-11414650D02*
X15658277Y-11414650D01*
X15658277Y-11414650D02*
X15677324Y-11424174D01*
X15677324Y-11424174D02*
X15686848Y-11443222D01*
X15686848Y-11443222D02*
X15686848Y-11547984D01*
X15782086Y-11547984D02*
X15782086Y-11414650D01*
X15782086Y-11433698D02*
X15791610Y-11424174D01*
X15791610Y-11424174D02*
X15810658Y-11414650D01*
X15810658Y-11414650D02*
X15839229Y-11414650D01*
X15839229Y-11414650D02*
X15858277Y-11424174D01*
X15858277Y-11424174D02*
X15867801Y-11443222D01*
X15867801Y-11443222D02*
X15867801Y-11547984D01*
X15867801Y-11443222D02*
X15877324Y-11424174D01*
X15877324Y-11424174D02*
X15896372Y-11414650D01*
X15896372Y-11414650D02*
X15924943Y-11414650D01*
X15924943Y-11414650D02*
X15943991Y-11424174D01*
X15943991Y-11424174D02*
X15953515Y-11443222D01*
X15953515Y-11443222D02*
X15953515Y-11547984D01*
X16343991Y-11338460D02*
X16172563Y-11595603D01*
X16601134Y-11347984D02*
X16620182Y-11347984D01*
X16620182Y-11347984D02*
X16639229Y-11357508D01*
X16639229Y-11357508D02*
X16648753Y-11367031D01*
X16648753Y-11367031D02*
X16658277Y-11386079D01*
X16658277Y-11386079D02*
X16667801Y-11424174D01*
X16667801Y-11424174D02*
X16667801Y-11471793D01*
X16667801Y-11471793D02*
X16658277Y-11509888D01*
X16658277Y-11509888D02*
X16648753Y-11528936D01*
X16648753Y-11528936D02*
X16639229Y-11538460D01*
X16639229Y-11538460D02*
X16620182Y-11547984D01*
X16620182Y-11547984D02*
X16601134Y-11547984D01*
X16601134Y-11547984D02*
X16582086Y-11538460D01*
X16582086Y-11538460D02*
X16572563Y-11528936D01*
X16572563Y-11528936D02*
X16563039Y-11509888D01*
X16563039Y-11509888D02*
X16553515Y-11471793D01*
X16553515Y-11471793D02*
X16553515Y-11424174D01*
X16553515Y-11424174D02*
X16563039Y-11386079D01*
X16563039Y-11386079D02*
X16572563Y-11367031D01*
X16572563Y-11367031D02*
X16582086Y-11357508D01*
X16582086Y-11357508D02*
X16601134Y-11347984D01*
X16753515Y-11528936D02*
X16763039Y-11538460D01*
X16763039Y-11538460D02*
X16753515Y-11547984D01*
X16753515Y-11547984D02*
X16743991Y-11538460D01*
X16743991Y-11538460D02*
X16753515Y-11528936D01*
X16753515Y-11528936D02*
X16753515Y-11547984D01*
X16886848Y-11347984D02*
X16905896Y-11347984D01*
X16905896Y-11347984D02*
X16924944Y-11357508D01*
X16924944Y-11357508D02*
X16934468Y-11367031D01*
X16934468Y-11367031D02*
X16943991Y-11386079D01*
X16943991Y-11386079D02*
X16953515Y-11424174D01*
X16953515Y-11424174D02*
X16953515Y-11471793D01*
X16953515Y-11471793D02*
X16943991Y-11509888D01*
X16943991Y-11509888D02*
X16934468Y-11528936D01*
X16934468Y-11528936D02*
X16924944Y-11538460D01*
X16924944Y-11538460D02*
X16905896Y-11547984D01*
X16905896Y-11547984D02*
X16886848Y-11547984D01*
X16886848Y-11547984D02*
X16867801Y-11538460D01*
X16867801Y-11538460D02*
X16858277Y-11528936D01*
X16858277Y-11528936D02*
X16848753Y-11509888D01*
X16848753Y-11509888D02*
X16839229Y-11471793D01*
X16839229Y-11471793D02*
X16839229Y-11424174D01*
X16839229Y-11424174D02*
X16848753Y-11386079D01*
X16848753Y-11386079D02*
X16858277Y-11367031D01*
X16858277Y-11367031D02*
X16867801Y-11357508D01*
X16867801Y-11357508D02*
X16886848Y-11347984D01*
X17020182Y-11347984D02*
X17143991Y-11347984D01*
X17143991Y-11347984D02*
X17077325Y-11424174D01*
X17077325Y-11424174D02*
X17105896Y-11424174D01*
X17105896Y-11424174D02*
X17124944Y-11433698D01*
X17124944Y-11433698D02*
X17134468Y-11443222D01*
X17134468Y-11443222D02*
X17143991Y-11462269D01*
X17143991Y-11462269D02*
X17143991Y-11509888D01*
X17143991Y-11509888D02*
X17134468Y-11528936D01*
X17134468Y-11528936D02*
X17124944Y-11538460D01*
X17124944Y-11538460D02*
X17105896Y-11547984D01*
X17105896Y-11547984D02*
X17048753Y-11547984D01*
X17048753Y-11547984D02*
X17029706Y-11538460D01*
X17029706Y-11538460D02*
X17020182Y-11528936D01*
X17324944Y-11347984D02*
X17229706Y-11347984D01*
X17229706Y-11347984D02*
X17220182Y-11443222D01*
X17220182Y-11443222D02*
X17229706Y-11433698D01*
X17229706Y-11433698D02*
X17248753Y-11424174D01*
X17248753Y-11424174D02*
X17296372Y-11424174D01*
X17296372Y-11424174D02*
X17315420Y-11433698D01*
X17315420Y-11433698D02*
X17324944Y-11443222D01*
X17324944Y-11443222D02*
X17334468Y-11462269D01*
X17334468Y-11462269D02*
X17334468Y-11509888D01*
X17334468Y-11509888D02*
X17324944Y-11528936D01*
X17324944Y-11528936D02*
X17315420Y-11538460D01*
X17315420Y-11538460D02*
X17296372Y-11547984D01*
X17296372Y-11547984D02*
X17248753Y-11547984D01*
X17248753Y-11547984D02*
X17229706Y-11538460D01*
X17229706Y-11538460D02*
X17220182Y-11528936D01*
X17505896Y-11414650D02*
X17505896Y-11547984D01*
X17458277Y-11338460D02*
X17410658Y-11481317D01*
X17410658Y-11481317D02*
X17534468Y-11481317D01*
X17601134Y-11347984D02*
X17601134Y-11386079D01*
X17677325Y-11347984D02*
X17677325Y-11386079D01*
X17972563Y-11624174D02*
X17963039Y-11614650D01*
X17963039Y-11614650D02*
X17943991Y-11586079D01*
X17943991Y-11586079D02*
X17934468Y-11567031D01*
X17934468Y-11567031D02*
X17924944Y-11538460D01*
X17924944Y-11538460D02*
X17915420Y-11490841D01*
X17915420Y-11490841D02*
X17915420Y-11452746D01*
X17915420Y-11452746D02*
X17924944Y-11405127D01*
X17924944Y-11405127D02*
X17934468Y-11376555D01*
X17934468Y-11376555D02*
X17943991Y-11357508D01*
X17943991Y-11357508D02*
X17963039Y-11328936D01*
X17963039Y-11328936D02*
X17972563Y-11319412D01*
X18134468Y-11414650D02*
X18134468Y-11547984D01*
X18086849Y-11338460D02*
X18039230Y-11481317D01*
X18039230Y-11481317D02*
X18163039Y-11481317D01*
X18391611Y-11547984D02*
X18391611Y-11347984D01*
X18477325Y-11547984D02*
X18477325Y-11443222D01*
X18477325Y-11443222D02*
X18467801Y-11424174D01*
X18467801Y-11424174D02*
X18448753Y-11414650D01*
X18448753Y-11414650D02*
X18420182Y-11414650D01*
X18420182Y-11414650D02*
X18401134Y-11424174D01*
X18401134Y-11424174D02*
X18391611Y-11433698D01*
X18601134Y-11547984D02*
X18582087Y-11538460D01*
X18582087Y-11538460D02*
X18572563Y-11528936D01*
X18572563Y-11528936D02*
X18563039Y-11509888D01*
X18563039Y-11509888D02*
X18563039Y-11452746D01*
X18563039Y-11452746D02*
X18572563Y-11433698D01*
X18572563Y-11433698D02*
X18582087Y-11424174D01*
X18582087Y-11424174D02*
X18601134Y-11414650D01*
X18601134Y-11414650D02*
X18629706Y-11414650D01*
X18629706Y-11414650D02*
X18648753Y-11424174D01*
X18648753Y-11424174D02*
X18658277Y-11433698D01*
X18658277Y-11433698D02*
X18667801Y-11452746D01*
X18667801Y-11452746D02*
X18667801Y-11509888D01*
X18667801Y-11509888D02*
X18658277Y-11528936D01*
X18658277Y-11528936D02*
X18648753Y-11538460D01*
X18648753Y-11538460D02*
X18629706Y-11547984D01*
X18629706Y-11547984D02*
X18601134Y-11547984D01*
X18782087Y-11547984D02*
X18763039Y-11538460D01*
X18763039Y-11538460D02*
X18753515Y-11519412D01*
X18753515Y-11519412D02*
X18753515Y-11347984D01*
X18934468Y-11538460D02*
X18915420Y-11547984D01*
X18915420Y-11547984D02*
X18877325Y-11547984D01*
X18877325Y-11547984D02*
X18858277Y-11538460D01*
X18858277Y-11538460D02*
X18848753Y-11519412D01*
X18848753Y-11519412D02*
X18848753Y-11443222D01*
X18848753Y-11443222D02*
X18858277Y-11424174D01*
X18858277Y-11424174D02*
X18877325Y-11414650D01*
X18877325Y-11414650D02*
X18915420Y-11414650D01*
X18915420Y-11414650D02*
X18934468Y-11424174D01*
X18934468Y-11424174D02*
X18943992Y-11443222D01*
X18943992Y-11443222D02*
X18943992Y-11462269D01*
X18943992Y-11462269D02*
X18848753Y-11481317D01*
X19020182Y-11538460D02*
X19039230Y-11547984D01*
X19039230Y-11547984D02*
X19077325Y-11547984D01*
X19077325Y-11547984D02*
X19096373Y-11538460D01*
X19096373Y-11538460D02*
X19105896Y-11519412D01*
X19105896Y-11519412D02*
X19105896Y-11509888D01*
X19105896Y-11509888D02*
X19096373Y-11490841D01*
X19096373Y-11490841D02*
X19077325Y-11481317D01*
X19077325Y-11481317D02*
X19048753Y-11481317D01*
X19048753Y-11481317D02*
X19029706Y-11471793D01*
X19029706Y-11471793D02*
X19020182Y-11452746D01*
X19020182Y-11452746D02*
X19020182Y-11443222D01*
X19020182Y-11443222D02*
X19029706Y-11424174D01*
X19029706Y-11424174D02*
X19048753Y-11414650D01*
X19048753Y-11414650D02*
X19077325Y-11414650D01*
X19077325Y-11414650D02*
X19096373Y-11424174D01*
X19172563Y-11624174D02*
X19182087Y-11614650D01*
X19182087Y-11614650D02*
X19201134Y-11586079D01*
X19201134Y-11586079D02*
X19210658Y-11567031D01*
X19210658Y-11567031D02*
X19220182Y-11538460D01*
X19220182Y-11538460D02*
X19229706Y-11490841D01*
X19229706Y-11490841D02*
X19229706Y-11452746D01*
X19229706Y-11452746D02*
X19220182Y-11405127D01*
X19220182Y-11405127D02*
X19210658Y-11376555D01*
X19210658Y-11376555D02*
X19201134Y-11357508D01*
X19201134Y-11357508D02*
X19182087Y-11328936D01*
X19182087Y-11328936D02*
X19172563Y-11319412D01*
D12*
X14347500Y-11670500D02*
X14347500Y-11770500D01*
X14297500Y-11720500D02*
X14397500Y-11720500D01*
D11*
X14763039Y-11811984D02*
X14648753Y-11811984D01*
X14705896Y-11811984D02*
X14705896Y-11611984D01*
X14705896Y-11611984D02*
X14686848Y-11640555D01*
X14686848Y-11640555D02*
X14667801Y-11659603D01*
X14667801Y-11659603D02*
X14648753Y-11669127D01*
X14848753Y-11792936D02*
X14858277Y-11802460D01*
X14858277Y-11802460D02*
X14848753Y-11811984D01*
X14848753Y-11811984D02*
X14839229Y-11802460D01*
X14839229Y-11802460D02*
X14848753Y-11792936D01*
X14848753Y-11792936D02*
X14848753Y-11811984D01*
X14982086Y-11611984D02*
X15001134Y-11611984D01*
X15001134Y-11611984D02*
X15020182Y-11621508D01*
X15020182Y-11621508D02*
X15029705Y-11631031D01*
X15029705Y-11631031D02*
X15039229Y-11650079D01*
X15039229Y-11650079D02*
X15048753Y-11688174D01*
X15048753Y-11688174D02*
X15048753Y-11735793D01*
X15048753Y-11735793D02*
X15039229Y-11773888D01*
X15039229Y-11773888D02*
X15029705Y-11792936D01*
X15029705Y-11792936D02*
X15020182Y-11802460D01*
X15020182Y-11802460D02*
X15001134Y-11811984D01*
X15001134Y-11811984D02*
X14982086Y-11811984D01*
X14982086Y-11811984D02*
X14963039Y-11802460D01*
X14963039Y-11802460D02*
X14953515Y-11792936D01*
X14953515Y-11792936D02*
X14943991Y-11773888D01*
X14943991Y-11773888D02*
X14934467Y-11735793D01*
X14934467Y-11735793D02*
X14934467Y-11688174D01*
X14934467Y-11688174D02*
X14943991Y-11650079D01*
X14943991Y-11650079D02*
X14953515Y-11631031D01*
X14953515Y-11631031D02*
X14963039Y-11621508D01*
X14963039Y-11621508D02*
X14982086Y-11611984D01*
X15172562Y-11611984D02*
X15191610Y-11611984D01*
X15191610Y-11611984D02*
X15210658Y-11621508D01*
X15210658Y-11621508D02*
X15220182Y-11631031D01*
X15220182Y-11631031D02*
X15229705Y-11650079D01*
X15229705Y-11650079D02*
X15239229Y-11688174D01*
X15239229Y-11688174D02*
X15239229Y-11735793D01*
X15239229Y-11735793D02*
X15229705Y-11773888D01*
X15229705Y-11773888D02*
X15220182Y-11792936D01*
X15220182Y-11792936D02*
X15210658Y-11802460D01*
X15210658Y-11802460D02*
X15191610Y-11811984D01*
X15191610Y-11811984D02*
X15172562Y-11811984D01*
X15172562Y-11811984D02*
X15153515Y-11802460D01*
X15153515Y-11802460D02*
X15143991Y-11792936D01*
X15143991Y-11792936D02*
X15134467Y-11773888D01*
X15134467Y-11773888D02*
X15124943Y-11735793D01*
X15124943Y-11735793D02*
X15124943Y-11688174D01*
X15124943Y-11688174D02*
X15134467Y-11650079D01*
X15134467Y-11650079D02*
X15143991Y-11631031D01*
X15143991Y-11631031D02*
X15153515Y-11621508D01*
X15153515Y-11621508D02*
X15172562Y-11611984D01*
X15363039Y-11611984D02*
X15382086Y-11611984D01*
X15382086Y-11611984D02*
X15401134Y-11621508D01*
X15401134Y-11621508D02*
X15410658Y-11631031D01*
X15410658Y-11631031D02*
X15420182Y-11650079D01*
X15420182Y-11650079D02*
X15429705Y-11688174D01*
X15429705Y-11688174D02*
X15429705Y-11735793D01*
X15429705Y-11735793D02*
X15420182Y-11773888D01*
X15420182Y-11773888D02*
X15410658Y-11792936D01*
X15410658Y-11792936D02*
X15401134Y-11802460D01*
X15401134Y-11802460D02*
X15382086Y-11811984D01*
X15382086Y-11811984D02*
X15363039Y-11811984D01*
X15363039Y-11811984D02*
X15343991Y-11802460D01*
X15343991Y-11802460D02*
X15334467Y-11792936D01*
X15334467Y-11792936D02*
X15324943Y-11773888D01*
X15324943Y-11773888D02*
X15315420Y-11735793D01*
X15315420Y-11735793D02*
X15315420Y-11688174D01*
X15315420Y-11688174D02*
X15324943Y-11650079D01*
X15324943Y-11650079D02*
X15334467Y-11631031D01*
X15334467Y-11631031D02*
X15343991Y-11621508D01*
X15343991Y-11621508D02*
X15363039Y-11611984D01*
X15515420Y-11811984D02*
X15515420Y-11678650D01*
X15515420Y-11697698D02*
X15524943Y-11688174D01*
X15524943Y-11688174D02*
X15543991Y-11678650D01*
X15543991Y-11678650D02*
X15572563Y-11678650D01*
X15572563Y-11678650D02*
X15591610Y-11688174D01*
X15591610Y-11688174D02*
X15601134Y-11707222D01*
X15601134Y-11707222D02*
X15601134Y-11811984D01*
X15601134Y-11707222D02*
X15610658Y-11688174D01*
X15610658Y-11688174D02*
X15629705Y-11678650D01*
X15629705Y-11678650D02*
X15658277Y-11678650D01*
X15658277Y-11678650D02*
X15677324Y-11688174D01*
X15677324Y-11688174D02*
X15686848Y-11707222D01*
X15686848Y-11707222D02*
X15686848Y-11811984D01*
X15782086Y-11811984D02*
X15782086Y-11678650D01*
X15782086Y-11697698D02*
X15791610Y-11688174D01*
X15791610Y-11688174D02*
X15810658Y-11678650D01*
X15810658Y-11678650D02*
X15839229Y-11678650D01*
X15839229Y-11678650D02*
X15858277Y-11688174D01*
X15858277Y-11688174D02*
X15867801Y-11707222D01*
X15867801Y-11707222D02*
X15867801Y-11811984D01*
X15867801Y-11707222D02*
X15877324Y-11688174D01*
X15877324Y-11688174D02*
X15896372Y-11678650D01*
X15896372Y-11678650D02*
X15924943Y-11678650D01*
X15924943Y-11678650D02*
X15943991Y-11688174D01*
X15943991Y-11688174D02*
X15953515Y-11707222D01*
X15953515Y-11707222D02*
X15953515Y-11811984D01*
X16343991Y-11602460D02*
X16172563Y-11859603D01*
X16601134Y-11611984D02*
X16620182Y-11611984D01*
X16620182Y-11611984D02*
X16639229Y-11621508D01*
X16639229Y-11621508D02*
X16648753Y-11631031D01*
X16648753Y-11631031D02*
X16658277Y-11650079D01*
X16658277Y-11650079D02*
X16667801Y-11688174D01*
X16667801Y-11688174D02*
X16667801Y-11735793D01*
X16667801Y-11735793D02*
X16658277Y-11773888D01*
X16658277Y-11773888D02*
X16648753Y-11792936D01*
X16648753Y-11792936D02*
X16639229Y-11802460D01*
X16639229Y-11802460D02*
X16620182Y-11811984D01*
X16620182Y-11811984D02*
X16601134Y-11811984D01*
X16601134Y-11811984D02*
X16582086Y-11802460D01*
X16582086Y-11802460D02*
X16572563Y-11792936D01*
X16572563Y-11792936D02*
X16563039Y-11773888D01*
X16563039Y-11773888D02*
X16553515Y-11735793D01*
X16553515Y-11735793D02*
X16553515Y-11688174D01*
X16553515Y-11688174D02*
X16563039Y-11650079D01*
X16563039Y-11650079D02*
X16572563Y-11631031D01*
X16572563Y-11631031D02*
X16582086Y-11621508D01*
X16582086Y-11621508D02*
X16601134Y-11611984D01*
X16753515Y-11792936D02*
X16763039Y-11802460D01*
X16763039Y-11802460D02*
X16753515Y-11811984D01*
X16753515Y-11811984D02*
X16743991Y-11802460D01*
X16743991Y-11802460D02*
X16753515Y-11792936D01*
X16753515Y-11792936D02*
X16753515Y-11811984D01*
X16886848Y-11611984D02*
X16905896Y-11611984D01*
X16905896Y-11611984D02*
X16924944Y-11621508D01*
X16924944Y-11621508D02*
X16934468Y-11631031D01*
X16934468Y-11631031D02*
X16943991Y-11650079D01*
X16943991Y-11650079D02*
X16953515Y-11688174D01*
X16953515Y-11688174D02*
X16953515Y-11735793D01*
X16953515Y-11735793D02*
X16943991Y-11773888D01*
X16943991Y-11773888D02*
X16934468Y-11792936D01*
X16934468Y-11792936D02*
X16924944Y-11802460D01*
X16924944Y-11802460D02*
X16905896Y-11811984D01*
X16905896Y-11811984D02*
X16886848Y-11811984D01*
X16886848Y-11811984D02*
X16867801Y-11802460D01*
X16867801Y-11802460D02*
X16858277Y-11792936D01*
X16858277Y-11792936D02*
X16848753Y-11773888D01*
X16848753Y-11773888D02*
X16839229Y-11735793D01*
X16839229Y-11735793D02*
X16839229Y-11688174D01*
X16839229Y-11688174D02*
X16848753Y-11650079D01*
X16848753Y-11650079D02*
X16858277Y-11631031D01*
X16858277Y-11631031D02*
X16867801Y-11621508D01*
X16867801Y-11621508D02*
X16886848Y-11611984D01*
X17020182Y-11611984D02*
X17143991Y-11611984D01*
X17143991Y-11611984D02*
X17077325Y-11688174D01*
X17077325Y-11688174D02*
X17105896Y-11688174D01*
X17105896Y-11688174D02*
X17124944Y-11697698D01*
X17124944Y-11697698D02*
X17134468Y-11707222D01*
X17134468Y-11707222D02*
X17143991Y-11726269D01*
X17143991Y-11726269D02*
X17143991Y-11773888D01*
X17143991Y-11773888D02*
X17134468Y-11792936D01*
X17134468Y-11792936D02*
X17124944Y-11802460D01*
X17124944Y-11802460D02*
X17105896Y-11811984D01*
X17105896Y-11811984D02*
X17048753Y-11811984D01*
X17048753Y-11811984D02*
X17029706Y-11802460D01*
X17029706Y-11802460D02*
X17020182Y-11792936D01*
X17239229Y-11811984D02*
X17277325Y-11811984D01*
X17277325Y-11811984D02*
X17296372Y-11802460D01*
X17296372Y-11802460D02*
X17305896Y-11792936D01*
X17305896Y-11792936D02*
X17324944Y-11764365D01*
X17324944Y-11764365D02*
X17334468Y-11726269D01*
X17334468Y-11726269D02*
X17334468Y-11650079D01*
X17334468Y-11650079D02*
X17324944Y-11631031D01*
X17324944Y-11631031D02*
X17315420Y-11621508D01*
X17315420Y-11621508D02*
X17296372Y-11611984D01*
X17296372Y-11611984D02*
X17258277Y-11611984D01*
X17258277Y-11611984D02*
X17239229Y-11621508D01*
X17239229Y-11621508D02*
X17229706Y-11631031D01*
X17229706Y-11631031D02*
X17220182Y-11650079D01*
X17220182Y-11650079D02*
X17220182Y-11697698D01*
X17220182Y-11697698D02*
X17229706Y-11716746D01*
X17229706Y-11716746D02*
X17239229Y-11726269D01*
X17239229Y-11726269D02*
X17258277Y-11735793D01*
X17258277Y-11735793D02*
X17296372Y-11735793D01*
X17296372Y-11735793D02*
X17315420Y-11726269D01*
X17315420Y-11726269D02*
X17324944Y-11716746D01*
X17324944Y-11716746D02*
X17334468Y-11697698D01*
X17505896Y-11678650D02*
X17505896Y-11811984D01*
X17458277Y-11602460D02*
X17410658Y-11745317D01*
X17410658Y-11745317D02*
X17534468Y-11745317D01*
X17601134Y-11611984D02*
X17601134Y-11650079D01*
X17677325Y-11611984D02*
X17677325Y-11650079D01*
X17972563Y-11888174D02*
X17963039Y-11878650D01*
X17963039Y-11878650D02*
X17943991Y-11850079D01*
X17943991Y-11850079D02*
X17934468Y-11831031D01*
X17934468Y-11831031D02*
X17924944Y-11802460D01*
X17924944Y-11802460D02*
X17915420Y-11754841D01*
X17915420Y-11754841D02*
X17915420Y-11716746D01*
X17915420Y-11716746D02*
X17924944Y-11669127D01*
X17924944Y-11669127D02*
X17934468Y-11640555D01*
X17934468Y-11640555D02*
X17943991Y-11621508D01*
X17943991Y-11621508D02*
X17963039Y-11592936D01*
X17963039Y-11592936D02*
X17972563Y-11583412D01*
X18039230Y-11631031D02*
X18048753Y-11621508D01*
X18048753Y-11621508D02*
X18067801Y-11611984D01*
X18067801Y-11611984D02*
X18115420Y-11611984D01*
X18115420Y-11611984D02*
X18134468Y-11621508D01*
X18134468Y-11621508D02*
X18143991Y-11631031D01*
X18143991Y-11631031D02*
X18153515Y-11650079D01*
X18153515Y-11650079D02*
X18153515Y-11669127D01*
X18153515Y-11669127D02*
X18143991Y-11697698D01*
X18143991Y-11697698D02*
X18029706Y-11811984D01*
X18029706Y-11811984D02*
X18153515Y-11811984D01*
X18324944Y-11611984D02*
X18286849Y-11611984D01*
X18286849Y-11611984D02*
X18267801Y-11621508D01*
X18267801Y-11621508D02*
X18258277Y-11631031D01*
X18258277Y-11631031D02*
X18239230Y-11659603D01*
X18239230Y-11659603D02*
X18229706Y-11697698D01*
X18229706Y-11697698D02*
X18229706Y-11773888D01*
X18229706Y-11773888D02*
X18239230Y-11792936D01*
X18239230Y-11792936D02*
X18248753Y-11802460D01*
X18248753Y-11802460D02*
X18267801Y-11811984D01*
X18267801Y-11811984D02*
X18305896Y-11811984D01*
X18305896Y-11811984D02*
X18324944Y-11802460D01*
X18324944Y-11802460D02*
X18334468Y-11792936D01*
X18334468Y-11792936D02*
X18343991Y-11773888D01*
X18343991Y-11773888D02*
X18343991Y-11726269D01*
X18343991Y-11726269D02*
X18334468Y-11707222D01*
X18334468Y-11707222D02*
X18324944Y-11697698D01*
X18324944Y-11697698D02*
X18305896Y-11688174D01*
X18305896Y-11688174D02*
X18267801Y-11688174D01*
X18267801Y-11688174D02*
X18248753Y-11697698D01*
X18248753Y-11697698D02*
X18239230Y-11707222D01*
X18239230Y-11707222D02*
X18229706Y-11726269D01*
X18582087Y-11811984D02*
X18582087Y-11611984D01*
X18667801Y-11811984D02*
X18667801Y-11707222D01*
X18667801Y-11707222D02*
X18658277Y-11688174D01*
X18658277Y-11688174D02*
X18639230Y-11678650D01*
X18639230Y-11678650D02*
X18610658Y-11678650D01*
X18610658Y-11678650D02*
X18591611Y-11688174D01*
X18591611Y-11688174D02*
X18582087Y-11697698D01*
X18791611Y-11811984D02*
X18772563Y-11802460D01*
X18772563Y-11802460D02*
X18763039Y-11792936D01*
X18763039Y-11792936D02*
X18753515Y-11773888D01*
X18753515Y-11773888D02*
X18753515Y-11716746D01*
X18753515Y-11716746D02*
X18763039Y-11697698D01*
X18763039Y-11697698D02*
X18772563Y-11688174D01*
X18772563Y-11688174D02*
X18791611Y-11678650D01*
X18791611Y-11678650D02*
X18820182Y-11678650D01*
X18820182Y-11678650D02*
X18839230Y-11688174D01*
X18839230Y-11688174D02*
X18848753Y-11697698D01*
X18848753Y-11697698D02*
X18858277Y-11716746D01*
X18858277Y-11716746D02*
X18858277Y-11773888D01*
X18858277Y-11773888D02*
X18848753Y-11792936D01*
X18848753Y-11792936D02*
X18839230Y-11802460D01*
X18839230Y-11802460D02*
X18820182Y-11811984D01*
X18820182Y-11811984D02*
X18791611Y-11811984D01*
X18972563Y-11811984D02*
X18953515Y-11802460D01*
X18953515Y-11802460D02*
X18943992Y-11783412D01*
X18943992Y-11783412D02*
X18943992Y-11611984D01*
X19124944Y-11802460D02*
X19105896Y-11811984D01*
X19105896Y-11811984D02*
X19067801Y-11811984D01*
X19067801Y-11811984D02*
X19048753Y-11802460D01*
X19048753Y-11802460D02*
X19039230Y-11783412D01*
X19039230Y-11783412D02*
X19039230Y-11707222D01*
X19039230Y-11707222D02*
X19048753Y-11688174D01*
X19048753Y-11688174D02*
X19067801Y-11678650D01*
X19067801Y-11678650D02*
X19105896Y-11678650D01*
X19105896Y-11678650D02*
X19124944Y-11688174D01*
X19124944Y-11688174D02*
X19134468Y-11707222D01*
X19134468Y-11707222D02*
X19134468Y-11726269D01*
X19134468Y-11726269D02*
X19039230Y-11745317D01*
X19210658Y-11802460D02*
X19229706Y-11811984D01*
X19229706Y-11811984D02*
X19267801Y-11811984D01*
X19267801Y-11811984D02*
X19286849Y-11802460D01*
X19286849Y-11802460D02*
X19296373Y-11783412D01*
X19296373Y-11783412D02*
X19296373Y-11773888D01*
X19296373Y-11773888D02*
X19286849Y-11754841D01*
X19286849Y-11754841D02*
X19267801Y-11745317D01*
X19267801Y-11745317D02*
X19239230Y-11745317D01*
X19239230Y-11745317D02*
X19220182Y-11735793D01*
X19220182Y-11735793D02*
X19210658Y-11716746D01*
X19210658Y-11716746D02*
X19210658Y-11707222D01*
X19210658Y-11707222D02*
X19220182Y-11688174D01*
X19220182Y-11688174D02*
X19239230Y-11678650D01*
X19239230Y-11678650D02*
X19267801Y-11678650D01*
X19267801Y-11678650D02*
X19286849Y-11688174D01*
X19363039Y-11888174D02*
X19372563Y-11878650D01*
X19372563Y-11878650D02*
X19391611Y-11850079D01*
X19391611Y-11850079D02*
X19401134Y-11831031D01*
X19401134Y-11831031D02*
X19410658Y-11802460D01*
X19410658Y-11802460D02*
X19420182Y-11754841D01*
X19420182Y-11754841D02*
X19420182Y-11716746D01*
X19420182Y-11716746D02*
X19410658Y-11669127D01*
X19410658Y-11669127D02*
X19401134Y-11640555D01*
X19401134Y-11640555D02*
X19391611Y-11621508D01*
X19391611Y-11621508D02*
X19372563Y-11592936D01*
X19372563Y-11592936D02*
X19363039Y-11583412D01*
D13*
X14381391Y-12023391D02*
X14381391Y-11945609D01*
X14303609Y-11945609D01*
X14303609Y-12023391D01*
X14381391Y-12023391D01*
D11*
X14763039Y-12075984D02*
X14648753Y-12075984D01*
X14705896Y-12075984D02*
X14705896Y-11875984D01*
X14705896Y-11875984D02*
X14686848Y-11904555D01*
X14686848Y-11904555D02*
X14667801Y-11923603D01*
X14667801Y-11923603D02*
X14648753Y-11933127D01*
X14848753Y-12056936D02*
X14858277Y-12066460D01*
X14858277Y-12066460D02*
X14848753Y-12075984D01*
X14848753Y-12075984D02*
X14839229Y-12066460D01*
X14839229Y-12066460D02*
X14848753Y-12056936D01*
X14848753Y-12056936D02*
X14848753Y-12075984D01*
X15048753Y-12075984D02*
X14934467Y-12075984D01*
X14991610Y-12075984D02*
X14991610Y-11875984D01*
X14991610Y-11875984D02*
X14972562Y-11904555D01*
X14972562Y-11904555D02*
X14953515Y-11923603D01*
X14953515Y-11923603D02*
X14934467Y-11933127D01*
X15172562Y-11875984D02*
X15191610Y-11875984D01*
X15191610Y-11875984D02*
X15210658Y-11885508D01*
X15210658Y-11885508D02*
X15220182Y-11895031D01*
X15220182Y-11895031D02*
X15229705Y-11914079D01*
X15229705Y-11914079D02*
X15239229Y-11952174D01*
X15239229Y-11952174D02*
X15239229Y-11999793D01*
X15239229Y-11999793D02*
X15229705Y-12037888D01*
X15229705Y-12037888D02*
X15220182Y-12056936D01*
X15220182Y-12056936D02*
X15210658Y-12066460D01*
X15210658Y-12066460D02*
X15191610Y-12075984D01*
X15191610Y-12075984D02*
X15172562Y-12075984D01*
X15172562Y-12075984D02*
X15153515Y-12066460D01*
X15153515Y-12066460D02*
X15143991Y-12056936D01*
X15143991Y-12056936D02*
X15134467Y-12037888D01*
X15134467Y-12037888D02*
X15124943Y-11999793D01*
X15124943Y-11999793D02*
X15124943Y-11952174D01*
X15124943Y-11952174D02*
X15134467Y-11914079D01*
X15134467Y-11914079D02*
X15143991Y-11895031D01*
X15143991Y-11895031D02*
X15153515Y-11885508D01*
X15153515Y-11885508D02*
X15172562Y-11875984D01*
X15363039Y-11875984D02*
X15382086Y-11875984D01*
X15382086Y-11875984D02*
X15401134Y-11885508D01*
X15401134Y-11885508D02*
X15410658Y-11895031D01*
X15410658Y-11895031D02*
X15420182Y-11914079D01*
X15420182Y-11914079D02*
X15429705Y-11952174D01*
X15429705Y-11952174D02*
X15429705Y-11999793D01*
X15429705Y-11999793D02*
X15420182Y-12037888D01*
X15420182Y-12037888D02*
X15410658Y-12056936D01*
X15410658Y-12056936D02*
X15401134Y-12066460D01*
X15401134Y-12066460D02*
X15382086Y-12075984D01*
X15382086Y-12075984D02*
X15363039Y-12075984D01*
X15363039Y-12075984D02*
X15343991Y-12066460D01*
X15343991Y-12066460D02*
X15334467Y-12056936D01*
X15334467Y-12056936D02*
X15324943Y-12037888D01*
X15324943Y-12037888D02*
X15315420Y-11999793D01*
X15315420Y-11999793D02*
X15315420Y-11952174D01*
X15315420Y-11952174D02*
X15324943Y-11914079D01*
X15324943Y-11914079D02*
X15334467Y-11895031D01*
X15334467Y-11895031D02*
X15343991Y-11885508D01*
X15343991Y-11885508D02*
X15363039Y-11875984D01*
X15515420Y-12075984D02*
X15515420Y-11942650D01*
X15515420Y-11961698D02*
X15524943Y-11952174D01*
X15524943Y-11952174D02*
X15543991Y-11942650D01*
X15543991Y-11942650D02*
X15572563Y-11942650D01*
X15572563Y-11942650D02*
X15591610Y-11952174D01*
X15591610Y-11952174D02*
X15601134Y-11971222D01*
X15601134Y-11971222D02*
X15601134Y-12075984D01*
X15601134Y-11971222D02*
X15610658Y-11952174D01*
X15610658Y-11952174D02*
X15629705Y-11942650D01*
X15629705Y-11942650D02*
X15658277Y-11942650D01*
X15658277Y-11942650D02*
X15677324Y-11952174D01*
X15677324Y-11952174D02*
X15686848Y-11971222D01*
X15686848Y-11971222D02*
X15686848Y-12075984D01*
X15782086Y-12075984D02*
X15782086Y-11942650D01*
X15782086Y-11961698D02*
X15791610Y-11952174D01*
X15791610Y-11952174D02*
X15810658Y-11942650D01*
X15810658Y-11942650D02*
X15839229Y-11942650D01*
X15839229Y-11942650D02*
X15858277Y-11952174D01*
X15858277Y-11952174D02*
X15867801Y-11971222D01*
X15867801Y-11971222D02*
X15867801Y-12075984D01*
X15867801Y-11971222D02*
X15877324Y-11952174D01*
X15877324Y-11952174D02*
X15896372Y-11942650D01*
X15896372Y-11942650D02*
X15924943Y-11942650D01*
X15924943Y-11942650D02*
X15943991Y-11952174D01*
X15943991Y-11952174D02*
X15953515Y-11971222D01*
X15953515Y-11971222D02*
X15953515Y-12075984D01*
X16343991Y-11866460D02*
X16172563Y-12123603D01*
X16601134Y-11875984D02*
X16620182Y-11875984D01*
X16620182Y-11875984D02*
X16639229Y-11885508D01*
X16639229Y-11885508D02*
X16648753Y-11895031D01*
X16648753Y-11895031D02*
X16658277Y-11914079D01*
X16658277Y-11914079D02*
X16667801Y-11952174D01*
X16667801Y-11952174D02*
X16667801Y-11999793D01*
X16667801Y-11999793D02*
X16658277Y-12037888D01*
X16658277Y-12037888D02*
X16648753Y-12056936D01*
X16648753Y-12056936D02*
X16639229Y-12066460D01*
X16639229Y-12066460D02*
X16620182Y-12075984D01*
X16620182Y-12075984D02*
X16601134Y-12075984D01*
X16601134Y-12075984D02*
X16582086Y-12066460D01*
X16582086Y-12066460D02*
X16572563Y-12056936D01*
X16572563Y-12056936D02*
X16563039Y-12037888D01*
X16563039Y-12037888D02*
X16553515Y-11999793D01*
X16553515Y-11999793D02*
X16553515Y-11952174D01*
X16553515Y-11952174D02*
X16563039Y-11914079D01*
X16563039Y-11914079D02*
X16572563Y-11895031D01*
X16572563Y-11895031D02*
X16582086Y-11885508D01*
X16582086Y-11885508D02*
X16601134Y-11875984D01*
X16753515Y-12056936D02*
X16763039Y-12066460D01*
X16763039Y-12066460D02*
X16753515Y-12075984D01*
X16753515Y-12075984D02*
X16743991Y-12066460D01*
X16743991Y-12066460D02*
X16753515Y-12056936D01*
X16753515Y-12056936D02*
X16753515Y-12075984D01*
X16886848Y-11875984D02*
X16905896Y-11875984D01*
X16905896Y-11875984D02*
X16924944Y-11885508D01*
X16924944Y-11885508D02*
X16934468Y-11895031D01*
X16934468Y-11895031D02*
X16943991Y-11914079D01*
X16943991Y-11914079D02*
X16953515Y-11952174D01*
X16953515Y-11952174D02*
X16953515Y-11999793D01*
X16953515Y-11999793D02*
X16943991Y-12037888D01*
X16943991Y-12037888D02*
X16934468Y-12056936D01*
X16934468Y-12056936D02*
X16924944Y-12066460D01*
X16924944Y-12066460D02*
X16905896Y-12075984D01*
X16905896Y-12075984D02*
X16886848Y-12075984D01*
X16886848Y-12075984D02*
X16867801Y-12066460D01*
X16867801Y-12066460D02*
X16858277Y-12056936D01*
X16858277Y-12056936D02*
X16848753Y-12037888D01*
X16848753Y-12037888D02*
X16839229Y-11999793D01*
X16839229Y-11999793D02*
X16839229Y-11952174D01*
X16839229Y-11952174D02*
X16848753Y-11914079D01*
X16848753Y-11914079D02*
X16858277Y-11895031D01*
X16858277Y-11895031D02*
X16867801Y-11885508D01*
X16867801Y-11885508D02*
X16886848Y-11875984D01*
X17124944Y-11942650D02*
X17124944Y-12075984D01*
X17077325Y-11866460D02*
X17029706Y-12009317D01*
X17029706Y-12009317D02*
X17153515Y-12009317D01*
X17210658Y-11875984D02*
X17334468Y-11875984D01*
X17334468Y-11875984D02*
X17267801Y-11952174D01*
X17267801Y-11952174D02*
X17296372Y-11952174D01*
X17296372Y-11952174D02*
X17315420Y-11961698D01*
X17315420Y-11961698D02*
X17324944Y-11971222D01*
X17324944Y-11971222D02*
X17334468Y-11990269D01*
X17334468Y-11990269D02*
X17334468Y-12037888D01*
X17334468Y-12037888D02*
X17324944Y-12056936D01*
X17324944Y-12056936D02*
X17315420Y-12066460D01*
X17315420Y-12066460D02*
X17296372Y-12075984D01*
X17296372Y-12075984D02*
X17239229Y-12075984D01*
X17239229Y-12075984D02*
X17220182Y-12066460D01*
X17220182Y-12066460D02*
X17210658Y-12056936D01*
X17401134Y-11875984D02*
X17524944Y-11875984D01*
X17524944Y-11875984D02*
X17458277Y-11952174D01*
X17458277Y-11952174D02*
X17486849Y-11952174D01*
X17486849Y-11952174D02*
X17505896Y-11961698D01*
X17505896Y-11961698D02*
X17515420Y-11971222D01*
X17515420Y-11971222D02*
X17524944Y-11990269D01*
X17524944Y-11990269D02*
X17524944Y-12037888D01*
X17524944Y-12037888D02*
X17515420Y-12056936D01*
X17515420Y-12056936D02*
X17505896Y-12066460D01*
X17505896Y-12066460D02*
X17486849Y-12075984D01*
X17486849Y-12075984D02*
X17429706Y-12075984D01*
X17429706Y-12075984D02*
X17410658Y-12066460D01*
X17410658Y-12066460D02*
X17401134Y-12056936D01*
X17601134Y-11875984D02*
X17601134Y-11914079D01*
X17677325Y-11875984D02*
X17677325Y-11914079D01*
X17972563Y-12152174D02*
X17963039Y-12142650D01*
X17963039Y-12142650D02*
X17943991Y-12114079D01*
X17943991Y-12114079D02*
X17934468Y-12095031D01*
X17934468Y-12095031D02*
X17924944Y-12066460D01*
X17924944Y-12066460D02*
X17915420Y-12018841D01*
X17915420Y-12018841D02*
X17915420Y-11980746D01*
X17915420Y-11980746D02*
X17924944Y-11933127D01*
X17924944Y-11933127D02*
X17934468Y-11904555D01*
X17934468Y-11904555D02*
X17943991Y-11885508D01*
X17943991Y-11885508D02*
X17963039Y-11856936D01*
X17963039Y-11856936D02*
X17972563Y-11847412D01*
X18134468Y-11875984D02*
X18096372Y-11875984D01*
X18096372Y-11875984D02*
X18077325Y-11885508D01*
X18077325Y-11885508D02*
X18067801Y-11895031D01*
X18067801Y-11895031D02*
X18048753Y-11923603D01*
X18048753Y-11923603D02*
X18039230Y-11961698D01*
X18039230Y-11961698D02*
X18039230Y-12037888D01*
X18039230Y-12037888D02*
X18048753Y-12056936D01*
X18048753Y-12056936D02*
X18058277Y-12066460D01*
X18058277Y-12066460D02*
X18077325Y-12075984D01*
X18077325Y-12075984D02*
X18115420Y-12075984D01*
X18115420Y-12075984D02*
X18134468Y-12066460D01*
X18134468Y-12066460D02*
X18143991Y-12056936D01*
X18143991Y-12056936D02*
X18153515Y-12037888D01*
X18153515Y-12037888D02*
X18153515Y-11990269D01*
X18153515Y-11990269D02*
X18143991Y-11971222D01*
X18143991Y-11971222D02*
X18134468Y-11961698D01*
X18134468Y-11961698D02*
X18115420Y-11952174D01*
X18115420Y-11952174D02*
X18077325Y-11952174D01*
X18077325Y-11952174D02*
X18058277Y-11961698D01*
X18058277Y-11961698D02*
X18048753Y-11971222D01*
X18048753Y-11971222D02*
X18039230Y-11990269D01*
X18391611Y-12075984D02*
X18391611Y-11875984D01*
X18477325Y-12075984D02*
X18477325Y-11971222D01*
X18477325Y-11971222D02*
X18467801Y-11952174D01*
X18467801Y-11952174D02*
X18448753Y-11942650D01*
X18448753Y-11942650D02*
X18420182Y-11942650D01*
X18420182Y-11942650D02*
X18401134Y-11952174D01*
X18401134Y-11952174D02*
X18391611Y-11961698D01*
X18601134Y-12075984D02*
X18582087Y-12066460D01*
X18582087Y-12066460D02*
X18572563Y-12056936D01*
X18572563Y-12056936D02*
X18563039Y-12037888D01*
X18563039Y-12037888D02*
X18563039Y-11980746D01*
X18563039Y-11980746D02*
X18572563Y-11961698D01*
X18572563Y-11961698D02*
X18582087Y-11952174D01*
X18582087Y-11952174D02*
X18601134Y-11942650D01*
X18601134Y-11942650D02*
X18629706Y-11942650D01*
X18629706Y-11942650D02*
X18648753Y-11952174D01*
X18648753Y-11952174D02*
X18658277Y-11961698D01*
X18658277Y-11961698D02*
X18667801Y-11980746D01*
X18667801Y-11980746D02*
X18667801Y-12037888D01*
X18667801Y-12037888D02*
X18658277Y-12056936D01*
X18658277Y-12056936D02*
X18648753Y-12066460D01*
X18648753Y-12066460D02*
X18629706Y-12075984D01*
X18629706Y-12075984D02*
X18601134Y-12075984D01*
X18782087Y-12075984D02*
X18763039Y-12066460D01*
X18763039Y-12066460D02*
X18753515Y-12047412D01*
X18753515Y-12047412D02*
X18753515Y-11875984D01*
X18934468Y-12066460D02*
X18915420Y-12075984D01*
X18915420Y-12075984D02*
X18877325Y-12075984D01*
X18877325Y-12075984D02*
X18858277Y-12066460D01*
X18858277Y-12066460D02*
X18848753Y-12047412D01*
X18848753Y-12047412D02*
X18848753Y-11971222D01*
X18848753Y-11971222D02*
X18858277Y-11952174D01*
X18858277Y-11952174D02*
X18877325Y-11942650D01*
X18877325Y-11942650D02*
X18915420Y-11942650D01*
X18915420Y-11942650D02*
X18934468Y-11952174D01*
X18934468Y-11952174D02*
X18943992Y-11971222D01*
X18943992Y-11971222D02*
X18943992Y-11990269D01*
X18943992Y-11990269D02*
X18848753Y-12009317D01*
X19020182Y-12066460D02*
X19039230Y-12075984D01*
X19039230Y-12075984D02*
X19077325Y-12075984D01*
X19077325Y-12075984D02*
X19096373Y-12066460D01*
X19096373Y-12066460D02*
X19105896Y-12047412D01*
X19105896Y-12047412D02*
X19105896Y-12037888D01*
X19105896Y-12037888D02*
X19096373Y-12018841D01*
X19096373Y-12018841D02*
X19077325Y-12009317D01*
X19077325Y-12009317D02*
X19048753Y-12009317D01*
X19048753Y-12009317D02*
X19029706Y-11999793D01*
X19029706Y-11999793D02*
X19020182Y-11980746D01*
X19020182Y-11980746D02*
X19020182Y-11971222D01*
X19020182Y-11971222D02*
X19029706Y-11952174D01*
X19029706Y-11952174D02*
X19048753Y-11942650D01*
X19048753Y-11942650D02*
X19077325Y-11942650D01*
X19077325Y-11942650D02*
X19096373Y-11952174D01*
X19172563Y-12152174D02*
X19182087Y-12142650D01*
X19182087Y-12142650D02*
X19201134Y-12114079D01*
X19201134Y-12114079D02*
X19210658Y-12095031D01*
X19210658Y-12095031D02*
X19220182Y-12066460D01*
X19220182Y-12066460D02*
X19229706Y-12018841D01*
X19229706Y-12018841D02*
X19229706Y-11980746D01*
X19229706Y-11980746D02*
X19220182Y-11933127D01*
X19220182Y-11933127D02*
X19210658Y-11904555D01*
X19210658Y-11904555D02*
X19201134Y-11885508D01*
X19201134Y-11885508D02*
X19182087Y-11856936D01*
X19182087Y-11856936D02*
X19172563Y-11847412D01*
D14*
X14335000Y-12311000D02*
X14397500Y-12248500D01*
X14335000Y-12186000D01*
X14272500Y-12248500D01*
X14335000Y-12311000D01*
D11*
X14763039Y-12339984D02*
X14648753Y-12339984D01*
X14705896Y-12339984D02*
X14705896Y-12139984D01*
X14705896Y-12139984D02*
X14686848Y-12168555D01*
X14686848Y-12168555D02*
X14667801Y-12187603D01*
X14667801Y-12187603D02*
X14648753Y-12197127D01*
X14848753Y-12320936D02*
X14858277Y-12330460D01*
X14858277Y-12330460D02*
X14848753Y-12339984D01*
X14848753Y-12339984D02*
X14839229Y-12330460D01*
X14839229Y-12330460D02*
X14848753Y-12320936D01*
X14848753Y-12320936D02*
X14848753Y-12339984D01*
X14934467Y-12159031D02*
X14943991Y-12149508D01*
X14943991Y-12149508D02*
X14963039Y-12139984D01*
X14963039Y-12139984D02*
X15010658Y-12139984D01*
X15010658Y-12139984D02*
X15029705Y-12149508D01*
X15029705Y-12149508D02*
X15039229Y-12159031D01*
X15039229Y-12159031D02*
X15048753Y-12178079D01*
X15048753Y-12178079D02*
X15048753Y-12197127D01*
X15048753Y-12197127D02*
X15039229Y-12225698D01*
X15039229Y-12225698D02*
X14924943Y-12339984D01*
X14924943Y-12339984D02*
X15048753Y-12339984D01*
X15229705Y-12139984D02*
X15134467Y-12139984D01*
X15134467Y-12139984D02*
X15124943Y-12235222D01*
X15124943Y-12235222D02*
X15134467Y-12225698D01*
X15134467Y-12225698D02*
X15153515Y-12216174D01*
X15153515Y-12216174D02*
X15201134Y-12216174D01*
X15201134Y-12216174D02*
X15220182Y-12225698D01*
X15220182Y-12225698D02*
X15229705Y-12235222D01*
X15229705Y-12235222D02*
X15239229Y-12254269D01*
X15239229Y-12254269D02*
X15239229Y-12301888D01*
X15239229Y-12301888D02*
X15229705Y-12320936D01*
X15229705Y-12320936D02*
X15220182Y-12330460D01*
X15220182Y-12330460D02*
X15201134Y-12339984D01*
X15201134Y-12339984D02*
X15153515Y-12339984D01*
X15153515Y-12339984D02*
X15134467Y-12330460D01*
X15134467Y-12330460D02*
X15124943Y-12320936D01*
X15363039Y-12139984D02*
X15382086Y-12139984D01*
X15382086Y-12139984D02*
X15401134Y-12149508D01*
X15401134Y-12149508D02*
X15410658Y-12159031D01*
X15410658Y-12159031D02*
X15420182Y-12178079D01*
X15420182Y-12178079D02*
X15429705Y-12216174D01*
X15429705Y-12216174D02*
X15429705Y-12263793D01*
X15429705Y-12263793D02*
X15420182Y-12301888D01*
X15420182Y-12301888D02*
X15410658Y-12320936D01*
X15410658Y-12320936D02*
X15401134Y-12330460D01*
X15401134Y-12330460D02*
X15382086Y-12339984D01*
X15382086Y-12339984D02*
X15363039Y-12339984D01*
X15363039Y-12339984D02*
X15343991Y-12330460D01*
X15343991Y-12330460D02*
X15334467Y-12320936D01*
X15334467Y-12320936D02*
X15324943Y-12301888D01*
X15324943Y-12301888D02*
X15315420Y-12263793D01*
X15315420Y-12263793D02*
X15315420Y-12216174D01*
X15315420Y-12216174D02*
X15324943Y-12178079D01*
X15324943Y-12178079D02*
X15334467Y-12159031D01*
X15334467Y-12159031D02*
X15343991Y-12149508D01*
X15343991Y-12149508D02*
X15363039Y-12139984D01*
X15515420Y-12339984D02*
X15515420Y-12206650D01*
X15515420Y-12225698D02*
X15524943Y-12216174D01*
X15524943Y-12216174D02*
X15543991Y-12206650D01*
X15543991Y-12206650D02*
X15572563Y-12206650D01*
X15572563Y-12206650D02*
X15591610Y-12216174D01*
X15591610Y-12216174D02*
X15601134Y-12235222D01*
X15601134Y-12235222D02*
X15601134Y-12339984D01*
X15601134Y-12235222D02*
X15610658Y-12216174D01*
X15610658Y-12216174D02*
X15629705Y-12206650D01*
X15629705Y-12206650D02*
X15658277Y-12206650D01*
X15658277Y-12206650D02*
X15677324Y-12216174D01*
X15677324Y-12216174D02*
X15686848Y-12235222D01*
X15686848Y-12235222D02*
X15686848Y-12339984D01*
X15782086Y-12339984D02*
X15782086Y-12206650D01*
X15782086Y-12225698D02*
X15791610Y-12216174D01*
X15791610Y-12216174D02*
X15810658Y-12206650D01*
X15810658Y-12206650D02*
X15839229Y-12206650D01*
X15839229Y-12206650D02*
X15858277Y-12216174D01*
X15858277Y-12216174D02*
X15867801Y-12235222D01*
X15867801Y-12235222D02*
X15867801Y-12339984D01*
X15867801Y-12235222D02*
X15877324Y-12216174D01*
X15877324Y-12216174D02*
X15896372Y-12206650D01*
X15896372Y-12206650D02*
X15924943Y-12206650D01*
X15924943Y-12206650D02*
X15943991Y-12216174D01*
X15943991Y-12216174D02*
X15953515Y-12235222D01*
X15953515Y-12235222D02*
X15953515Y-12339984D01*
X16343991Y-12130460D02*
X16172563Y-12387603D01*
X16601134Y-12139984D02*
X16620182Y-12139984D01*
X16620182Y-12139984D02*
X16639229Y-12149508D01*
X16639229Y-12149508D02*
X16648753Y-12159031D01*
X16648753Y-12159031D02*
X16658277Y-12178079D01*
X16658277Y-12178079D02*
X16667801Y-12216174D01*
X16667801Y-12216174D02*
X16667801Y-12263793D01*
X16667801Y-12263793D02*
X16658277Y-12301888D01*
X16658277Y-12301888D02*
X16648753Y-12320936D01*
X16648753Y-12320936D02*
X16639229Y-12330460D01*
X16639229Y-12330460D02*
X16620182Y-12339984D01*
X16620182Y-12339984D02*
X16601134Y-12339984D01*
X16601134Y-12339984D02*
X16582086Y-12330460D01*
X16582086Y-12330460D02*
X16572563Y-12320936D01*
X16572563Y-12320936D02*
X16563039Y-12301888D01*
X16563039Y-12301888D02*
X16553515Y-12263793D01*
X16553515Y-12263793D02*
X16553515Y-12216174D01*
X16553515Y-12216174D02*
X16563039Y-12178079D01*
X16563039Y-12178079D02*
X16572563Y-12159031D01*
X16572563Y-12159031D02*
X16582086Y-12149508D01*
X16582086Y-12149508D02*
X16601134Y-12139984D01*
X16753515Y-12320936D02*
X16763039Y-12330460D01*
X16763039Y-12330460D02*
X16753515Y-12339984D01*
X16753515Y-12339984D02*
X16743991Y-12330460D01*
X16743991Y-12330460D02*
X16753515Y-12320936D01*
X16753515Y-12320936D02*
X16753515Y-12339984D01*
X16886848Y-12139984D02*
X16905896Y-12139984D01*
X16905896Y-12139984D02*
X16924944Y-12149508D01*
X16924944Y-12149508D02*
X16934468Y-12159031D01*
X16934468Y-12159031D02*
X16943991Y-12178079D01*
X16943991Y-12178079D02*
X16953515Y-12216174D01*
X16953515Y-12216174D02*
X16953515Y-12263793D01*
X16953515Y-12263793D02*
X16943991Y-12301888D01*
X16943991Y-12301888D02*
X16934468Y-12320936D01*
X16934468Y-12320936D02*
X16924944Y-12330460D01*
X16924944Y-12330460D02*
X16905896Y-12339984D01*
X16905896Y-12339984D02*
X16886848Y-12339984D01*
X16886848Y-12339984D02*
X16867801Y-12330460D01*
X16867801Y-12330460D02*
X16858277Y-12320936D01*
X16858277Y-12320936D02*
X16848753Y-12301888D01*
X16848753Y-12301888D02*
X16839229Y-12263793D01*
X16839229Y-12263793D02*
X16839229Y-12216174D01*
X16839229Y-12216174D02*
X16848753Y-12178079D01*
X16848753Y-12178079D02*
X16858277Y-12159031D01*
X16858277Y-12159031D02*
X16867801Y-12149508D01*
X16867801Y-12149508D02*
X16886848Y-12139984D01*
X17124944Y-12206650D02*
X17124944Y-12339984D01*
X17077325Y-12130460D02*
X17029706Y-12273317D01*
X17029706Y-12273317D02*
X17153515Y-12273317D01*
X17239229Y-12339984D02*
X17277325Y-12339984D01*
X17277325Y-12339984D02*
X17296372Y-12330460D01*
X17296372Y-12330460D02*
X17305896Y-12320936D01*
X17305896Y-12320936D02*
X17324944Y-12292365D01*
X17324944Y-12292365D02*
X17334468Y-12254269D01*
X17334468Y-12254269D02*
X17334468Y-12178079D01*
X17334468Y-12178079D02*
X17324944Y-12159031D01*
X17324944Y-12159031D02*
X17315420Y-12149508D01*
X17315420Y-12149508D02*
X17296372Y-12139984D01*
X17296372Y-12139984D02*
X17258277Y-12139984D01*
X17258277Y-12139984D02*
X17239229Y-12149508D01*
X17239229Y-12149508D02*
X17229706Y-12159031D01*
X17229706Y-12159031D02*
X17220182Y-12178079D01*
X17220182Y-12178079D02*
X17220182Y-12225698D01*
X17220182Y-12225698D02*
X17229706Y-12244746D01*
X17229706Y-12244746D02*
X17239229Y-12254269D01*
X17239229Y-12254269D02*
X17258277Y-12263793D01*
X17258277Y-12263793D02*
X17296372Y-12263793D01*
X17296372Y-12263793D02*
X17315420Y-12254269D01*
X17315420Y-12254269D02*
X17324944Y-12244746D01*
X17324944Y-12244746D02*
X17334468Y-12225698D01*
X17410658Y-12159031D02*
X17420182Y-12149508D01*
X17420182Y-12149508D02*
X17439229Y-12139984D01*
X17439229Y-12139984D02*
X17486849Y-12139984D01*
X17486849Y-12139984D02*
X17505896Y-12149508D01*
X17505896Y-12149508D02*
X17515420Y-12159031D01*
X17515420Y-12159031D02*
X17524944Y-12178079D01*
X17524944Y-12178079D02*
X17524944Y-12197127D01*
X17524944Y-12197127D02*
X17515420Y-12225698D01*
X17515420Y-12225698D02*
X17401134Y-12339984D01*
X17401134Y-12339984D02*
X17524944Y-12339984D01*
X17601134Y-12139984D02*
X17601134Y-12178079D01*
X17677325Y-12139984D02*
X17677325Y-12178079D01*
X17972563Y-12416174D02*
X17963039Y-12406650D01*
X17963039Y-12406650D02*
X17943991Y-12378079D01*
X17943991Y-12378079D02*
X17934468Y-12359031D01*
X17934468Y-12359031D02*
X17924944Y-12330460D01*
X17924944Y-12330460D02*
X17915420Y-12282841D01*
X17915420Y-12282841D02*
X17915420Y-12244746D01*
X17915420Y-12244746D02*
X17924944Y-12197127D01*
X17924944Y-12197127D02*
X17934468Y-12168555D01*
X17934468Y-12168555D02*
X17943991Y-12149508D01*
X17943991Y-12149508D02*
X17963039Y-12120936D01*
X17963039Y-12120936D02*
X17972563Y-12111412D01*
X18039230Y-12159031D02*
X18048753Y-12149508D01*
X18048753Y-12149508D02*
X18067801Y-12139984D01*
X18067801Y-12139984D02*
X18115420Y-12139984D01*
X18115420Y-12139984D02*
X18134468Y-12149508D01*
X18134468Y-12149508D02*
X18143991Y-12159031D01*
X18143991Y-12159031D02*
X18153515Y-12178079D01*
X18153515Y-12178079D02*
X18153515Y-12197127D01*
X18153515Y-12197127D02*
X18143991Y-12225698D01*
X18143991Y-12225698D02*
X18029706Y-12339984D01*
X18029706Y-12339984D02*
X18153515Y-12339984D01*
X18391611Y-12339984D02*
X18391611Y-12139984D01*
X18477325Y-12339984D02*
X18477325Y-12235222D01*
X18477325Y-12235222D02*
X18467801Y-12216174D01*
X18467801Y-12216174D02*
X18448753Y-12206650D01*
X18448753Y-12206650D02*
X18420182Y-12206650D01*
X18420182Y-12206650D02*
X18401134Y-12216174D01*
X18401134Y-12216174D02*
X18391611Y-12225698D01*
X18601134Y-12339984D02*
X18582087Y-12330460D01*
X18582087Y-12330460D02*
X18572563Y-12320936D01*
X18572563Y-12320936D02*
X18563039Y-12301888D01*
X18563039Y-12301888D02*
X18563039Y-12244746D01*
X18563039Y-12244746D02*
X18572563Y-12225698D01*
X18572563Y-12225698D02*
X18582087Y-12216174D01*
X18582087Y-12216174D02*
X18601134Y-12206650D01*
X18601134Y-12206650D02*
X18629706Y-12206650D01*
X18629706Y-12206650D02*
X18648753Y-12216174D01*
X18648753Y-12216174D02*
X18658277Y-12225698D01*
X18658277Y-12225698D02*
X18667801Y-12244746D01*
X18667801Y-12244746D02*
X18667801Y-12301888D01*
X18667801Y-12301888D02*
X18658277Y-12320936D01*
X18658277Y-12320936D02*
X18648753Y-12330460D01*
X18648753Y-12330460D02*
X18629706Y-12339984D01*
X18629706Y-12339984D02*
X18601134Y-12339984D01*
X18782087Y-12339984D02*
X18763039Y-12330460D01*
X18763039Y-12330460D02*
X18753515Y-12311412D01*
X18753515Y-12311412D02*
X18753515Y-12139984D01*
X18934468Y-12330460D02*
X18915420Y-12339984D01*
X18915420Y-12339984D02*
X18877325Y-12339984D01*
X18877325Y-12339984D02*
X18858277Y-12330460D01*
X18858277Y-12330460D02*
X18848753Y-12311412D01*
X18848753Y-12311412D02*
X18848753Y-12235222D01*
X18848753Y-12235222D02*
X18858277Y-12216174D01*
X18858277Y-12216174D02*
X18877325Y-12206650D01*
X18877325Y-12206650D02*
X18915420Y-12206650D01*
X18915420Y-12206650D02*
X18934468Y-12216174D01*
X18934468Y-12216174D02*
X18943992Y-12235222D01*
X18943992Y-12235222D02*
X18943992Y-12254269D01*
X18943992Y-12254269D02*
X18848753Y-12273317D01*
X19020182Y-12330460D02*
X19039230Y-12339984D01*
X19039230Y-12339984D02*
X19077325Y-12339984D01*
X19077325Y-12339984D02*
X19096373Y-12330460D01*
X19096373Y-12330460D02*
X19105896Y-12311412D01*
X19105896Y-12311412D02*
X19105896Y-12301888D01*
X19105896Y-12301888D02*
X19096373Y-12282841D01*
X19096373Y-12282841D02*
X19077325Y-12273317D01*
X19077325Y-12273317D02*
X19048753Y-12273317D01*
X19048753Y-12273317D02*
X19029706Y-12263793D01*
X19029706Y-12263793D02*
X19020182Y-12244746D01*
X19020182Y-12244746D02*
X19020182Y-12235222D01*
X19020182Y-12235222D02*
X19029706Y-12216174D01*
X19029706Y-12216174D02*
X19048753Y-12206650D01*
X19048753Y-12206650D02*
X19077325Y-12206650D01*
X19077325Y-12206650D02*
X19096373Y-12216174D01*
X19172563Y-12416174D02*
X19182087Y-12406650D01*
X19182087Y-12406650D02*
X19201134Y-12378079D01*
X19201134Y-12378079D02*
X19210658Y-12359031D01*
X19210658Y-12359031D02*
X19220182Y-12330460D01*
X19220182Y-12330460D02*
X19229706Y-12282841D01*
X19229706Y-12282841D02*
X19229706Y-12244746D01*
X19229706Y-12244746D02*
X19220182Y-12197127D01*
X19220182Y-12197127D02*
X19210658Y-12168555D01*
X19210658Y-12168555D02*
X19201134Y-12149508D01*
X19201134Y-12149508D02*
X19182087Y-12120936D01*
X19182087Y-12120936D02*
X19172563Y-12111412D01*
D12*
X14297500Y-12462500D02*
X14397500Y-12562500D01*
X14397500Y-12462500D02*
X14297500Y-12562500D01*
X14397500Y-12512500D02*
G75*
G02*
X14297500Y-12512500I-50000J0D01*
G01*
X14297500Y-12512500D02*
G75*
G02*
X14397500Y-12512500I50000J0D01*
G01*
D11*
X14763039Y-12603984D02*
X14648753Y-12603984D01*
X14705896Y-12603984D02*
X14705896Y-12403984D01*
X14705896Y-12403984D02*
X14686848Y-12432555D01*
X14686848Y-12432555D02*
X14667801Y-12451603D01*
X14667801Y-12451603D02*
X14648753Y-12461127D01*
X14848753Y-12584936D02*
X14858277Y-12594460D01*
X14858277Y-12594460D02*
X14848753Y-12603984D01*
X14848753Y-12603984D02*
X14839229Y-12594460D01*
X14839229Y-12594460D02*
X14848753Y-12584936D01*
X14848753Y-12584936D02*
X14848753Y-12603984D01*
X14982086Y-12403984D02*
X15001134Y-12403984D01*
X15001134Y-12403984D02*
X15020182Y-12413508D01*
X15020182Y-12413508D02*
X15029705Y-12423031D01*
X15029705Y-12423031D02*
X15039229Y-12442079D01*
X15039229Y-12442079D02*
X15048753Y-12480174D01*
X15048753Y-12480174D02*
X15048753Y-12527793D01*
X15048753Y-12527793D02*
X15039229Y-12565888D01*
X15039229Y-12565888D02*
X15029705Y-12584936D01*
X15029705Y-12584936D02*
X15020182Y-12594460D01*
X15020182Y-12594460D02*
X15001134Y-12603984D01*
X15001134Y-12603984D02*
X14982086Y-12603984D01*
X14982086Y-12603984D02*
X14963039Y-12594460D01*
X14963039Y-12594460D02*
X14953515Y-12584936D01*
X14953515Y-12584936D02*
X14943991Y-12565888D01*
X14943991Y-12565888D02*
X14934467Y-12527793D01*
X14934467Y-12527793D02*
X14934467Y-12480174D01*
X14934467Y-12480174D02*
X14943991Y-12442079D01*
X14943991Y-12442079D02*
X14953515Y-12423031D01*
X14953515Y-12423031D02*
X14963039Y-12413508D01*
X14963039Y-12413508D02*
X14982086Y-12403984D01*
X15172562Y-12403984D02*
X15191610Y-12403984D01*
X15191610Y-12403984D02*
X15210658Y-12413508D01*
X15210658Y-12413508D02*
X15220182Y-12423031D01*
X15220182Y-12423031D02*
X15229705Y-12442079D01*
X15229705Y-12442079D02*
X15239229Y-12480174D01*
X15239229Y-12480174D02*
X15239229Y-12527793D01*
X15239229Y-12527793D02*
X15229705Y-12565888D01*
X15229705Y-12565888D02*
X15220182Y-12584936D01*
X15220182Y-12584936D02*
X15210658Y-12594460D01*
X15210658Y-12594460D02*
X15191610Y-12603984D01*
X15191610Y-12603984D02*
X15172562Y-12603984D01*
X15172562Y-12603984D02*
X15153515Y-12594460D01*
X15153515Y-12594460D02*
X15143991Y-12584936D01*
X15143991Y-12584936D02*
X15134467Y-12565888D01*
X15134467Y-12565888D02*
X15124943Y-12527793D01*
X15124943Y-12527793D02*
X15124943Y-12480174D01*
X15124943Y-12480174D02*
X15134467Y-12442079D01*
X15134467Y-12442079D02*
X15143991Y-12423031D01*
X15143991Y-12423031D02*
X15153515Y-12413508D01*
X15153515Y-12413508D02*
X15172562Y-12403984D01*
X15363039Y-12403984D02*
X15382086Y-12403984D01*
X15382086Y-12403984D02*
X15401134Y-12413508D01*
X15401134Y-12413508D02*
X15410658Y-12423031D01*
X15410658Y-12423031D02*
X15420182Y-12442079D01*
X15420182Y-12442079D02*
X15429705Y-12480174D01*
X15429705Y-12480174D02*
X15429705Y-12527793D01*
X15429705Y-12527793D02*
X15420182Y-12565888D01*
X15420182Y-12565888D02*
X15410658Y-12584936D01*
X15410658Y-12584936D02*
X15401134Y-12594460D01*
X15401134Y-12594460D02*
X15382086Y-12603984D01*
X15382086Y-12603984D02*
X15363039Y-12603984D01*
X15363039Y-12603984D02*
X15343991Y-12594460D01*
X15343991Y-12594460D02*
X15334467Y-12584936D01*
X15334467Y-12584936D02*
X15324943Y-12565888D01*
X15324943Y-12565888D02*
X15315420Y-12527793D01*
X15315420Y-12527793D02*
X15315420Y-12480174D01*
X15315420Y-12480174D02*
X15324943Y-12442079D01*
X15324943Y-12442079D02*
X15334467Y-12423031D01*
X15334467Y-12423031D02*
X15343991Y-12413508D01*
X15343991Y-12413508D02*
X15363039Y-12403984D01*
X15515420Y-12603984D02*
X15515420Y-12470650D01*
X15515420Y-12489698D02*
X15524943Y-12480174D01*
X15524943Y-12480174D02*
X15543991Y-12470650D01*
X15543991Y-12470650D02*
X15572563Y-12470650D01*
X15572563Y-12470650D02*
X15591610Y-12480174D01*
X15591610Y-12480174D02*
X15601134Y-12499222D01*
X15601134Y-12499222D02*
X15601134Y-12603984D01*
X15601134Y-12499222D02*
X15610658Y-12480174D01*
X15610658Y-12480174D02*
X15629705Y-12470650D01*
X15629705Y-12470650D02*
X15658277Y-12470650D01*
X15658277Y-12470650D02*
X15677324Y-12480174D01*
X15677324Y-12480174D02*
X15686848Y-12499222D01*
X15686848Y-12499222D02*
X15686848Y-12603984D01*
X15782086Y-12603984D02*
X15782086Y-12470650D01*
X15782086Y-12489698D02*
X15791610Y-12480174D01*
X15791610Y-12480174D02*
X15810658Y-12470650D01*
X15810658Y-12470650D02*
X15839229Y-12470650D01*
X15839229Y-12470650D02*
X15858277Y-12480174D01*
X15858277Y-12480174D02*
X15867801Y-12499222D01*
X15867801Y-12499222D02*
X15867801Y-12603984D01*
X15867801Y-12499222D02*
X15877324Y-12480174D01*
X15877324Y-12480174D02*
X15896372Y-12470650D01*
X15896372Y-12470650D02*
X15924943Y-12470650D01*
X15924943Y-12470650D02*
X15943991Y-12480174D01*
X15943991Y-12480174D02*
X15953515Y-12499222D01*
X15953515Y-12499222D02*
X15953515Y-12603984D01*
X16343991Y-12394460D02*
X16172563Y-12651603D01*
X16601134Y-12403984D02*
X16620182Y-12403984D01*
X16620182Y-12403984D02*
X16639229Y-12413508D01*
X16639229Y-12413508D02*
X16648753Y-12423031D01*
X16648753Y-12423031D02*
X16658277Y-12442079D01*
X16658277Y-12442079D02*
X16667801Y-12480174D01*
X16667801Y-12480174D02*
X16667801Y-12527793D01*
X16667801Y-12527793D02*
X16658277Y-12565888D01*
X16658277Y-12565888D02*
X16648753Y-12584936D01*
X16648753Y-12584936D02*
X16639229Y-12594460D01*
X16639229Y-12594460D02*
X16620182Y-12603984D01*
X16620182Y-12603984D02*
X16601134Y-12603984D01*
X16601134Y-12603984D02*
X16582086Y-12594460D01*
X16582086Y-12594460D02*
X16572563Y-12584936D01*
X16572563Y-12584936D02*
X16563039Y-12565888D01*
X16563039Y-12565888D02*
X16553515Y-12527793D01*
X16553515Y-12527793D02*
X16553515Y-12480174D01*
X16553515Y-12480174D02*
X16563039Y-12442079D01*
X16563039Y-12442079D02*
X16572563Y-12423031D01*
X16572563Y-12423031D02*
X16582086Y-12413508D01*
X16582086Y-12413508D02*
X16601134Y-12403984D01*
X16753515Y-12584936D02*
X16763039Y-12594460D01*
X16763039Y-12594460D02*
X16753515Y-12603984D01*
X16753515Y-12603984D02*
X16743991Y-12594460D01*
X16743991Y-12594460D02*
X16753515Y-12584936D01*
X16753515Y-12584936D02*
X16753515Y-12603984D01*
X16886848Y-12403984D02*
X16905896Y-12403984D01*
X16905896Y-12403984D02*
X16924944Y-12413508D01*
X16924944Y-12413508D02*
X16934468Y-12423031D01*
X16934468Y-12423031D02*
X16943991Y-12442079D01*
X16943991Y-12442079D02*
X16953515Y-12480174D01*
X16953515Y-12480174D02*
X16953515Y-12527793D01*
X16953515Y-12527793D02*
X16943991Y-12565888D01*
X16943991Y-12565888D02*
X16934468Y-12584936D01*
X16934468Y-12584936D02*
X16924944Y-12594460D01*
X16924944Y-12594460D02*
X16905896Y-12603984D01*
X16905896Y-12603984D02*
X16886848Y-12603984D01*
X16886848Y-12603984D02*
X16867801Y-12594460D01*
X16867801Y-12594460D02*
X16858277Y-12584936D01*
X16858277Y-12584936D02*
X16848753Y-12565888D01*
X16848753Y-12565888D02*
X16839229Y-12527793D01*
X16839229Y-12527793D02*
X16839229Y-12480174D01*
X16839229Y-12480174D02*
X16848753Y-12442079D01*
X16848753Y-12442079D02*
X16858277Y-12423031D01*
X16858277Y-12423031D02*
X16867801Y-12413508D01*
X16867801Y-12413508D02*
X16886848Y-12403984D01*
X17020182Y-12403984D02*
X17143991Y-12403984D01*
X17143991Y-12403984D02*
X17077325Y-12480174D01*
X17077325Y-12480174D02*
X17105896Y-12480174D01*
X17105896Y-12480174D02*
X17124944Y-12489698D01*
X17124944Y-12489698D02*
X17134468Y-12499222D01*
X17134468Y-12499222D02*
X17143991Y-12518269D01*
X17143991Y-12518269D02*
X17143991Y-12565888D01*
X17143991Y-12565888D02*
X17134468Y-12584936D01*
X17134468Y-12584936D02*
X17124944Y-12594460D01*
X17124944Y-12594460D02*
X17105896Y-12603984D01*
X17105896Y-12603984D02*
X17048753Y-12603984D01*
X17048753Y-12603984D02*
X17029706Y-12594460D01*
X17029706Y-12594460D02*
X17020182Y-12584936D01*
X17239229Y-12603984D02*
X17277325Y-12603984D01*
X17277325Y-12603984D02*
X17296372Y-12594460D01*
X17296372Y-12594460D02*
X17305896Y-12584936D01*
X17305896Y-12584936D02*
X17324944Y-12556365D01*
X17324944Y-12556365D02*
X17334468Y-12518269D01*
X17334468Y-12518269D02*
X17334468Y-12442079D01*
X17334468Y-12442079D02*
X17324944Y-12423031D01*
X17324944Y-12423031D02*
X17315420Y-12413508D01*
X17315420Y-12413508D02*
X17296372Y-12403984D01*
X17296372Y-12403984D02*
X17258277Y-12403984D01*
X17258277Y-12403984D02*
X17239229Y-12413508D01*
X17239229Y-12413508D02*
X17229706Y-12423031D01*
X17229706Y-12423031D02*
X17220182Y-12442079D01*
X17220182Y-12442079D02*
X17220182Y-12489698D01*
X17220182Y-12489698D02*
X17229706Y-12508746D01*
X17229706Y-12508746D02*
X17239229Y-12518269D01*
X17239229Y-12518269D02*
X17258277Y-12527793D01*
X17258277Y-12527793D02*
X17296372Y-12527793D01*
X17296372Y-12527793D02*
X17315420Y-12518269D01*
X17315420Y-12518269D02*
X17324944Y-12508746D01*
X17324944Y-12508746D02*
X17334468Y-12489698D01*
X17505896Y-12470650D02*
X17505896Y-12603984D01*
X17458277Y-12394460D02*
X17410658Y-12537317D01*
X17410658Y-12537317D02*
X17534468Y-12537317D01*
X17601134Y-12403984D02*
X17601134Y-12442079D01*
X17677325Y-12403984D02*
X17677325Y-12442079D01*
X17972563Y-12680174D02*
X17963039Y-12670650D01*
X17963039Y-12670650D02*
X17943991Y-12642079D01*
X17943991Y-12642079D02*
X17934468Y-12623031D01*
X17934468Y-12623031D02*
X17924944Y-12594460D01*
X17924944Y-12594460D02*
X17915420Y-12546841D01*
X17915420Y-12546841D02*
X17915420Y-12508746D01*
X17915420Y-12508746D02*
X17924944Y-12461127D01*
X17924944Y-12461127D02*
X17934468Y-12432555D01*
X17934468Y-12432555D02*
X17943991Y-12413508D01*
X17943991Y-12413508D02*
X17963039Y-12384936D01*
X17963039Y-12384936D02*
X17972563Y-12375412D01*
X18134468Y-12470650D02*
X18134468Y-12603984D01*
X18086849Y-12394460D02*
X18039230Y-12537317D01*
X18039230Y-12537317D02*
X18163039Y-12537317D01*
X18277325Y-12403984D02*
X18296372Y-12403984D01*
X18296372Y-12403984D02*
X18315420Y-12413508D01*
X18315420Y-12413508D02*
X18324944Y-12423031D01*
X18324944Y-12423031D02*
X18334468Y-12442079D01*
X18334468Y-12442079D02*
X18343991Y-12480174D01*
X18343991Y-12480174D02*
X18343991Y-12527793D01*
X18343991Y-12527793D02*
X18334468Y-12565888D01*
X18334468Y-12565888D02*
X18324944Y-12584936D01*
X18324944Y-12584936D02*
X18315420Y-12594460D01*
X18315420Y-12594460D02*
X18296372Y-12603984D01*
X18296372Y-12603984D02*
X18277325Y-12603984D01*
X18277325Y-12603984D02*
X18258277Y-12594460D01*
X18258277Y-12594460D02*
X18248753Y-12584936D01*
X18248753Y-12584936D02*
X18239230Y-12565888D01*
X18239230Y-12565888D02*
X18229706Y-12527793D01*
X18229706Y-12527793D02*
X18229706Y-12480174D01*
X18229706Y-12480174D02*
X18239230Y-12442079D01*
X18239230Y-12442079D02*
X18248753Y-12423031D01*
X18248753Y-12423031D02*
X18258277Y-12413508D01*
X18258277Y-12413508D02*
X18277325Y-12403984D01*
X18582087Y-12603984D02*
X18582087Y-12403984D01*
X18667801Y-12603984D02*
X18667801Y-12499222D01*
X18667801Y-12499222D02*
X18658277Y-12480174D01*
X18658277Y-12480174D02*
X18639230Y-12470650D01*
X18639230Y-12470650D02*
X18610658Y-12470650D01*
X18610658Y-12470650D02*
X18591611Y-12480174D01*
X18591611Y-12480174D02*
X18582087Y-12489698D01*
X18791611Y-12603984D02*
X18772563Y-12594460D01*
X18772563Y-12594460D02*
X18763039Y-12584936D01*
X18763039Y-12584936D02*
X18753515Y-12565888D01*
X18753515Y-12565888D02*
X18753515Y-12508746D01*
X18753515Y-12508746D02*
X18763039Y-12489698D01*
X18763039Y-12489698D02*
X18772563Y-12480174D01*
X18772563Y-12480174D02*
X18791611Y-12470650D01*
X18791611Y-12470650D02*
X18820182Y-12470650D01*
X18820182Y-12470650D02*
X18839230Y-12480174D01*
X18839230Y-12480174D02*
X18848753Y-12489698D01*
X18848753Y-12489698D02*
X18858277Y-12508746D01*
X18858277Y-12508746D02*
X18858277Y-12565888D01*
X18858277Y-12565888D02*
X18848753Y-12584936D01*
X18848753Y-12584936D02*
X18839230Y-12594460D01*
X18839230Y-12594460D02*
X18820182Y-12603984D01*
X18820182Y-12603984D02*
X18791611Y-12603984D01*
X18972563Y-12603984D02*
X18953515Y-12594460D01*
X18953515Y-12594460D02*
X18943992Y-12575412D01*
X18943992Y-12575412D02*
X18943992Y-12403984D01*
X19124944Y-12594460D02*
X19105896Y-12603984D01*
X19105896Y-12603984D02*
X19067801Y-12603984D01*
X19067801Y-12603984D02*
X19048753Y-12594460D01*
X19048753Y-12594460D02*
X19039230Y-12575412D01*
X19039230Y-12575412D02*
X19039230Y-12499222D01*
X19039230Y-12499222D02*
X19048753Y-12480174D01*
X19048753Y-12480174D02*
X19067801Y-12470650D01*
X19067801Y-12470650D02*
X19105896Y-12470650D01*
X19105896Y-12470650D02*
X19124944Y-12480174D01*
X19124944Y-12480174D02*
X19134468Y-12499222D01*
X19134468Y-12499222D02*
X19134468Y-12518269D01*
X19134468Y-12518269D02*
X19039230Y-12537317D01*
X19210658Y-12594460D02*
X19229706Y-12603984D01*
X19229706Y-12603984D02*
X19267801Y-12603984D01*
X19267801Y-12603984D02*
X19286849Y-12594460D01*
X19286849Y-12594460D02*
X19296373Y-12575412D01*
X19296373Y-12575412D02*
X19296373Y-12565888D01*
X19296373Y-12565888D02*
X19286849Y-12546841D01*
X19286849Y-12546841D02*
X19267801Y-12537317D01*
X19267801Y-12537317D02*
X19239230Y-12537317D01*
X19239230Y-12537317D02*
X19220182Y-12527793D01*
X19220182Y-12527793D02*
X19210658Y-12508746D01*
X19210658Y-12508746D02*
X19210658Y-12499222D01*
X19210658Y-12499222D02*
X19220182Y-12480174D01*
X19220182Y-12480174D02*
X19239230Y-12470650D01*
X19239230Y-12470650D02*
X19267801Y-12470650D01*
X19267801Y-12470650D02*
X19286849Y-12480174D01*
X19363039Y-12680174D02*
X19372563Y-12670650D01*
X19372563Y-12670650D02*
X19391611Y-12642079D01*
X19391611Y-12642079D02*
X19401134Y-12623031D01*
X19401134Y-12623031D02*
X19410658Y-12594460D01*
X19410658Y-12594460D02*
X19420182Y-12546841D01*
X19420182Y-12546841D02*
X19420182Y-12508746D01*
X19420182Y-12508746D02*
X19410658Y-12461127D01*
X19410658Y-12461127D02*
X19401134Y-12432555D01*
X19401134Y-12432555D02*
X19391611Y-12413508D01*
X19391611Y-12413508D02*
X19372563Y-12384936D01*
X19372563Y-12384936D02*
X19363039Y-12375412D01*
X19724944Y-12680174D02*
X19715420Y-12670650D01*
X19715420Y-12670650D02*
X19696373Y-12642079D01*
X19696373Y-12642079D02*
X19686849Y-12623031D01*
X19686849Y-12623031D02*
X19677325Y-12594460D01*
X19677325Y-12594460D02*
X19667801Y-12546841D01*
X19667801Y-12546841D02*
X19667801Y-12508746D01*
X19667801Y-12508746D02*
X19677325Y-12461127D01*
X19677325Y-12461127D02*
X19686849Y-12432555D01*
X19686849Y-12432555D02*
X19696373Y-12413508D01*
X19696373Y-12413508D02*
X19715420Y-12384936D01*
X19715420Y-12384936D02*
X19724944Y-12375412D01*
X19801134Y-12470650D02*
X19801134Y-12603984D01*
X19801134Y-12489698D02*
X19810658Y-12480174D01*
X19810658Y-12480174D02*
X19829706Y-12470650D01*
X19829706Y-12470650D02*
X19858277Y-12470650D01*
X19858277Y-12470650D02*
X19877325Y-12480174D01*
X19877325Y-12480174D02*
X19886849Y-12499222D01*
X19886849Y-12499222D02*
X19886849Y-12603984D01*
X20010658Y-12603984D02*
X19991611Y-12594460D01*
X19991611Y-12594460D02*
X19982087Y-12584936D01*
X19982087Y-12584936D02*
X19972563Y-12565888D01*
X19972563Y-12565888D02*
X19972563Y-12508746D01*
X19972563Y-12508746D02*
X19982087Y-12489698D01*
X19982087Y-12489698D02*
X19991611Y-12480174D01*
X19991611Y-12480174D02*
X20010658Y-12470650D01*
X20010658Y-12470650D02*
X20039230Y-12470650D01*
X20039230Y-12470650D02*
X20058277Y-12480174D01*
X20058277Y-12480174D02*
X20067801Y-12489698D01*
X20067801Y-12489698D02*
X20077325Y-12508746D01*
X20077325Y-12508746D02*
X20077325Y-12565888D01*
X20077325Y-12565888D02*
X20067801Y-12584936D01*
X20067801Y-12584936D02*
X20058277Y-12594460D01*
X20058277Y-12594460D02*
X20039230Y-12603984D01*
X20039230Y-12603984D02*
X20010658Y-12603984D01*
X20134468Y-12470650D02*
X20210658Y-12470650D01*
X20163039Y-12403984D02*
X20163039Y-12575412D01*
X20163039Y-12575412D02*
X20172563Y-12594460D01*
X20172563Y-12594460D02*
X20191611Y-12603984D01*
X20191611Y-12603984D02*
X20210658Y-12603984D01*
X20429706Y-12470650D02*
X20429706Y-12670650D01*
X20429706Y-12480174D02*
X20448754Y-12470650D01*
X20448754Y-12470650D02*
X20486849Y-12470650D01*
X20486849Y-12470650D02*
X20505896Y-12480174D01*
X20505896Y-12480174D02*
X20515420Y-12489698D01*
X20515420Y-12489698D02*
X20524944Y-12508746D01*
X20524944Y-12508746D02*
X20524944Y-12565888D01*
X20524944Y-12565888D02*
X20515420Y-12584936D01*
X20515420Y-12584936D02*
X20505896Y-12594460D01*
X20505896Y-12594460D02*
X20486849Y-12603984D01*
X20486849Y-12603984D02*
X20448754Y-12603984D01*
X20448754Y-12603984D02*
X20429706Y-12594460D01*
X20639230Y-12603984D02*
X20620182Y-12594460D01*
X20620182Y-12594460D02*
X20610658Y-12575412D01*
X20610658Y-12575412D02*
X20610658Y-12403984D01*
X20801135Y-12603984D02*
X20801135Y-12499222D01*
X20801135Y-12499222D02*
X20791611Y-12480174D01*
X20791611Y-12480174D02*
X20772563Y-12470650D01*
X20772563Y-12470650D02*
X20734468Y-12470650D01*
X20734468Y-12470650D02*
X20715420Y-12480174D01*
X20801135Y-12594460D02*
X20782087Y-12603984D01*
X20782087Y-12603984D02*
X20734468Y-12603984D01*
X20734468Y-12603984D02*
X20715420Y-12594460D01*
X20715420Y-12594460D02*
X20705896Y-12575412D01*
X20705896Y-12575412D02*
X20705896Y-12556365D01*
X20705896Y-12556365D02*
X20715420Y-12537317D01*
X20715420Y-12537317D02*
X20734468Y-12527793D01*
X20734468Y-12527793D02*
X20782087Y-12527793D01*
X20782087Y-12527793D02*
X20801135Y-12518269D01*
X20867801Y-12470650D02*
X20943992Y-12470650D01*
X20896373Y-12403984D02*
X20896373Y-12575412D01*
X20896373Y-12575412D02*
X20905896Y-12594460D01*
X20905896Y-12594460D02*
X20924944Y-12603984D01*
X20924944Y-12603984D02*
X20943992Y-12603984D01*
X21086849Y-12594460D02*
X21067801Y-12603984D01*
X21067801Y-12603984D02*
X21029706Y-12603984D01*
X21029706Y-12603984D02*
X21010658Y-12594460D01*
X21010658Y-12594460D02*
X21001135Y-12575412D01*
X21001135Y-12575412D02*
X21001135Y-12499222D01*
X21001135Y-12499222D02*
X21010658Y-12480174D01*
X21010658Y-12480174D02*
X21029706Y-12470650D01*
X21029706Y-12470650D02*
X21067801Y-12470650D01*
X21067801Y-12470650D02*
X21086849Y-12480174D01*
X21086849Y-12480174D02*
X21096373Y-12499222D01*
X21096373Y-12499222D02*
X21096373Y-12518269D01*
X21096373Y-12518269D02*
X21001135Y-12537317D01*
X21267801Y-12603984D02*
X21267801Y-12403984D01*
X21267801Y-12594460D02*
X21248754Y-12603984D01*
X21248754Y-12603984D02*
X21210658Y-12603984D01*
X21210658Y-12603984D02*
X21191611Y-12594460D01*
X21191611Y-12594460D02*
X21182087Y-12584936D01*
X21182087Y-12584936D02*
X21172563Y-12565888D01*
X21172563Y-12565888D02*
X21172563Y-12508746D01*
X21172563Y-12508746D02*
X21182087Y-12489698D01*
X21182087Y-12489698D02*
X21191611Y-12480174D01*
X21191611Y-12480174D02*
X21210658Y-12470650D01*
X21210658Y-12470650D02*
X21248754Y-12470650D01*
X21248754Y-12470650D02*
X21267801Y-12480174D01*
X21343992Y-12680174D02*
X21353516Y-12670650D01*
X21353516Y-12670650D02*
X21372563Y-12642079D01*
X21372563Y-12642079D02*
X21382087Y-12623031D01*
X21382087Y-12623031D02*
X21391611Y-12594460D01*
X21391611Y-12594460D02*
X21401135Y-12546841D01*
X21401135Y-12546841D02*
X21401135Y-12508746D01*
X21401135Y-12508746D02*
X21391611Y-12461127D01*
X21391611Y-12461127D02*
X21382087Y-12432555D01*
X21382087Y-12432555D02*
X21372563Y-12413508D01*
X21372563Y-12413508D02*
X21353516Y-12384936D01*
X21353516Y-12384936D02*
X21343992Y-12375412D01*
X14197500Y-12676500D02*
X14397500Y-12876500D01*
X14397500Y-12676500D02*
X14197500Y-12876500D01*
X14297500Y-12676500D02*
X14297500Y-12876500D01*
X14197500Y-12776500D02*
X14397500Y-12776500D01*
X14648753Y-12687031D02*
X14658277Y-12677508D01*
X14658277Y-12677508D02*
X14677324Y-12667984D01*
X14677324Y-12667984D02*
X14724943Y-12667984D01*
X14724943Y-12667984D02*
X14743991Y-12677508D01*
X14743991Y-12677508D02*
X14753515Y-12687031D01*
X14753515Y-12687031D02*
X14763039Y-12706079D01*
X14763039Y-12706079D02*
X14763039Y-12725127D01*
X14763039Y-12725127D02*
X14753515Y-12753698D01*
X14753515Y-12753698D02*
X14639229Y-12867984D01*
X14639229Y-12867984D02*
X14763039Y-12867984D01*
X14848753Y-12848936D02*
X14858277Y-12858460D01*
X14858277Y-12858460D02*
X14848753Y-12867984D01*
X14848753Y-12867984D02*
X14839229Y-12858460D01*
X14839229Y-12858460D02*
X14848753Y-12848936D01*
X14848753Y-12848936D02*
X14848753Y-12867984D01*
X14934467Y-12687031D02*
X14943991Y-12677508D01*
X14943991Y-12677508D02*
X14963039Y-12667984D01*
X14963039Y-12667984D02*
X15010658Y-12667984D01*
X15010658Y-12667984D02*
X15029705Y-12677508D01*
X15029705Y-12677508D02*
X15039229Y-12687031D01*
X15039229Y-12687031D02*
X15048753Y-12706079D01*
X15048753Y-12706079D02*
X15048753Y-12725127D01*
X15048753Y-12725127D02*
X15039229Y-12753698D01*
X15039229Y-12753698D02*
X14924943Y-12867984D01*
X14924943Y-12867984D02*
X15048753Y-12867984D01*
X15172562Y-12667984D02*
X15191610Y-12667984D01*
X15191610Y-12667984D02*
X15210658Y-12677508D01*
X15210658Y-12677508D02*
X15220182Y-12687031D01*
X15220182Y-12687031D02*
X15229705Y-12706079D01*
X15229705Y-12706079D02*
X15239229Y-12744174D01*
X15239229Y-12744174D02*
X15239229Y-12791793D01*
X15239229Y-12791793D02*
X15229705Y-12829888D01*
X15229705Y-12829888D02*
X15220182Y-12848936D01*
X15220182Y-12848936D02*
X15210658Y-12858460D01*
X15210658Y-12858460D02*
X15191610Y-12867984D01*
X15191610Y-12867984D02*
X15172562Y-12867984D01*
X15172562Y-12867984D02*
X15153515Y-12858460D01*
X15153515Y-12858460D02*
X15143991Y-12848936D01*
X15143991Y-12848936D02*
X15134467Y-12829888D01*
X15134467Y-12829888D02*
X15124943Y-12791793D01*
X15124943Y-12791793D02*
X15124943Y-12744174D01*
X15124943Y-12744174D02*
X15134467Y-12706079D01*
X15134467Y-12706079D02*
X15143991Y-12687031D01*
X15143991Y-12687031D02*
X15153515Y-12677508D01*
X15153515Y-12677508D02*
X15172562Y-12667984D01*
X15363039Y-12667984D02*
X15382086Y-12667984D01*
X15382086Y-12667984D02*
X15401134Y-12677508D01*
X15401134Y-12677508D02*
X15410658Y-12687031D01*
X15410658Y-12687031D02*
X15420182Y-12706079D01*
X15420182Y-12706079D02*
X15429705Y-12744174D01*
X15429705Y-12744174D02*
X15429705Y-12791793D01*
X15429705Y-12791793D02*
X15420182Y-12829888D01*
X15420182Y-12829888D02*
X15410658Y-12848936D01*
X15410658Y-12848936D02*
X15401134Y-12858460D01*
X15401134Y-12858460D02*
X15382086Y-12867984D01*
X15382086Y-12867984D02*
X15363039Y-12867984D01*
X15363039Y-12867984D02*
X15343991Y-12858460D01*
X15343991Y-12858460D02*
X15334467Y-12848936D01*
X15334467Y-12848936D02*
X15324943Y-12829888D01*
X15324943Y-12829888D02*
X15315420Y-12791793D01*
X15315420Y-12791793D02*
X15315420Y-12744174D01*
X15315420Y-12744174D02*
X15324943Y-12706079D01*
X15324943Y-12706079D02*
X15334467Y-12687031D01*
X15334467Y-12687031D02*
X15343991Y-12677508D01*
X15343991Y-12677508D02*
X15363039Y-12667984D01*
X15515420Y-12867984D02*
X15515420Y-12734650D01*
X15515420Y-12753698D02*
X15524943Y-12744174D01*
X15524943Y-12744174D02*
X15543991Y-12734650D01*
X15543991Y-12734650D02*
X15572563Y-12734650D01*
X15572563Y-12734650D02*
X15591610Y-12744174D01*
X15591610Y-12744174D02*
X15601134Y-12763222D01*
X15601134Y-12763222D02*
X15601134Y-12867984D01*
X15601134Y-12763222D02*
X15610658Y-12744174D01*
X15610658Y-12744174D02*
X15629705Y-12734650D01*
X15629705Y-12734650D02*
X15658277Y-12734650D01*
X15658277Y-12734650D02*
X15677324Y-12744174D01*
X15677324Y-12744174D02*
X15686848Y-12763222D01*
X15686848Y-12763222D02*
X15686848Y-12867984D01*
X15782086Y-12867984D02*
X15782086Y-12734650D01*
X15782086Y-12753698D02*
X15791610Y-12744174D01*
X15791610Y-12744174D02*
X15810658Y-12734650D01*
X15810658Y-12734650D02*
X15839229Y-12734650D01*
X15839229Y-12734650D02*
X15858277Y-12744174D01*
X15858277Y-12744174D02*
X15867801Y-12763222D01*
X15867801Y-12763222D02*
X15867801Y-12867984D01*
X15867801Y-12763222D02*
X15877324Y-12744174D01*
X15877324Y-12744174D02*
X15896372Y-12734650D01*
X15896372Y-12734650D02*
X15924943Y-12734650D01*
X15924943Y-12734650D02*
X15943991Y-12744174D01*
X15943991Y-12744174D02*
X15953515Y-12763222D01*
X15953515Y-12763222D02*
X15953515Y-12867984D01*
X16343991Y-12658460D02*
X16172563Y-12915603D01*
X16601134Y-12667984D02*
X16620182Y-12667984D01*
X16620182Y-12667984D02*
X16639229Y-12677508D01*
X16639229Y-12677508D02*
X16648753Y-12687031D01*
X16648753Y-12687031D02*
X16658277Y-12706079D01*
X16658277Y-12706079D02*
X16667801Y-12744174D01*
X16667801Y-12744174D02*
X16667801Y-12791793D01*
X16667801Y-12791793D02*
X16658277Y-12829888D01*
X16658277Y-12829888D02*
X16648753Y-12848936D01*
X16648753Y-12848936D02*
X16639229Y-12858460D01*
X16639229Y-12858460D02*
X16620182Y-12867984D01*
X16620182Y-12867984D02*
X16601134Y-12867984D01*
X16601134Y-12867984D02*
X16582086Y-12858460D01*
X16582086Y-12858460D02*
X16572563Y-12848936D01*
X16572563Y-12848936D02*
X16563039Y-12829888D01*
X16563039Y-12829888D02*
X16553515Y-12791793D01*
X16553515Y-12791793D02*
X16553515Y-12744174D01*
X16553515Y-12744174D02*
X16563039Y-12706079D01*
X16563039Y-12706079D02*
X16572563Y-12687031D01*
X16572563Y-12687031D02*
X16582086Y-12677508D01*
X16582086Y-12677508D02*
X16601134Y-12667984D01*
X16753515Y-12848936D02*
X16763039Y-12858460D01*
X16763039Y-12858460D02*
X16753515Y-12867984D01*
X16753515Y-12867984D02*
X16743991Y-12858460D01*
X16743991Y-12858460D02*
X16753515Y-12848936D01*
X16753515Y-12848936D02*
X16753515Y-12867984D01*
X16886848Y-12667984D02*
X16905896Y-12667984D01*
X16905896Y-12667984D02*
X16924944Y-12677508D01*
X16924944Y-12677508D02*
X16934468Y-12687031D01*
X16934468Y-12687031D02*
X16943991Y-12706079D01*
X16943991Y-12706079D02*
X16953515Y-12744174D01*
X16953515Y-12744174D02*
X16953515Y-12791793D01*
X16953515Y-12791793D02*
X16943991Y-12829888D01*
X16943991Y-12829888D02*
X16934468Y-12848936D01*
X16934468Y-12848936D02*
X16924944Y-12858460D01*
X16924944Y-12858460D02*
X16905896Y-12867984D01*
X16905896Y-12867984D02*
X16886848Y-12867984D01*
X16886848Y-12867984D02*
X16867801Y-12858460D01*
X16867801Y-12858460D02*
X16858277Y-12848936D01*
X16858277Y-12848936D02*
X16848753Y-12829888D01*
X16848753Y-12829888D02*
X16839229Y-12791793D01*
X16839229Y-12791793D02*
X16839229Y-12744174D01*
X16839229Y-12744174D02*
X16848753Y-12706079D01*
X16848753Y-12706079D02*
X16858277Y-12687031D01*
X16858277Y-12687031D02*
X16867801Y-12677508D01*
X16867801Y-12677508D02*
X16886848Y-12667984D01*
X17067801Y-12753698D02*
X17048753Y-12744174D01*
X17048753Y-12744174D02*
X17039229Y-12734650D01*
X17039229Y-12734650D02*
X17029706Y-12715603D01*
X17029706Y-12715603D02*
X17029706Y-12706079D01*
X17029706Y-12706079D02*
X17039229Y-12687031D01*
X17039229Y-12687031D02*
X17048753Y-12677508D01*
X17048753Y-12677508D02*
X17067801Y-12667984D01*
X17067801Y-12667984D02*
X17105896Y-12667984D01*
X17105896Y-12667984D02*
X17124944Y-12677508D01*
X17124944Y-12677508D02*
X17134468Y-12687031D01*
X17134468Y-12687031D02*
X17143991Y-12706079D01*
X17143991Y-12706079D02*
X17143991Y-12715603D01*
X17143991Y-12715603D02*
X17134468Y-12734650D01*
X17134468Y-12734650D02*
X17124944Y-12744174D01*
X17124944Y-12744174D02*
X17105896Y-12753698D01*
X17105896Y-12753698D02*
X17067801Y-12753698D01*
X17067801Y-12753698D02*
X17048753Y-12763222D01*
X17048753Y-12763222D02*
X17039229Y-12772746D01*
X17039229Y-12772746D02*
X17029706Y-12791793D01*
X17029706Y-12791793D02*
X17029706Y-12829888D01*
X17029706Y-12829888D02*
X17039229Y-12848936D01*
X17039229Y-12848936D02*
X17048753Y-12858460D01*
X17048753Y-12858460D02*
X17067801Y-12867984D01*
X17067801Y-12867984D02*
X17105896Y-12867984D01*
X17105896Y-12867984D02*
X17124944Y-12858460D01*
X17124944Y-12858460D02*
X17134468Y-12848936D01*
X17134468Y-12848936D02*
X17143991Y-12829888D01*
X17143991Y-12829888D02*
X17143991Y-12791793D01*
X17143991Y-12791793D02*
X17134468Y-12772746D01*
X17134468Y-12772746D02*
X17124944Y-12763222D01*
X17124944Y-12763222D02*
X17105896Y-12753698D01*
X17315420Y-12667984D02*
X17277325Y-12667984D01*
X17277325Y-12667984D02*
X17258277Y-12677508D01*
X17258277Y-12677508D02*
X17248753Y-12687031D01*
X17248753Y-12687031D02*
X17229706Y-12715603D01*
X17229706Y-12715603D02*
X17220182Y-12753698D01*
X17220182Y-12753698D02*
X17220182Y-12829888D01*
X17220182Y-12829888D02*
X17229706Y-12848936D01*
X17229706Y-12848936D02*
X17239229Y-12858460D01*
X17239229Y-12858460D02*
X17258277Y-12867984D01*
X17258277Y-12867984D02*
X17296372Y-12867984D01*
X17296372Y-12867984D02*
X17315420Y-12858460D01*
X17315420Y-12858460D02*
X17324944Y-12848936D01*
X17324944Y-12848936D02*
X17334468Y-12829888D01*
X17334468Y-12829888D02*
X17334468Y-12782269D01*
X17334468Y-12782269D02*
X17324944Y-12763222D01*
X17324944Y-12763222D02*
X17315420Y-12753698D01*
X17315420Y-12753698D02*
X17296372Y-12744174D01*
X17296372Y-12744174D02*
X17258277Y-12744174D01*
X17258277Y-12744174D02*
X17239229Y-12753698D01*
X17239229Y-12753698D02*
X17229706Y-12763222D01*
X17229706Y-12763222D02*
X17220182Y-12782269D01*
X17505896Y-12667984D02*
X17467801Y-12667984D01*
X17467801Y-12667984D02*
X17448753Y-12677508D01*
X17448753Y-12677508D02*
X17439229Y-12687031D01*
X17439229Y-12687031D02*
X17420182Y-12715603D01*
X17420182Y-12715603D02*
X17410658Y-12753698D01*
X17410658Y-12753698D02*
X17410658Y-12829888D01*
X17410658Y-12829888D02*
X17420182Y-12848936D01*
X17420182Y-12848936D02*
X17429706Y-12858460D01*
X17429706Y-12858460D02*
X17448753Y-12867984D01*
X17448753Y-12867984D02*
X17486849Y-12867984D01*
X17486849Y-12867984D02*
X17505896Y-12858460D01*
X17505896Y-12858460D02*
X17515420Y-12848936D01*
X17515420Y-12848936D02*
X17524944Y-12829888D01*
X17524944Y-12829888D02*
X17524944Y-12782269D01*
X17524944Y-12782269D02*
X17515420Y-12763222D01*
X17515420Y-12763222D02*
X17505896Y-12753698D01*
X17505896Y-12753698D02*
X17486849Y-12744174D01*
X17486849Y-12744174D02*
X17448753Y-12744174D01*
X17448753Y-12744174D02*
X17429706Y-12753698D01*
X17429706Y-12753698D02*
X17420182Y-12763222D01*
X17420182Y-12763222D02*
X17410658Y-12782269D01*
X17601134Y-12667984D02*
X17601134Y-12706079D01*
X17677325Y-12667984D02*
X17677325Y-12706079D01*
X17972563Y-12944174D02*
X17963039Y-12934650D01*
X17963039Y-12934650D02*
X17943991Y-12906079D01*
X17943991Y-12906079D02*
X17934468Y-12887031D01*
X17934468Y-12887031D02*
X17924944Y-12858460D01*
X17924944Y-12858460D02*
X17915420Y-12810841D01*
X17915420Y-12810841D02*
X17915420Y-12772746D01*
X17915420Y-12772746D02*
X17924944Y-12725127D01*
X17924944Y-12725127D02*
X17934468Y-12696555D01*
X17934468Y-12696555D02*
X17943991Y-12677508D01*
X17943991Y-12677508D02*
X17963039Y-12648936D01*
X17963039Y-12648936D02*
X17972563Y-12639412D01*
X18039230Y-12687031D02*
X18048753Y-12677508D01*
X18048753Y-12677508D02*
X18067801Y-12667984D01*
X18067801Y-12667984D02*
X18115420Y-12667984D01*
X18115420Y-12667984D02*
X18134468Y-12677508D01*
X18134468Y-12677508D02*
X18143991Y-12687031D01*
X18143991Y-12687031D02*
X18153515Y-12706079D01*
X18153515Y-12706079D02*
X18153515Y-12725127D01*
X18153515Y-12725127D02*
X18143991Y-12753698D01*
X18143991Y-12753698D02*
X18029706Y-12867984D01*
X18029706Y-12867984D02*
X18153515Y-12867984D01*
X18391611Y-12867984D02*
X18391611Y-12667984D01*
X18477325Y-12867984D02*
X18477325Y-12763222D01*
X18477325Y-12763222D02*
X18467801Y-12744174D01*
X18467801Y-12744174D02*
X18448753Y-12734650D01*
X18448753Y-12734650D02*
X18420182Y-12734650D01*
X18420182Y-12734650D02*
X18401134Y-12744174D01*
X18401134Y-12744174D02*
X18391611Y-12753698D01*
X18601134Y-12867984D02*
X18582087Y-12858460D01*
X18582087Y-12858460D02*
X18572563Y-12848936D01*
X18572563Y-12848936D02*
X18563039Y-12829888D01*
X18563039Y-12829888D02*
X18563039Y-12772746D01*
X18563039Y-12772746D02*
X18572563Y-12753698D01*
X18572563Y-12753698D02*
X18582087Y-12744174D01*
X18582087Y-12744174D02*
X18601134Y-12734650D01*
X18601134Y-12734650D02*
X18629706Y-12734650D01*
X18629706Y-12734650D02*
X18648753Y-12744174D01*
X18648753Y-12744174D02*
X18658277Y-12753698D01*
X18658277Y-12753698D02*
X18667801Y-12772746D01*
X18667801Y-12772746D02*
X18667801Y-12829888D01*
X18667801Y-12829888D02*
X18658277Y-12848936D01*
X18658277Y-12848936D02*
X18648753Y-12858460D01*
X18648753Y-12858460D02*
X18629706Y-12867984D01*
X18629706Y-12867984D02*
X18601134Y-12867984D01*
X18782087Y-12867984D02*
X18763039Y-12858460D01*
X18763039Y-12858460D02*
X18753515Y-12839412D01*
X18753515Y-12839412D02*
X18753515Y-12667984D01*
X18934468Y-12858460D02*
X18915420Y-12867984D01*
X18915420Y-12867984D02*
X18877325Y-12867984D01*
X18877325Y-12867984D02*
X18858277Y-12858460D01*
X18858277Y-12858460D02*
X18848753Y-12839412D01*
X18848753Y-12839412D02*
X18848753Y-12763222D01*
X18848753Y-12763222D02*
X18858277Y-12744174D01*
X18858277Y-12744174D02*
X18877325Y-12734650D01*
X18877325Y-12734650D02*
X18915420Y-12734650D01*
X18915420Y-12734650D02*
X18934468Y-12744174D01*
X18934468Y-12744174D02*
X18943992Y-12763222D01*
X18943992Y-12763222D02*
X18943992Y-12782269D01*
X18943992Y-12782269D02*
X18848753Y-12801317D01*
X19020182Y-12858460D02*
X19039230Y-12867984D01*
X19039230Y-12867984D02*
X19077325Y-12867984D01*
X19077325Y-12867984D02*
X19096373Y-12858460D01*
X19096373Y-12858460D02*
X19105896Y-12839412D01*
X19105896Y-12839412D02*
X19105896Y-12829888D01*
X19105896Y-12829888D02*
X19096373Y-12810841D01*
X19096373Y-12810841D02*
X19077325Y-12801317D01*
X19077325Y-12801317D02*
X19048753Y-12801317D01*
X19048753Y-12801317D02*
X19029706Y-12791793D01*
X19029706Y-12791793D02*
X19020182Y-12772746D01*
X19020182Y-12772746D02*
X19020182Y-12763222D01*
X19020182Y-12763222D02*
X19029706Y-12744174D01*
X19029706Y-12744174D02*
X19048753Y-12734650D01*
X19048753Y-12734650D02*
X19077325Y-12734650D01*
X19077325Y-12734650D02*
X19096373Y-12744174D01*
X19172563Y-12944174D02*
X19182087Y-12934650D01*
X19182087Y-12934650D02*
X19201134Y-12906079D01*
X19201134Y-12906079D02*
X19210658Y-12887031D01*
X19210658Y-12887031D02*
X19220182Y-12858460D01*
X19220182Y-12858460D02*
X19229706Y-12810841D01*
X19229706Y-12810841D02*
X19229706Y-12772746D01*
X19229706Y-12772746D02*
X19220182Y-12725127D01*
X19220182Y-12725127D02*
X19210658Y-12696555D01*
X19210658Y-12696555D02*
X19201134Y-12677508D01*
X19201134Y-12677508D02*
X19182087Y-12648936D01*
X19182087Y-12648936D02*
X19172563Y-12639412D01*
X19534468Y-12944174D02*
X19524944Y-12934650D01*
X19524944Y-12934650D02*
X19505896Y-12906079D01*
X19505896Y-12906079D02*
X19496373Y-12887031D01*
X19496373Y-12887031D02*
X19486849Y-12858460D01*
X19486849Y-12858460D02*
X19477325Y-12810841D01*
X19477325Y-12810841D02*
X19477325Y-12772746D01*
X19477325Y-12772746D02*
X19486849Y-12725127D01*
X19486849Y-12725127D02*
X19496373Y-12696555D01*
X19496373Y-12696555D02*
X19505896Y-12677508D01*
X19505896Y-12677508D02*
X19524944Y-12648936D01*
X19524944Y-12648936D02*
X19534468Y-12639412D01*
X19610658Y-12734650D02*
X19610658Y-12867984D01*
X19610658Y-12753698D02*
X19620182Y-12744174D01*
X19620182Y-12744174D02*
X19639230Y-12734650D01*
X19639230Y-12734650D02*
X19667801Y-12734650D01*
X19667801Y-12734650D02*
X19686849Y-12744174D01*
X19686849Y-12744174D02*
X19696373Y-12763222D01*
X19696373Y-12763222D02*
X19696373Y-12867984D01*
X19820182Y-12867984D02*
X19801134Y-12858460D01*
X19801134Y-12858460D02*
X19791611Y-12848936D01*
X19791611Y-12848936D02*
X19782087Y-12829888D01*
X19782087Y-12829888D02*
X19782087Y-12772746D01*
X19782087Y-12772746D02*
X19791611Y-12753698D01*
X19791611Y-12753698D02*
X19801134Y-12744174D01*
X19801134Y-12744174D02*
X19820182Y-12734650D01*
X19820182Y-12734650D02*
X19848754Y-12734650D01*
X19848754Y-12734650D02*
X19867801Y-12744174D01*
X19867801Y-12744174D02*
X19877325Y-12753698D01*
X19877325Y-12753698D02*
X19886849Y-12772746D01*
X19886849Y-12772746D02*
X19886849Y-12829888D01*
X19886849Y-12829888D02*
X19877325Y-12848936D01*
X19877325Y-12848936D02*
X19867801Y-12858460D01*
X19867801Y-12858460D02*
X19848754Y-12867984D01*
X19848754Y-12867984D02*
X19820182Y-12867984D01*
X19943992Y-12734650D02*
X20020182Y-12734650D01*
X19972563Y-12667984D02*
X19972563Y-12839412D01*
X19972563Y-12839412D02*
X19982087Y-12858460D01*
X19982087Y-12858460D02*
X20001134Y-12867984D01*
X20001134Y-12867984D02*
X20020182Y-12867984D01*
X20239230Y-12734650D02*
X20239230Y-12934650D01*
X20239230Y-12744174D02*
X20258277Y-12734650D01*
X20258277Y-12734650D02*
X20296373Y-12734650D01*
X20296373Y-12734650D02*
X20315420Y-12744174D01*
X20315420Y-12744174D02*
X20324944Y-12753698D01*
X20324944Y-12753698D02*
X20334468Y-12772746D01*
X20334468Y-12772746D02*
X20334468Y-12829888D01*
X20334468Y-12829888D02*
X20324944Y-12848936D01*
X20324944Y-12848936D02*
X20315420Y-12858460D01*
X20315420Y-12858460D02*
X20296373Y-12867984D01*
X20296373Y-12867984D02*
X20258277Y-12867984D01*
X20258277Y-12867984D02*
X20239230Y-12858460D01*
X20448754Y-12867984D02*
X20429706Y-12858460D01*
X20429706Y-12858460D02*
X20420182Y-12839412D01*
X20420182Y-12839412D02*
X20420182Y-12667984D01*
X20610658Y-12867984D02*
X20610658Y-12763222D01*
X20610658Y-12763222D02*
X20601135Y-12744174D01*
X20601135Y-12744174D02*
X20582087Y-12734650D01*
X20582087Y-12734650D02*
X20543992Y-12734650D01*
X20543992Y-12734650D02*
X20524944Y-12744174D01*
X20610658Y-12858460D02*
X20591611Y-12867984D01*
X20591611Y-12867984D02*
X20543992Y-12867984D01*
X20543992Y-12867984D02*
X20524944Y-12858460D01*
X20524944Y-12858460D02*
X20515420Y-12839412D01*
X20515420Y-12839412D02*
X20515420Y-12820365D01*
X20515420Y-12820365D02*
X20524944Y-12801317D01*
X20524944Y-12801317D02*
X20543992Y-12791793D01*
X20543992Y-12791793D02*
X20591611Y-12791793D01*
X20591611Y-12791793D02*
X20610658Y-12782269D01*
X20677325Y-12734650D02*
X20753515Y-12734650D01*
X20705896Y-12667984D02*
X20705896Y-12839412D01*
X20705896Y-12839412D02*
X20715420Y-12858460D01*
X20715420Y-12858460D02*
X20734468Y-12867984D01*
X20734468Y-12867984D02*
X20753515Y-12867984D01*
X20896373Y-12858460D02*
X20877325Y-12867984D01*
X20877325Y-12867984D02*
X20839230Y-12867984D01*
X20839230Y-12867984D02*
X20820182Y-12858460D01*
X20820182Y-12858460D02*
X20810658Y-12839412D01*
X20810658Y-12839412D02*
X20810658Y-12763222D01*
X20810658Y-12763222D02*
X20820182Y-12744174D01*
X20820182Y-12744174D02*
X20839230Y-12734650D01*
X20839230Y-12734650D02*
X20877325Y-12734650D01*
X20877325Y-12734650D02*
X20896373Y-12744174D01*
X20896373Y-12744174D02*
X20905896Y-12763222D01*
X20905896Y-12763222D02*
X20905896Y-12782269D01*
X20905896Y-12782269D02*
X20810658Y-12801317D01*
X21077325Y-12867984D02*
X21077325Y-12667984D01*
X21077325Y-12858460D02*
X21058277Y-12867984D01*
X21058277Y-12867984D02*
X21020182Y-12867984D01*
X21020182Y-12867984D02*
X21001135Y-12858460D01*
X21001135Y-12858460D02*
X20991611Y-12848936D01*
X20991611Y-12848936D02*
X20982087Y-12829888D01*
X20982087Y-12829888D02*
X20982087Y-12772746D01*
X20982087Y-12772746D02*
X20991611Y-12753698D01*
X20991611Y-12753698D02*
X21001135Y-12744174D01*
X21001135Y-12744174D02*
X21020182Y-12734650D01*
X21020182Y-12734650D02*
X21058277Y-12734650D01*
X21058277Y-12734650D02*
X21077325Y-12744174D01*
X21153516Y-12944174D02*
X21163039Y-12934650D01*
X21163039Y-12934650D02*
X21182087Y-12906079D01*
X21182087Y-12906079D02*
X21191611Y-12887031D01*
X21191611Y-12887031D02*
X21201135Y-12858460D01*
X21201135Y-12858460D02*
X21210658Y-12810841D01*
X21210658Y-12810841D02*
X21210658Y-12772746D01*
X21210658Y-12772746D02*
X21201135Y-12725127D01*
X21201135Y-12725127D02*
X21191611Y-12696555D01*
X21191611Y-12696555D02*
X21182087Y-12677508D01*
X21182087Y-12677508D02*
X21163039Y-12648936D01*
X21163039Y-12648936D02*
X21153516Y-12639412D01*
M02*
