M48
; DRILL file {KiCad 9.0.7} date 2026-02-06T13:01:08+0100
; FORMAT={-:-/ absolute / inch / decimal}
; #@! TF.CreationDate,2026-02-06T13:01:08+01:00
; #@! TF.GenerationSoftware,Kicad,Pcbnew,9.0.7
; #@! TF.FileFunction,MixedPlating,1,2
FMAT,2
INCH
; #@! TA.AperFunction,Plated,PTH,ComponentDrill
T1C0.0315
; #@! TA.AperFunction,Plated,PTH,ComponentDrill
T2C0.0354
; #@! TA.AperFunction,Plated,PTH,ComponentDrill
T3C0.0394
; #@! TA.AperFunction,Plated,PTH,ComponentDrill
T4C0.0433
; #@! TA.AperFunction,Plated,PTH,ComponentDrill
T5C0.0492
; #@! TA.AperFunction,NonPlated,NPTH,ComponentDrill
T6C0.0394
; #@! TA.AperFunction,NonPlated,NPTH,ComponentDrill
T7C0.0866
%
G90
G05
T1
X6.2008Y-2.6083
X6.6008Y-2.6083
X6.6535Y-2.3425
X6.8209Y-2.6476
X7.0535Y-2.3425
X7.0768Y-2.5
X7.2209Y-2.6476
X7.2441Y-2.3425
X7.4768Y-2.5
X7.6441Y-2.3425
T2
X7.3917Y-2.7165
X7.4917Y-2.7165
X7.9134Y-2.3606
X7.9134Y-2.4606
T3
X5.9744Y-3.5303
X5.9744Y-3.6303
X5.9744Y-3.7303
X5.9744Y-3.8303
X5.9744Y-3.9303
X6.4551Y-2.8709
X6.4551Y-2.9709
X6.4551Y-3.0709
X6.4551Y-3.1709
X6.4551Y-3.2709
X6.7411Y-2.9724
X6.7411Y-3.0709
X6.7411Y-3.1693
X6.7411Y-3.2677
X6.7411Y-3.5433
X6.7411Y-3.6417
X6.7411Y-3.7402
X6.7411Y-3.8386
X7.1555Y-2.9724
X7.1555Y-3.0709
X7.1555Y-3.1693
X7.1555Y-3.2677
X7.1555Y-3.5433
X7.1555Y-3.6417
X7.1555Y-3.7402
X7.1555Y-3.8386
T4
X6.8012Y-2.5
X6.8996Y-2.5
X7.6673Y-2.5295
X7.6673Y-2.628
X7.9134Y-2.6575
X8.0118Y-2.6575
T5
X5.9252Y-2.3819
X5.9252Y-2.5787
T6
X5.9898Y-2.0297
X5.9898Y-2.1297
X6.0898Y-2.0297
X6.0898Y-2.1297
X6.1898Y-2.0297
X6.1898Y-2.1297
X6.2898Y-2.0297
X6.2898Y-2.1297
X6.3898Y-2.0297
X6.3898Y-2.1297
X6.4898Y-2.0297
X6.4898Y-2.1297
X6.5898Y-2.0297
X6.5898Y-2.1297
X6.6898Y-2.0297
X6.6898Y-2.1297
X6.7898Y-2.0297
X6.7898Y-2.1297
X6.8898Y-2.0297
X6.8898Y-2.1297
X6.9898Y-2.0297
X6.9898Y-2.1297
X7.0898Y-2.0297
X7.0898Y-2.1297
X7.1898Y-2.0297
X7.1898Y-2.1297
X7.2898Y-2.0297
X7.2898Y-2.1297
X7.3898Y-2.0297
X7.3898Y-2.1297
X7.4898Y-2.0297
X7.4898Y-2.1297
X7.5898Y-2.0297
X7.5898Y-2.1297
X7.6898Y-2.0297
X7.6898Y-2.1297
X7.7898Y-2.0297
X7.7898Y-2.1297
X7.8898Y-2.0297
X7.8898Y-2.1297
T7
X5.7776Y-4.0157
X8.061Y-2.0768
M30
