<?xml version="1.0" encoding="UTF-8" standalone="no"?>
<!-- Created with Inkscape (http://www.inkscape.org/) -->

<svg
   xmlns:shaper="http://www.shapertools.com/namespaces/shaper"
   xmlns:dc="http://purl.org/dc/elements/1.1/"
   xmlns:cc="http://creativecommons.org/ns#"
   xmlns:rdf="http://www.w3.org/1999/02/22-rdf-syntax-ns#"
   xmlns:svg="http://www.w3.org/2000/svg"
   xmlns="http://www.w3.org/2000/svg"
   xmlns:sodipodi="http://sodipodi.sourceforge.net/DTD/sodipodi-0.dtd"
   xmlns:inkscape="http://www.inkscape.org/namespaces/inkscape"
   width="420mm"
   height="297mm"
   viewBox="0 0 420 297"
   version="1.1"
   id="svg1033"
   inkscape:version="0.92.5 (2060ec1f9f, 2020-04-08)"
   sodipodi:docname="PMMA_A3_Laser-cutV2.svg"
   inkscape:export-filename="/media/guillaume/D-PC/KAL/Technique/ReducteurV3.0/legende_decoupePMMAA3.png"
   inkscape:export-xdpi="60.476189"
   inkscape:export-ydpi="60.476189">
  <defs
     id="defs1027" />
  <sodipodi:namedview
     id="base"
     pagecolor="#ffffff"
     bordercolor="#666666"
     borderopacity="1.0"
     inkscape:pageopacity="0.0"
     inkscape:pageshadow="2"
     inkscape:zoom="0.7"
     inkscape:cx="621.21886"
     inkscape:cy="670.70767"
     inkscape:document-units="mm"
     inkscape:current-layer="layer1"
     showgrid="false"
     inkscape:window-width="1872"
     inkscape:window-height="1016"
     inkscape:window-x="48"
     inkscape:window-y="27"
     inkscape:window-maximized="1" />
  <metadata
     id="metadata1030">
    <rdf:RDF>
      <cc:Work
         rdf:about="">
        <dc:format>image/svg+xml</dc:format>
        <dc:type
           rdf:resource="http://purl.org/dc/dcmitype/StillImage" />
        <dc:title />
      </cc:Work>
    </rdf:RDF>
  </metadata>
  <g
     inkscape:label="Calque 1"
     inkscape:groupmode="layer"
     id="layer1">
    <path
       style="vector-effect:non-scaling-stroke;fill:none;stroke:#000000;stroke-width:1.3;stroke-miterlimit:4;stroke-dasharray:none;stroke-opacity:1;fill-opacity:1"
       id="path2"
       shaper:pathType="exterior"
       shaper:cutDepth="0"
       d="m 82.836901,131.4 h 16.4 v -6 h -1 v -2.7 h 1 v -1.5 a 0.49999999,0.49999999 0 0 1 0.5,-0.5 h 2.399999 a 0.49999999,0.49999999 0 0 1 0.5,0.5 v 1.5 h 1 v 2.7 h -1 v 6 h 16.4 v 5.1 h 35.8 v -5.1 h 16.35 v -6 h -1 v -2.7 h 1 v -1.5 a 0.49999999,0.49999999 0 0 1 0.5,-0.5 h 2.4 a 0.49999999,0.49999999 0 0 1 0.5,0.5 v 1.5 h 1 v 2.7 h -1 v 6 h 16.35 v -12.475 h -5.4 V 108.15 h -6 v 1 h -2.7 v -0.79765 h -1.5 a 0.49999999,0.49999999 0 0 1 -0.5,-0.5 v -2.4 a 0.49999999,0.49999999 0 0 1 0.5,-0.5 h 1.5 V 103.75 h 2.7 v 1 h 6 V 93.975002 h 5.4 V 81.5 h -16.35 v 6.000002 h 1 v 2.7 h -1 v 1.5 a 0.49999999,0.49999999 0 0 1 -0.5,0.5 h -2.4 a 0.49999999,0.49999999 0 0 1 -0.5,-0.5 v -1.5 h -1 v -2.7 h 1 V 81.5 h -16.35 v -5.399999 h -35.8 V 81.5 h -16.4 v 6.000002 h 1 v 2.7 h -1 v 1.5 a 0.49999999,0.49999999 0 0 1 -0.5,0.5 h -2.399999 a 0.49999999,0.49999999 0 0 1 -0.5,-0.5 v -1.5 h -1 v -2.7 h 1 V 81.5 h -16.4 v -5.399999 h -35.8 V 81.5 h -16.35001 v 6.000002 h 1 v 2.7 h -1 v 1.5 a 0.49999999,0.49999999 0 0 1 -0.5,0.5 h -2.4 a 0.49999999,0.49999999 0 0 1 -0.5,-0.5 v -1.5 h -1 v -2.7 h 1 V 81.5 h -16.35 v 12.475002 h 5.4 V 104.75 h 6 v -1 h 2.7 v 1.20235 h 1.5 a 0.49999999,0.49999999 0 0 1 0.5,0.5 v 2.4 a 0.49999999,0.49999999 0 0 1 -0.5,0.5 h -1.5 V 109.15 h -2.7 v -1 h -6 v 10.775 h -5.4 V 131.4 h 16.35 v -6 h -1 v -2.7 h 1 v -1.5 a 0.49999999,0.49999999 0 0 1 0.5,-0.5 h 2.4 a 0.49999999,0.49999999 0 0 1 0.5,0.5 v 1.5 h 1 v 2.7 h -1 v 6 h 16.35001 v 5.1 h 35.8 z"
       inkscape:connector-curvature="0" />
    <path
       inkscape:connector-curvature="0"
       d="m 214.88219,66.600052 v 5.4 h 49.8 v -5.4 h 23.4 v -6 h -1 v -2.7 h 1 v -1.5 a 0.49999999,0.49999999 0 0 1 0.5,-0.5 h 2.4 a 0.49999999,0.49999999 0 0 1 0.5,0.5 v 1.5 h 1 v 2.7 h -1 v 6 h 18 V 53.969167 h 5.08223 V 29.219168 l -5.08223,-0.09411 v -12.725 h -18 v 6 h 1 v 2.7 h -1 v 1.5 a 0.49999999,0.49999999 0 0 1 -0.5,0.5 h -2.4 a 0.49999999,0.49999999 0 0 1 -0.5,-0.5 v -1.5 h -1 v -2.7 h 1 v -6 h -23.4 v -5.4 h -49.8 v 5.4 h -23.4 v 6 h 1 v 2.7 h -1 v 1.5 a 0.49999999,0.49999999 0 0 1 -0.5,0.5 h -2.4 a 0.49999999,0.49999999 0 0 1 -0.5,-0.5 v -1.5 h -1 v -2.7 h 1 v -6 h -18 v 12.725 l -5.08223,0.0941 v 24.749999 h 5.08223 v 12.6309 h 18 v -6 h -1 v -2.7 h 1 v -1.5 a 0.49999999,0.49999999 0 0 1 0.5,-0.5 h 2.4 a 0.49999999,0.49999999 0 0 1 0.5,0.5 v 1.5 h 1 v 2.7 h -1 v 6 z"
       shaper:cutDepth="0"
       shaper:pathType="exterior"
       id="path2-3"
       style="vector-effect:non-scaling-stroke;fill:none;stroke:#000000;stroke-width:1.29999995;stroke-miterlimit:4;stroke-dasharray:none;stroke-opacity:1" />
    <path
       inkscape:connector-curvature="0"
       d="m 310.26442,41.500053 a 1.6,1.6 0 1 0 3.2,0 1.6,1.6 0 1 0 -3.2,0 z"
       shaper:cutDepth="0"
       shaper:pathType="interior"
       id="path4"
       style="vector-effect:non-scaling-stroke;fill:none;stroke:#000000;stroke-width:1.29999995;stroke-miterlimit:4;stroke-dasharray:none;stroke-opacity:1" />
    <path
       inkscape:connector-curvature="0"
       d="m 166.09996,41.500053 a 1.6,1.6 0 1 0 3.2,0 1.6,1.6 0 1 0 -3.2,0 z"
       shaper:cutDepth="0"
       shaper:pathType="interior"
       id="path6"
       style="vector-effect:non-scaling-stroke;fill:none;stroke:#000000;stroke-width:1.29999995;stroke-miterlimit:4;stroke-dasharray:none;stroke-opacity:1" />
    <path
       inkscape:connector-curvature="0"
       style="vector-effect:non-scaling-stroke;fill:none;stroke:#000000;stroke-width:1.4;stroke-opacity:1;stroke-miterlimit:4;stroke-dasharray:none"
       id="path2-61"
       shaper:pathType="exterior"
       shaper:cutDepth="0"
       d="m 321.78071,40.578123 a 22,22 0 1 0 44,0 22,22 0 1 0 -44,0 z" />
    <path
       inkscape:connector-curvature="0"
       style="vector-effect:non-scaling-stroke;fill:none;stroke:#000000;stroke-width:1.4;stroke-opacity:1;stroke-miterlimit:4;stroke-dasharray:none"
       id="path4-0"
       shaper:pathType="interior"
       shaper:cutDepth="0"
       d="m 342.08071,49.578123 a 1.7,1.7 0 1 0 3.4,0 1.7,1.7 0 1 0 -3.4,0 z" />
    <path
       inkscape:connector-curvature="0"
       style="vector-effect:non-scaling-stroke;fill:none;stroke:#000000;stroke-width:1.4;stroke-opacity:1;stroke-miterlimit:4;stroke-dasharray:none"
       id="path6-6"
       shaper:pathType="interior"
       shaper:cutDepth="0"
       d="m 351.08071,40.578123 a 1.7,1.7 0 1 0 3.4,0 1.7,1.7 0 1 0 -3.4,0 z" />
    <path
       inkscape:connector-curvature="0"
       style="vector-effect:non-scaling-stroke;fill:none;stroke:#000000;stroke-width:1.4;stroke-opacity:1;stroke-miterlimit:4;stroke-dasharray:none"
       id="path8-1"
       shaper:pathType="interior"
       shaper:cutDepth="0"
       d="m 325.72623,31.078123 a 1.6,1.6 0 1 0 3.2,0 1.6,1.6 0 1 0 -3.2,0 z" />
    <path
       inkscape:connector-curvature="0"
       style="vector-effect:non-scaling-stroke;fill:none;stroke:#000000;stroke-width:1.4;stroke-opacity:1;stroke-miterlimit:4;stroke-dasharray:none"
       id="path10-5"
       shaper:pathType="interior"
       shaper:cutDepth="0"
       d="m 342.18071,59.578123 a 1.6,1.6 0 1 0 3.2,0 1.6,1.6 0 1 0 -3.2,0 z" />
    <path
       inkscape:connector-curvature="0"
       style="vector-effect:non-scaling-stroke;fill:none;stroke:#000000;stroke-width:1.4;stroke-opacity:1;stroke-miterlimit:4;stroke-dasharray:none"
       id="path12-9"
       shaper:pathType="interior"
       shaper:cutDepth="0"
       d="m 358.63519,31.078123 a 1.6,1.6 0 1 0 3.2,0 1.6,1.6 0 1 0 -3.2,0 z" />
    <path
       inkscape:connector-curvature="0"
       style="vector-effect:non-scaling-stroke;fill:none;stroke:#000000;stroke-width:1.4;stroke-opacity:1;stroke-miterlimit:4;stroke-dasharray:none"
       id="path14-4"
       shaper:pathType="interior"
       shaper:cutDepth="0"
       d="m 333.08071,40.578123 a 1.7,1.7 0 1 0 3.4,0 1.7,1.7 0 1 0 -3.4,0 z" />
    <path
       inkscape:connector-curvature="0"
       style="vector-effect:non-scaling-stroke;fill:none;stroke:#000000;stroke-width:1.4;stroke-opacity:1;stroke-miterlimit:4;stroke-dasharray:none"
       id="path16-9"
       shaper:pathType="interior"
       shaper:cutDepth="0"
       d="m 342.08071,31.578123 a 1.7,1.7 0 1 0 3.4,0 1.7,1.7 0 1 0 -3.4,0 z" />
    <path
       inkscape:connector-curvature="0"
       style="vector-effect:non-scaling-stroke;fill:none;stroke:#000000;stroke-width:1.4;stroke-opacity:1;stroke-miterlimit:4;stroke-dasharray:none"
       id="path18-0"
       shaper:pathType="interior"
       shaper:cutDepth="0"
       d="m 338.28071,40.578123 a 5.5,5.5 0 1 0 11,0 5.5,5.5 0 1 0 -11,0 z" />
    <path
       style="vector-effect:non-scaling-stroke;fill:none;stroke:#000000;stroke-width:1.3;stroke-miterlimit:4;stroke-dasharray:none;stroke-opacity:1"
       id="path2-1"
       shaper:pathType="exterior"
       shaper:cutDepth="0"
       d="m 267.40001,131.4 h 16.4 v -6 h -1 v -2.7 h 1 v -1.5 a 0.50000001,0.50000001 0 0 1 0.5,-0.5 h 2.4 a 0.50000001,0.50000001 0 0 1 0.5,0.5 v 1.5 h 1 v 2.7 h -1 v 6 h 16.4 v 5.1 h 35.8 v -5.1 h 16.35 v -6 h -1 v -2.7 h 1 v -1.5 a 0.50000001,0.50000001 0 0 1 0.5,-0.5 h 2.4 a 0.50000001,0.50000001 0 0 1 0.5,0.5 v 1.5 h 1 v 2.7 h -1 v 6 h 16.35 v -12.475 h -5.4 V 108.15 h -6 v 1 h -2.7 v -0.79765 h -1.5 a 0.50000001,0.50000001 0 0 1 -0.5,-0.5 v -2.4 a 0.50000001,0.50000001 0 0 1 0.5,-0.5 h 1.5 V 103.75 h 2.7 v 1 h 6 V 93.975 h 5.4 V 81.5 h -16.35 v 6 h 1 v 2.7 h -1 v 1.5 a 0.50000001,0.50000001 0 0 1 -0.5,0.5 h -2.4 a 0.50000001,0.50000001 0 0 1 -0.5,-0.5 v -1.5 h -1 v -2.7 h 1 v -6 h -16.35 v -5.399999 h -35.8 V 81.5 h -16.4 v 6 h 1 v 2.7 h -1 v 1.5 a 0.50000001,0.50000001 0 0 1 -0.5,0.5 h -2.4 a 0.50000001,0.50000001 0 0 1 -0.5,-0.5 v -1.5 h -1 v -2.7 h 1 v -6 h -16.4 v -5.399999 h -35.8 V 81.5 H 215.25 v 6 h 1 v 2.7 h -1 v 1.5 a 0.50000001,0.50000001 0 0 1 -0.5,0.5 h -2.4 a 0.50000001,0.50000001 0 0 1 -0.5,-0.5 v -1.5 h -1 v -2.7 h 1 v -6 H 195.5 v 12.475 h 5.4 v 10.775 h 6 v -1 h 2.7 v 1.20235 h 1.5 a 0.50000001,0.50000001 0 0 1 0.5,0.5 v 2.4 a 0.50000001,0.50000001 0 0 1 -0.5,0.5 h -1.5 V 109.15 h -2.7 v -1 h -6 v 10.775 h -5.4 V 131.4 h 16.35 v -6 h -1 v -2.7 h 1 v -1.5 a 0.50000001,0.50000001 0 0 1 0.5,-0.5 h 2.4 a 0.50000001,0.50000001 0 0 1 0.5,0.5 v 1.5 h 1 v 2.7 h -1 v 6 h 16.35001 v 5.1 h 35.8 z"
       inkscape:connector-curvature="0" />
    <path
       inkscape:connector-curvature="0"
       d="m 61.882198,66.600037 v 5.4 H 111.6822 v -5.4 h 23.4 v -6 h -1 v -2.7 h 1 v -1.5 a 0.49999999,0.49999999 0 0 1 0.5,-0.5 h 2.4 a 0.49999999,0.49999999 0 0 1 0.5,0.5 v 1.5 h 1 v 2.7 h -1 v 6 h 18 V 53.969152 h 5.08223 V 29.219153 l -5.08223,-0.09411 v -12.725 h -18 v 6 h 1 v 2.7 h -1 v 1.5 a 0.49999999,0.49999999 0 0 1 -0.5,0.5 h -2.4 a 0.49999999,0.49999999 0 0 1 -0.5,-0.5 v -1.5 h -1 v -2.7 h 1 v -6 h -23.4 v -5.4 H 61.882198 v 5.4 h -23.4 v 6 h 1 v 2.7 h -1 v 1.5 a 0.49999999,0.49999999 0 0 1 -0.5,0.5 h -2.399999 a 0.49999999,0.49999999 0 0 1 -0.5,-0.5 v -1.5 h -1 v -2.7 h 1 v -6 h -18 v 12.725 l -5.082235,0.0941 v 24.749999 h 5.082235 v 12.6309 h 18 v -6 h -1 v -2.7 h 1 v -1.5 a 0.49999999,0.49999999 0 0 1 0.5,-0.5 h 2.399999 a 0.49999999,0.49999999 0 0 1 0.5,0.5 v 1.5 h 1 v 2.7 h -1 v 6 z"
       shaper:cutDepth="0"
       shaper:pathType="exterior"
       id="path2-3-3"
       style="vector-effect:non-scaling-stroke;fill:none;stroke:#000000;stroke-width:1.4;stroke-miterlimit:4;stroke-dasharray:none;stroke-opacity:1" />
    <path
       inkscape:connector-curvature="0"
       d="m 157.26443,41.500038 a 1.6,1.6 0 1 0 3.2,0 1.6,1.6 0 1 0 -3.2,0 z"
       shaper:cutDepth="0"
       shaper:pathType="interior"
       id="path4-04"
       style="vector-effect:non-scaling-stroke;fill:none;stroke:#000000;stroke-width:1.4;stroke-miterlimit:4;stroke-dasharray:none;stroke-opacity:1" />
    <path
       inkscape:connector-curvature="0"
       d="m 13.099964,41.500038 a 1.6,1.6 0 1 0 3.2,0 1.6,1.6 0 1 0 -3.2,0 z"
       shaper:cutDepth="0"
       shaper:pathType="interior"
       id="path6-4"
       style="vector-effect:non-scaling-stroke;fill:none;stroke:#000000;stroke-width:1.4;stroke-miterlimit:4;stroke-dasharray:none;stroke-opacity:1" />
    <path
       d="m 27.037,143.69358 a 1.5,1.5 0 1 0 3,0 1.5,1.5 0 1 0 -3,0 z m 72,0 a 1.5,1.5 0 1 0 3,0 1.5,1.5 0 1 0 -3,0 z m 13.4,72.34999 a 16.6,16.6 0 1 0 33.2,0 16.6,16.6 0 1 0 -33.2,0 z m 73.95,50.00001 a 1.5,1.5 0 1 0 3,0 1.5,1.5 0 1 0 -3,0 z m -14.8,-111.76471 a 3.95,3.95 0 1 0 7.9,0 3.95,3.95 0 1 0 -7.9,0 z m -103.5,61.7647 a 3.95,3.95 0 1 0 7.9,0 3.95,3.95 0 1 0 -7.9,0 z m -56.4,-49.99999 a 1.5000001,1.5000001 0 1 0 3,0 1.5000001,1.5000001 0 1 0 -3,0 z m 159.9,111.7647 a 3.95,3.95 0 1 0 7.9,0 3.95,3.95 0 1 0 -7.9,0 z m -0.55,10.5853 a 1.5,1.5 0 1 0 3,0 1.5,1.5 0 1 0 -3,0 z M 21.562,226.04357 a 1.275,1.275 0 1 0 2.55,0 1.275,1.275 0 1 0 -2.55,0 z m 164.825,-59.99999 a 1.5,1.5 0 1 0 3,0 1.5,1.5 0 1 0 -3,0 z m -174.7,100 a 1.5000001,1.5000001 0 1 0 3,0 1.5000001,1.5000001 0 1 0 -3,0 z m 89.13435,0.34593 a 1.400002,1.400002 0 1 0 2.8,0 1.400002,1.400002 0 1 0 -2.8,0 z M 171.037,143.69358 a 1.5,1.5 0 1 0 3,0 1.5,1.5 0 1 0 -3,0 z m -144,144.7 a 1.5,1.5 0 1 0 3,0 1.5,1.5 0 1 0 -3,0 z m -5.475,-82.35 a 1.275,1.275 0 1 0 2.55,0 1.275,1.275 0 1 0 -2.55,0 z m 35,19.99999 a 1.275,1.275 0 1 0 2.55,0 1.275,1.275 0 1 0 -2.55,0 z m -28.725,-6.55 a 3.45,3.45 0 0 1 0,-6.9 h 26 a 0.99999999,0.99999999 0 0 1 1,1 v 4.9 a 0.99999999,0.99999999 0 0 1 -1,1 z m 71.2,68.90001 a 1.5,1.5 0 1 0 3,0 1.5,1.5 0 1 0 -3,0 z m -42.475,-82.35 a 1.275,1.275 0 1 0 2.55,0 1.275,1.275 0 1 0 -2.55,0 z m 99.92787,-41.32624 a 0.8,0.8 0 1 0 1.6,0 0.8,0.8 0 1 0 -1.6,0 z m 1.06428,16.57624 a 0.6,0.6 0 1 0 1.2,0 0.6,0.6 0 1 0 -1.2,0 z m -6.9102,5.02055 a 0.6,0.6 0 1 0 1.2,0 0.6,0.6 0 1 0 -1.2,0 z m -2.18307,-20.77055 a 0.6,0.6 0 1 0 1.2,0 0.6,0.6 0 1 0 -1.2,0 z m 13.11479,14.82623 a 0.8,0.8 0 1 0 1.6,0 0.8,0.8 0 1 0 -1.6,0 z m -26.51982,-16.03602 a 1,1 0 1 0 2,0 1,1 0 1 0 -2,0 z m 23.29127,25.86758 a 1,1 0 1 0 2,0 1,1 0 1 0 -2,0 z m -26.92973,-19.56559 a 1,1 0 1 0 2,0 1,1 0 1 0 -2,0 z m 24.84651,-1.61808 a 0.6,0.6 0 1 0 1.2,0 0.6,0.6 0 1 0 -1.2,0 z m -4.56456,24.14346 a 1,1 0 1 0 2,0 1,1 0 1 0 -2,0 z m -3.63846,-34.61758 a 1,1 0 1 0 2,0 1,1 0 1 0 -2,0 z m 6.57175,25.99467 a 0.6,0.6 0 1 0 1.2,0 0.6,0.6 0 1 0 -1.2,0 z M 54.12388,269.73764 a 0.8,0.8 0 1 0 1.6,0 0.8,0.8 0 1 0 -1.6,0 z m -6.9815,-4.10183 a 0.6,0.6 0 1 0 1.2,0 0.6,0.6 0 1 0 -1.2,0 z m 3.87074,7.90777 a 1,1 0 1 0 2,0 1,1 0 1 0 -2,0 z m 0.4,-7 a 0.6,0.6 0 1 0 1.2,0 0.6,0.6 0 1 0 -1.2,0 z M 45.5188,243.25394 a 0.8,0.8 0 1 0 1.6,0 0.8,0.8 0 1 0 -1.6,0 z m 16.3368,11.69209 a 0.6,0.6 0 1 0 1.2,0 0.6,0.6 0 1 0 -1.2,0 z m -20.42858,4.34223 a 0.6,0.6 0 1 0 1.2,0 0.6,0.6 0 1 0 -1.2,0 z M 57.58486,247.5489 a 0.6,0.6 0 1 0 1.2,0 0.6,0.6 0 1 0 -1.2,0 z m -15.26501,3.24468 a 0.6,0.6 0 1 0 1.2,0 0.6,0.6 0 1 0 -1.2,0 z m 23.84871,-3.5 a 1,1 0 1 0 2,0 1,1 0 1 0 -2,0 z m -23.18444,20.07624 a 0.8,0.8 0 1 0 1.6,0 0.8,0.8 0 1 0 -1.6,0 z m 21.54379,-15.65248 a 0.8,0.8 0 1 0 1.6,0 0.8,0.8 0 1 0 -1.6,0 z m -20.63268,20.31328 a 1,1 0 1 0 2,0 1,1 0 1 0 -2,0 z m 16.61115,-21.23704 a 0.6,0.6 0 1 0 1.2,0 0.6,0.6 0 1 0 -1.2,0 z m -26.8974,3.42075 a 1,1 0 1 0 2,0 1,1 0 1 0 -2,0 z m 5.47978,8.82925 a 0.8,0.8 0 1 0 1.6,0 0.8,0.8 0 1 0 -1.6,0 z m -1.79895,-5.5366 a 0.8,0.8 0 1 0 1.6,0 0.8,0.8 0 1 0 -1.6,0 z m 24.1094,1.78128 a 0.6,0.6 0 1 0 1.2,0 0.6,0.6 0 1 0 -1.2,0 z m -5.71536,6.34755 a 0.6,0.6 0 1 0 1.2,0 0.6,0.6 0 1 0 -1.2,0 z m 8.3343,2.11755 a 1,1 0 1 0 2,0 1,1 0 1 0 -2,0 z M 47.37466,238.92599 a 1,1 0 1 0 2,0 1,1 0 1 0 -2,0 z m 15.96281,24.11759 a 0.8,0.8 0 1 0 1.6,0 0.8,0.8 0 1 0 -1.6,0 z m 75.13732,-90.24468 a 0.6,0.6 0 1 0 1.2,0 0.6,0.6 0 1 0 -1.2,0 z m 16.70398,-12.74237 a 1,1 0 1 0 2,0 1,1 0 1 0 -2,0 z m 3.72459,17.08459 a 0.6,0.6 0 1 0 1.2,0 0.6,0.6 0 1 0 -1.2,0 z m 3.28083,-2.56094 a 0.8,0.8 0 1 0 1.6,0 0.8,0.8 0 1 0 -1.6,0 z m 2.52018,-3.9444 a 1,1 0 1 0 2,0 1,1 0 1 0 -2,0 z m -24.04651,-1.61808 a 0.6,0.6 0 1 0 1.2,0 0.6,0.6 0 1 0 -1.2,0 z m 17.78911,3.7812 a 0.6,0.6 0 1 0 1.2,0 0.6,0.6 0 1 0 -1.2,0 z m 0.2179,12.6125 a 0.8,0.8 0 1 0 1.6,0 0.8,0.8 0 1 0 -1.6,0 z m -20.89023,4.78997 a 1,1 0 1 0 2,0 1,1 0 1 0 -2,0 z m -7.11789,-12.32855 a 1,1 0 1 0 2,0 1,1 0 1 0 -2,0 z m 22.07487,-11.42147 a 0.59999999,0.59999999 0 1 0 1.19999,0 0.59999999,0.59999999 0 1 0 -1.19999,0 z m -16.59509,2.59223 a 0.8,0.8 0 1 0 1.6,0 0.8,0.8 0 1 0 -1.6,0 z m -1.79896,5.5366 a 0.8,0.8 0 1 0 1.6,0 0.8,0.8 0 1 0 -1.6,0 z m 6.60542,-14.52365 a 1,1 0 1 0 2,0 1,1 0 1 0 -2,0 z m 20.12293,4.27726 a 0.99999999,0.99999999 0 1 0 1.99999,0 0.99999999,0.99999999 0 1 0 -1.99999,0 z m 2.1504,20.45979 a 1,1 0 1 0 2,0 1,1 0 1 0 -2,0 z m -2.83108,-15.75 a 0.8,0.8 0 1 0 1.6,0 0.8,0.8 0 1 0 -1.6,0 z m -25.43915,11.32623 a 0.8,0.8 0 1 0 1.6,0 0.8,0.8 0 1 0 -1.6,0 z m -2.04065,4.42377 a 1,1 0 1 0 2,0 1,1 0 1 0 -2,0 z m 15.35544,5.24999 a 0.8,0.8 0 1 0 1.6,0 0.8,0.8 0 1 0 -1.6,0 z m -5.97174,-5.50532 a 0.6,0.6 0 1 0 1.2,0 0.6,0.6 0 1 0 -1.2,0 z m 0.2774,4.29496 a 0.8,0.8 0 1 0 1.6,0 0.8,0.8 0 1 0 -1.6,0 z m -74.14929,65.38112 a 1,1 0 1 0 2,0 1,1 0 1 0 -2,0 z m -0.76064,7.23705 a 1,1 0 1 0 2,0 1,1 0 1 0 -2,0 z m -19.35426,8.28626 a 0.8,0.8 0 1 0 1.6,0 0.8,0.8 0 1 0 -1.6,0 z m 12.99701,-27.85186 a 1,1 0 1 0 2,0 1,1 0 1 0 -2,0 z M 43.6101,263.06945 a 0.6,0.6 0 1 0 1.2,0 0.6,0.6 0 1 0 -1.2,0 z m 7.60302,-21.02587 a 0.8,0.8 0 1 0 1.6,0 0.8,0.8 0 1 0 -1.6,0 z m -13.20504,25.70978 a 1,1 0 1 0 2,0 1,1 0 1 0 -2,0 z m 15.58811,-21.98033 a 0.6,0.6 0 1 0 1.2,0 0.6,0.6 0 1 0 -1.2,0 z m -17.73852,1.52055 a 1,1 0 1 0 2,0 1,1 0 1 0 -2,0 z m -1.48804,14.1578 a 1,1 0 1 0 2,0 1,1 0 1 0 -2,0 z m 22.5378,-18.19744 a 0.8,0.8 0 1 0 1.6,0 0.8,0.8 0 1 0 -1.6,0 z m 8.22899,14.25304 a 0.8,0.8 0 1 0 1.6,0 0.8,0.8 0 1 0 -1.6,0 z m -3.51928,-10.83123 a 0.8,0.8 0 1 0 1.6,0 0.8,0.8 0 1 0 -1.6,0 z m -16.37577,0.87315 a 0.6,0.6 0 1 0 1.2,0 0.6,0.6 0 1 0 -1.2,0 z m 3.98867,-1.77587 a 0.6,0.6 0 1 0 1.2,0 0.6,0.6 0 1 0 -1.2,0 z m -8.2594,9.173 a 0.6,0.6 0 1 0 1.2,0 0.6,0.6 0 1 0 -1.2,0 z m -3.07231,-3.22869 a 0.8,0.8 0 1 0 1.6,0 0.8,0.8 0 1 0 -1.6,0 z m 2.91076,-5.04159 a 0.8,0.8 0 1 0 1.6,0 0.8,0.8 0 1 0 -1.6,0 z m -0.0822,-4.78997 a 1,1 0 1 0 2,0 1,1 0 1 0 -2,0 z m 18.48926,21.18367 a 0.6,0.6 0 1 0 1.2,0 0.6,0.6 0 1 0 -1.2,0 z m -1.08513,8.96117 a 1,1 0 1 0 2,0 1,1 0 1 0 -2,0 z m 1.3111,-4.6608 a 0.8,0.8 0 1 0 1.6,0 0.8,0.8 0 1 0 -1.6,0 z m -4.79053,-28.44383 a 1,1 0 1 0 2,0 1,1 0 1 0 -2,0 z m 84.71602,-57.63241 a 0.6,0.6 0 1 0 1.2,0 0.6,0.6 0 1 0 -1.2,0 z m 5.98251,-18.94407 a 0.8,0.8 0 1 0 1.6,0 0.8,0.8 0 1 0 -1.6,0 z m 20.11489,15.52331 a 1,1 0 1 0 2,0 1,1 0 1 0 -2,0 z m -21.04258,15.28834 a 1,1 0 1 0 2,0 1,1 0 1 0 -2,0 z m -0.2323,-26.70981 a 0.6,0.6 0 1 0 1.2,0 0.6,0.6 0 1 0 -1.2,0 z m 6.98149,-4.10184 a 0.8,0.8 0 1 0 1.6,0 0.8,0.8 0 1 0 -1.6,0 z m 2.78355,26.4837 a 0.8,0.8 0 1 0 1.6,0 0.8,0.8 0 1 0 -1.6,0 z M 138.0184,177.14112 a 0.6,0.6 0 1 0 1.2,0 0.6,0.6 0 1 0 -1.2,0 z m -0.1615,8.27028 a 0.8,0.8 0 1 0 1.6,0 0.8,0.8 0 1 0 -1.6,0 z m 2.17504,-20.69406 a 0.8,0.8 0 1 0 1.6,0 0.8,0.8 0 1 0 -1.6,0 z m 6.24587,21.59679 a 0.6,0.6 0 1 0 1.2,0 0.6,0.6 0 1 0 -1.2,0 z m -83.13117,-30.3802 v -0.5 a 0.49999999,0.49999999 0 0 1 0.5,-0.5 h 3 a 0.49999999,0.49999999 0 0 1 0.5,0.5 v 0.5 a 0.49999999,0.49999999 0 0 1 -0.5,0.5 h -3 a 0.49999999,0.49999999 0 0 1 -0.5,-0.5 z m -20,0 v -0.5 a 0.49999999,0.49999999 0 0 1 0.5,-0.5 h 3 a 0.49999999,0.49999999 0 0 1 0.5,0.5 v 0.5 a 0.49999999,0.49999999 0 0 1 -0.5,0.5 h -3 a 0.49999999,0.49999999 0 0 1 -0.5,-0.5 z M 23.537,176.04358 h -0.5 a 0.49999999,0.49999999 0 0 1 -0.5,-0.5 v -3 a 0.49999999,0.49999999 0 0 1 0.5,-0.5 h 0.5 a 0.49999999,0.49999999 0 0 1 0.5,0.5 v 3 a 0.49999999,0.49999999 0 0 1 -0.5,0.5 z m 4.708,-16.36612 -0.35355,-0.35355 a 0.49999999,0.49999999 0 0 1 0,-0.70711 l 2.12132,-2.12132 a 0.49999999,0.49999999 0 0 1 0.70711,0 l 0.35355,0.35355 a 0.49999999,0.49999999 0 0 1 0,0.70711 l -2.12133,2.12132 a 0.49999999,0.49999999 0 0 1 -0.7071,0 z m 35.40164,-7.74353 a 0.49999999,0.49999999 0 0 1 -0.5,-0.5 v -0.5 a 0.49999999,0.49999999 0 0 1 0.5,-0.5 h 3 a 0.49999999,0.49999999 0 0 1 0.5,0.5 v 0.5 a 0.49999999,0.49999999 0 0 1 -0.5,0.5 z m -20.5,-0.5 v -0.5 a 0.49999999,0.49999999 0 0 1 0.5,-0.5 h 3 a 0.49999999,0.49999999 0 0 1 0.5,0.5 v 0.5 a 0.49999999,0.49999999 0 0 1 -0.5,0.5 h -3 a 0.49999999,0.49999999 0 0 1 -0.5,-0.5 z M 27.537,172.04358 h 0.5 a 0.49999999,0.49999999 0 0 1 0.5,0.5 v 3 a 0.49999999,0.49999999 0 0 1 -0.5,0.5 h -0.5 a 0.49999999,0.49999999 0 0 1 -0.5,-0.5 v -3 a 0.49999999,0.49999999 0 0 1 0.5,-0.5 z m 3.88998,-9.18414 -0.35355,-0.35355 a 0.49999999,0.49999999 0 0 1 0,-0.70711 l 2.12132,-2.12132 a 0.49999999,0.49999999 0 0 1 0.70711,0 l 0.35355,0.35355 a 0.49999999,0.49999999 0 0 1 0,0.70711 l -2.12133,2.12132 a 0.49999999,0.49999999 0 0 1 -0.7071,0 z M 154.537,291.04358 h 34 a 2,2 0 0 0 2,-2 v -48.00001 h -5.3 v -50 h 5.3 v -47.99999 a 2,2 0 0 0 -2,-2 h -34 v 5.3 h -36 v -5.3 h -36 v 5.3 h -36 v -5.3 h -34 a 2,2 0 0 0 -2,2 v 47.99999 h 5.3 v 50 h -5.3 v 48.00001 a 2,2 0 0 0 2,2 h 34 v -5.3 h 36 v 5.3 h 36 v -5.3 h 36 z"
       style="fill:none;stroke:#000000;stroke-width:0.5;stroke-miterlimit:4;stroke-dasharray:none;stroke-opacity:1"
       id="path238"
       inkscape:connector-curvature="0" />
    <path
       d="m 230.79143,172.49719 a 0.6,0.6 0 1 0 0,1.2 0.6,0.6 0 1 0 0,-1.2 z m 19.68799,3.35728 a 0.6,0.6 0 1 0 0,1.2 0.6,0.6 0 1 0 0,-1.2 z m -20.8678,0.84644 a 0.6,0.6 0 1 0 0,1.2 0.6,0.6 0 1 0 0,-1.2 z m 25.26675,-9.08361 a 1,1 0 1 0 0,2 1,1 0 1 0 0,-2 z m -15.35577,-4.43146 a 0.8,0.8 0 1 0 0,1.6 0.8,0.8 0 1 0 0,-1.6 z m 10.58321,4.2067 a 0.8,0.8 0 1 0 0,1.6 0.8,0.8 0 1 0 0,-1.6 z m -27.47978,8.45942 a 1,1 0 1 0 0,2 1,1 0 1 0 0,-2 z m 1.05333,7.20027 a 1,1 0 1 0 0,2 1,1 0 1 0 0,-2 z m 25.09191,5.10553 a 0.8,0.8 0 1 0 0,1.6 0.8,0.8 0 1 0 0,-1.6 z m -22.53383,-8.95694 a 0.8,0.8 0 1 0 0,1.6 0.8,0.8 0 1 0 0,-1.6 z m 2.02187,5.45915 a 0.8,0.8 0 1 0 0,1.6 0.8,0.8 0 1 0 0,-1.6 z m 9.23316,-17.45927 a 0.6,0.6 0 1 0 0,1.2 0.6,0.6 0 1 0 0,-1.2 z m 14.99562,16.4765 a 0.8,0.8 0 1 0 0,1.6 0.8,0.8 0 1 0 0,-1.6 z m 1.57309,-5.60496 a 0.8,0.8 0 1 0 0,1.6 0.8,0.8 0 1 0 0,-1.6 z m -21.73438,10.75254 a 0.8,0.8 0 1 0 0,1.6 0.8,0.8 0 1 0 0,-1.6 z m 10.70492,-29.10142 a 1,1 0 1 0 0,2 1,1 0 1 0 0,-2 z m -9.1497,4.90263 a 0.8,0.8 0 1 0 0,1.6 0.8,0.8 0 1 0 0,-1.6 z m 19.67691,23.52144 a 1,1 0 1 0 0,2 1,1 0 1 0 0,-2 z m 3.84677,-13.7062 a 1,1 0 1 0 0,2 1,1 0 1 0 0,-2 z m -9.23434,9.63696 a 0.6,0.6 0 1 0 0,1.2 0.6,0.6 0 1 0 0,-1.2 z m 0.7917,-12.31808 a 0.6,0.6 0 1 0 0,1.2 0.6,0.6 0 1 0 0,-1.2 z m -18.71941,9.26096 a 0.6,0.6 0 1 0 0,1.2 0.6,0.6 0 1 0 0,-1.2 z M 313.5,265.344 H 313 a 0.49999999,0.49999999 0 0 1 -0.5,-0.5 v -3 a 0.49999999,0.49999999 0 0 1 0.5,-0.5 h 0.5 a 0.49999999,0.49999999 0 0 1 0.5,0.5 v 3 a 0.49999999,0.49999999 0 0 1 -0.5,0.5 z m -80.92186,-80.63332 a 0.6,0.6 0 1 0 0,1.2 0.6,0.6 0 1 0 0,-1.2 z m -5.96733,-11.3194 a 0.8,0.8 0 1 0 0,1.6 0.8,0.8 0 1 0 0,-1.6 z m 13.90474,14.47443 a 0.6,0.6 0 1 0 0,1.2 0.6,0.6 0 1 0 0,-1.2 z m 4.23044,-1.08011 a 0.6,0.6 0 1 0 0,1.2 0.6,0.6 0 1 0 0,-1.2 z m 12.193,-5.08245 a 1,1 0 1 0 0,2 1,1 0 1 0 0,-2 z m -16.13974,12.75681 a 1,1 0 1 0 0,2 1,1 0 1 0 0,-2 z m 4.46204,-30.29553 a 0.8,0.8 0 1 0 0,1.6 0.8,0.8 0 1 0 0,-1.6 z m -17.69106,25.03715 a 1,1 0 1 0 0,2 1,1 0 1 0 0,-2 z m 6.00882,-20.06481 a 0.6,0.6 0 1 0 0,1.2 0.6,0.6 0 1 0 0,-1.2 z m 9.97432,21.60241 a 0.8,0.8 0 1 0 0,1.6 0.8,0.8 0 1 0 0,-1.6 z m -1.69834,-23.71543 a 0.6,0.6 0 1 0 0,1.2 0.6,0.6 0 1 0 0,-1.2 z m -17.26265,1.822 a 1,1 0 1 0 0,2 1,1 0 1 0 0,-2 z m 21.32002,-0.20924 a 0.6,0.6 0 1 0 0,1.2 0.6,0.6 0 1 0 0,-1.2 z m -16.67398,-5.39145 a 1,1 0 1 0 0,2 1,1 0 1 0 0,-2 z m 23.9801,9.06696 a 0.8,0.8 0 1 0 0,1.6 0.8,0.8 0 1 0 0,-1.6 z m -15.48189,18.6631 a 0.8,0.8 0 1 0 0,1.6 0.8,0.8 0 1 0 0,-1.6 z m -1.97585,-30.95684 a 1,1 0 1 0 0,2 1,1 0 1 0 0,-2 z m -2.13489,33.21844 a 1,1 0 1 0 0,2 1,1 0 1 0 0,-2 z m 14.22409,-0.57696 a 1,1 0 1 0 0,2 1,1 0 1 0 0,-2 z m 1.94402,-30.24847 a 1,1 0 1 0 0,2 1,1 0 1 0 0,-2 z m -20.47914,5.82457 a 0.8,0.8 0 1 0 0,1.6 0.8,0.8 0 1 0 0,-1.6 z m 6.89667,18.89591 a 0.6,0.6 0 1 0 0,1.2 0.6,0.6 0 1 0 0,-1.2 z m 13.98786,-6.92014 a 0.6,0.6 0 1 0 0,1.2 0.6,0.6 0 1 0 0,-1.2 z M 318.5,261.844 v 3 a 0.49999999,0.49999999 0 0 1 -0.5,0.5 h -0.5 a 0.49999999,0.49999999 0 0 1 -0.5,-0.5 v -3 a 0.49999999,0.49999999 0 0 1 0.5,-0.5 h 0.5 a 0.49999999,0.49999999 0 0 1 0.5,0.5 z m -108,-80.8 a 2.6,2.6 0 1 0 0,5.2 2.6,2.6 0 1 0 0,-5.2 z m 150,0 a 2.6,2.6 0 1 0 0,5.2 2.6,2.6 0 1 0 0,-5.2 z m -150,64 a 2.6,2.6 0 1 0 0,5.2 2.6,2.6 0 1 0 0,-5.2 z m 150,0 a 2.6,2.6 0 1 0 0,5.2 2.6,2.6 0 1 0 0,-5.2 z m -51.237,-90.175 a 1.275,1.275 0 1 0 0,2.55 1.275,1.275 0 1 0 0,-2.55 z m 27.546,52.49999 a 1.275,1.275 0 1 0 0,2.55 1.275,1.275 0 1 0 0,-2.55 z M 213.5,286.394 a 1.6,1.6 0 1 0 0,3.2 1.6,1.6 0 1 0 0,-3.2 z m 0,-144.7 a 1.6,1.6 0 1 0 0,3.2 1.6,1.6 0 1 0 0,-3.2 z m 159.35,122.45 a 1.5,1.5 0 1 0 0,3 1.5,1.5 0 1 0 0,-3 z m -80.04148,-80.775 a 1.275,1.275 0 1 0 0,2.55 1.275,1.275 0 1 0 0,-2.55 z M 285.5,141.794 a 1.5,1.5 0 1 0 0,3 1.5,1.5 0 1 0 0,-3 z m -87.35,122.35 a 1.5,1.5 0 1 0 0,3 1.5,1.5 0 1 0 0,-3 z m 138.659,-86.775 a 1.275,1.275 0 1 0 0,2.55 1.275,1.275 0 1 0 0,-2.55 z m -60.45497,-22.5 a 1.275,1.275 0 1 0 0,2.55 1.275,1.275 0 1 0 0,-2.55 z M 357.5,286.394 a 1.6,1.6 0 1 0 0,3.2 1.6,1.6 0 1 0 0,-3.2 z m -64.69148,-135.95 a 15.2,15.2 0 1 0 0,30.4 15.2,15.2 0 1 0 0,-30.4 z m -94.46701,13.7 a 1.5,1.5 0 1 0 0,3 1.5,1.5 0 1 0 0,-3 z M 210.5,149.47809 a 3.9500001,3.9500001 0 1 0 0,7.9 3.9500001,3.9500001 0 1 0 0,-7.9 z m 75,137.01591 a 1.5,1.5 0 1 0 0,3 1.5,1.5 0 1 0 0,-3 z m 72,-144.8 a 1.6,1.6 0 1 0 0,3.2 1.6,1.6 0 1 0 0,-3.2 z m -20.691,109.675 a 1.275,1.275 0 1 0 0,2.55 1.275,1.275 0 1 0 0,-2.55 z M 257,207.64399 a 8,8 0 1 0 0,16 8,8 0 1 0 0,-16 z m -46.5,66.26592 a 3.95,3.95 0 1 0 0,7.9 3.95,3.95 0 1 0 0,-7.9 z M 314,211.69399 a 3.95,3.95 0 1 0 0,7.9 3.95,3.95 0 1 0 0,-7.9 z M 372.85,164.144 a 1.5,1.5 0 1 0 0,3 1.5,1.5 0 1 0 0,-3 z m -36.041,57.22499 a 1.275,1.275 0 1 0 0,2.55 1.275,1.275 0 1 0 0,-2.55 z M 313.5,285.344 v -4 a 2,2 0 0 1 4,0 v 4 h 22 v 5.3 h 34 a 2,2 0 0 0 2,-2 v -48.00001 h -5.3 v -50 h 5.3 V 142.644 a 2,2 0 0 0 -2,-2 h -34 v 5.3 h -36 v -5.3 h -36 v 5.3 h -36 v -5.3 h -34 a 2,2 0 0 0 -2,2 v 47.99999 h 5.3 v 50 h -5.3 V 288.644 a 2,2 0 0 0 2,2 h 34 v -5.3 h 36 v 5.3 h 36 v -5.3 z"
       style="fill:none;stroke:#000000;stroke-width:0.5;stroke-linecap:butt;stroke-linejoin:miter;stroke-miterlimit:4;stroke-dasharray:none;stroke-opacity:1"
       id="path148"
       inkscape:connector-curvature="0" />
  </g>
</svg>
