<?xml version="1.0" encoding="UTF-8" standalone="no"?>
<svg
   xmlns:dc="http://purl.org/dc/elements/1.1/"
   xmlns:cc="http://creativecommons.org/ns#"
   xmlns:rdf="http://www.w3.org/1999/02/22-rdf-syntax-ns#"
   xmlns:svg="http://www.w3.org/2000/svg"
   xmlns="http://www.w3.org/2000/svg"
   xmlns:sodipodi="http://sodipodi.sourceforge.net/DTD/sodipodi-0.dtd"
   xmlns:inkscape="http://www.inkscape.org/namespaces/inkscape"
   width="60mm"
   height="40mm"
   viewBox="0 0 60 40"
   version="1.1"
   id="svg3565"
   inkscape:version="0.92.5 (2060ec1f9f, 2020-04-08)"
   sodipodi:docname="autocolants_kosmos_connecteurs.svg">
  <defs
     id="defs3559" />
  <sodipodi:namedview
     id="base"
     pagecolor="#ffffff"
     bordercolor="#666666"
     borderopacity="1.0"
     inkscape:pageopacity="0.0"
     inkscape:pageshadow="2"
     inkscape:zoom="1.979899"
     inkscape:cx="11.406344"
     inkscape:cy="161.33443"
     inkscape:document-units="mm"
     inkscape:current-layer="layer1"
     showgrid="false"
     inkscape:window-width="1872"
     inkscape:window-height="1016"
     inkscape:window-x="48"
     inkscape:window-y="27"
     inkscape:window-maximized="1"
     inkscape:document-rotation="0" />
  <metadata
     id="metadata3562">
    <rdf:RDF>
      <cc:Work
         rdf:about="">
        <dc:format>image/svg+xml</dc:format>
        <dc:type
           rdf:resource="http://purl.org/dc/dcmitype/StillImage" />
        <dc:title />
      </cc:Work>
    </rdf:RDF>
  </metadata>
  <g
     inkscape:label="Calque 1"
     inkscape:groupmode="layer"
     id="layer1"
     transform="translate(0,-257)">
    <path
       style="opacity:0.98;fill:none;fill-opacity:1;fill-rule:nonzero;stroke:#000000;stroke-width:0.5;stroke-linecap:round;stroke-linejoin:round;stroke-miterlimit:4;stroke-dasharray:none;stroke-dashoffset:0;stroke-opacity:1"
       d="M 13.556399,260.80782 A 12.200209,12.200209 0 0 0 1.3561096,273.0081 12.200209,12.200209 0 0 0 13.556399,285.20841 12.200209,12.200209 0 0 0 25.756687,273.0081 12.200209,12.200209 0 0 0 13.556399,260.80782 Z m 0,2.98844 a 9.2117803,9.2117803 0 0 1 9.21184,9.21184 9.2117803,9.2117803 0 0 1 -9.21184,9.21184 9.2117803,9.2117803 0 0 1 -9.2118413,-9.21184 9.2117803,9.2117803 0 0 1 9.2118413,-9.21184 z"
       id="path4129"
       inkscape:connector-curvature="0" />
    <rect
       style="opacity:1;fill:none;fill-opacity:1;fill-rule:nonzero;stroke:#000000;stroke-width:0.5;stroke-linecap:round;stroke-linejoin:round;stroke-miterlimit:4;stroke-dasharray:none;stroke-dashoffset:0;stroke-opacity:1"
       id="rect4134"
       width="59.591274"
       height="2.5912735"
       x="0.11425763"
       y="286.48026" />
    <path
       style="opacity:1;fill:none;fill-opacity:1;fill-rule:nonzero;stroke:#000000;stroke-width:0.5;stroke-linecap:round;stroke-linejoin:round;stroke-miterlimit:4;stroke-dasharray:none;stroke-dashoffset:0;stroke-opacity:1"
       d="m 45.064559,260.85175 a 12.200209,12.200209 0 0 0 -12.200288,12.20028 12.200209,12.200209 0 0 0 12.200288,12.20031 12.200209,12.200209 0 0 0 12.200289,-12.20031 12.200209,12.200209 0 0 0 -12.200289,-12.20028 z m 0,2.98844 a 9.2117804,9.2117804 0 0 1 9.211841,9.21184 9.2117804,9.2117804 0 0 1 -9.211841,9.21184 9.2117804,9.2117804 0 0 1 -9.211841,-9.21184 9.2117804,9.2117804 0 0 1 9.211841,-9.21184 z"
       id="path4129-0"
       inkscape:connector-curvature="0" />
    <rect
       style="opacity:1;fill:none;fill-opacity:1;fill-rule:nonzero;stroke:#000000;stroke-width:0.5;stroke-linecap:round;stroke-linejoin:round;stroke-miterlimit:4;stroke-dasharray:none;stroke-dashoffset:0;stroke-opacity:1"
       id="rect4134-2"
       width="59.591274"
       height="2.5912735"
       x="0.19783789"
       y="292.62631" />
  </g>
</svg>
