M48
; DRILL file {KiCad 6.0.9-8da3e8f707~116~ubuntu20.04.1} date lun. 14 nov. 2022 15:10:43
; FORMAT={-:-/ absolute / metric / decimal}
; #@! TF.CreationDate,2022-11-14T15:10:43+01:00
; #@! TF.GenerationSoftware,Kicad,Pcbnew,6.0.9-8da3e8f707~116~ubuntu20.04.1
; #@! TF.FileFunction,Plated,1,2,PTH
FMAT,2
METRIC
; #@! TA.AperFunction,Plated,PTH,ComponentDrill
T1C0.700
; #@! TA.AperFunction,Plated,PTH,ComponentDrill
T2C0.762
; #@! TA.AperFunction,Plated,PTH,ComponentDrill
T3C0.800
; #@! TA.AperFunction,Plated,PTH,ComponentDrill
T4C0.900
; #@! TA.AperFunction,Plated,PTH,ComponentDrill
T5C1.000
%
G90
G05
T1
X120.904Y-71.12
X127.508Y-71.12
X139.192Y-60.452
X140.716Y-96.012
X146.287Y-95.982
X150.368Y-60.452
X167.64Y-59.944
X169.672Y-78.74
X169.672Y-83.82
X175.768Y-59.944
X175.768Y-78.74
X175.768Y-83.82
T2
X160.58Y-93.14
X160.58Y-98.22
X160.58Y-103.3
T3
X100.965Y-120.015
X104.775Y-74.295
X104.775Y-78.105
X114.935Y-74.295
X114.935Y-78.105
X116.205Y-120.015
X143.504Y-69.0
X148.341Y-120.0
X148.844Y-52.0
X149.225Y-113.03
X149.225Y-116.205
X150.876Y-55.88
X150.995Y-65.532
X153.664Y-69.0
X158.5Y-69.0
X159.385Y-113.03
X159.385Y-116.205
X161.036Y-55.88
X161.155Y-65.532
X161.155Y-65.532
X163.581Y-120.0
X164.084Y-52.0
X168.66Y-69.0
T4
X139.421Y-118.0
X141.961Y-118.0
X142.88Y-52.07
X145.42Y-52.07
T5
X91.298Y-101.12
X91.298Y-103.66
X96.185Y-56.995
X96.185Y-59.535
X96.185Y-62.075
X96.185Y-64.615
X120.836Y-73.735
X120.836Y-76.275
X121.285Y-111.765
X121.285Y-114.305
X123.376Y-73.735
X123.376Y-76.275
X125.916Y-73.735
X125.916Y-76.275
X128.456Y-73.735
X128.456Y-76.275
X130.996Y-73.735
X130.996Y-76.275
X131.405Y-54.455
X131.405Y-56.995
X131.405Y-59.535
X131.405Y-62.075
X131.405Y-64.615
X131.405Y-67.155
X133.536Y-73.735
X133.536Y-76.275
X134.68Y-98.59
X134.68Y-101.13
X134.68Y-103.67
X135.89Y-55.245
X135.89Y-57.785
X135.89Y-60.325
X135.89Y-62.865
X135.89Y-65.405
X136.076Y-73.735
X136.076Y-76.275
X138.616Y-73.735
X138.616Y-76.275
X141.156Y-73.735
X141.156Y-76.275
X143.696Y-73.735
X143.696Y-76.275
X146.236Y-73.735
X146.236Y-76.275
X148.776Y-73.735
X148.776Y-76.275
X149.735Y-81.425
X151.316Y-73.735
X151.316Y-76.275
X152.275Y-81.425
X153.856Y-73.735
X153.856Y-76.275
X155.045Y-61.025
X156.396Y-73.735
X156.396Y-76.275
X157.585Y-61.025
X158.936Y-73.735
X158.936Y-76.275
X160.125Y-61.025
X161.476Y-73.735
X161.476Y-76.275
X162.665Y-61.025
X164.016Y-73.735
X164.016Y-76.275
X166.556Y-73.735
X166.556Y-76.275
X169.096Y-73.735
X169.096Y-76.275
X169.8Y-100.97
X169.8Y-103.51
X169.8Y-106.05
T0
M30
