<?xml version="1.0" encoding="UTF-8" standalone="no"?>
<!-- Created with Inkscape (http://www.inkscape.org/) -->

<svg
   xmlns:dc="http://purl.org/dc/elements/1.1/"
   xmlns:cc="http://creativecommons.org/ns#"
   xmlns:rdf="http://www.w3.org/1999/02/22-rdf-syntax-ns#"
   xmlns:svg="http://www.w3.org/2000/svg"
   xmlns="http://www.w3.org/2000/svg"
   xmlns:sodipodi="http://sodipodi.sourceforge.net/DTD/sodipodi-0.dtd"
   xmlns:inkscape="http://www.inkscape.org/namespaces/inkscape"
   width="400mm"
   height="100mm"
   viewBox="0 0 400 100"
   version="1.1"
   id="svg8"
   sodipodi:docname="stickers_number.svg"
   inkscape:version="0.92.5 (2060ec1f9f, 2020-04-08)">
  <defs
     id="defs2" />
  <sodipodi:namedview
     id="base"
     pagecolor="#ffffff"
     bordercolor="#666666"
     borderopacity="1.0"
     inkscape:pageopacity="0.0"
     inkscape:pageshadow="2"
     inkscape:zoom="0.45254834"
     inkscape:cx="877.45038"
     inkscape:cy="-71.758966"
     inkscape:document-units="mm"
     inkscape:current-layer="layer1"
     showgrid="false"
     inkscape:window-width="1872"
     inkscape:window-height="1016"
     inkscape:window-x="48"
     inkscape:window-y="27"
     inkscape:window-maximized="1" />
  <metadata
     id="metadata5">
    <rdf:RDF>
      <cc:Work
         rdf:about="">
        <dc:format>image/svg+xml</dc:format>
        <dc:type
           rdf:resource="http://purl.org/dc/dcmitype/StillImage" />
        <dc:title></dc:title>
      </cc:Work>
    </rdf:RDF>
  </metadata>
  <g
     inkscape:label="Calque 1"
     inkscape:groupmode="layer"
     id="layer1"
     transform="translate(0,-197)">
    <flowRoot
       xml:space="preserve"
       id="flowRoot834"
       style="font-style:normal;font-variant:normal;font-weight:normal;font-stretch:normal;font-size:21.33333397px;line-height:24.67000008px;font-family:Sansation;-inkscape-font-specification:Sansation;letter-spacing:0px;word-spacing:0px;fill:none;fill-opacity:1;stroke:#000000;stroke-width:3.77952766;stroke-miterlimit:4;stroke-dasharray:none;stroke-opacity:1"
       transform="scale(0.26458333)"><flowRegion
         id="flowRegion836"
         style="font-style:normal;font-variant:normal;font-weight:normal;font-stretch:normal;font-family:Sansation;-inkscape-font-specification:Sansation;fill:none;stroke:#000000;stroke-width:3.77952766;stroke-miterlimit:4;stroke-dasharray:none;stroke-opacity:1"><rect
           id="rect838"
           width="590.93921"
           height="456.58896"
           x="-214.15234"
           y="349.75299"
           style="font-style:normal;font-variant:normal;font-weight:normal;font-stretch:normal;font-family:Sansation;-inkscape-font-specification:Sansation;fill:none;stroke:#000000;stroke-width:3.77952766;stroke-miterlimit:4;stroke-dasharray:none;stroke-opacity:1" /></flowRegion><flowPara
         id="flowPara840"
         style="font-style:normal;font-variant:normal;font-weight:normal;font-stretch:normal;font-family:Sansation;-inkscape-font-specification:Sansation;fill:none;stroke:#000000;stroke-width:3.77952766;stroke-miterlimit:4;stroke-dasharray:none;stroke-opacity:1" /></flowRoot>    <g
       aria-label="K1"
       transform="matrix(0.26458333,0,0,0.26458333,126.08176,17.293283)"
       style="font-style:normal;font-variant:normal;font-weight:normal;font-stretch:normal;font-size:21.33333397px;line-height:24.67000008px;font-family:Samanata;-inkscape-font-specification:Samanata;letter-spacing:0px;word-spacing:0px;fill:none;fill-opacity:1;stroke:#000000;stroke-width:3.77952766;stroke-miterlimit:4;stroke-dasharray:none;stroke-opacity:1"
       id="flowRoot842" />
    <g
       aria-label="Ifremer"
       transform="matrix(0.26458333,0,0,0.26458333,128.68871,62.100411)"
       style="font-style:normal;font-variant:normal;font-weight:normal;font-stretch:normal;font-size:173.33332825px;line-height:24.67000008px;font-family:Samanata;-inkscape-font-specification:Samanata;letter-spacing:0px;word-spacing:0px;fill:none;fill-opacity:1;stroke:#000000;stroke-width:3.77952766;stroke-miterlimit:4;stroke-dasharray:none;stroke-opacity:1"
       id="flowRoot842-3" />
    <flowRoot
       transform="matrix(0.26458333,0,0,0.26458333,185.96429,2.645831)"
       xml:space="preserve"
       id="flowRoot834-5"
       style="font-style:normal;font-variant:normal;font-weight:normal;font-stretch:normal;font-size:21.33333397px;line-height:24.67000008px;font-family:Sansation;-inkscape-font-specification:Sansation;letter-spacing:0px;word-spacing:0px;fill:none;fill-opacity:1;stroke:#000000;stroke-width:3.77952766;stroke-miterlimit:4;stroke-dasharray:none;stroke-opacity:1"><flowRegion
         id="flowRegion836-6"
         style="font-style:normal;font-variant:normal;font-weight:normal;font-stretch:normal;font-family:Sansation;-inkscape-font-specification:Sansation;fill:none;stroke:#000000;stroke-width:3.77952766;stroke-miterlimit:4;stroke-dasharray:none;stroke-opacity:1"><rect
           id="rect838-2"
           width="590.93921"
           height="456.58896"
           x="-214.15234"
           y="349.75299"
           style="font-style:normal;font-variant:normal;font-weight:normal;font-stretch:normal;font-family:Sansation;-inkscape-font-specification:Sansation;fill:none;stroke:#000000;stroke-width:3.77952766;stroke-miterlimit:4;stroke-dasharray:none;stroke-opacity:1" /></flowRegion><flowPara
         id="flowPara840-9"
         style="font-style:normal;font-variant:normal;font-weight:normal;font-stretch:normal;font-family:Sansation;-inkscape-font-specification:Sansation;fill:none;stroke:#000000;stroke-width:3.77952766;stroke-miterlimit:4;stroke-dasharray:none;stroke-opacity:1" /></flowRoot>    <g
       aria-label="K2"
       transform="matrix(0.26458333,0,0,0.26458333,301.08474,21.451019)"
       style="font-style:normal;font-variant:normal;font-weight:normal;font-stretch:normal;font-size:21.33333397px;line-height:24.67000008px;font-family:Samanata;-inkscape-font-specification:Samanata;letter-spacing:0px;word-spacing:0px;fill:none;fill-opacity:1;stroke:#000000;stroke-width:3.77952766;stroke-miterlimit:4;stroke-dasharray:none;stroke-opacity:1"
       id="flowRoot842-1" />
    <g
       aria-label="Ifremer"
       transform="matrix(0.26458333,0,0,0.26458333,318.05479,64.746241)"
       style="font-style:normal;font-variant:normal;font-weight:normal;font-stretch:normal;font-size:173.33332825px;line-height:24.67000008px;font-family:Samanata;-inkscape-font-specification:Samanata;letter-spacing:0px;word-spacing:0px;fill:none;fill-opacity:1;stroke:#000000;stroke-width:3.77952766;stroke-miterlimit:4;stroke-dasharray:none;stroke-opacity:1"
       id="flowRoot842-3-3" />
    <flowRoot
       transform="matrix(0.26458333,0,0,0.26458333,377.20193,3.3399634)"
       xml:space="preserve"
       id="flowRoot834-5-6"
       style="font-style:normal;font-variant:normal;font-weight:normal;font-stretch:normal;font-size:21.33333397px;line-height:24.67000008px;font-family:Sansation;-inkscape-font-specification:Sansation;letter-spacing:0px;word-spacing:0px;fill:none;fill-opacity:1;stroke:#000000;stroke-width:3.77952766;stroke-miterlimit:4;stroke-dasharray:none;stroke-opacity:1"><flowRegion
         id="flowRegion836-6-1"
         style="font-style:normal;font-variant:normal;font-weight:normal;font-stretch:normal;font-family:Sansation;-inkscape-font-specification:Sansation;fill:none;stroke:#000000;stroke-width:3.77952766;stroke-miterlimit:4;stroke-dasharray:none;stroke-opacity:1"><rect
           id="rect838-2-8"
           width="590.93921"
           height="456.58896"
           x="-214.15234"
           y="349.75299"
           style="font-style:normal;font-variant:normal;font-weight:normal;font-stretch:normal;font-family:Sansation;-inkscape-font-specification:Sansation;fill:none;stroke:#000000;stroke-width:3.77952766;stroke-miterlimit:4;stroke-dasharray:none;stroke-opacity:1" /></flowRegion><flowPara
         id="flowPara840-9-7"
         style="font-style:normal;font-variant:normal;font-weight:normal;font-stretch:normal;font-family:Sansation;-inkscape-font-specification:Sansation;fill:none;stroke:#000000;stroke-width:3.77952766;stroke-miterlimit:4;stroke-dasharray:none;stroke-opacity:1" /></flowRoot>    <g
       aria-label="K3"
       transform="matrix(0.26458333,0,0,0.26458333,493.4563,19.121341)"
       style="font-style:normal;font-variant:normal;font-weight:normal;font-stretch:normal;font-size:21.33333397px;line-height:24.67000008px;font-family:Samanata;-inkscape-font-specification:Samanata;letter-spacing:0px;word-spacing:0px;fill:none;fill-opacity:1;stroke:#000000;stroke-width:3.77952766;stroke-miterlimit:4;stroke-dasharray:none;stroke-opacity:1"
       id="flowRoot842-1-9" />
    <g
       aria-label="Ifremer"
       transform="matrix(0.06572329,0,0,0.06572329,136.54227,208.64264)"
       style="font-style:normal;font-variant:normal;font-weight:normal;font-stretch:normal;font-size:173.33332825px;line-height:24.67000008px;font-family:Samanata;-inkscape-font-specification:Samanata;letter-spacing:0px;word-spacing:0px;fill:none;fill-opacity:1;stroke:#000000;stroke-width:3.77952766;stroke-miterlimit:4;stroke-dasharray:none;stroke-opacity:1"
       id="flowRoot842-3-3-3">
      <path
         id="path1659"
         style="font-style:normal;font-variant:normal;font-weight:bold;font-stretch:normal;font-size:120px;font-family:Sansation;-inkscape-font-specification:'Sansation Bold';fill:none;fill-opacity:1;stroke:#000000;stroke-width:3.77952766;stroke-miterlimit:4;stroke-dasharray:none;stroke-opacity:1"
         d="M -2.5878906,460.07587 V 398.55243 H 9.4238281 l 1.9335939,7.85156 q 8.085937,-7.85156 17.109375,-7.85156 v 12.53906 q -8.671875,0 -15.527344,7.20703 v 41.77735 z M -42.255859,398.55243 q 28.007812,0 28.007812,28.59375 0,3.80859 -0.527344,7.61719 h -40.839843 q 0,13.00781 19.101562,13.00781 9.316406,0 18.632813,-1.75781 v 12.30469 q -8.144532,1.75781 -19.804688,1.75781 -33.457031,0 -33.457031,-31.46485 0,-30.05859 28.886719,-30.05859 z m -13.359375,25.42969 h 26.25 v -0.46875 q 0,-12.77344 -12.890625,-12.77344 -12.304688,0 -13.359375,13.24219 z m -117.773436,36.09375 v -61.52344 h 12.01172 l 1.8164,8.90625 q 8.26172,-8.90625 19.86328,-8.90625 11.60157,0 15.87891,8.4375 9.43359,-8.4375 19.74609,-8.4375 21.210942,0 21.210942,23.37891 v 38.14453 H -98.388672 V 421.3454 q 0,-10.25391 -9.257808,-10.25391 -6.91407,0 -13.30079,6.21094 v 42.77344 h -15.52734 v -38.55469 q 0,-10.42969 -8.55469,-10.42969 -6.79687,0 -12.83203,6.21094 v 42.77344 z m -39.66797,-61.52344 q 28.00781,0 28.00781,28.59375 0,3.80859 -0.52734,7.61719 h -40.83985 q 0,13.00781 19.10157,13.00781 9.3164,0 18.63281,-1.75781 v 12.30469 q -8.14453,1.75781 -19.80469,1.75781 -33.45703,0 -33.45703,-31.46485 0,-30.05859 28.88672,-30.05859 z m -13.35938,25.42969 h 26.25 v -0.46875 q 0,-12.77344 -12.89062,-12.77344 -12.30469,0 -13.35938,13.24219 z m -52.4414,36.09375 v -61.52344 h 12.01172 l 1.93359,7.85156 q 8.08594,-7.85156 17.10938,-7.85156 v 12.53906 q -8.67188,0 -15.52735,7.20703 v 41.77735 z m -39.31641,0 v -61.52344 q 0,-25.3125 27.65625,-25.3125 7.5586,0 13.71094,2.34375 v 12.30469 q -5.80078,-2.34375 -12.59766,-2.34375 -13.24218,0 -13.24218,13.00781 h 18.45703 v 12.30469 h -18.45703 v 49.21875 z m -16.11328,-83.78906 v 83.78906 h -15.52734 V 376.28681 Z M -171.6328,-55.038757 a 310.00001,310.00001 0 0 0 -307.6036,311.587887 310.00001,310.00001 0 0 0 310.795,308.40235 310.00001,310.00001 0 0 0 309.2011,-310 l -0.0156,-3.19141 A 310.00001,310.00001 0 0 0 -171.6328,-55.038757 Z m 135.011701,127.6836 c 69.6614,0 104.4922,25.39062 104.4922,76.171867 0,30.72917 -12.2396,51.88802 -36.7188,63.47656 24.4792,11.06771 36.7188,32.22657 36.7188,63.47657 0,53.38541 -34.8308,80.07812 -104.4922,80.07812 -28.6459,0 -55.9896,-3.90625 -82.031301,-11.71875 v -46.875 c 26.041701,9.11458 53.385401,13.67188 82.031301,13.67188 35.1561999,0 52.7343,-13.67188 52.7343,-41.01563 0,-23.4375 -12.5000001,-35.15625 -37.5,-35.15625 h -67.9687 v -44.92187 h 67.3828 c 25.3905999,0 38.0859,-11.71875 38.0859,-35.15625 0,-24.73958 -17.5781001,-37.10938 -52.7343,-37.10938 -28.6459,0 -55.9896,4.5573 -82.031301,13.67188 V 84.363593 c 26.041701,-7.8125 53.385401,-11.71875 82.031301,-11.71875 z m -352.539101,1.95312 h 51.7578 V 353.89484 h -51.7578 z m 184.9609,0 h 63.2813 L -260.0586,204.8714 -128.418,353.89484 h -71.6797 L -308.1055,223.42609 V 189.83234 Z M -725.37583,457.4524 v -61.52344 h 12.01172 l 1.93359,7.85156 q 8.08594,-7.85156 17.10938,-7.85156 v 12.53906 q -8.67188,0 -15.52735,7.20703 v 41.77735 z m -39.66797,-61.52344 q 28.00781,0 28.00781,28.59375 0,3.80859 -0.52734,7.61719 h -40.83984 q 0,13.00781 19.10156,13.00781 9.3164,0 18.63281,-1.75781 v 12.30469 q -8.14453,1.75781 -19.80469,1.75781 -33.45703,0 -33.45703,-31.46485 0,-30.05859 28.88672,-30.05859 z m -13.35937,25.42969 h 26.25 v -0.46875 q 0,-12.77344 -12.89063,-12.77344 -12.30469,0 -13.35937,13.24219 z m -117.77344,36.09375 v -61.52344 h 12.01172 l 1.8164,8.90625 q 8.26172,-8.90625 19.86328,-8.90625 11.60157,0 15.87891,8.4375 9.43359,-8.4375 19.74609,-8.4375 21.21094,0 21.21094,23.37891 v 38.14453 h -15.52734 v -38.73047 q 0,-10.25391 -9.25781,-10.25391 -6.91407,0 -13.30079,6.21094 v 42.77344 h -15.52734 v -38.55469 q 0,-10.42969 -8.55469,-10.42969 -6.79687,0 -12.83203,6.21094 v 42.77344 z m -39.66797,-61.52344 q 28.00781,0 28.00781,28.59375 0,3.80859 -0.52734,7.61719 h -40.83985 q 0,13.00781 19.10157,13.00781 9.3164,0 18.63281,-1.75781 v 12.30469 q -8.14453,1.75781 -19.80469,1.75781 -33.45703,0 -33.45703,-31.46485 0,-30.05859 28.88672,-30.05859 z m -13.35938,25.42969 h 26.25 v -0.46875 q 0,-12.77344 -12.89062,-12.77344 -12.30469,0 -13.35938,13.24219 z m -52.44144,36.09375 v -61.52344 h 12.01176 l 1.93359,7.85156 q 8.08594,-7.85156 17.10938,-7.85156 v 12.53906 q -8.67188,0 -15.52735,7.20703 v 41.77735 z m -39.3164,0 v -61.52344 q 0,-25.3125 27.6563,-25.3125 7.5586,0 13.71092,2.34375 v 12.30469 q -5.80082,-2.34375 -12.59762,-2.34375 -13.2422,0 -13.2422,13.00781 h 18.457 v 12.30469 h -18.457 v 49.21875 z m -16.1132,-83.78906 v 83.78906 h -15.5274 v -83.78906 z m 162.6531,-431.325137 a 310.00001,310.00001 0 0 0 -307.6016,311.585927 310.00001,310.00001 0 0 0 310.793,308.4043 310.00001,310.00001 0 0 0 309.2031,-310 l -0.0176,-3.19141 A 310.00001,310.00001 0 0 0 -894.4219,-57.661797 Z m 137.5644,139.11132 c 68.3594,0 102.5391,27.343747 102.5391,82.031247 0,48.17709 -37.3047,99.60938 -111.9141,154.29688 h 111.9141 v 44.92187 h -191.4062 v -39.0625 c 93.0989,-64.71354 139.6484,-116.79687 139.6484,-156.25 0,-27.34374 -16.9271,-41.01562 -50.7813,-41.01562 -28.6458,0 -55.664,7.16146 -81.0546,21.48437 v -46.875 c 25.3906,-13.020827 52.4088,-19.531247 81.0546,-19.531247 z m -359.375,1.95313 h 51.7579 V 362.69952 h -51.7579 z m 184.96098,0 h 63.28122 L -987.13089,213.67609 -855.4903,362.69952 h -71.67966 L -1035.1778,232.23077 V 198.63702 Z M -1441.0902,447.45241 v -61.52344 h 12.0118 l 1.9336,7.85156 q 8.0859,-7.85156 17.1093,-7.85156 v 12.53906 q -8.6718,0 -15.5273,7.20703 v 41.77735 z m -39.6679,-61.52344 q 28.0078,0 28.0078,28.59375 0,3.80859 -0.5274,7.61719 h -40.8398 q 0,13.00781 19.1016,13.00781 9.3164,0 18.6328,-1.75781 v 12.30469 q -8.1446,1.75781 -19.8047,1.75781 -33.457,0 -33.457,-31.46485 0,-30.05859 28.8867,-30.05859 z m -13.3594,25.42969 h 26.25 v -0.46875 q 0,-12.77344 -12.8906,-12.77344 -12.3047,0 -13.3594,13.24219 z m -117.7734,36.09375 v -61.52344 h 12.0117 l 1.8164,8.90625 q 8.2617,-8.90625 19.8633,-8.90625 11.6015,0 15.8789,8.4375 9.4336,-8.4375 19.7461,-8.4375 21.2109,0 21.2109,23.37891 v 38.14453 h -15.5273 v -38.73047 q 0,-10.25391 -9.2578,-10.25391 -6.9141,0 -13.3008,6.21094 v 42.77344 h -15.5274 v -38.55469 q 0,-10.42969 -8.5547,-10.42969 -6.7968,0 -12.832,6.21094 v 42.77344 z m -39.668,-61.52344 q 28.0078,0 28.0078,28.59375 0,3.80859 -0.5273,7.61719 h -40.8399 q 0,13.00781 19.1016,13.00781 9.3164,0 18.6328,-1.75781 v 12.30469 q -8.1445,1.75781 -19.8047,1.75781 -33.457,0 -33.457,-31.46485 0,-30.05859 28.8867,-30.05859 z m -13.3594,25.42969 h 26.25 v -0.46875 q 0,-12.77344 -12.8906,-12.77344 -12.3047,0 -13.3594,13.24219 z m -52.4414,36.09375 v -61.52344 h 12.0117 l 1.9336,7.85156 q 8.086,-7.85156 17.1094,-7.85156 v 12.53906 q -8.6719,0 -15.5273,7.20703 v 41.77735 z m -39.3164,0 v -61.52344 q 0,-25.3125 27.6563,-25.3125 7.5586,0 13.7109,2.34375 v 12.30469 q -5.8008,-2.34375 -12.5977,-2.34375 -13.2421,0 -13.2421,13.00781 h 18.457 v 12.30469 h -18.457 v 49.21875 z m -16.1133,-83.78906 v 83.78906 h -15.5273 v -83.78906 z m 175.5101,-431.325147 a 310.00001,310.00001 0 0 0 -307.6016,311.585927 310.00001,310.00001 0 0 0 310.7949,308.4043 310.00001,310.00001 0 0 0 309.2012,-310 l -0.016,-3.19141 a 310.00001,310.00001 0 0 0 -312.3789,-306.798817 z m 171.1797,129.49218 V 346.98663 h -51.7579 V 110.4632 h -29.2968 V 89.174133 Z m -351.5625,5.85938 h 51.7578 V 346.98663 h -51.7578 z m 184.9609,0 h 63.2812 L -1648.5606,197.9632 -1516.92,346.98663 h -71.6796 l -108.0079,-130.46875 v -33.59375 z"
         inkscape:connector-curvature="0" />
    </g>
    <flowRoot
       transform="matrix(0.26458333,0,0,0.26458333,566.96329,1.736357)"
       xml:space="preserve"
       id="flowRoot834-5-6-2"
       style="font-style:normal;font-variant:normal;font-weight:normal;font-stretch:normal;font-size:21.33333397px;line-height:24.67000008px;font-family:Sansation;-inkscape-font-specification:Sansation;letter-spacing:0px;word-spacing:0px;fill:none;fill-opacity:1;stroke:#000000;stroke-width:3.77952766;stroke-miterlimit:4;stroke-dasharray:none;stroke-opacity:1"><flowRegion
         id="flowRegion836-6-1-8"
         style="font-style:normal;font-variant:normal;font-weight:normal;font-stretch:normal;font-family:Sansation;-inkscape-font-specification:Sansation;fill:none;stroke:#000000;stroke-width:3.77952766;stroke-miterlimit:4;stroke-dasharray:none;stroke-opacity:1"><rect
           id="rect838-2-8-9"
           width="590.93921"
           height="456.58896"
           x="-214.15234"
           y="349.75299"
           style="font-style:normal;font-variant:normal;font-weight:normal;font-stretch:normal;font-family:Sansation;-inkscape-font-specification:Sansation;fill:none;stroke:#000000;stroke-width:3.77952766;stroke-miterlimit:4;stroke-dasharray:none;stroke-opacity:1" /></flowRegion><flowPara
         id="flowPara840-9-7-7"
         style="font-style:normal;font-variant:normal;font-weight:normal;font-stretch:normal;font-family:Sansation;-inkscape-font-specification:Sansation;fill:none;stroke:#000000;stroke-width:3.77952766;stroke-miterlimit:4;stroke-dasharray:none;stroke-opacity:1" /></flowRoot>    <g
       aria-label="K4"
       transform="matrix(0.26458333,0,0,0.26458333,681.28518,17.426023)"
       style="font-style:normal;font-variant:normal;font-weight:normal;font-stretch:normal;font-size:21.33333397px;line-height:24.67000008px;font-family:Samanata;-inkscape-font-specification:Samanata;letter-spacing:0px;word-spacing:0px;fill:none;fill-opacity:1;stroke:#000000;stroke-width:3.77952766;stroke-miterlimit:4;stroke-dasharray:none;stroke-opacity:1"
       id="flowRoot842-1-9-3" />
    <g
       aria-label="Ifremer"
       transform="matrix(0.26458333,0,0,0.26458333,698.85923,63.30222)"
       style="font-style:normal;font-variant:normal;font-weight:normal;font-stretch:normal;font-size:173.33332825px;line-height:24.67000008px;font-family:Samanata;-inkscape-font-specification:Samanata;letter-spacing:0px;word-spacing:0px;fill:none;fill-opacity:1;stroke:#000000;stroke-width:3.77952766;stroke-miterlimit:4;stroke-dasharray:none;stroke-opacity:1"
       id="flowRoot842-3-3-3-9" />
    <flowRoot
       transform="matrix(0.26458333,0,0,0.26458333,758.32825,-1.4708772)"
       xml:space="preserve"
       id="flowRoot834-5-6-2-7"
       style="font-style:normal;font-variant:normal;font-weight:normal;font-stretch:normal;font-size:21.33333397px;line-height:24.67000008px;font-family:Sansation;-inkscape-font-specification:Sansation;letter-spacing:0px;word-spacing:0px;fill:none;fill-opacity:1;stroke:#000000;stroke-width:3.77952766;stroke-miterlimit:4;stroke-dasharray:none;stroke-opacity:1"><flowRegion
         id="flowRegion836-6-1-8-8"
         style="font-style:normal;font-variant:normal;font-weight:normal;font-stretch:normal;font-family:Sansation;-inkscape-font-specification:Sansation;fill:none;stroke:#000000;stroke-width:3.77952766;stroke-miterlimit:4;stroke-dasharray:none;stroke-opacity:1"><rect
           id="rect838-2-8-9-4"
           width="590.93921"
           height="456.58896"
           x="-214.15234"
           y="349.75299"
           style="font-style:normal;font-variant:normal;font-weight:normal;font-stretch:normal;font-family:Sansation;-inkscape-font-specification:Sansation;fill:none;stroke:#000000;stroke-width:3.77952766;stroke-miterlimit:4;stroke-dasharray:none;stroke-opacity:1" /></flowRegion><flowPara
         id="flowPara840-9-7-7-5"
         style="font-style:normal;font-variant:normal;font-weight:normal;font-stretch:normal;font-family:Sansation;-inkscape-font-specification:Sansation;fill:none;stroke:#000000;stroke-width:3.77952766;stroke-miterlimit:4;stroke-dasharray:none;stroke-opacity:1" /></flowRoot>    <g
       aria-label="K5"
       transform="matrix(0.26458333,0,0,0.26458333,873.7192,14.218789)"
       style="font-style:normal;font-variant:normal;font-weight:normal;font-stretch:normal;font-size:21.33333397px;line-height:24.67000008px;font-family:Samanata;-inkscape-font-specification:Samanata;letter-spacing:0px;word-spacing:0px;fill:none;fill-opacity:1;stroke:#000000;stroke-width:3.77952766;stroke-miterlimit:4;stroke-dasharray:none;stroke-opacity:1"
       id="flowRoot842-1-9-3-0" />
    <g
       aria-label="Ifremer"
       transform="matrix(0.26458333,0,0,0.26458333,888.62057,60.629525)"
       style="font-style:normal;font-variant:normal;font-weight:normal;font-stretch:normal;font-size:173.33332825px;line-height:24.67000008px;font-family:Samanata;-inkscape-font-specification:Samanata;letter-spacing:0px;word-spacing:0px;fill:none;fill-opacity:1;stroke:#000000;stroke-width:3.77952766;stroke-miterlimit:4;stroke-dasharray:none;stroke-opacity:1"
       id="flowRoot842-3-3-3-9-0" />
    <flowRoot
       transform="matrix(0.26458333,0,0,0.26458333,945.95148,-4.6781175)"
       xml:space="preserve"
       id="flowRoot834-5-6-2-7-6"
       style="font-style:normal;font-variant:normal;font-weight:normal;font-stretch:normal;font-size:21.33333397px;line-height:24.67000008px;font-family:Sansation;-inkscape-font-specification:Sansation;letter-spacing:0px;word-spacing:0px;fill:none;fill-opacity:1;stroke:#000000;stroke-width:3.77952766;stroke-miterlimit:4;stroke-dasharray:none;stroke-opacity:1"><flowRegion
         id="flowRegion836-6-1-8-8-1"
         style="font-style:normal;font-variant:normal;font-weight:normal;font-stretch:normal;font-family:Sansation;-inkscape-font-specification:Sansation;fill:none;stroke:#000000;stroke-width:3.77952766;stroke-miterlimit:4;stroke-dasharray:none;stroke-opacity:1"><rect
           id="rect838-2-8-9-4-5"
           width="590.93921"
           height="456.58896"
           x="-214.15234"
           y="349.75299"
           style="font-style:normal;font-variant:normal;font-weight:normal;font-stretch:normal;font-family:Sansation;-inkscape-font-specification:Sansation;fill:none;stroke:#000000;stroke-width:3.77952766;stroke-miterlimit:4;stroke-dasharray:none;stroke-opacity:1" /></flowRegion><flowPara
         id="flowPara840-9-7-7-5-5"
         style="font-style:normal;font-variant:normal;font-weight:normal;font-stretch:normal;font-family:Sansation;-inkscape-font-specification:Sansation;fill:none;stroke:#000000;stroke-width:3.77952766;stroke-miterlimit:4;stroke-dasharray:none;stroke-opacity:1" /></flowRoot>    <g
       aria-label="K6"
       transform="matrix(0.26458333,0,0,0.26458333,1059.938,12.615169)"
       style="font-style:normal;font-variant:normal;font-weight:normal;font-stretch:normal;font-size:21.33333397px;line-height:24.67000008px;font-family:Samanata;-inkscape-font-specification:Samanata;letter-spacing:0px;word-spacing:0px;fill:none;fill-opacity:1;stroke:#000000;stroke-width:3.77952766;stroke-miterlimit:4;stroke-dasharray:none;stroke-opacity:1"
       id="flowRoot842-1-9-3-0-4" />
    <g
       aria-label="Ifremer"
       transform="matrix(0.06572329,0,0,0.06572329,278.30415,206.65093)"
       style="font-style:normal;font-variant:normal;font-weight:normal;font-stretch:normal;font-size:173.33332825px;line-height:24.67000008px;font-family:Samanata;-inkscape-font-specification:Samanata;letter-spacing:0px;word-spacing:0px;fill:none;fill-opacity:1;stroke:#000000;stroke-width:3.77952766;stroke-miterlimit:4;stroke-dasharray:none;stroke-opacity:1"
       id="flowRoot842-3-3-3-9-0-6">
      <path
         id="path1583"
         style="font-style:normal;font-variant:normal;font-weight:bold;font-stretch:normal;font-size:120px;font-family:Sansation;-inkscape-font-specification:'Sansation Bold';fill:none;fill-opacity:1;stroke:#000000;stroke-width:3.77952766;stroke-miterlimit:4;stroke-dasharray:none;stroke-opacity:1"
         d="M -2.5878906,460.07587 V 398.55243 H 9.4238281 l 1.9335939,7.85156 q 8.085937,-7.85156 17.109375,-7.85156 v 12.53906 q -8.671875,0 -15.527344,7.20703 v 41.77735 z M -42.255859,398.55243 q 28.007812,0 28.007812,28.59375 0,3.80859 -0.527344,7.61719 h -40.839843 q 0,13.00781 19.101562,13.00781 9.316406,0 18.632813,-1.75781 v 12.30469 q -8.144532,1.75781 -19.804688,1.75781 -33.457031,0 -33.457031,-31.46485 0,-30.05859 28.886719,-30.05859 z m -13.359375,25.42969 h 26.25 v -0.46875 q 0,-12.77344 -12.890625,-12.77344 -12.304688,0 -13.359375,13.24219 z m -117.773436,36.09375 v -61.52344 h 12.01172 l 1.8164,8.90625 q 8.26172,-8.90625 19.86328,-8.90625 11.60157,0 15.87891,8.4375 9.43359,-8.4375 19.74609,-8.4375 21.210942,0 21.210942,23.37891 v 38.14453 H -98.388672 V 421.3454 q 0,-10.25391 -9.257808,-10.25391 -6.91407,0 -13.30079,6.21094 v 42.77344 h -15.52734 v -38.55469 q 0,-10.42969 -8.55469,-10.42969 -6.79687,0 -12.83203,6.21094 v 42.77344 z m -39.66797,-61.52344 q 28.00781,0 28.00781,28.59375 0,3.80859 -0.52734,7.61719 h -40.83985 q 0,13.00781 19.10157,13.00781 9.3164,0 18.63281,-1.75781 v 12.30469 q -8.14453,1.75781 -19.80469,1.75781 -33.45703,0 -33.45703,-31.46485 0,-30.05859 28.88672,-30.05859 z m -13.35938,25.42969 h 26.25 v -0.46875 q 0,-12.77344 -12.89062,-12.77344 -12.30469,0 -13.35938,13.24219 z m -52.4414,36.09375 v -61.52344 h 12.01172 l 1.93359,7.85156 q 8.08594,-7.85156 17.10938,-7.85156 v 12.53906 q -8.67188,0 -15.52735,7.20703 v 41.77735 z m -39.31641,0 v -61.52344 q 0,-25.3125 27.65625,-25.3125 7.5586,0 13.71094,2.34375 v 12.30469 q -5.80078,-2.34375 -12.59766,-2.34375 -13.24218,0 -13.24218,13.00781 h 18.45703 v 12.30469 h -18.45703 v 49.21875 z m -16.11328,-83.78906 v 83.78906 h -15.52734 v -83.78906 z m 155.30722,-431.325695 a 310.00001,310.00001 0 0 0 -307.6016,311.587885 310.00001,310.00001 0 0 0 310.793,308.40235 310.00001,310.00001 0 0 0 309.2031,-310 l -0.0176,-3.19141 A 310.00001,310.00001 0 0 0 -178.97989,-55.038885 Z M -0.19479001,71.914245 24.41461,112.34393 c -45.8333,20.96354 -77.3438,46.28906 -94.5312,75.97656 15.7552,-5.59896 31.7708,-8.39844 48.0468,-8.39844 68.2292,0 102.3438,28.64584 102.3438,85.9375 0,63.80209 -36.6537,95.70313 -109.961,95.70313 -69.9218,0 -104.8828,-36.45834 -104.8828,-109.375 0,-72.39584 44.7917,-132.48698 134.37499999,-180.273435 z M -405.07759,80.312685 h 51.7578 V 359.60955 h -51.7578 z m 184.961,0 h 63.2812 l -119.1406,130.273425 131.6406,149.02344 h -71.6797 L -324.02289,229.1408 v -33.59375 z m 196.289,140.624995 c -20.0521,0 -39.1927,3.125 -57.4219,9.375 -2.3437,5.20833 -3.5156,12.10938 -3.5156,20.70312 0,46.35417 18.9453,69.53125 56.8359,69.53125 38.1511,0 57.2266,-18.22917 57.2266,-54.6875 0,-29.94791 -17.7083,-44.92187 -53.125,-44.92187 z M -725.8573,472.19772 v -61.52344 h 12.01171 l 1.9336,7.85156 q 8.08594,-7.85156 17.10937,-7.85156 v 12.53906 q -8.67187,0 -15.52734,7.20703 v 41.77735 z m -39.66797,-61.52344 q 28.00781,0 28.00781,28.59375 0,3.80859 -0.52734,7.61719 h -40.83985 q 0,13.00781 19.10156,13.00781 9.31641,0 18.63282,-1.75781 v 12.30469 q -8.14453,1.75781 -19.80469,1.75781 -33.45703,0 -33.45703,-31.46485 0,-30.05859 28.88672,-30.05859 z m -13.35938,25.42969 h 26.25 v -0.46875 q 0,-12.77344 -12.89062,-12.77344 -12.30469,0 -13.35938,13.24219 z m -117.77343,36.09375 v -61.52344 h 12.01172 l 1.8164,8.90625 q 8.26172,-8.90625 19.86328,-8.90625 11.60157,0 15.87891,8.4375 9.43359,-8.4375 19.74609,-8.4375 21.21094,0 21.21094,23.37891 v 38.14453 h -15.52735 v -38.73047 q 0,-10.25391 -9.2578,-10.25391 -6.91407,0 -13.30079,6.21094 v 42.77344 h -15.52734 v -38.55469 q 0,-10.42969 -8.55469,-10.42969 -6.79687,0 -12.83203,6.21094 v 42.77344 z m -39.66797,-61.52344 q 28.00781,0 28.00781,28.59375 0,3.80859 -0.52734,7.61719 h -40.83985 q 0,13.00781 19.10157,13.00781 9.3164,0 18.63281,-1.75781 v 12.30469 q -8.14453,1.75781 -19.80469,1.75781 -33.45703,0 -33.45703,-31.46485 0,-30.05859 28.88672,-30.05859 z m -13.35938,25.42969 h 26.25 v -0.46875 q 0,-12.77344 -12.89062,-12.77344 -12.30469,0 -13.35938,13.24219 z m -52.44137,36.09375 v -61.52344 h 12.01169 l 1.93359,7.85156 q 8.08594,-7.85156 17.10938,-7.85156 v 12.53906 q -8.67188,0 -15.52735,7.20703 v 41.77735 z m -39.3164,0 v -61.52344 q 0,-25.3125 27.6562,-25.3125 7.5586,0 13.7109,2.34375 v 12.30469 q -5.8007,-2.34375 -12.5976,-2.34375 -13.2422,0 -13.2422,13.00781 h 18.457 v 12.30469 h -18.457 v 49.21875 z m -16.1133,-83.78906 v 83.78906 h -15.5274 V 388.40866 Z M -888.10689,-42.915835 A 310.00001,310.00001 0 0 0 -1195.7084,268.6701 310.00001,310.00001 0 0 0 -884.91549,577.07244 310.00001,310.00001 0 0 0 -575.71239,267.0744 l -0.0175,-3.19141 a 310.00001,310.00001 0 0 0 -312.377,-306.798825 z m -220.78901,129.28906 h 51.7578 V 365.6701 h -51.7578 z m 184.96091,0 h 63.2812 l -119.1406,130.273435 131.6406,149.02344 h -71.6796 L -1027.8413,235.20135 V 201.6076 Z m 100.1953,0 h 166.7969 v 41.015625 h -122.2656 l -4.6875,68.75 c 7.4218,-2.86458 18.2291,-4.29688 32.4218,-4.29688 70.3125,0 105.4688,28.64584 105.4688,85.9375 0,59.89584 -36.4584,89.84375 -109.375,89.84375 -26.0417,0 -52.0834,-3.90625 -78.125,-11.71875 v -42.96875 c 26.0416,9.11458 52.7344,13.67188 80.0781,13.67188 37.1094,0 55.6641,-16.27605 55.6641,-48.82813 0,-29.94792 -17.9037,-44.92187 -53.711,-44.92187 -29.2968,0 -56.6406,3.2552 -82.0312,9.76562 z M -1443.0655,482.29924 V 420.7758 h 12.0117 l 1.9336,7.85156 q 8.0859,-7.85156 17.1094,-7.85156 v 12.53906 q -8.6719,0 -15.5274,7.20703 v 41.77735 z m -39.668,-61.52344 q 28.0078,0 28.0078,28.59375 0,3.80859 -0.5273,7.61719 h -40.8399 q 0,13.00781 19.1016,13.00781 9.3164,0 18.6328,-1.75781 v 12.30469 q -8.1445,1.75781 -19.8047,1.75781 -33.457,0 -33.457,-31.46485 0,-30.05859 28.8867,-30.05859 z m -13.3594,25.42969 h 26.25 v -0.46875 q 0,-12.77344 -12.8906,-12.77344 -12.3047,0 -13.3594,13.24219 z m -117.7734,36.09375 V 420.7758 h 12.0117 l 1.8164,8.90625 q 8.2617,-8.90625 19.8633,-8.90625 11.6016,0 15.8789,8.4375 9.4336,-8.4375 19.7461,-8.4375 21.2109,0 21.2109,23.37891 v 38.14453 h -15.5273 v -38.73047 q 0,-10.25391 -9.2578,-10.25391 -6.9141,0 -13.3008,6.21094 v 42.77344 h -15.5273 v -38.55469 q 0,-10.42969 -8.5547,-10.42969 -6.7969,0 -12.8321,6.21094 v 42.77344 z m -39.668,-61.52344 q 28.0078,0 28.0078,28.59375 0,3.80859 -0.5273,7.61719 h -40.8399 q 0,13.00781 19.1016,13.00781 9.3164,0 18.6328,-1.75781 v 12.30469 q -8.1445,1.75781 -19.8047,1.75781 -33.457,0 -33.457,-31.46485 0,-30.05859 28.8867,-30.05859 z m -13.3594,25.42969 h 26.25 v -0.46875 q 0,-12.77344 -12.8906,-12.77344 -12.3047,0 -13.3594,13.24219 z m -52.4414,36.09375 V 420.7758 h 12.0118 l 1.9336,7.85156 q 8.0859,-7.85156 17.1093,-7.85156 v 12.53906 q -8.6718,0 -15.5273,7.20703 v 41.77735 z m -39.3164,0 V 420.7758 q 0,-25.3125 27.6563,-25.3125 7.5586,0 13.7109,2.34375 v 12.30469 q -5.8008,-2.34375 -12.5976,-2.34375 -13.2422,0 -13.2422,13.00781 h 18.457 v 12.30469 h -18.457 v 49.21875 z m -16.1132,-83.78906 v 83.78906 h -15.5274 v -83.78906 z m 163.3883,-429.304915 a 310.00001,310.00001 0 0 0 -307.6016,311.585925 310.00001,310.00001 0 0 0 310.7949,308.4043 310.00001,310.00001 0 0 0 309.2012,-310 l -0.016,-3.19141 a 310.00001,310.00001 0 0 0 -312.3789,-306.798815 z m -224.8301,129.28906 h 51.7578 V 377.79119 h -51.7578 z m 184.9609,0 h 63.2813 l -119.1406,130.273435 131.6406,149.02343 h -71.6797 l -108.0078,-130.46875 v -33.59375 z m 191.9922,0 h 55.4688 l -110.5469,177.734365 h 81.8359 v -93.35937 h 51.7579 v 93.35937 l 28.9062,26.5625 v 14.45313 h -28.9062 v 60.54687 h -51.7579 v -60.54687 h -141.0156 v -39.0625 z"
         inkscape:connector-curvature="0" />
    </g>
    <g
       aria-label="K7
"
       transform="matrix(0.26458333,0,0,0.26458333,1253.5848,12.00163)"
       style="font-style:normal;font-variant:normal;font-weight:normal;font-stretch:normal;font-size:21.33333397px;line-height:24.67000008px;font-family:Samanata;-inkscape-font-specification:Samanata;letter-spacing:0px;word-spacing:0px;fill:none;fill-opacity:1;stroke:#000000;stroke-width:3.77952766;stroke-miterlimit:4;stroke-dasharray:none;stroke-opacity:1"
       id="flowRoot842-1-9-3-0-4-5" />
    <g
       aria-label="Ifremer"
       transform="matrix(0.06572329,0,0,0.06572329,326.4066,206.49852)"
       style="font-style:normal;font-variant:normal;font-weight:normal;font-stretch:normal;font-size:173.33332825px;line-height:24.67000008px;font-family:Samanata;-inkscape-font-specification:Samanata;letter-spacing:0px;word-spacing:0px;fill:none;fill-opacity:1;stroke:#000000;stroke-width:3.77952766;stroke-miterlimit:4;stroke-dasharray:none;stroke-opacity:1"
       id="flowRoot842-3-3-3-9-0-6-7">
      <path
         id="path1567"
         style="font-style:normal;font-variant:normal;font-weight:bold;font-stretch:normal;font-size:120px;font-family:Sansation;-inkscape-font-specification:'Sansation Bold';fill:none;fill-opacity:1;stroke:#000000;stroke-width:3.77952766;stroke-miterlimit:4;stroke-dasharray:none;stroke-opacity:1"
         d="M -2.5878906,460.07587 V 398.55243 H 9.4238281 l 1.9335939,7.85156 q 8.085937,-7.85156 17.109375,-7.85156 v 12.53906 q -8.671875,0 -15.527344,7.20703 v 41.77735 z M -42.255859,398.55243 q 28.007812,0 28.007812,28.59375 0,3.80859 -0.527344,7.61719 h -40.839843 q 0,13.00781 19.101562,13.00781 9.316406,0 18.632813,-1.75781 v 12.30469 q -8.144532,1.75781 -19.804688,1.75781 -33.457031,0 -33.457031,-31.46485 0,-30.05859 28.886719,-30.05859 z m -13.359375,25.42969 h 26.25 v -0.46875 q 0,-12.77344 -12.890625,-12.77344 -12.304688,0 -13.359375,13.24219 z m -117.773436,36.09375 v -61.52344 h 12.01172 l 1.8164,8.90625 q 8.26172,-8.90625 19.86328,-8.90625 11.60157,0 15.87891,8.4375 9.43359,-8.4375 19.74609,-8.4375 21.210942,0 21.210942,23.37891 v 38.14453 H -98.388672 V 421.3454 q 0,-10.25391 -9.257808,-10.25391 -6.91407,0 -13.30079,6.21094 v 42.77344 h -15.52734 v -38.55469 q 0,-10.42969 -8.55469,-10.42969 -6.79687,0 -12.83203,6.21094 v 42.77344 z m -39.66797,-61.52344 q 28.00781,0 28.00781,28.59375 0,3.80859 -0.52734,7.61719 h -40.83985 q 0,13.00781 19.10157,13.00781 9.3164,0 18.63281,-1.75781 v 12.30469 q -8.14453,1.75781 -19.80469,1.75781 -33.45703,0 -33.45703,-31.46485 0,-30.05859 28.88672,-30.05859 z m -13.35938,25.42969 h 26.25 v -0.46875 q 0,-12.77344 -12.89062,-12.77344 -12.30469,0 -13.35938,13.24219 z m -52.4414,36.09375 v -61.52344 h 12.01172 l 1.93359,7.85156 q 8.08594,-7.85156 17.10938,-7.85156 v 12.53906 q -8.67188,0 -15.52735,7.20703 v 41.77735 z m -39.31641,0 v -61.52344 q 0,-25.3125 27.65625,-25.3125 7.5586,0 13.71094,2.34375 v 12.30469 q -5.80078,-2.34375 -12.59766,-2.34375 -13.24218,0 -13.24218,13.00781 h 18.45703 v 12.30469 h -18.45703 v 49.21875 z m -16.11328,-83.78906 v 83.78906 h -15.52734 v -83.78906 z m 155.30629,-431.325169 a 310.00001,310.00001 0 0 0 -307.6015,311.585929 310.00001,310.00001 0 0 0 310.7949,308.4043 310.00001,310.00001 0 0 0 309.2012,-310 l -0.0156,-3.19141 a 310.00001,310.00001 0 0 0 -312.379,-306.798819 z m -226.0957,135.35156 h 51.7579 V 359.61007 h -51.7579 z m 184.961,0 h 63.2812 l -119.1406,130.273439 131.6406,149.02343 h -71.6797 l -108.0078,-130.46875 v -33.59375 z m 85.5469,0 H 64.650083 v 41.015619 l -125.3906,238.28125 H -117.57652 L 9.7672834,125.23507 H -134.56862 Z"
         inkscape:connector-curvature="0" />
    </g>
    <flowRoot
       xml:space="preserve"
       id="flowRoot1201"
       style="font-style:normal;font-variant:normal;font-weight:normal;font-stretch:normal;font-size:21.33333397px;line-height:24.67000008px;font-family:Samanata;-inkscape-font-specification:Samanata;letter-spacing:0px;word-spacing:0px;fill:none;fill-opacity:1;stroke:#000000;stroke-width:3.77952766;stroke-miterlimit:4;stroke-dasharray:none;stroke-opacity:1"
       transform="scale(0.26458333)"><flowRegion
         id="flowRegion1203"
         style="fill:none;stroke:#000000;stroke-width:3.77952766;stroke-miterlimit:4;stroke-dasharray:none;stroke-opacity:1"><rect
           id="rect1205"
           width="980"
           height="1005.7143"
           x="4217.1431"
           y="-23.194601"
           style="fill:none;stroke:#000000;stroke-width:3.77952766;stroke-miterlimit:4;stroke-dasharray:none;stroke-opacity:1" /></flowRegion><flowPara
         id="flowPara1207"></flowPara></flowRoot>    <g
       aria-label="K8
"
       transform="matrix(0.26458333,0,0,0.26458333,1453.1562,8.5998442)"
       style="font-style:normal;font-variant:normal;font-weight:normal;font-stretch:normal;font-size:21.33333397px;line-height:24.67000008px;font-family:Samanata;-inkscape-font-specification:Samanata;letter-spacing:0px;word-spacing:0px;fill:none;fill-opacity:1;stroke:#000000;stroke-width:3.77952766;stroke-miterlimit:4;stroke-dasharray:none;stroke-opacity:1"
       id="flowRoot842-1-9-3-0-4-7" />
    <g
       aria-label="Ifremer"
       transform="matrix(0.06572329,0,0,0.06572329,375.98073,205.65351)"
       style="font-style:normal;font-variant:normal;font-weight:normal;font-stretch:normal;font-size:173.33332825px;line-height:24.67000008px;font-family:Samanata;-inkscape-font-specification:Samanata;letter-spacing:0px;word-spacing:0px;fill:none;fill-opacity:1;stroke:#000000;stroke-width:3.77952766;stroke-miterlimit:4;stroke-dasharray:none;stroke-opacity:1"
       id="flowRoot842-3-3-3-9-0-6-8">
      <path
         id="path1551"
         style="font-style:normal;font-variant:normal;font-weight:bold;font-stretch:normal;font-size:120px;font-family:Sansation;-inkscape-font-specification:'Sansation Bold';fill:none;fill-opacity:1;stroke:#000000;stroke-width:3.77952766;stroke-miterlimit:4;stroke-dasharray:none;stroke-opacity:1"
         d="M -2.5878906,460.07587 V 398.55243 H 9.4238281 l 1.9335939,7.85156 q 8.085937,-7.85156 17.109375,-7.85156 v 12.53906 q -8.671875,0 -15.527344,7.20703 v 41.77735 z M -42.255859,398.55243 q 28.007812,0 28.007812,28.59375 0,3.80859 -0.527344,7.61719 h -40.839843 q 0,13.00781 19.101562,13.00781 9.316406,0 18.632813,-1.75781 v 12.30469 q -8.144532,1.75781 -19.804688,1.75781 -33.457031,0 -33.457031,-31.46485 0,-30.05859 28.886719,-30.05859 z m -13.359375,25.42969 h 26.25 v -0.46875 q 0,-12.77344 -12.890625,-12.77344 -12.304688,0 -13.359375,13.24219 z m -117.773436,36.09375 v -61.52344 h 12.01172 l 1.8164,8.90625 q 8.26172,-8.90625 19.86328,-8.90625 11.60157,0 15.87891,8.4375 9.43359,-8.4375 19.74609,-8.4375 21.210942,0 21.210942,23.37891 v 38.14453 H -98.388672 V 421.3454 q 0,-10.25391 -9.257808,-10.25391 -6.91407,0 -13.30079,6.21094 v 42.77344 h -15.52734 v -38.55469 q 0,-10.42969 -8.55469,-10.42969 -6.79687,0 -12.83203,6.21094 v 42.77344 z m -39.66797,-61.52344 q 28.00781,0 28.00781,28.59375 0,3.80859 -0.52734,7.61719 h -40.83985 q 0,13.00781 19.10157,13.00781 9.3164,0 18.63281,-1.75781 v 12.30469 q -8.14453,1.75781 -19.80469,1.75781 -33.45703,0 -33.45703,-31.46485 0,-30.05859 28.88672,-30.05859 z m -13.35938,25.42969 h 26.25 v -0.46875 q 0,-12.77344 -12.89062,-12.77344 -12.30469,0 -13.35938,13.24219 z m -52.4414,36.09375 v -61.52344 h 12.01172 l 1.93359,7.85156 q 8.08594,-7.85156 17.10938,-7.85156 v 12.53906 q -8.67188,0 -15.52735,7.20703 v 41.77735 z m -39.31641,0 v -61.52344 q 0,-25.3125 27.65625,-25.3125 7.5586,0 13.71094,2.34375 v 12.30469 q -5.80078,-2.34375 -12.59766,-2.34375 -13.24218,0 -13.24218,13.00781 h 18.45703 v 12.30469 h -18.45703 v 49.21875 z m -16.11328,-83.78906 v 83.78906 h -15.52734 v -83.78906 z m 155.30788,-431.325447 a 310.00001,310.00001 0 0 0 -307.6016,311.587887 310.00001,310.00001 0 0 0 310.793,308.40235 310.00001,310.00001 0 0 0 309.2031,-310 l -0.0176,-3.19141 a 310.00001,310.00001 0 0 0 -312.3769,-306.798827 z m 149.878898,132.61719 c 67.7083,0 101.5625,23.828117 101.5625,71.484377 0,29.6875 -11.5235,50.71614 -34.5704,63.08593 28.2553,14.0625 42.3829,35.61199 42.3829,64.64844 0,56.51042 -35.8073,84.76563 -107.4219,84.76563 -74.218798,0 -111.328098,-28.25521 -111.328098,-84.76563 0,-29.03645 13.802,-50.58594 41.406198,-64.64844 -22.395798,-12.36979 -33.593698,-33.39843 -33.593698,-63.08593 0,-47.65626 33.854098,-71.484377 101.562498,-71.484377 z m -375.976598,2.73438 h 51.7578 V 359.6098 h -51.7578 z m 184.9609,0 h 63.2813 l -119.1406,130.273427 131.6406,149.02344 h -71.6797 L -324.02223,229.14105 V 195.5473 Z m 191.406298,42.968747 c -33.4636,0 -50.1953,10.54687 -50.1953,31.64062 0,24.47917 16.9271,36.71875 50.7812,36.71875 32.5520996,0 48.8282,-12.23958 48.8282,-36.71875 0,-21.09375 -16.4714004,-31.64062 -49.4141,-31.64062 z m 0,113.28125 c -38.6719,0 -58.0078,13.80208 -58.0078,41.40625 0,25.78124 20.1823,38.67187 60.5469,38.67187 36.4583,0 54.6874,-12.89063 54.6874,-38.67187 10e-5,-27.60417 -19.0755004,-41.40625 -57.2265,-41.40625 z"
         inkscape:connector-curvature="0" />
    </g>
    <g
       aria-label="K1"
       transform="matrix(0.26458333,0,0,0.26458333,135.72002,202.53255)"
       style="font-style:normal;font-variant:normal;font-weight:normal;font-stretch:normal;font-size:21.33333397px;line-height:24.67000008px;font-family:Samanata;-inkscape-font-specification:Samanata;letter-spacing:0px;word-spacing:0px;fill:none;fill-opacity:1;stroke:#000000;stroke-width:3.77952766;stroke-miterlimit:4;stroke-dasharray:none;stroke-opacity:1"
       id="flowRoot842-2" />
    <g
       aria-label="KAL"
       transform="matrix(0.26458333,0,0,0.26458333,157.98173,254.52123)"
       style="font-style:normal;font-variant:normal;font-weight:normal;font-stretch:normal;font-size:173.33332825px;line-height:24.67000008px;font-family:Samanata;-inkscape-font-specification:Samanata;letter-spacing:0px;word-spacing:0px;fill:none;fill-opacity:1;stroke:#000000;stroke-width:3.77952766;stroke-miterlimit:4;stroke-dasharray:none;stroke-opacity:1"
       id="flowRoot842-3-0" />
    <g
       aria-label="K2"
       transform="matrix(0.26458333,0,0,0.26458333,310.723,206.69029)"
       style="font-style:normal;font-variant:normal;font-weight:normal;font-stretch:normal;font-size:21.33333397px;line-height:24.67000008px;font-family:Samanata;-inkscape-font-specification:Samanata;letter-spacing:0px;word-spacing:0px;fill:none;fill-opacity:1;stroke:#000000;stroke-width:3.77952766;stroke-miterlimit:4;stroke-dasharray:none;stroke-opacity:1"
       id="flowRoot842-1-6" />
    <g
       aria-label="K4"
       transform="matrix(0.26458333,0,0,0.26458333,690.92343,202.66529)"
       style="font-style:normal;font-variant:normal;font-weight:normal;font-stretch:normal;font-size:21.33333397px;line-height:24.67000008px;font-family:Samanata;-inkscape-font-specification:Samanata;letter-spacing:0px;word-spacing:0px;fill:none;fill-opacity:1;stroke:#000000;stroke-width:3.77952766;stroke-miterlimit:4;stroke-dasharray:none;stroke-opacity:1"
       id="flowRoot842-1-9-3-2" />
    <g
       aria-label="K5"
       transform="matrix(0.26458333,0,0,0.26458333,883.35746,199.45806)"
       style="font-style:normal;font-variant:normal;font-weight:normal;font-stretch:normal;font-size:21.33333397px;line-height:24.67000008px;font-family:Samanata;-inkscape-font-specification:Samanata;letter-spacing:0px;word-spacing:0px;fill:none;fill-opacity:1;stroke:#000000;stroke-width:3.77952766;stroke-miterlimit:4;stroke-dasharray:none;stroke-opacity:1"
       id="flowRoot842-1-9-3-0-5" />
    <g
       aria-label="K6"
       transform="matrix(0.26458333,0,0,0.26458333,1069.5763,197.85444)"
       style="font-style:normal;font-variant:normal;font-weight:normal;font-stretch:normal;font-size:21.33333397px;line-height:24.67000008px;font-family:Samanata;-inkscape-font-specification:Samanata;letter-spacing:0px;word-spacing:0px;fill:none;fill-opacity:1;stroke:#000000;stroke-width:3.77952766;stroke-miterlimit:4;stroke-dasharray:none;stroke-opacity:1"
       id="flowRoot842-1-9-3-0-4-1" />
    <g
       aria-label="K7 "
       transform="matrix(0.26458333,0,0,0.26458333,1263.2231,197.2409)"
       style="font-style:normal;font-variant:normal;font-weight:normal;font-stretch:normal;font-size:21.33333397px;line-height:24.67000008px;font-family:Samanata;-inkscape-font-specification:Samanata;letter-spacing:0px;word-spacing:0px;fill:none;fill-opacity:1;stroke:#000000;stroke-width:3.77952766;stroke-miterlimit:4;stroke-dasharray:none;stroke-opacity:1"
       id="flowRoot842-1-9-3-0-4-5-7" />
    <g
       aria-label="K8 "
       transform="matrix(0.26458333,0,0,0.26458333,1462.7945,193.83911)"
       style="font-style:normal;font-variant:normal;font-weight:normal;font-stretch:normal;font-size:21.33333397px;line-height:24.67000008px;font-family:Samanata;-inkscape-font-specification:Samanata;letter-spacing:0px;word-spacing:0px;fill:none;fill-opacity:1;stroke:#000000;stroke-width:3.77952766;stroke-miterlimit:4;stroke-dasharray:none;stroke-opacity:1"
       id="flowRoot842-1-9-3-0-4-7-6" />
    <g
       aria-label="KAL"
       transform="matrix(0.26458333,0,0,0.26458333,348.23899,255.90381)"
       style="font-style:normal;font-variant:normal;font-weight:normal;font-stretch:normal;font-size:173.33332825px;line-height:24.67000008px;font-family:Samanata;-inkscape-font-specification:Samanata;letter-spacing:0px;word-spacing:0px;fill:none;fill-opacity:1;stroke:#000000;stroke-width:3.77952766;stroke-miterlimit:4;stroke-dasharray:none;stroke-opacity:1"
       id="flowRoot842-3-0-1" />
    <g
       aria-label="KAL"
       transform="matrix(0.26458333,0,0,0.26458333,536.59432,255.57956)"
       style="font-style:normal;font-variant:normal;font-weight:normal;font-stretch:normal;font-size:173.33332825px;line-height:24.67000008px;font-family:Samanata;-inkscape-font-specification:Samanata;letter-spacing:0px;word-spacing:0px;fill:none;fill-opacity:1;stroke:#000000;stroke-width:3.77952766;stroke-miterlimit:4;stroke-dasharray:none;stroke-opacity:1"
       id="flowRoot842-3-0-9" />
    <g
       aria-label="KAL"
       transform="matrix(0.26458333,0,0,0.26458333,729.9717,253.17357)"
       style="font-style:normal;font-variant:normal;font-weight:normal;font-stretch:normal;font-size:173.33332825px;line-height:24.67000008px;font-family:Samanata;-inkscape-font-specification:Samanata;letter-spacing:0px;word-spacing:0px;fill:none;fill-opacity:1;stroke:#000000;stroke-width:3.77952766;stroke-miterlimit:4;stroke-dasharray:none;stroke-opacity:1"
       id="flowRoot842-3-0-5" />
    <g
       aria-label="KAL"
       transform="matrix(0.26458333,0,0,0.26458333,922.00684,249.47821)"
       style="font-style:normal;font-variant:normal;font-weight:normal;font-stretch:normal;font-size:173.33332825px;line-height:24.67000008px;font-family:Samanata;-inkscape-font-specification:Samanata;letter-spacing:0px;word-spacing:0px;fill:none;fill-opacity:1;stroke:#000000;stroke-width:3.77952766;stroke-miterlimit:4;stroke-dasharray:none;stroke-opacity:1"
       id="flowRoot842-3-0-56" />
    <g
       aria-label="KAL"
       transform="matrix(0.26458333,0,0,0.26458333,1109.2941,245.69846)"
       style="font-style:normal;font-variant:normal;font-weight:normal;font-stretch:normal;font-size:173.33332825px;line-height:24.67000008px;font-family:Samanata;-inkscape-font-specification:Samanata;letter-spacing:0px;word-spacing:0px;fill:none;fill-opacity:1;stroke:#000000;stroke-width:3.77952766;stroke-miterlimit:4;stroke-dasharray:none;stroke-opacity:1"
       id="flowRoot842-3-0-98" />
    <g
       aria-label="KAL"
       transform="matrix(0.26458333,0,0,0.26458333,1301.9285,245.42276)"
       style="font-style:normal;font-variant:normal;font-weight:normal;font-stretch:normal;font-size:173.33332825px;line-height:24.67000008px;font-family:Samanata;-inkscape-font-specification:Samanata;letter-spacing:0px;word-spacing:0px;fill:none;fill-opacity:1;stroke:#000000;stroke-width:3.77952766;stroke-miterlimit:4;stroke-dasharray:none;stroke-opacity:1"
       id="flowRoot842-3-0-3" />
    <g
       aria-label="KAL"
       transform="matrix(0.06572329,0,0,0.06572329,383.46521,252.57428)"
       style="font-style:normal;font-variant:normal;font-weight:normal;font-stretch:normal;font-size:173.33332825px;line-height:24.67000008px;font-family:Samanata;-inkscape-font-specification:Samanata;letter-spacing:0px;word-spacing:0px;fill:none;fill-opacity:1;stroke:#000000;stroke-width:3.77952766;stroke-miterlimit:4;stroke-dasharray:none;stroke-opacity:1"
       id="flowRoot842-3-0-4">
      <path
         id="path1667"
         style="font-style:normal;font-variant:normal;font-weight:bold;font-stretch:normal;font-size:120px;font-family:Sansation;-inkscape-font-specification:'Sansation Bold';fill:none;fill-opacity:1;stroke:#000000;stroke-width:3.77952766;stroke-miterlimit:4;stroke-dasharray:none;stroke-opacity:1"
         d="m -158.68164,376.28681 v 70.3125 h 33.28125 v 13.47656 h -48.80859 v -83.78906 z m -98.4375,83.78906 h -15.9375 l 35.56641,-83.78906 h 16.69921 l 36.32813,83.78906 h -16.69922 l -9.55078,-22.85156 h -27.83203 l 5.33203,-13.47657 h 16.875 l -13.18359,-31.46484 z m -77.16797,-83.78906 v 83.78906 h -15.52734 v -83.78906 z m 58.94531,0 -35.74218,39.08203 39.49218,44.70703 h -21.5039 l -32.40235,-39.14063 v -10.07812 l 31.17188,-34.57031 z m -644.55824,11.81514 v 70.3125 h 33.28125 v 13.47656 h -48.80859 v -83.78906 z m -98.43746,83.78906 h -15.9375 l 35.56637,-83.78906 h 16.69921 l 36.32813,83.78906 h -16.69922 l -9.55078,-22.85156 h -27.83203 l 5.33203,-13.47657 h 16.875 l -13.18359,-31.46484 z m -77.168,-83.78906 v 83.78906 h -15.5274 v -83.78906 z m 58.9453,0 -35.7422,39.08203 39.4922,44.70703 h -21.5039 l -32.4024,-39.14063 v -10.07812 l 31.1719,-34.57031 z m -611.4069,1.04202 v 70.3125 h 33.2813 v 13.47656 h -48.8086 v -83.78906 z m -98.4375,83.78906 h -15.9375 l 35.5664,-83.78906 h 16.6992 l 36.3282,83.78906 h -16.6992 l -9.5508,-22.85156 h -27.8321 l 5.3321,-13.47657 h 16.875 l -13.1836,-31.46484 z m -77.1679,-83.78906 v 83.78906 h -15.5274 v -83.78906 z m 58.9453,0 -35.7422,39.08203 39.4922,44.70703 h -21.5039 l -32.4024,-39.14063 v -10.07812 l 31.1719,-34.57031 z m -591.1972,14.28567 v 70.3125 h 33.2812 v 13.47656 h -48.8086 v -83.78906 z m -98.4375,83.78906 h -15.9375 l 35.5664,-83.78906 h 16.6992 l 36.3281,83.78906 h -16.6992 l -9.5508,-22.85156 h -27.832 l 5.332,-13.47657 h 16.875 l -13.1836,-31.46484 z m -77.168,-83.78906 v 83.78906 h -15.5274 v -83.78906 z m 58.9453,0 -35.7422,39.08203 39.4922,44.70703 h -21.5039 l -32.4024,-39.14063 v -10.07812 l 31.1719,-34.57031 z m -609.142,13.96671 v 70.3125 h 33.2813 v 13.47656 h -48.8086 v -83.78906 z m -98.4375,83.78906 h -15.9375 l 35.5665,-83.78906 h 16.6992 l 36.3281,83.78906 h -16.6992 l -9.5508,-22.85156 h -27.832 l 5.332,-13.47657 h 16.875 l -13.1836,-31.46484 z m -77.1679,-83.78906 v 83.78906 h -15.5274 v -83.78906 z m 58.9453,0 -35.7422,39.08203 39.4922,44.70703 h -21.5039 l -32.4024,-39.14063 v -10.07812 l 31.1719,-34.57031 z m -614.215,9.09351 v 70.3125 h 33.2812 v 13.47656 h -48.8085 v -83.78906 z m -98.4375,83.78906 h -15.9375 l 35.5664,-83.78906 h 16.6992 l 36.3281,83.78906 h -16.6992 l -9.5508,-22.85156 h -27.832 l 5.332,-13.47657 h 16.875 l -13.1835,-31.46484 z m -77.168,-83.78906 v 83.78906 h -15.5273 v -83.78906 z m 58.9453,0 -35.7421,39.08203 39.4921,44.70703 h -21.5039 l -32.4023,-39.14063 v -10.07812 l 31.1719,-34.57031 z m -595.234,1.22551 v 70.3125 h 33.2813 v 13.47656 h -48.8086 v -83.78906 z m -98.4375,83.78906 h -15.9375 l 35.5664,-83.78906 h 16.6992 l 36.3282,83.78906 h -16.6992 l -9.5508,-22.85156 h -27.8321 l 5.3321,-13.47657 h 16.875 l -13.1836,-31.46484 z m -77.1679,-83.78906 v 83.78906 h -15.5274 v -83.78906 z m 58.9453,0 -35.7422,39.08203 39.4922,44.70703 h -21.5039 l -32.4024,-39.14063 v -10.07812 l 31.1719,-34.57031 z M -256.42961,-68.835591 A 310.00001,310.00001 0 0 0 -564.03138,242.75229 310.00001,310.00001 0 0 0 -253.23818,551.15468 310.00001,310.00001 0 0 0 55.964977,241.15465 v -3.1914 A 310.00001,310.00001 0 0 0 -256.42961,-68.835591 Z m 149.87868,132.617198 c 67.708347,0 101.5627095,23.828145 101.5627095,71.484393 0,29.68751 -11.5234015,50.71613 -34.5705835,63.08591 28.255371,14.06253 42.382867,35.612 42.382867,64.64845 0,56.51043 -35.807245,84.76565 -107.421733,84.76565 -74.21896,0 -111.32825,-28.25522 -111.32825,-84.76565 0,-29.03645 13.80207,-50.58592 41.40623,-64.64845 -22.39559,-12.36978 -33.59357,-33.3984 -33.59357,-63.08591 0,-47.656248 33.85398,-71.484393 101.56233,-71.484393 z m -375.97645,2.734375 h 51.75799 V 345.81287 h -51.75799 z m 184.96101,0 h 63.28101 l -119.14053,130.273438 131.64056,149.02345 h -71.67949 L -401.47276,215.3441 v -33.59372 z m 191.40624,42.968768 c -33.46356,0 -50.19553,10.54685 -50.19553,31.64062 0,24.47917 16.92737,36.71875 50.78136,36.71875 32.552315,0 48.828095,-12.23958 48.828095,-36.71875 0,-21.09377 -16.471182,-31.64062 -49.413925,-31.64062 z m 0,113.28125 c -38.67212,0 -58.00781,13.80208 -58.00781,41.40624 0,25.78125 20.1823,38.67186 60.5469,38.67186 36.458456,0 54.687496,-12.89061 54.687496,-38.67186 0,-27.60416 -19.075654,-41.40624 -57.226586,-41.40624 z M -1010.7167,-55.97813 a 310.00001,310.00001 0 0 0 -307.6018,311.58592 310.00001,310.00001 0 0 0 310.7951,308.40431 310.00001,310.00001 0 0 0 309.20125,-310.00003 v -3.19139 A 310.00001,310.00001 0 0 0 -1010.7167,-55.97813 Z m -226.0959,135.351536 h 51.758 V 358.67029 h -51.758 z m 184.961,0 h 63.28138 l -119.14088,130.273434 131.64054,149.02345 h -71.67954 L -1155.758,228.20153 V 194.6078 Z m 85.54696,0 h 199.21852 v 41.015624 l -125.39036,238.28126 h -56.83616 l 127.344,-234.37501 h -144.336 z M -1742.6094,-53.659805 a 310.00001,310.00001 0 0 0 -307.6017,311.587885 310.00001,310.00001 0 0 0 310.7931,308.40238 310.00001,310.00001 0 0 0 309.2032,-310.00003 v -3.19139 a 310.00001,310.00001 0 0 0 -312.3946,-306.798845 z m 178.7853,126.95316 24.6092,40.429685 c -45.8332,20.96353 -77.3439,46.28904 -94.5313,75.97655 15.7554,-5.59895 31.7707,-8.39845 48.0469,-8.39845 68.2292,0 102.3439,28.64584 102.3439,85.9375 0,63.80209 -36.6538,95.70316 -109.9612,95.70316 -69.9216,0 -104.8826,-36.45834 -104.8826,-109.37503 0,-72.39583 44.7916,-132.48696 134.3751,-180.273415 z m -404.8831,8.398413 h 51.7578 V 360.98865 h -51.7578 z m 184.961,0 h 63.2814 l -119.1405,130.273442 131.6406,149.02344 h -71.6799 l -108.008,-130.46876 v -33.59373 z m 196.289,140.625002 c -20.0519,0 -39.1925,3.12502 -57.4219,9.375 -2.3437,5.20834 -3.5154,12.10938 -3.5154,20.70312 0,46.35417 18.9453,69.53125 56.8358,69.53125 38.1509,0 57.2266,-18.22915 57.2266,-54.6875 0,-29.94792 -17.7082,-44.92187 -53.1251,-44.92187 z m -864.2793,-263.853514 a 310.00001,310.00001 0 0 0 -307.6015,311.585924 310.00001,310.00001 0 0 0 310.7929,308.40238 310.00001,310.00001 0 0 0 309.2031,-309.99806 l -0.019,-3.19144 a 310.00001,310.00001 0 0 0 -312.375,-306.798804 z m -220.789,129.28906 h 51.7578 V 367.0492 h -51.7578 z m 184.9609,0 h 63.2812 l -119.1406,130.273434 131.6406,149.02345 h -71.6796 l -108.0079,-130.46876 v -33.59373 z m 100.1953,0 h 166.7969 v 41.015624 h -122.2656 l -4.6875,68.75002 c 7.4218,-2.86458 18.2291,-4.29691 32.4218,-4.29691 70.3125,0 105.4688,28.64588 105.4688,85.9375 0,59.89588 -36.4584,89.84376 -109.375,89.84376 -26.0417,0 -52.0834,-3.90626 -78.125,-11.71873 v -42.96877 c 26.0416,9.1146 52.7344,13.67188 80.0781,13.67188 37.1094,0 55.6641,-16.27605 55.6641,-48.82814 0,-29.94791 -17.9037,-44.92187 -53.711,-44.92187 -29.2968,0 -56.6406,3.25519 -82.0312,9.76562 z M -3175.006,-29.415648 a 310.00001,310.00001 0 0 0 -307.6017,311.585918 310.00001,310.00001 0 0 0 310.795,308.40431 310.00001,310.00001 0 0 0 309.2012,-309.99999 l -0.015,-3.19143 A 310.00001,310.00001 0 0 0 -3175.006,-29.415648 Z m -224.8301,129.28906 h 51.7578 V 379.1703 h -51.7578 z m 184.9609,0 h 63.2813 l -119.1406,130.273438 131.6406,149.02345 h -71.6797 l -108.0078,-130.46877 v -33.59376 z m 191.9922,0 h 55.4688 l -110.5469,177.734368 h 81.8359 v -93.35936 h 51.7579 v 93.35936 l 28.9062,26.56252 v 14.45314 h -28.9062 v 60.54686 h -51.7579 v -60.54686 h -141.0156 V 279.56092 Z M -3892.2131,-23.3551 a 310.00001,310.00001 0 0 0 -307.6035,311.58788 310.00001,310.00001 0 0 0 310.7949,308.40235 310.00001,310.00001 0 0 0 309.2011,-309.99999 l -0.015,-3.19143 A 310.00001,310.00001 0 0 0 -3892.2131,-23.3551 Z m 135.0117,127.68359 c 69.6614,0 104.4922,25.39064 104.4922,76.17188 0,30.72915 -12.2396,51.888 -36.7188,63.47657 24.4792,11.0677 36.7188,32.22655 36.7188,63.47656 0,53.38541 -34.8308,80.07813 -104.4922,80.07813 -28.6459,0 -55.9896,-3.90625 -82.0313,-11.71876 v -46.87499 c 26.0417,9.11456 53.3854,13.67188 82.0313,13.67188 35.1562,0 52.7343,-13.67188 52.7343,-41.01566 0,-23.4375 -12.5,-35.15623 -37.5,-35.15623 h -67.9687 V 221.516 h 67.3828 c 25.3906,0 38.0859,-11.71877 38.0859,-35.15626 0,-24.73958 -17.5781,-37.10937 -52.7343,-37.10937 -28.6459,0 -55.9896,4.55728 -82.0313,13.67187 v -46.87498 c 26.0417,-7.81251 53.3854,-11.71877 82.0313,-11.71877 z m -352.5391,1.95311 h 51.7578 v 279.29689 h -51.7578 z m 184.9609,0 h 63.2813 l -119.1406,130.27344 131.6406,149.02345 h -71.6797 L -4028.6858,255.10972 V 221.516 Z m -690.2225,-132.259729 a 310.00001,310.00001 0 0 0 -307.6016,311.585919 310.00001,310.00001 0 0 0 310.793,308.40431 310.00001,310.00001 0 0 0 309.203,-310.00003 l -0.019,-3.19139 a 310.00001,310.00001 0 0 0 -312.3756,-306.798809 z m 137.5643,139.111299 c 68.3595,0 102.5392,27.34375 102.5392,82.03124 0,48.17711 -37.3047,99.60938 -111.9142,154.29691 h 111.9142 v 44.92188 h -191.4062 v -39.06252 c 93.0989,-64.71356 139.6484,-116.79688 139.6484,-156.25001 0,-27.34371 -16.9271,-41.01563 -50.7814,-41.01563 -28.6457,0 -55.6639,7.16149 -81.0545,21.48439 v -46.87499 c 25.3906,-13.02085 52.4088,-19.53127 81.0545,-19.53127 z m -359.3749,1.95314 h 51.7578 V 394.3832 h -51.7578 z m 184.9609,0 h 63.2813 l -119.1406,130.27344 131.6406,149.02345 h -71.6797 L -4755.758,263.91443 v -33.59376 z m -591.6266,307.40356 v 70.3125 h 33.2812 v 13.47656 h -48.8086 v -83.78906 z m -98.4375,83.78906 h -15.9375 l 35.5664,-83.78906 h 16.6992 l 36.3281,83.78906 h -16.6992 l -9.5508,-22.85156 h -27.832 l 5.332,-13.47657 h 16.875 l -13.1836,-31.46484 z m -77.168,-83.78906 v 83.78906 h -15.5274 v -83.78906 z m 58.9453,0 -35.7422,39.08203 39.4922,44.70703 h -21.5039 l -32.4024,-39.14063 v -10.07812 l 31.1719,-34.57031 z m 42.279,-458.468025 a 310.00001,310.00001 0 0 0 -307.6016,311.585915 310.00001,310.00001 0 0 0 310.795,308.40432 310.00001,310.00001 0 0 0 309.2012,-309.99999 l -0.015,-3.19144 a 310.00001,310.00001 0 0 0 -312.3794,-306.798805 z m 171.1797,129.49221 V 378.6703 h -51.7578 V 142.14686 h -29.2969 V 120.8578 Z m -351.5625,5.859364 h 51.7578 V 378.6703 h -51.7578 z m 184.9609,0 h 63.2813 l -119.1406,130.273441 131.6406,149.02344 h -71.6797 l -108.0078,-130.46876 v -33.59376 z"
         inkscape:connector-curvature="0" />
    </g>
  </g>
</svg>
