<?xml version="1.0" encoding="UTF-8" standalone="no"?>
<!-- Created with Inkscape (http://www.inkscape.org/) -->

<svg
   xmlns:dc="http://purl.org/dc/elements/1.1/"
   xmlns:cc="http://creativecommons.org/ns#"
   xmlns:rdf="http://www.w3.org/1999/02/22-rdf-syntax-ns#"
   xmlns:svg="http://www.w3.org/2000/svg"
   xmlns="http://www.w3.org/2000/svg"
   xmlns:sodipodi="http://sodipodi.sourceforge.net/DTD/sodipodi-0.dtd"
   xmlns:inkscape="http://www.inkscape.org/namespaces/inkscape"
   width="148mm"
   height="25mm"
   viewBox="0 0 148 25"
   version="1.1"
   id="svg8"
   inkscape:version="0.92.5 (2060ec1f9f, 2020-04-08)"
   sodipodi:docname="stickers_kosmos_name.svg">
  <defs
     id="defs2" />
  <sodipodi:namedview
     id="base"
     pagecolor="#ffffff"
     bordercolor="#666666"
     borderopacity="1.0"
     inkscape:pageopacity="0.0"
     inkscape:pageshadow="2"
     inkscape:zoom="1.4"
     inkscape:cx="305.19592"
     inkscape:cy="158.92068"
     inkscape:document-units="mm"
     inkscape:current-layer="layer1"
     showgrid="false"
     inkscape:window-width="1872"
     inkscape:window-height="1016"
     inkscape:window-x="48"
     inkscape:window-y="27"
     inkscape:window-maximized="1" />
  <metadata
     id="metadata5">
    <rdf:RDF>
      <cc:Work
         rdf:about="">
        <dc:format>image/svg+xml</dc:format>
        <dc:type
           rdf:resource="http://purl.org/dc/dcmitype/StillImage" />
        <dc:title></dc:title>
      </cc:Work>
    </rdf:RDF>
  </metadata>
  <g
     inkscape:label="Calque 1"
     inkscape:groupmode="layer"
     id="layer1"
     transform="translate(0,-272)">
    <g
       aria-label="KOSMOS"
       transform="matrix(0.26458333,0,0,0.26458333,-5.2592414,257.09355)"
       style="font-style:normal;font-variant:normal;font-weight:normal;font-stretch:normal;font-size:21.33333397px;line-height:24.67000008px;font-family:Samanata;-inkscape-font-specification:Samanata;letter-spacing:0px;word-spacing:0px;fill:#000000;fill-opacity:1;stroke:none"
       id="flowRoot815">
      <path
         d="m 49.757812,74.0418 v 67.03125 H 37.335937 V 74.0418 Z m 47.15625,0 -28.59375,31.26562 31.59375,35.76563 H 82.710937 l -25.921875,-31.3125 v -8.0625 l 24.9375,-27.65625 z"
         style="font-style:normal;font-variant:normal;font-weight:bold;font-stretch:normal;font-size:96px;font-family:Sansation;-inkscape-font-specification:'Sansation Bold'"
         id="path936" />
      <path
         d="m 115.14844,107.36992 q 0,23.39063 20.76562,23.39063 20.25,0 20.25,-23.39063 0,-23.01562 -20.25,-23.01562 -20.76562,0 -20.76562,23.01562 z m -12.89063,0.28125 q 0,-34.07812 33.65625,-34.07812 33.14063,0 33.14063,34.07812 0,33.89063 -33.14063,33.89063 -32.15625,0 -33.65625,-33.89063 z"
         style="font-style:normal;font-variant:normal;font-weight:bold;font-stretch:normal;font-size:96px;font-family:Sansation;-inkscape-font-specification:'Sansation Bold'"
         id="path938" />
      <path
         d="m 179.60156,138.26055 v -11.25 q 10.07813,3.75 22.78125,3.75 15.42188,0 15.42188,-10.3125 0,-7.5 -9.46875,-7.5 h -10.5 q -20.57813,0 -20.57813,-18.75 0,-20.625 29.29688,-20.625 11.25,0 21.32812,3.28125 v 11.25 q -10.07812,-3.75 -21.32812,-3.75 -16.875,0 -16.875,9.84375 0,7.5 8.15625,7.5 h 10.5 q 21.89062,0 21.89062,18.75 0,21.09375 -27.84375,21.09375 -12.70312,0 -22.78125,-3.28125 z"
         style="font-style:normal;font-variant:normal;font-weight:bold;font-stretch:normal;font-size:96px;font-family:Sansation;-inkscape-font-specification:'Sansation Bold'"
         id="path940" />
      <path
         d="M 240.77344,141.07305 V 74.0418 h 12.89062 l 22.73438,50.85937 22.26562,-50.85937 h 12.42188 v 67.03125 h -11.48438 v -46.6875 l -18.1875,46.6875 h -10.59375 l -18.5625,-46.6875 v 46.6875 z"
         style="font-style:normal;font-variant:normal;font-weight:bold;font-stretch:normal;font-size:96px;font-family:Sansation;-inkscape-font-specification:'Sansation Bold'"
         id="path942" />
      <path
         d="m 335.69531,107.36992 q 0,23.39063 20.76563,23.39063 20.25,0 20.25,-23.39063 0,-23.01562 -20.25,-23.01562 -20.76563,0 -20.76563,23.01562 z m -12.89062,0.28125 q 0,-34.07812 33.65625,-34.07812 33.14062,0 33.14062,34.07812 0,33.89063 -33.14062,33.89063 -32.15625,0 -33.65625,-33.89063 z"
         style="font-style:normal;font-variant:normal;font-weight:bold;font-stretch:normal;font-size:96px;font-family:Sansation;-inkscape-font-specification:'Sansation Bold'"
         id="path944" />
      <path
         d="m 400.14844,138.26055 v -11.25 q 10.07812,3.75 22.78125,3.75 15.42187,0 15.42187,-10.3125 0,-7.5 -9.46875,-7.5 h -10.5 q -20.57812,0 -20.57812,-18.75 0,-20.625 29.29687,-20.625 11.25,0 21.32813,3.28125 v 11.25 q -10.07813,-3.75 -21.32813,-3.75 -16.875,0 -16.875,9.84375 0,7.5 8.15625,7.5 h 10.5 q 21.89063,0 21.89063,18.75 0,21.09375 -27.84375,21.09375 -12.70313,0 -22.78125,-3.28125 z"
         style="font-style:normal;font-variant:normal;font-weight:bold;font-stretch:normal;font-size:96px;font-family:Sansation;-inkscape-font-specification:'Sansation Bold'"
         id="path946" />
    </g>
    <flowRoot
       xml:space="preserve"
       id="flowRoot823"
       style="font-style:normal;font-variant:normal;font-weight:normal;font-stretch:normal;font-size:21.33333397px;line-height:24.67000008px;font-family:Samanata;-inkscape-font-specification:Samanata;letter-spacing:0px;word-spacing:0px;fill:#000000;fill-opacity:1;stroke:none"
       transform="scale(0.26458333)"><flowRegion
         id="flowRegion825"><rect
           id="rect827"
           width="154.28572"
           height="37.142857"
           x="23.928572"
           y="92.698257" /></flowRegion><flowPara
         id="flowPara829"></flowPara></flowRoot>    <g
       aria-label="3.0"
       transform="matrix(0.26458333,0,0,0.26458333,114.8512,260.26163)"
       style="font-style:normal;font-variant:normal;font-weight:normal;font-stretch:normal;font-size:21.33333397px;line-height:24.67000008px;font-family:Samanata;-inkscape-font-specification:Samanata;letter-spacing:0px;word-spacing:0px;fill:#000000;fill-opacity:1;stroke:none"
       id="flowRoot815-3">
      <path
         d="m 32.908854,93.370026 q 5.208334,-1.5625 10.416667,-1.5625 13.411459,0 13.411459,10.156254 0,6.14583 -4.895833,8.46354 4.895833,2.21354 4.895833,8.46354 0,10.67708 -13.411459,10.67708 -5.208333,0 -10.416667,-1.5625 v -4.16666 q 5.208334,1.82291 10.416667,1.82291 8.593751,0 8.593751,-6.77083 0,-6.51042 -6.5625,-6.51042 h -8.541668 v -3.90625 h 8.463543 q 6.640625,0 6.640625,-6.51041 0,-6.250004 -8.593751,-6.250004 -5.208333,0 -10.416667,1.822917 z"
         style="font-style:normal;font-variant:normal;font-weight:normal;font-stretch:normal;font-size:53.33333588px;font-family:Sansation;-inkscape-font-specification:Sansation"
         id="path929" />
      <path
         d="m 67.674481,124.48982 v 4.81771 h -4.817709 v -4.81771 z"
         style="font-style:normal;font-variant:normal;font-weight:normal;font-stretch:normal;font-size:53.33333588px;font-family:Sansation;-inkscape-font-specification:Sansation"
         id="path931" />
      <path
         d="m 78.221357,110.58357 q 0,15.07812 11.015626,15.07812 10.729167,0 10.729167,-15.07812 0,-14.869794 -10.729167,-14.869794 -11.015626,0 -11.015626,14.869794 z m -5.078125,0.15625 q 0,-18.932294 16.093751,-18.932294 15.807297,0 15.807297,18.932294 0,18.82812 -15.807297,18.82812 -16.093751,0 -16.093751,-18.82812 z"
         style="font-style:normal;font-variant:normal;font-weight:normal;font-stretch:normal;font-size:53.33333588px;font-family:Sansation;-inkscape-font-specification:Sansation"
         id="path933" />
    </g>
  </g>
</svg>
