<?xml version="1.0" encoding="UTF-8" standalone="no"?>
<!-- Created with Inkscape (http://www.inkscape.org/) -->

<svg
   xmlns:dc="http://purl.org/dc/elements/1.1/"
   xmlns:cc="http://creativecommons.org/ns#"
   xmlns:rdf="http://www.w3.org/1999/02/22-rdf-syntax-ns#"
   xmlns:svg="http://www.w3.org/2000/svg"
   xmlns="http://www.w3.org/2000/svg"
   xmlns:sodipodi="http://sodipodi.sourceforge.net/DTD/sodipodi-0.dtd"
   xmlns:inkscape="http://www.inkscape.org/namespaces/inkscape"
   width="110mm"
   height="75mm"
   viewBox="0 0 110 75"
   version="1.1"
   id="svg976"
   inkscape:version="0.92.5 (2060ec1f9f, 2020-04-08)"
   sodipodi:docname="stickers_kosmos_logo.svg">
  <defs
     id="defs970" />
  <sodipodi:namedview
     id="base"
     pagecolor="#ffffff"
     bordercolor="#666666"
     borderopacity="1.0"
     inkscape:pageopacity="0.0"
     inkscape:pageshadow="2"
     inkscape:zoom="1.979899"
     inkscape:cx="160.30566"
     inkscape:cy="131.88466"
     inkscape:document-units="mm"
     inkscape:current-layer="layer1"
     showgrid="false"
     inkscape:window-width="1872"
     inkscape:window-height="1016"
     inkscape:window-x="48"
     inkscape:window-y="27"
     inkscape:window-maximized="1" />
  <metadata
     id="metadata973">
    <rdf:RDF>
      <cc:Work
         rdf:about="">
        <dc:format>image/svg+xml</dc:format>
        <dc:type
           rdf:resource="http://purl.org/dc/dcmitype/StillImage" />
        <dc:title />
      </cc:Work>
    </rdf:RDF>
  </metadata>
  <g
     inkscape:label="Calque 1"
     inkscape:groupmode="layer"
     id="layer1"
     transform="translate(0,-222)">
    <path
       style="fill:#000b00;fill-opacity:1;stroke:none;stroke-width:0.5;stroke-linecap:butt;stroke-linejoin:miter;stroke-miterlimit:4;stroke-dasharray:none;stroke-opacity:1"
       d="m 59.673417,225.82119 c -1.204544,-0.0194 -2.412095,1.76242 1.723409,2.90577 4.26235,1.17841 4.809728,4.78194 4.170288,6.11642 -0.433215,0.9041 -0.086,2.44293 0.390673,3.80184 0.09442,-1e-5 0.188857,-0.003 0.283189,0 0.591288,0.016 1.179941,0.084 1.763199,0.19223 -0.534238,-0.80846 -1.136584,-2.35444 0.371036,-4.07727 3.45326,-3.94619 -6.346767,-7.82418 -8.201565,-8.81342 -0.156387,-0.0834 -0.328152,-0.1228 -0.500229,-0.12557 z m 8.330758,13.01626 c 0.248283,0.37573 0.48214,0.59325 0.48214,0.59325 0,0 1.251185,1.52913 0.305924,3.47524 -0.686099,1.5755 1.251609,1.68554 1.62936,2.97139 1.149578,-0.5052 2.237563,-1.14751 3.22616,-1.92288 0.838978,0.79903 1.957647,1.3185 3.076297,1.51825 0.479409,-2.23728 0.599379,-4.51459 0.359667,-6.79183 -1.158587,0.75908 -2.157209,1.71804 -2.996198,2.79673 l -0.0801,-0.0398 c -1.811944,-1.23541 -3.869381,-2.20421 -6.003251,-2.60036 z m 2.417424,7.03988 c -0.673327,0.2959 -1.367663,0.54414 -2.07636,0.74363 -0.04752,0.38448 -0.193696,0.76149 -0.387056,1.0945 -0.315947,0.54413 -0.542306,1.36561 -0.464056,2.14199 0.626621,-0.46405 1.325499,-0.82748 2.067576,-1.06143 0.249219,-0.98044 0.951103,-1.71252 0.926558,-2.52595 -0.0043,-0.14403 -0.03113,-0.27178 -0.06666,-0.39274 z m -0.859896,2.91869 c -0.180295,0.70928 -0.125388,1.5478 0.620633,2.64531 1.801202,2.64986 -0.1388,2.8631 0.194821,5.14284 0.04109,0.28077 0.104825,0.55152 0.184483,0.81029 0.624541,-0.006 1.247648,-0.0504 1.866554,-0.1664 1.917671,-0.31961 3.795392,-1.31808 4.754231,-3.03599 0.19975,-0.39952 0.359511,-0.79921 0.39946,-1.23869 0.04,-0.95882 -0.479417,-1.79767 -1.158586,-2.47685 -1.55811,-1.55811 -3.875675,-2.27744 -6.073013,-1.87792 -0.267039,0.0495 -0.530257,0.11596 -0.788583,0.19741 z m 0.999937,8.59844 c -0.858657,0.008 -1.719844,-0.063 -2.577102,-0.16123 0.04274,0.70007 0.292706,1.35081 0.679545,1.89239 0.78635,1.10089 2.122972,1.88711 0.628901,4.7966 -1.49407,2.90951 -0.864547,5.19039 -0.864547,5.19039 l 2.594676,0.70745 c -1.244282,-5.08567 0.549117,-5.92369 1.605585,-7.17476 0.91745,-1.00086 -0.111104,-2.16886 -0.111104,-2.16886 0,0 -1.388806,-1.2397 -1.955954,-3.08198 z m -2.577102,-0.16123 c -0.04414,-0.72301 0.132641,-1.49862 0.612883,-2.26136 0.945259,-1.50129 0.194916,-2.89131 -0.611333,-3.86437 -0.297225,-0.35871 -0.446267,-0.79671 -0.491961,-1.25005 -0.917535,0.6795 -1.678424,1.57634 -2.177642,2.61638 0.47942,-1.2385 -0.119499,-2.7162 -1.11828,-3.59513 -0.998789,-0.87893 -2.317554,-1.3187 -3.635952,-1.59835 -1.800389,-0.38409 -3.643789,-0.56442 -5.478737,-0.53589 -0.04244,0.11949 -0.07651,0.22519 -0.123505,0.35192 -1.238798,3.34021 5.643806,5.42388 4.975405,8.76587 -0.668391,3.34199 -1.375995,4.08917 -3.852995,6.88072 -2.476389,2.79086 -2.608472,5.66011 -0.84129,8.74107 1.883068,-0.14529 3.755434,-0.35977 5.600692,-0.7519 1.677958,-0.35955 3.436278,-0.91919 4.514969,-2.23759 1.198549,-1.4782 1.278474,-3.59568 1.278474,-5.51335 v -5.91282 c 0.447847,0.056 0.898089,0.11317 1.349272,0.16485 z m -12.743407,14.25081 0.001,0.002 c -2.64e-4,-5.3e-4 -7.93e-4,-10e-4 -0.0011,-0.002 z m -0.157615,-24.73956 c 1.741889,-4.90475 -0.230138,-3.86511 3.94808,-8.02431 1.03913,-0.87332 -0.25205,-2.22608 -1.624189,-0.84595 -3.495842,4.32278 -1.862352,4.00721 -3.790985,7.8512 -0.146984,0.3965 -0.245279,0.76566 -0.303339,1.11208 0.588039,-0.0533 1.178835,-0.0838 1.770433,-0.093 z m -1.770433,0.093 c -0.623562,0.0565 -1.244317,0.13671 -1.859836,0.2434 -0.159806,3.55568 -0.399161,7.19087 -1.757516,10.50685 -1.598057,3.91524 -4.794472,7.11152 -8.669753,8.82943 -3.875296,1.71792 -8.349673,1.95751 -12.384775,0.79892 -2.357138,-0.67918 -4.554688,-1.79769 -6.632151,-3.11609 -1.677967,-1.03874 -3.355872,-2.23736 -4.514454,-3.83542 -2.157383,-2.99637 -2.237417,-7.03147 -1.638143,-10.66705 0.799028,-4.71428 2.956626,-9.66822 7.27139,-11.70575 2.117428,-0.99878 4.514278,-1.19857 6.871414,-1.27847 2.516947,-0.0799 5.034338,-0.12008 7.471381,0.43925 2.437029,0.55932 4.793959,1.75827 6.352066,3.75584 0.439468,0.55932 0.799251,1.15853 1.358572,1.55804 0.759079,0.55933 1.757439,0.71914 2.676324,0.63924 5.872871,-0.39951 9.22914,-7.1913 14.82235,-8.98911 -1.438249,-0.0799 -2.836932,-0.1599 -4.275191,-0.23978 -2.097701,0.0121 -4.673401,0.20624 -6.551538,0.23978 -0.519372,0 -1.038998,-2.4e-4 -1.478463,-0.19999 -1.238498,-0.59928 -1.278199,-2.31713 -2.117182,-3.35587 -0.878933,-1.07869 -2.477431,-1.2382 -3.875733,-1.35806 -0.584293,-0.03 -1.179375,-0.0658 -1.775603,-0.0754 -0.993717,-0.016 -1.989473,0.04 -2.938322,0.31471 -1.518158,0.43947 -2.956388,1.43842 -3.475757,2.91661 -0.199758,0.55932 -0.279866,1.19884 -0.719336,1.59836 -0.359561,0.31961 -0.838849,0.35935 -1.318266,0.43925 -7.830494,0.87894 -15.660933,1.27863 -23.531379,1.23868 -1.5181585,0 -3.156551,0.0399 -4.2751908,1.0387 -1.038741,0.91888 -1.2783503,2.43676 -1.438156,3.79511 -0.9188846,7.47094 -1.0787406,14.9818 -0.7591266,22.49269 0.1198536,2.47699 0.3597672,5.11394 1.8779225,7.03161 0.5057352,0.63653 1.100201,1.16909 1.7663001,1.57717 -0.1174591,-0.38348 -0.3700277,-1.27729 -0.4020423,-1.97094 -0.041701,-0.55603 -0.1388506,-1.34847 0.319876,-2.93316 0.4587293,-1.5847 0.9567254,-2.33261 1.8572506,-3.31194 0.3939487,-0.42842 0.7442015,-1.10404 0.3420983,-2.7001 0,0 -0.1043913,-1.50018 -1.1301624,-3.35793 -0.3352509,-0.60716 -0.9347385,-1.73576 0.014473,-2.83549 0.5560193,-0.66724 0.9451605,-1.11207 0.9451605,-1.11207 0.5813131,-0.53275 1.8113791,-0.24027 1.3900971,0.58342 0,0 -0.660911,0.63231 -0.83406,1.36271 -0.196588,0.82928 -0.207997,1.19403 0.444934,2.83549 0.391287,0.98369 0.665356,1.46925 0.881602,2.79621 0.216234,1.32697 0.11601,2.50369 -0.581876,3.45715 -0.706144,0.96473 -2.0126909,1.09029 -2.1109836,3.04633 -0.09829,1.95605 1.1399806,4.49998 1.1399806,4.49998 l 0.340548,0.66973 c 0.893085,0.22403 1.833555,0.35244 2.783811,0.42581 -0.0064,-0.005 -1.007605,-0.77973 -0.932244,-2.75125 0.07452,-1.94965 2.063785,-3.26342 2.221053,-6.01565 0.157271,-2.75223 -0.491876,-3.86782 -1.179256,-6.05493 -0.432493,-1.37611 -0.957738,-2.14272 -0.471805,-3.93154 0.757957,-2.79024 0.0013,-5.38852 -0.213423,-6.53862 -0.214887,-1.15009 -1.005311,-3.31058 -2.224154,-4.07727 -3.2225689,-2.0271 -1.4552078,-3.42047 -1.4552078,-3.42047 0,0 0.5312463,-0.82601 1.4552078,-0.15761 0.629079,0.55044 1.297453,1.02261 2.359028,2.94917 2.162463,3.57789 1.718241,4.92012 1.718241,4.92012 0,0 0.382622,2.4225 0.186036,5.7645 -0.194156,3.30071 0.452763,4.94464 1.31775,6.59598 0.864984,1.65134 1.281327,3.97348 0.101801,6.25388 -1.179526,2.28042 -0.532289,2.06085 -0.51263,3.47628 0.01966,1.41543 1.378212,3.05873 1.378212,3.05873 5.650336,-0.0913 25.761531,-0.86144 34.149852,-1.26607 0.404328,-0.0197 0.808162,-0.0424 1.212329,-0.0631 -0.0066,-0.0174 -1.693847,-4.46726 -0.223242,-6.79803 1.473488,-2.33534 6.199991,-5.96309 4.671033,-11.14868 -0.689242,-2.33758 -4.006606,-3.50936 -3.441134,-6.8833 z m -1.006658,24.83001 c 1.3e-5,3e-5 0.0011,0.003 0.0011,0.003 l -0.001,-0.003 z m 16.038814,-25.04653 c 0.07547,-0.61058 -0.100179,-1.23989 -0.748273,-1.74098 -1.011981,-0.78245 -0.361736,-2.64119 -0.361736,-2.64119 0,0 0.166809,-0.33353 -0.278019,-1.22318 -0.234677,-0.48109 -0.651319,-1.37803 -0.999424,-2.37039 -0.299445,1e-5 -0.599223,0.009 -0.899168,0.0357 -3.156172,0.27966 -6.312561,2.27757 -7.271393,5.31389 -0.159808,0.51937 -0.239879,1.15837 0.03979,1.59783 0.239707,0.39952 0.719283,0.59933 1.118793,0.75913 2.999076,1.08164 6.330532,1.13309 9.399426,0.26924 z m -7.721491,-4.58422 h 0.119888 c 0.559321,0 0.958955,0.43958 0.998905,0.99891 0.04,0.55931 -0.479534,0.9989 -0.998905,0.9989 h -0.119888 c -0.559322,0 -0.958956,-0.47954 -0.998906,-0.9989 -0.04,-0.55933 0.479534,-0.99891 0.998906,-0.99891 z m 14.182595,10.30738 c 1.278451,0 1.278451,1.99781 0,1.99781 -1.278448,0 -1.278448,-1.99781 0,-1.99781 z"
       id="path864"
       inkscape:connector-curvature="0"
       sodipodi:nodetypes="ccsccccccccccccccccccccccccccccccccccccccccccccccccccccccscccsccccccccccccccccsccccccccccccccccscccccccccccscccccccsccccccccsccsccccsccscccsccccccccccccccccccsscsscssss" />
    <g
       transform="matrix(0.39951507,0,0,0.39951507,-169.1403,186.16747)"
       id="g1193-7-3-9-7"
       style="fill:#000b00;fill-opacity:1;stroke:none;stroke-opacity:1;stroke-width:1.25151725;stroke-miterlimit:4;stroke-dasharray:none"
       inkscape:export-xdpi="104.87373"
       inkscape:export-ydpi="104.87373">
      <path
         inkscape:connector-curvature="0"
         d="m 575.3,142.5 c 0.1,0 0.2,0 0.3,0"
         id="path1187-0-6-2-2"
         style="fill:#000b00;fill-opacity:1;stroke:none;stroke-opacity:1;stroke-width:1.25151725;stroke-miterlimit:4;stroke-dasharray:none" />
      <g
         id="g1191-9-7-2-7"
         style="fill:#000b00;fill-opacity:1;stroke:none;stroke-opacity:1;stroke-width:1.25151725;stroke-miterlimit:4;stroke-dasharray:none" />
    </g>
    <g
       transform="matrix(2.3955353,0,0,0.0451865,-1455.8453,240.22333)"
       id="g1201-6-5-8-2"
       style="fill:#000b00;fill-opacity:1;stroke:none;stroke-opacity:1;stroke-width:1.51972275;stroke-miterlimit:4;stroke-dasharray:none"
       inkscape:export-xdpi="104.87373"
       inkscape:export-ydpi="104.87373">
      <path
         inkscape:connector-curvature="0"
         d="m 644.7,153 c -0.1,0 -0.1,0.2 0,0.2"
         id="path1195-0-3-9-2"
         style="fill:#000b00;fill-opacity:1;stroke:none;stroke-opacity:1;stroke-width:1.51972275;stroke-miterlimit:4;stroke-dasharray:none" />
      <g
         id="g1199-6-5-7-6"
         style="fill:#000b00;fill-opacity:1;stroke:none;stroke-opacity:1;stroke-width:1.51972275;stroke-miterlimit:4;stroke-dasharray:none" />
    </g>
    <g
       transform="matrix(0.39951507,0,0,0.39951507,-169.1403,186.16747)"
       id="g1209-6-6-3-1"
       style="fill:#000b00;fill-opacity:1;stroke:none;stroke-opacity:1;stroke-width:1.25151725;stroke-miterlimit:4;stroke-dasharray:none"
       inkscape:export-xdpi="104.87373"
       inkscape:export-ydpi="104.87373">
      <path
         inkscape:connector-curvature="0"
         d="M 610.8,168.3"
         id="path1203-1-2-6-0"
         style="fill:#000b00;fill-opacity:1;stroke:none;stroke-opacity:1;stroke-width:1.25151725;stroke-miterlimit:4;stroke-dasharray:none" />
      <g
         id="g1207-8-9-1-6"
         style="fill:#000b00;fill-opacity:1;stroke:none;stroke-opacity:1;stroke-width:1.25151725;stroke-miterlimit:4;stroke-dasharray:none" />
    </g>
    <g
       transform="matrix(0.39951507,0,0,0.39951507,-169.1403,186.16747)"
       id="g1217-9-1-2-1"
       style="fill:#000b00;fill-opacity:1;stroke:none;stroke-opacity:1;stroke-width:1.25151725;stroke-miterlimit:4;stroke-dasharray:none"
       inkscape:export-xdpi="104.87373"
       inkscape:export-ydpi="104.87373">
      <path
         inkscape:connector-curvature="0"
         d="M 635.2,173.9"
         id="path1211-2-2-9-5"
         style="fill:#000b00;fill-opacity:1;stroke:none;stroke-opacity:1;stroke-width:1.25151725;stroke-miterlimit:4;stroke-dasharray:none" />
      <g
         id="g1215-0-7-3-9"
         style="fill:#000b00;fill-opacity:1;stroke:none;stroke-opacity:1;stroke-width:1.25151725;stroke-miterlimit:4;stroke-dasharray:none" />
    </g>
    <g
       transform="matrix(0.39951507,0,0,0.39951507,-169.1403,186.16747)"
       id="g1225-3-0-1-4"
       style="fill:#000b00;fill-opacity:1;stroke:none;stroke-opacity:1;stroke-width:1.25151725;stroke-miterlimit:4;stroke-dasharray:none"
       inkscape:export-xdpi="104.87373"
       inkscape:export-ydpi="104.87373">
      <path
         inkscape:connector-curvature="0"
         d="M 652.9,193.5"
         id="path1219-7-9-9-9"
         style="fill:#000b00;fill-opacity:1;stroke:none;stroke-opacity:1;stroke-width:1.25151725;stroke-miterlimit:4;stroke-dasharray:none" />
      <g
         id="g1223-5-3-4-0"
         style="fill:#000b00;fill-opacity:1;stroke:none;stroke-opacity:1;stroke-width:1.25151725;stroke-miterlimit:4;stroke-dasharray:none" />
    </g>
    <g
       aria-label="KOSMOS"
       transform="matrix(0.26003306,0,0,0.26921322,-127.25388,221.87023)"
       style="font-style:normal;font-variant:normal;font-weight:bold;font-stretch:normal;font-size:89.87147522px;font-family:sansation;-inkscape-font-specification:'sansation Bold';fill:#000b00;fill-opacity:1;stroke-width:1.88976382;stroke:none;stroke-opacity:1;stroke-miterlimit:4;stroke-dasharray:none"
       id="text1229-2-6-7-9">
      <path
         inkscape:connector-curvature="0"
         d="m 523.11632,201.02263 v 62.75206 h -11.62888 v -62.75206 z m 44.14585,0 -26.76836,29.26967 29.57685,33.48239 h -16.1049 L 529.6987,234.46114 v -7.5478 l 23.34552,-25.89071 z"
         style="font-style:normal;font-variant:normal;font-weight:bold;font-stretch:normal;font-family:sansation;-inkscape-font-specification:'sansation Bold';fill:#000b00;stroke:none;stroke-opacity:1;stroke-width:1.88976382;stroke-miterlimit:4;stroke-dasharray:none;fill-opacity:1"
         id="path4913" />
      <path
         inkscape:connector-curvature="0"
         d="m 584.33249,232.22313 q 0,21.8974 19.43997,21.8974 18.95727,0 18.95727,-21.8974 0,-21.54633 -18.95727,-21.54633 -19.43997,0 -19.43997,21.54633 z m -12.0677,0.2633 q 0,-31.90262 31.50767,-31.90262 31.02497,0 31.02497,31.90262 0,31.72708 -31.02497,31.72708 -30.10343,0 -31.50767,-31.72708 z"
         style="font-style:normal;font-variant:normal;font-weight:bold;font-stretch:normal;font-family:sansation;-inkscape-font-specification:'sansation Bold';fill:#000b00;stroke:none;stroke-opacity:1;stroke-width:1.88976382;stroke-miterlimit:4;stroke-dasharray:none;fill-opacity:1"
         id="path4915" />
      <path
         inkscape:connector-curvature="0"
         d="m 644.671,261.14174 v -10.53182 q 9.43475,3.51061 21.32693,3.51061 14.43736,0 14.43736,-9.65417 0,-7.02121 -8.86428,-7.02121 h -9.82969 q -19.26444,0 -19.26444,-17.55302 0,-19.30832 27.42659,-19.30832 10.53182,0 19.96657,3.07178 v 10.53181 q -9.43475,-3.5106 -19.96657,-3.5106 -15.79772,0 -15.79772,9.21533 0,7.02121 7.63557,7.02121 h 9.82969 q 20.49315,0 20.49315,17.55302 0,19.74715 -26.06623,19.74715 -11.89218,0 -21.32693,-3.07177 z"
         style="font-style:normal;font-variant:normal;font-weight:bold;font-stretch:normal;font-family:sansation;-inkscape-font-specification:'sansation Bold';fill:#000b00;stroke:none;stroke-opacity:1;stroke-width:1.88976382;stroke-miterlimit:4;stroke-dasharray:none;fill-opacity:1"
         id="path4917" />
      <path
         inkscape:connector-curvature="0"
         d="m 701.93773,263.77469 v -62.75206 h 12.0677 l 21.28304,47.61258 20.84422,-47.61258 h 11.62887 v 62.75206 h -10.75122 v -43.70703 l -17.02643,43.70703 h -9.91746 l -17.37749,-43.70703 v 43.70703 z"
         style="font-style:normal;font-variant:normal;font-weight:bold;font-stretch:normal;font-family:sansation;-inkscape-font-specification:'sansation Bold';fill:#000b00;stroke:none;stroke-opacity:1;stroke-width:1.88976382;stroke-miterlimit:4;stroke-dasharray:none;fill-opacity:1"
         id="path4919" />
      <path
         inkscape:connector-curvature="0"
         d="m 790.79992,232.22313 q 0,21.8974 19.43997,21.8974 18.95727,0 18.95727,-21.8974 0,-21.54633 -18.95727,-21.54633 -19.43997,0 -19.43997,21.54633 z m -12.0677,0.2633 q 0,-31.90262 31.50767,-31.90262 31.02497,0 31.02497,31.90262 0,31.72708 -31.02497,31.72708 -30.10343,0 -31.50767,-31.72708 z"
         style="font-style:normal;font-variant:normal;font-weight:bold;font-stretch:normal;font-family:sansation;-inkscape-font-specification:'sansation Bold';fill:#000b00;stroke:none;stroke-opacity:1;stroke-width:1.88976382;stroke-miterlimit:4;stroke-dasharray:none;fill-opacity:1"
         id="path4921" />
      <path
         inkscape:connector-curvature="0"
         d="m 851.13843,261.14174 v -10.53182 q 9.43475,3.51061 21.32692,3.51061 14.43736,0 14.43736,-9.65417 0,-7.02121 -8.86428,-7.02121 h -9.82969 q -19.26444,0 -19.26444,-17.55302 0,-19.30832 27.4266,-19.30832 10.53181,0 19.96656,3.07178 v 10.53181 q -9.43475,-3.5106 -19.96656,-3.5106 -15.79772,0 -15.79772,9.21533 0,7.02121 7.63556,7.02121 h 9.82969 q 20.49316,0 20.49316,17.55302 0,19.74715 -26.06624,19.74715 -11.89217,0 -21.32692,-3.07177 z"
         style="font-style:normal;font-variant:normal;font-weight:bold;font-stretch:normal;font-family:sansation;-inkscape-font-specification:'sansation Bold';fill:#000b00;stroke:none;stroke-opacity:1;stroke-width:1.88976382;stroke-miterlimit:4;stroke-dasharray:none;fill-opacity:1"
         id="path4923" />
    </g>
    <path
       style="fill:#000b00;fill-opacity:1;stroke:none;stroke-width:0.5;stroke-linecap:butt;stroke-linejoin:miter;stroke-miterlimit:4;stroke-dasharray:none;stroke-opacity:1"
       d="m 90.696329,231.56709 c -0.782641,0.0919 -1.476521,2.35219 -1.441773,3.36001 0.03611,1.04739 -0.889995,2.08473 -3.280937,1.97352 -2.390949,-0.11121 -3.225125,0.30592 -3.225125,0.30592 0,0 -3.141501,1.75175 -1.362191,4.64313 1.201142,1.95186 1.267044,3.39564 1.012859,4.55631 0.547092,-0.34852 1.140635,-0.6155 1.759582,-0.80098 0.01416,-0.25698 -0.0037,-0.49304 -0.07545,-0.69712 -0.815629,-2.31812 -1.223127,-5.00215 1.000974,-5.03225 2.057329,-0.0278 7.769598,-0.89191 6.977867,-5.39347 -0.394819,-2.24482 -0.896223,-2.97022 -1.365808,-2.91507 z M 84.158744,245.605 c -0.07437,1.35089 -1.111792,3.32151 -0.805119,4.76921 0.38349,0.16943 0.782484,0.29179 1.20096,0.33228 0.63922,0.0799 1.278641,-0.0801 1.877922,-0.19998 1.79781,-0.43946 3.67573,-1.07839 4.834329,-2.51665 0.119851,-0.11984 0.199472,-0.27996 0.199472,-0.43976 0,-0.23971 -0.199858,-0.43913 -0.359669,-0.59893 -1.258467,-1.05872 -2.886427,-1.61852 -4.529439,-1.66347 -0.81706,-0.0223 -1.637596,0.0833 -2.418456,0.3173 z m -0.805119,4.76921 c -0.656214,-0.28992 -1.263189,-0.72672 -1.829345,-1.18597 -0.170442,0.88997 -0.174447,1.8744 -0.19327,3.58738 -0.0278,2.52995 -1.16604,3.58178 -2.168861,3.83646 -1.75151,0.44483 -2.474161,1.2789 -2.307352,2.08514 0.42531,2.05564 -1.529217,3.86438 -2.808097,5.53248 -1.278879,1.66811 0.05581,5.94951 0.05581,5.94951 0,0 1.807033,0.028 3.447333,-0.0832 -0.945247,-3.00258 0.333516,-4.92065 0.250116,-7.56181 -0.08007,-2.53541 2.919103,-4.0316 3.725352,-4.53203 0.806241,-0.50044 4.200316,-2.19544 2.217436,-6.79855 -0.203316,-0.24637 -0.32498,-0.5266 -0.389122,-0.82941 z m -1.829345,-1.18597 c 0.08129,-0.42446 0.197165,-0.82907 0.376722,-1.27796 0.180676,-0.45169 0.375806,-0.94561 0.49816,-1.5043 -0.150614,0.096 -0.298246,0.19702 -0.441317,0.30541 l -0.251664,0.23409 c -0.719129,-0.47942 -1.506257,-0.79349 -2.305285,-1.11311 -0.159811,-0.0799 -0.39933,-0.16016 -0.559139,-0.0403 -0.119851,0.0799 -0.160038,0.24017 -0.199988,0.39998 -0.279662,1.27845 -0.35964,2.59677 -0.239778,3.87522 0,0.11985 0.0403,0.27976 0.160197,0.35966 0.119848,0.0799 0.279598,-1.8e-4 0.399457,-0.0801 0.799021,-0.43947 1.558092,-0.87916 2.317171,-1.35858 0.08047,0.0671 0.163285,0.13333 0.245464,0.19999 z m 6.775297,-2.73213 c 0.345749,-0.003 0.664591,0.21539 0.769461,0.49506 0.0326,0.10877 0.03364,0.21675 0.01344,0.31988 0.003,0.0682 7.94e-4,0.13591 -0.01344,0.19946 -0.0799,0.39953 -0.519287,0.59926 -0.918805,0.51935 -0.359561,-0.0799 -0.59893,-0.39956 -0.598932,-0.75912 0,-0.35957 0.239371,-0.67923 0.598932,-0.75913 0.0499,-0.01 0.09999,-0.015 0.149344,-0.0155 z"
       id="path866"
       inkscape:connector-curvature="0"
       sodipodi:nodetypes="ccscsccccscccccccscccccscccccccccccccccccccccccccccccc" />
    <path
       style="fill:#000b00;fill-opacity:1;stroke:none;stroke-width:0.5;stroke-linecap:butt;stroke-linejoin:miter;stroke-miterlimit:4;stroke-dasharray:none;stroke-opacity:1"
       d="m 89.043201,260.97202 c -0.311732,-0.002 -0.62313,0.012 -0.932759,0.0419 -2.476992,0.27967 -4.834067,1.63787 -6.312278,3.63544 l -0.0801,0.51935 c -0.87894,-0.39951 -1.717802,-0.79886 -2.596739,-1.19838 -0.239702,-0.11985 -0.599329,-0.19976 -0.759127,0 -0.0799,0.0799 -0.0799,0.19951 -0.119891,0.31936 -0.19976,1.47821 -0.279728,2.95684 -0.239778,4.39508 0,0.27966 0.0802,0.59913 0.319878,0.67903 0.159798,0.04 0.319757,-0.0398 0.479557,-0.15968 0.79904,-0.55932 1.558052,-1.19894 2.19728,-1.95802 0.159801,-0.15981 0.319599,-0.35934 0.519348,-0.43925 0.279662,-0.0799 0.559208,0.08 0.79892,0.23978 2.157378,1.2385 4.67451,1.87781 7.1515,1.51826 2.43705,-0.35958 4.754229,-1.83809 5.912818,-4.03542 0.119859,-0.19976 0.199631,-0.43948 0.159679,-0.63923 -0.04,-0.27966 -0.239848,-0.51923 -0.479557,-0.67903 -1.642999,-1.43327 -3.836633,-2.2244 -6.018753,-2.23914 z m 2.582789,1.44022 c 1.278448,0 1.278448,1.99729 0,1.99729 -1.278451,0 -1.278451,-1.99729 0,-1.99729 z"
       id="path852"
       inkscape:connector-curvature="0"
       sodipodi:nodetypes="cccccccccccccccccccsss" />
    <path
       style="fill:#000b00;fill-opacity:1;stroke:none;stroke-width:0.5;stroke-linecap:butt;stroke-linejoin:miter;stroke-miterlimit:4;stroke-dasharray:none;stroke-opacity:1"
       d="m 89.468498,253.68047 c -0.53435,0.01 -1.063638,0.10996 -1.543058,0.3297 -0.43947,0.19976 -0.799015,0.47947 -1.158587,0.75912 -0.759079,0.63924 -1.478401,1.3585 -1.877922,2.27738 -0.119859,0.27967 -0.23971,0.6791 0,0.91881 0.119851,0.15981 0.31959,0.19983 0.519351,0.23978 1.358349,0.31961 2.716852,0.59945 4.075202,0.59945 1.35836,0 2.796527,-0.31961 3.875214,-1.15859 0.119851,-0.0799 0.199859,-0.1602 0.35967,-0.1602 0.119851,0 0.239818,0.04 0.359666,0.1199 0.439471,0.23971 0.878798,0.51941 1.318268,0.75912 0.0799,0.04 0.200017,0.11989 0.319876,0.11989 0.199761,-0.0399 0.319201,-0.2798 0.359151,-0.47956 0.319611,-1.3983 0.439925,-2.83642 0.399976,-4.27467 -0.878941,0.47942 -1.717932,1.07886 -2.437061,1.75803 l -0.119888,-0.27957 c -0.91889,-0.51937 -1.838087,-1.03912 -2.876828,-1.31878 -0.499399,-0.13984 -1.03868,-0.2198 -1.57303,-0.20981 z m -2.022615,1.76785 c 0.958839,0 0.958839,1.51826 0,1.51826 -0.958832,0 -0.958832,-1.4783 0,-1.51826 z"
       id="path848"
       inkscape:connector-curvature="0"
       sodipodi:nodetypes="ccccccscsccccccccccsc" />
    <path
       style="fill:#000b00;fill-opacity:1;stroke:none;stroke-width:0.5;stroke-linecap:butt;stroke-linejoin:miter;stroke-miterlimit:4;stroke-dasharray:none;stroke-opacity:1"
       d="m 34.135959,240.67868 c -7.259146,8e-5 -13.143831,5.88476 -13.143902,13.1439 8.4e-5,7.25914 5.884767,13.14381 13.143902,13.1439 7.259145,-8e-5 13.143814,-5.88475 13.143899,-13.1439 -7.2e-5,-7.25915 -5.884744,-13.14383 -13.143899,-13.1439 z m 0.04393,3.09025 c 0.738145,-3e-5 1.336627,0.5982 1.336868,1.33636 3.4e-5,0.73834 -0.598527,1.33689 -1.336868,1.33687 -0.738145,-2.4e-4 -1.33639,-0.59874 -1.336355,-1.33687 2.41e-4,-0.73795 0.598405,-1.33612 1.336355,-1.33636 z m 5.268928,1.57252 c 2.258404,-8e-5 4.089215,1.83075 4.089157,4.08915 -2.02e-4,2.25822 -1.830941,4.08872 -4.089157,4.08864 -2.258216,8e-5 -4.088955,-1.83042 -4.089157,-4.08864 -6e-5,-2.2584 1.830753,-4.08923 4.089157,-4.08915 z"
       id="path844"
       inkscape:connector-curvature="0"
       sodipodi:nodetypes="ccccccccccccccc" />
    <flowRoot
       xml:space="preserve"
       id="flowRoot934"
       style="font-style:normal;font-variant:normal;font-weight:normal;font-stretch:normal;font-size:21.33333397px;line-height:24.67000008px;font-family:Samanata;-inkscape-font-specification:Samanata;letter-spacing:0px;word-spacing:0px;fill:#000b00;fill-opacity:1;stroke:none;stroke-opacity:1;stroke-width:1.8897638;stroke-miterlimit:4;stroke-dasharray:none;"
       transform="matrix(0.26458333,0,0,0.26458333,-0.46772167,12.160764)"><flowRegion
         id="flowRegion936"
         style="fill:#000b00;stroke:none;stroke-opacity:1;stroke-width:1.8897638;stroke-miterlimit:4;stroke-dasharray:none;fill-opacity:1;"><rect
           id="rect938"
           width="192.41229"
           height="201.9221"
           x="588.92859"
           y="575.73395"
           style="fill:#000b00;stroke:none;stroke-opacity:1;stroke-width:1.8897638;stroke-miterlimit:4;stroke-dasharray:none;fill-opacity:1;" /></flowRegion><flowPara
         id="flowPara940"
         style="font-style:normal;font-variant:normal;font-weight:normal;font-stretch:normal;font-size:74.66666412px;font-family:Umpush;-inkscape-font-specification:Umpush;fill:#000b00;stroke:none;stroke-opacity:1;stroke-width:1.8897638;stroke-miterlimit:4;stroke-dasharray:none;fill-opacity:1;" /></flowRoot>  </g>
</svg>
