M48
; DRILL file {KiCad 9.0.7} date 2026-01-27T13:28:15+0100
; FORMAT={-:-/ absolute / inch / decimal}
; #@! TF.CreationDate,2026-01-27T13:28:15+01:00
; #@! TF.GenerationSoftware,Kicad,Pcbnew,9.0.7
; #@! TF.FileFunction,Plated,1,2,PTH
FMAT,2
INCH
; #@! TA.AperFunction,Plated,PTH,ComponentDrill
T1C0.0315
; #@! TA.AperFunction,Plated,PTH,ComponentDrill
T2C0.0354
; #@! TA.AperFunction,Plated,PTH,ComponentDrill
T3C0.0394
; #@! TA.AperFunction,Plated,PTH,ComponentDrill
T4C0.0433
; #@! TA.AperFunction,Plated,PTH,ComponentDrill
T5C0.0453
%
G90
G05
T1
X6.3618Y-2.8248
X6.7618Y-2.8248
X6.9622Y-2.3622
X7.1161Y-2.7165
X7.3622Y-2.3622
X7.3657Y-2.5197
X7.5134Y-2.3622
X7.5161Y-2.7165
X7.7657Y-2.5197
X7.9134Y-2.3622
T2
X7.6461Y-2.7165
X7.7461Y-2.7165
X8.0906Y-2.3622
X8.1906Y-2.3622
T3
X5.8858Y-2.9921
X5.8858Y-3.0921
X5.8858Y-3.1921
X5.8858Y-3.2921
X5.8858Y-3.3921
X5.9898Y-2.0297
X5.9898Y-2.1297
X6.0898Y-2.0297
X6.0898Y-2.1297
X6.1898Y-2.0297
X6.1898Y-2.1297
X6.2598Y-3.5827
X6.2598Y-3.6811
X6.2598Y-3.7795
X6.2598Y-3.878
X6.2898Y-2.0297
X6.2898Y-2.1297
X6.3898Y-2.0297
X6.3898Y-2.1297
X6.4898Y-2.0297
X6.4898Y-2.1297
X6.5898Y-2.0297
X6.5898Y-2.1297
X6.6898Y-2.0297
X6.6898Y-2.1297
X6.7898Y-2.0297
X6.7898Y-2.1297
X6.8898Y-2.0297
X6.8898Y-2.1297
X6.9898Y-2.0297
X6.9898Y-2.1297
X7.0063Y-3.0862
X7.0063Y-3.1862
X7.0063Y-3.2862
X7.0063Y-3.3862
X7.0063Y-3.4862
X7.0063Y-3.5862
X7.0063Y-3.6862
X7.0063Y-3.7862
X7.0063Y-3.8862
X7.0898Y-2.0297
X7.0898Y-2.1297
X7.1898Y-2.0297
X7.1898Y-2.1297
X7.2898Y-2.0297
X7.2898Y-2.1297
X7.3327Y-3.0118
X7.3327Y-3.1102
X7.3327Y-3.2087
X7.3327Y-3.3071
X7.3327Y-3.5827
X7.3327Y-3.6811
X7.3327Y-3.7795
X7.3327Y-3.878
X7.3898Y-2.0297
X7.3898Y-2.1297
X7.4898Y-2.0297
X7.4898Y-2.1297
X7.5898Y-2.0297
X7.5898Y-2.1297
X7.6898Y-2.0297
X7.6898Y-2.1297
X7.7898Y-2.0297
X7.7898Y-2.1297
X7.8898Y-2.0297
X7.8898Y-2.1297
T4
X6.9685Y-2.5394
X6.9685Y-2.6378
X7.9921Y-2.5984
X7.9921Y-2.6969
T5
X6.0236Y-2.6181
X6.2205Y-2.6181
M30
