%TF.GenerationSoftware,KiCad,Pcbnew,9.0.7*%
%TF.CreationDate,2026-01-28T13:20:15+01:00*%
%TF.ProjectId,RPi_PCB_KOSMOS_4.0_v2,5250695f-5043-4425-9f4b-4f534d4f535f,rev?*%
%TF.SameCoordinates,Original*%
%TF.FileFunction,Drillmap*%
%TF.FilePolarity,Positive*%
%FSLAX45Y45*%
G04 Gerber Fmt 4.5, Leading zero omitted, Abs format (unit mm)*
G04 Created by KiCad (PCBNEW 9.0.7) date 2026-01-28 13:20:15*
%MOMM*%
%LPD*%
G01*
G04 APERTURE LIST*
%ADD10C,0.050000*%
%ADD11C,0.200000*%
%ADD12C,0.100000*%
%ADD13C,0.110000*%
%ADD14C,0.115000*%
G04 APERTURE END LIST*
D10*
X14560000Y-4600000D02*
X21190000Y-4600000D01*
X19420000Y-7260000D02*
X19420000Y-10550000D01*
X19420000Y-7260000D02*
X21190000Y-7260000D01*
X14560000Y-4600000D02*
X14560000Y-10550000D01*
X14560000Y-10550000D02*
X19420000Y-10550000D01*
X21190000Y-4600000D02*
X21190000Y-7260000D01*
D11*
D12*
X16119000Y-7135000D02*
X16199000Y-7215000D01*
X16199000Y-7135000D02*
X16119000Y-7215000D01*
X17135000Y-7135000D02*
X17215000Y-7215000D01*
X17215000Y-7135000D02*
X17135000Y-7215000D01*
X17644000Y-5960000D02*
X17724000Y-6040000D01*
X17724000Y-5960000D02*
X17644000Y-6040000D01*
X18035000Y-6860000D02*
X18115000Y-6940000D01*
X18115000Y-6860000D02*
X18035000Y-6940000D01*
X18660000Y-5960000D02*
X18740000Y-6040000D01*
X18740000Y-5960000D02*
X18660000Y-6040000D01*
X18669000Y-6360000D02*
X18749000Y-6440000D01*
X18749000Y-6360000D02*
X18669000Y-6440000D01*
X19044000Y-5960000D02*
X19124000Y-6040000D01*
X19124000Y-5960000D02*
X19044000Y-6040000D01*
X19051000Y-6860000D02*
X19131000Y-6940000D01*
X19131000Y-6860000D02*
X19051000Y-6940000D01*
X19685000Y-6360000D02*
X19765000Y-6440000D01*
X19765000Y-6360000D02*
X19685000Y-6440000D01*
X20060000Y-5960000D02*
X20140000Y-6040000D01*
X20140000Y-5960000D02*
X20060000Y-6040000D01*
X19466000Y-6900000D02*
G75*
G02*
X19376000Y-6900000I-45000J0D01*
G01*
X19376000Y-6900000D02*
G75*
G02*
X19466000Y-6900000I45000J0D01*
G01*
X19720000Y-6900000D02*
G75*
G02*
X19630000Y-6900000I-45000J0D01*
G01*
X19630000Y-6900000D02*
G75*
G02*
X19720000Y-6900000I45000J0D01*
G01*
X20595000Y-6000000D02*
G75*
G02*
X20505000Y-6000000I-45000J0D01*
G01*
X20505000Y-6000000D02*
G75*
G02*
X20595000Y-6000000I45000J0D01*
G01*
X20849000Y-6000000D02*
G75*
G02*
X20759000Y-6000000I-45000J0D01*
G01*
X20759000Y-6000000D02*
G75*
G02*
X20849000Y-6000000I45000J0D01*
G01*
X14950000Y-7550000D02*
X14950000Y-7650000D01*
X14900000Y-7600000D02*
X15000000Y-7600000D01*
X14950000Y-7804000D02*
X14950000Y-7904000D01*
X14900000Y-7854000D02*
X15000000Y-7854000D01*
X14950000Y-8058000D02*
X14950000Y-8158000D01*
X14900000Y-8108000D02*
X15000000Y-8108000D01*
X14950000Y-8312000D02*
X14950000Y-8412000D01*
X14900000Y-8362000D02*
X15000000Y-8362000D01*
X14950000Y-8566000D02*
X14950000Y-8666000D01*
X14900000Y-8616000D02*
X15000000Y-8616000D01*
X15214000Y-5105500D02*
X15214000Y-5205500D01*
X15164000Y-5155500D02*
X15264000Y-5155500D01*
X15214000Y-5359500D02*
X15214000Y-5459500D01*
X15164000Y-5409500D02*
X15264000Y-5409500D01*
X15468000Y-5105500D02*
X15468000Y-5205500D01*
X15418000Y-5155500D02*
X15518000Y-5155500D01*
X15468000Y-5359500D02*
X15468000Y-5459500D01*
X15418000Y-5409500D02*
X15518000Y-5409500D01*
X15722000Y-5105500D02*
X15722000Y-5205500D01*
X15672000Y-5155500D02*
X15772000Y-5155500D01*
X15722000Y-5359500D02*
X15722000Y-5459500D01*
X15672000Y-5409500D02*
X15772000Y-5409500D01*
X15900000Y-9050000D02*
X15900000Y-9150000D01*
X15850000Y-9100000D02*
X15950000Y-9100000D01*
X15900000Y-9300000D02*
X15900000Y-9400000D01*
X15850000Y-9350000D02*
X15950000Y-9350000D01*
X15900000Y-9550000D02*
X15900000Y-9650000D01*
X15850000Y-9600000D02*
X15950000Y-9600000D01*
X15900000Y-9800000D02*
X15900000Y-9900000D01*
X15850000Y-9850000D02*
X15950000Y-9850000D01*
X15976000Y-5105500D02*
X15976000Y-5205500D01*
X15926000Y-5155500D02*
X16026000Y-5155500D01*
X15976000Y-5359500D02*
X15976000Y-5459500D01*
X15926000Y-5409500D02*
X16026000Y-5409500D01*
X16230000Y-5105500D02*
X16230000Y-5205500D01*
X16180000Y-5155500D02*
X16280000Y-5155500D01*
X16230000Y-5359500D02*
X16230000Y-5459500D01*
X16180000Y-5409500D02*
X16280000Y-5409500D01*
X16484000Y-5105500D02*
X16484000Y-5205500D01*
X16434000Y-5155500D02*
X16534000Y-5155500D01*
X16484000Y-5359500D02*
X16484000Y-5459500D01*
X16434000Y-5409500D02*
X16534000Y-5409500D01*
X16738000Y-5105500D02*
X16738000Y-5205500D01*
X16688000Y-5155500D02*
X16788000Y-5155500D01*
X16738000Y-5359500D02*
X16738000Y-5459500D01*
X16688000Y-5409500D02*
X16788000Y-5409500D01*
X16992000Y-5105500D02*
X16992000Y-5205500D01*
X16942000Y-5155500D02*
X17042000Y-5155500D01*
X16992000Y-5359500D02*
X16992000Y-5459500D01*
X16942000Y-5409500D02*
X17042000Y-5409500D01*
X17246000Y-5105500D02*
X17246000Y-5205500D01*
X17196000Y-5155500D02*
X17296000Y-5155500D01*
X17246000Y-5359500D02*
X17246000Y-5459500D01*
X17196000Y-5409500D02*
X17296000Y-5409500D01*
X17500000Y-5105500D02*
X17500000Y-5205500D01*
X17450000Y-5155500D02*
X17550000Y-5155500D01*
X17500000Y-5359500D02*
X17500000Y-5459500D01*
X17450000Y-5409500D02*
X17550000Y-5409500D01*
X17754000Y-5105500D02*
X17754000Y-5205500D01*
X17704000Y-5155500D02*
X17804000Y-5155500D01*
X17754000Y-5359500D02*
X17754000Y-5459500D01*
X17704000Y-5409500D02*
X17804000Y-5409500D01*
X17796000Y-7789000D02*
X17796000Y-7889000D01*
X17746000Y-7839000D02*
X17846000Y-7839000D01*
X17796000Y-8043000D02*
X17796000Y-8143000D01*
X17746000Y-8093000D02*
X17846000Y-8093000D01*
X17796000Y-8297000D02*
X17796000Y-8397000D01*
X17746000Y-8347000D02*
X17846000Y-8347000D01*
X17796000Y-8551000D02*
X17796000Y-8651000D01*
X17746000Y-8601000D02*
X17846000Y-8601000D01*
X17796000Y-8805000D02*
X17796000Y-8905000D01*
X17746000Y-8855000D02*
X17846000Y-8855000D01*
X17796000Y-9059000D02*
X17796000Y-9159000D01*
X17746000Y-9109000D02*
X17846000Y-9109000D01*
X17796000Y-9313000D02*
X17796000Y-9413000D01*
X17746000Y-9363000D02*
X17846000Y-9363000D01*
X17796000Y-9567000D02*
X17796000Y-9667000D01*
X17746000Y-9617000D02*
X17846000Y-9617000D01*
X17796000Y-9821000D02*
X17796000Y-9921000D01*
X17746000Y-9871000D02*
X17846000Y-9871000D01*
X18008000Y-5105500D02*
X18008000Y-5205500D01*
X17958000Y-5155500D02*
X18058000Y-5155500D01*
X18008000Y-5359500D02*
X18008000Y-5459500D01*
X17958000Y-5409500D02*
X18058000Y-5409500D01*
X18262000Y-5105500D02*
X18262000Y-5205500D01*
X18212000Y-5155500D02*
X18312000Y-5155500D01*
X18262000Y-5359500D02*
X18262000Y-5459500D01*
X18212000Y-5409500D02*
X18312000Y-5409500D01*
X18516000Y-5105500D02*
X18516000Y-5205500D01*
X18466000Y-5155500D02*
X18566000Y-5155500D01*
X18516000Y-5359500D02*
X18516000Y-5459500D01*
X18466000Y-5409500D02*
X18566000Y-5409500D01*
X18625000Y-7600000D02*
X18625000Y-7700000D01*
X18575000Y-7650000D02*
X18675000Y-7650000D01*
X18625000Y-7850000D02*
X18625000Y-7950000D01*
X18575000Y-7900000D02*
X18675000Y-7900000D01*
X18625000Y-8100000D02*
X18625000Y-8200000D01*
X18575000Y-8150000D02*
X18675000Y-8150000D01*
X18625000Y-8350000D02*
X18625000Y-8450000D01*
X18575000Y-8400000D02*
X18675000Y-8400000D01*
X18625000Y-9050000D02*
X18625000Y-9150000D01*
X18575000Y-9100000D02*
X18675000Y-9100000D01*
X18625000Y-9300000D02*
X18625000Y-9400000D01*
X18575000Y-9350000D02*
X18675000Y-9350000D01*
X18625000Y-9550000D02*
X18625000Y-9650000D01*
X18575000Y-9600000D02*
X18675000Y-9600000D01*
X18625000Y-9800000D02*
X18625000Y-9900000D01*
X18575000Y-9850000D02*
X18675000Y-9850000D01*
X18770000Y-5105500D02*
X18770000Y-5205500D01*
X18720000Y-5155500D02*
X18820000Y-5155500D01*
X18770000Y-5359500D02*
X18770000Y-5459500D01*
X18720000Y-5409500D02*
X18820000Y-5409500D01*
X19024000Y-5105500D02*
X19024000Y-5205500D01*
X18974000Y-5155500D02*
X19074000Y-5155500D01*
X19024000Y-5359500D02*
X19024000Y-5459500D01*
X18974000Y-5409500D02*
X19074000Y-5409500D01*
X19278000Y-5105500D02*
X19278000Y-5205500D01*
X19228000Y-5155500D02*
X19328000Y-5155500D01*
X19278000Y-5359500D02*
X19278000Y-5459500D01*
X19228000Y-5409500D02*
X19328000Y-5409500D01*
X19532000Y-5105500D02*
X19532000Y-5205500D01*
X19482000Y-5155500D02*
X19582000Y-5155500D01*
X19532000Y-5359500D02*
X19532000Y-5459500D01*
X19482000Y-5409500D02*
X19582000Y-5409500D01*
X19786000Y-5105500D02*
X19786000Y-5205500D01*
X19736000Y-5155500D02*
X19836000Y-5155500D01*
X19786000Y-5359500D02*
X19786000Y-5459500D01*
X19736000Y-5409500D02*
X19836000Y-5409500D01*
X20040000Y-5105500D02*
X20040000Y-5205500D01*
X19990000Y-5155500D02*
X20090000Y-5155500D01*
X20040000Y-5359500D02*
X20040000Y-5459500D01*
X19990000Y-5409500D02*
X20090000Y-5409500D01*
D13*
X17738891Y-6488891D02*
X17738891Y-6411109D01*
X17661109Y-6411109D01*
X17661109Y-6488891D01*
X17738891Y-6488891D01*
X17738891Y-6738891D02*
X17738891Y-6661109D01*
X17661109Y-6661109D01*
X17661109Y-6738891D01*
X17738891Y-6738891D01*
X20338891Y-6638891D02*
X20338891Y-6561109D01*
X20261109Y-6561109D01*
X20261109Y-6638891D01*
X20338891Y-6638891D01*
X20338891Y-6888891D02*
X20338891Y-6811109D01*
X20261109Y-6811109D01*
X20261109Y-6888891D01*
X20338891Y-6888891D01*
D14*
X15300000Y-6707500D02*
X15357500Y-6650000D01*
X15300000Y-6592500D01*
X15242500Y-6650000D01*
X15300000Y-6707500D01*
X15800000Y-6707500D02*
X15857500Y-6650000D01*
X15800000Y-6592500D01*
X15742500Y-6650000D01*
X15800000Y-6707500D01*
D11*
X14818277Y-10863984D02*
X14818277Y-10663984D01*
X14818277Y-10663984D02*
X14865896Y-10663984D01*
X14865896Y-10663984D02*
X14894467Y-10673508D01*
X14894467Y-10673508D02*
X14913515Y-10692555D01*
X14913515Y-10692555D02*
X14923039Y-10711603D01*
X14923039Y-10711603D02*
X14932562Y-10749698D01*
X14932562Y-10749698D02*
X14932562Y-10778270D01*
X14932562Y-10778270D02*
X14923039Y-10816365D01*
X14923039Y-10816365D02*
X14913515Y-10835412D01*
X14913515Y-10835412D02*
X14894467Y-10854460D01*
X14894467Y-10854460D02*
X14865896Y-10863984D01*
X14865896Y-10863984D02*
X14818277Y-10863984D01*
X15018277Y-10863984D02*
X15018277Y-10730650D01*
X15018277Y-10768746D02*
X15027801Y-10749698D01*
X15027801Y-10749698D02*
X15037324Y-10740174D01*
X15037324Y-10740174D02*
X15056372Y-10730650D01*
X15056372Y-10730650D02*
X15075420Y-10730650D01*
X15142086Y-10863984D02*
X15142086Y-10730650D01*
X15142086Y-10663984D02*
X15132562Y-10673508D01*
X15132562Y-10673508D02*
X15142086Y-10683031D01*
X15142086Y-10683031D02*
X15151610Y-10673508D01*
X15151610Y-10673508D02*
X15142086Y-10663984D01*
X15142086Y-10663984D02*
X15142086Y-10683031D01*
X15265896Y-10863984D02*
X15246848Y-10854460D01*
X15246848Y-10854460D02*
X15237324Y-10835412D01*
X15237324Y-10835412D02*
X15237324Y-10663984D01*
X15370658Y-10863984D02*
X15351610Y-10854460D01*
X15351610Y-10854460D02*
X15342086Y-10835412D01*
X15342086Y-10835412D02*
X15342086Y-10663984D01*
X15599229Y-10863984D02*
X15599229Y-10663984D01*
X15599229Y-10663984D02*
X15665896Y-10806841D01*
X15665896Y-10806841D02*
X15732562Y-10663984D01*
X15732562Y-10663984D02*
X15732562Y-10863984D01*
X15913515Y-10863984D02*
X15913515Y-10759222D01*
X15913515Y-10759222D02*
X15903991Y-10740174D01*
X15903991Y-10740174D02*
X15884943Y-10730650D01*
X15884943Y-10730650D02*
X15846848Y-10730650D01*
X15846848Y-10730650D02*
X15827801Y-10740174D01*
X15913515Y-10854460D02*
X15894467Y-10863984D01*
X15894467Y-10863984D02*
X15846848Y-10863984D01*
X15846848Y-10863984D02*
X15827801Y-10854460D01*
X15827801Y-10854460D02*
X15818277Y-10835412D01*
X15818277Y-10835412D02*
X15818277Y-10816365D01*
X15818277Y-10816365D02*
X15827801Y-10797317D01*
X15827801Y-10797317D02*
X15846848Y-10787793D01*
X15846848Y-10787793D02*
X15894467Y-10787793D01*
X15894467Y-10787793D02*
X15913515Y-10778270D01*
X16008753Y-10730650D02*
X16008753Y-10930650D01*
X16008753Y-10740174D02*
X16027801Y-10730650D01*
X16027801Y-10730650D02*
X16065896Y-10730650D01*
X16065896Y-10730650D02*
X16084943Y-10740174D01*
X16084943Y-10740174D02*
X16094467Y-10749698D01*
X16094467Y-10749698D02*
X16103991Y-10768746D01*
X16103991Y-10768746D02*
X16103991Y-10825889D01*
X16103991Y-10825889D02*
X16094467Y-10844936D01*
X16094467Y-10844936D02*
X16084943Y-10854460D01*
X16084943Y-10854460D02*
X16065896Y-10863984D01*
X16065896Y-10863984D02*
X16027801Y-10863984D01*
X16027801Y-10863984D02*
X16008753Y-10854460D01*
X16189705Y-10844936D02*
X16199229Y-10854460D01*
X16199229Y-10854460D02*
X16189705Y-10863984D01*
X16189705Y-10863984D02*
X16180182Y-10854460D01*
X16180182Y-10854460D02*
X16189705Y-10844936D01*
X16189705Y-10844936D02*
X16189705Y-10863984D01*
X16189705Y-10740174D02*
X16199229Y-10749698D01*
X16199229Y-10749698D02*
X16189705Y-10759222D01*
X16189705Y-10759222D02*
X16180182Y-10749698D01*
X16180182Y-10749698D02*
X16189705Y-10740174D01*
X16189705Y-10740174D02*
X16189705Y-10759222D01*
D12*
X14477500Y-11152500D02*
X14557500Y-11232500D01*
X14557500Y-11152500D02*
X14477500Y-11232500D01*
D11*
X14856372Y-11083984D02*
X14875420Y-11083984D01*
X14875420Y-11083984D02*
X14894467Y-11093508D01*
X14894467Y-11093508D02*
X14903991Y-11103031D01*
X14903991Y-11103031D02*
X14913515Y-11122079D01*
X14913515Y-11122079D02*
X14923039Y-11160174D01*
X14923039Y-11160174D02*
X14923039Y-11207793D01*
X14923039Y-11207793D02*
X14913515Y-11245888D01*
X14913515Y-11245888D02*
X14903991Y-11264936D01*
X14903991Y-11264936D02*
X14894467Y-11274460D01*
X14894467Y-11274460D02*
X14875420Y-11283984D01*
X14875420Y-11283984D02*
X14856372Y-11283984D01*
X14856372Y-11283984D02*
X14837324Y-11274460D01*
X14837324Y-11274460D02*
X14827801Y-11264936D01*
X14827801Y-11264936D02*
X14818277Y-11245888D01*
X14818277Y-11245888D02*
X14808753Y-11207793D01*
X14808753Y-11207793D02*
X14808753Y-11160174D01*
X14808753Y-11160174D02*
X14818277Y-11122079D01*
X14818277Y-11122079D02*
X14827801Y-11103031D01*
X14827801Y-11103031D02*
X14837324Y-11093508D01*
X14837324Y-11093508D02*
X14856372Y-11083984D01*
X15008753Y-11264936D02*
X15018277Y-11274460D01*
X15018277Y-11274460D02*
X15008753Y-11283984D01*
X15008753Y-11283984D02*
X14999229Y-11274460D01*
X14999229Y-11274460D02*
X15008753Y-11264936D01*
X15008753Y-11264936D02*
X15008753Y-11283984D01*
X15132562Y-11169698D02*
X15113515Y-11160174D01*
X15113515Y-11160174D02*
X15103991Y-11150650D01*
X15103991Y-11150650D02*
X15094467Y-11131603D01*
X15094467Y-11131603D02*
X15094467Y-11122079D01*
X15094467Y-11122079D02*
X15103991Y-11103031D01*
X15103991Y-11103031D02*
X15113515Y-11093508D01*
X15113515Y-11093508D02*
X15132562Y-11083984D01*
X15132562Y-11083984D02*
X15170658Y-11083984D01*
X15170658Y-11083984D02*
X15189705Y-11093508D01*
X15189705Y-11093508D02*
X15199229Y-11103031D01*
X15199229Y-11103031D02*
X15208753Y-11122079D01*
X15208753Y-11122079D02*
X15208753Y-11131603D01*
X15208753Y-11131603D02*
X15199229Y-11150650D01*
X15199229Y-11150650D02*
X15189705Y-11160174D01*
X15189705Y-11160174D02*
X15170658Y-11169698D01*
X15170658Y-11169698D02*
X15132562Y-11169698D01*
X15132562Y-11169698D02*
X15113515Y-11179222D01*
X15113515Y-11179222D02*
X15103991Y-11188746D01*
X15103991Y-11188746D02*
X15094467Y-11207793D01*
X15094467Y-11207793D02*
X15094467Y-11245888D01*
X15094467Y-11245888D02*
X15103991Y-11264936D01*
X15103991Y-11264936D02*
X15113515Y-11274460D01*
X15113515Y-11274460D02*
X15132562Y-11283984D01*
X15132562Y-11283984D02*
X15170658Y-11283984D01*
X15170658Y-11283984D02*
X15189705Y-11274460D01*
X15189705Y-11274460D02*
X15199229Y-11264936D01*
X15199229Y-11264936D02*
X15208753Y-11245888D01*
X15208753Y-11245888D02*
X15208753Y-11207793D01*
X15208753Y-11207793D02*
X15199229Y-11188746D01*
X15199229Y-11188746D02*
X15189705Y-11179222D01*
X15189705Y-11179222D02*
X15170658Y-11169698D01*
X15332562Y-11083984D02*
X15351610Y-11083984D01*
X15351610Y-11083984D02*
X15370658Y-11093508D01*
X15370658Y-11093508D02*
X15380182Y-11103031D01*
X15380182Y-11103031D02*
X15389705Y-11122079D01*
X15389705Y-11122079D02*
X15399229Y-11160174D01*
X15399229Y-11160174D02*
X15399229Y-11207793D01*
X15399229Y-11207793D02*
X15389705Y-11245888D01*
X15389705Y-11245888D02*
X15380182Y-11264936D01*
X15380182Y-11264936D02*
X15370658Y-11274460D01*
X15370658Y-11274460D02*
X15351610Y-11283984D01*
X15351610Y-11283984D02*
X15332562Y-11283984D01*
X15332562Y-11283984D02*
X15313515Y-11274460D01*
X15313515Y-11274460D02*
X15303991Y-11264936D01*
X15303991Y-11264936D02*
X15294467Y-11245888D01*
X15294467Y-11245888D02*
X15284943Y-11207793D01*
X15284943Y-11207793D02*
X15284943Y-11160174D01*
X15284943Y-11160174D02*
X15294467Y-11122079D01*
X15294467Y-11122079D02*
X15303991Y-11103031D01*
X15303991Y-11103031D02*
X15313515Y-11093508D01*
X15313515Y-11093508D02*
X15332562Y-11083984D01*
X15523039Y-11083984D02*
X15542086Y-11083984D01*
X15542086Y-11083984D02*
X15561134Y-11093508D01*
X15561134Y-11093508D02*
X15570658Y-11103031D01*
X15570658Y-11103031D02*
X15580182Y-11122079D01*
X15580182Y-11122079D02*
X15589705Y-11160174D01*
X15589705Y-11160174D02*
X15589705Y-11207793D01*
X15589705Y-11207793D02*
X15580182Y-11245888D01*
X15580182Y-11245888D02*
X15570658Y-11264936D01*
X15570658Y-11264936D02*
X15561134Y-11274460D01*
X15561134Y-11274460D02*
X15542086Y-11283984D01*
X15542086Y-11283984D02*
X15523039Y-11283984D01*
X15523039Y-11283984D02*
X15503991Y-11274460D01*
X15503991Y-11274460D02*
X15494467Y-11264936D01*
X15494467Y-11264936D02*
X15484943Y-11245888D01*
X15484943Y-11245888D02*
X15475420Y-11207793D01*
X15475420Y-11207793D02*
X15475420Y-11160174D01*
X15475420Y-11160174D02*
X15484943Y-11122079D01*
X15484943Y-11122079D02*
X15494467Y-11103031D01*
X15494467Y-11103031D02*
X15503991Y-11093508D01*
X15503991Y-11093508D02*
X15523039Y-11083984D01*
X15675420Y-11283984D02*
X15675420Y-11150650D01*
X15675420Y-11169698D02*
X15684943Y-11160174D01*
X15684943Y-11160174D02*
X15703991Y-11150650D01*
X15703991Y-11150650D02*
X15732563Y-11150650D01*
X15732563Y-11150650D02*
X15751610Y-11160174D01*
X15751610Y-11160174D02*
X15761134Y-11179222D01*
X15761134Y-11179222D02*
X15761134Y-11283984D01*
X15761134Y-11179222D02*
X15770658Y-11160174D01*
X15770658Y-11160174D02*
X15789705Y-11150650D01*
X15789705Y-11150650D02*
X15818277Y-11150650D01*
X15818277Y-11150650D02*
X15837324Y-11160174D01*
X15837324Y-11160174D02*
X15846848Y-11179222D01*
X15846848Y-11179222D02*
X15846848Y-11283984D01*
X15942086Y-11283984D02*
X15942086Y-11150650D01*
X15942086Y-11169698D02*
X15951610Y-11160174D01*
X15951610Y-11160174D02*
X15970658Y-11150650D01*
X15970658Y-11150650D02*
X15999229Y-11150650D01*
X15999229Y-11150650D02*
X16018277Y-11160174D01*
X16018277Y-11160174D02*
X16027801Y-11179222D01*
X16027801Y-11179222D02*
X16027801Y-11283984D01*
X16027801Y-11179222D02*
X16037324Y-11160174D01*
X16037324Y-11160174D02*
X16056372Y-11150650D01*
X16056372Y-11150650D02*
X16084943Y-11150650D01*
X16084943Y-11150650D02*
X16103991Y-11160174D01*
X16103991Y-11160174D02*
X16113515Y-11179222D01*
X16113515Y-11179222D02*
X16113515Y-11283984D01*
X16503991Y-11074460D02*
X16332563Y-11331603D01*
X16761134Y-11083984D02*
X16780182Y-11083984D01*
X16780182Y-11083984D02*
X16799229Y-11093508D01*
X16799229Y-11093508D02*
X16808753Y-11103031D01*
X16808753Y-11103031D02*
X16818277Y-11122079D01*
X16818277Y-11122079D02*
X16827801Y-11160174D01*
X16827801Y-11160174D02*
X16827801Y-11207793D01*
X16827801Y-11207793D02*
X16818277Y-11245888D01*
X16818277Y-11245888D02*
X16808753Y-11264936D01*
X16808753Y-11264936D02*
X16799229Y-11274460D01*
X16799229Y-11274460D02*
X16780182Y-11283984D01*
X16780182Y-11283984D02*
X16761134Y-11283984D01*
X16761134Y-11283984D02*
X16742086Y-11274460D01*
X16742086Y-11274460D02*
X16732563Y-11264936D01*
X16732563Y-11264936D02*
X16723039Y-11245888D01*
X16723039Y-11245888D02*
X16713515Y-11207793D01*
X16713515Y-11207793D02*
X16713515Y-11160174D01*
X16713515Y-11160174D02*
X16723039Y-11122079D01*
X16723039Y-11122079D02*
X16732563Y-11103031D01*
X16732563Y-11103031D02*
X16742086Y-11093508D01*
X16742086Y-11093508D02*
X16761134Y-11083984D01*
X16913515Y-11264936D02*
X16923039Y-11274460D01*
X16923039Y-11274460D02*
X16913515Y-11283984D01*
X16913515Y-11283984D02*
X16903991Y-11274460D01*
X16903991Y-11274460D02*
X16913515Y-11264936D01*
X16913515Y-11264936D02*
X16913515Y-11283984D01*
X17046848Y-11083984D02*
X17065896Y-11083984D01*
X17065896Y-11083984D02*
X17084944Y-11093508D01*
X17084944Y-11093508D02*
X17094468Y-11103031D01*
X17094468Y-11103031D02*
X17103991Y-11122079D01*
X17103991Y-11122079D02*
X17113515Y-11160174D01*
X17113515Y-11160174D02*
X17113515Y-11207793D01*
X17113515Y-11207793D02*
X17103991Y-11245888D01*
X17103991Y-11245888D02*
X17094468Y-11264936D01*
X17094468Y-11264936D02*
X17084944Y-11274460D01*
X17084944Y-11274460D02*
X17065896Y-11283984D01*
X17065896Y-11283984D02*
X17046848Y-11283984D01*
X17046848Y-11283984D02*
X17027801Y-11274460D01*
X17027801Y-11274460D02*
X17018277Y-11264936D01*
X17018277Y-11264936D02*
X17008753Y-11245888D01*
X17008753Y-11245888D02*
X16999229Y-11207793D01*
X16999229Y-11207793D02*
X16999229Y-11160174D01*
X16999229Y-11160174D02*
X17008753Y-11122079D01*
X17008753Y-11122079D02*
X17018277Y-11103031D01*
X17018277Y-11103031D02*
X17027801Y-11093508D01*
X17027801Y-11093508D02*
X17046848Y-11083984D01*
X17180182Y-11083984D02*
X17303991Y-11083984D01*
X17303991Y-11083984D02*
X17237325Y-11160174D01*
X17237325Y-11160174D02*
X17265896Y-11160174D01*
X17265896Y-11160174D02*
X17284944Y-11169698D01*
X17284944Y-11169698D02*
X17294468Y-11179222D01*
X17294468Y-11179222D02*
X17303991Y-11198269D01*
X17303991Y-11198269D02*
X17303991Y-11245888D01*
X17303991Y-11245888D02*
X17294468Y-11264936D01*
X17294468Y-11264936D02*
X17284944Y-11274460D01*
X17284944Y-11274460D02*
X17265896Y-11283984D01*
X17265896Y-11283984D02*
X17208753Y-11283984D01*
X17208753Y-11283984D02*
X17189706Y-11274460D01*
X17189706Y-11274460D02*
X17180182Y-11264936D01*
X17494468Y-11283984D02*
X17380182Y-11283984D01*
X17437325Y-11283984D02*
X17437325Y-11083984D01*
X17437325Y-11083984D02*
X17418277Y-11112555D01*
X17418277Y-11112555D02*
X17399229Y-11131603D01*
X17399229Y-11131603D02*
X17380182Y-11141127D01*
X17675420Y-11083984D02*
X17580182Y-11083984D01*
X17580182Y-11083984D02*
X17570658Y-11179222D01*
X17570658Y-11179222D02*
X17580182Y-11169698D01*
X17580182Y-11169698D02*
X17599229Y-11160174D01*
X17599229Y-11160174D02*
X17646849Y-11160174D01*
X17646849Y-11160174D02*
X17665896Y-11169698D01*
X17665896Y-11169698D02*
X17675420Y-11179222D01*
X17675420Y-11179222D02*
X17684944Y-11198269D01*
X17684944Y-11198269D02*
X17684944Y-11245888D01*
X17684944Y-11245888D02*
X17675420Y-11264936D01*
X17675420Y-11264936D02*
X17665896Y-11274460D01*
X17665896Y-11274460D02*
X17646849Y-11283984D01*
X17646849Y-11283984D02*
X17599229Y-11283984D01*
X17599229Y-11283984D02*
X17580182Y-11274460D01*
X17580182Y-11274460D02*
X17570658Y-11264936D01*
X17761134Y-11083984D02*
X17761134Y-11122079D01*
X17837325Y-11083984D02*
X17837325Y-11122079D01*
X18132563Y-11360174D02*
X18123039Y-11350650D01*
X18123039Y-11350650D02*
X18103991Y-11322079D01*
X18103991Y-11322079D02*
X18094468Y-11303031D01*
X18094468Y-11303031D02*
X18084944Y-11274460D01*
X18084944Y-11274460D02*
X18075420Y-11226841D01*
X18075420Y-11226841D02*
X18075420Y-11188746D01*
X18075420Y-11188746D02*
X18084944Y-11141127D01*
X18084944Y-11141127D02*
X18094468Y-11112555D01*
X18094468Y-11112555D02*
X18103991Y-11093508D01*
X18103991Y-11093508D02*
X18123039Y-11064936D01*
X18123039Y-11064936D02*
X18132563Y-11055412D01*
X18313515Y-11283984D02*
X18199230Y-11283984D01*
X18256372Y-11283984D02*
X18256372Y-11083984D01*
X18256372Y-11083984D02*
X18237325Y-11112555D01*
X18237325Y-11112555D02*
X18218277Y-11131603D01*
X18218277Y-11131603D02*
X18199230Y-11141127D01*
X18437325Y-11083984D02*
X18456372Y-11083984D01*
X18456372Y-11083984D02*
X18475420Y-11093508D01*
X18475420Y-11093508D02*
X18484944Y-11103031D01*
X18484944Y-11103031D02*
X18494468Y-11122079D01*
X18494468Y-11122079D02*
X18503991Y-11160174D01*
X18503991Y-11160174D02*
X18503991Y-11207793D01*
X18503991Y-11207793D02*
X18494468Y-11245888D01*
X18494468Y-11245888D02*
X18484944Y-11264936D01*
X18484944Y-11264936D02*
X18475420Y-11274460D01*
X18475420Y-11274460D02*
X18456372Y-11283984D01*
X18456372Y-11283984D02*
X18437325Y-11283984D01*
X18437325Y-11283984D02*
X18418277Y-11274460D01*
X18418277Y-11274460D02*
X18408753Y-11264936D01*
X18408753Y-11264936D02*
X18399230Y-11245888D01*
X18399230Y-11245888D02*
X18389706Y-11207793D01*
X18389706Y-11207793D02*
X18389706Y-11160174D01*
X18389706Y-11160174D02*
X18399230Y-11122079D01*
X18399230Y-11122079D02*
X18408753Y-11103031D01*
X18408753Y-11103031D02*
X18418277Y-11093508D01*
X18418277Y-11093508D02*
X18437325Y-11083984D01*
X18742087Y-11283984D02*
X18742087Y-11083984D01*
X18827801Y-11283984D02*
X18827801Y-11179222D01*
X18827801Y-11179222D02*
X18818277Y-11160174D01*
X18818277Y-11160174D02*
X18799230Y-11150650D01*
X18799230Y-11150650D02*
X18770658Y-11150650D01*
X18770658Y-11150650D02*
X18751611Y-11160174D01*
X18751611Y-11160174D02*
X18742087Y-11169698D01*
X18951611Y-11283984D02*
X18932563Y-11274460D01*
X18932563Y-11274460D02*
X18923039Y-11264936D01*
X18923039Y-11264936D02*
X18913515Y-11245888D01*
X18913515Y-11245888D02*
X18913515Y-11188746D01*
X18913515Y-11188746D02*
X18923039Y-11169698D01*
X18923039Y-11169698D02*
X18932563Y-11160174D01*
X18932563Y-11160174D02*
X18951611Y-11150650D01*
X18951611Y-11150650D02*
X18980182Y-11150650D01*
X18980182Y-11150650D02*
X18999230Y-11160174D01*
X18999230Y-11160174D02*
X19008753Y-11169698D01*
X19008753Y-11169698D02*
X19018277Y-11188746D01*
X19018277Y-11188746D02*
X19018277Y-11245888D01*
X19018277Y-11245888D02*
X19008753Y-11264936D01*
X19008753Y-11264936D02*
X18999230Y-11274460D01*
X18999230Y-11274460D02*
X18980182Y-11283984D01*
X18980182Y-11283984D02*
X18951611Y-11283984D01*
X19132563Y-11283984D02*
X19113515Y-11274460D01*
X19113515Y-11274460D02*
X19103992Y-11255412D01*
X19103992Y-11255412D02*
X19103992Y-11083984D01*
X19284944Y-11274460D02*
X19265896Y-11283984D01*
X19265896Y-11283984D02*
X19227801Y-11283984D01*
X19227801Y-11283984D02*
X19208753Y-11274460D01*
X19208753Y-11274460D02*
X19199230Y-11255412D01*
X19199230Y-11255412D02*
X19199230Y-11179222D01*
X19199230Y-11179222D02*
X19208753Y-11160174D01*
X19208753Y-11160174D02*
X19227801Y-11150650D01*
X19227801Y-11150650D02*
X19265896Y-11150650D01*
X19265896Y-11150650D02*
X19284944Y-11160174D01*
X19284944Y-11160174D02*
X19294468Y-11179222D01*
X19294468Y-11179222D02*
X19294468Y-11198269D01*
X19294468Y-11198269D02*
X19199230Y-11217317D01*
X19370658Y-11274460D02*
X19389706Y-11283984D01*
X19389706Y-11283984D02*
X19427801Y-11283984D01*
X19427801Y-11283984D02*
X19446849Y-11274460D01*
X19446849Y-11274460D02*
X19456373Y-11255412D01*
X19456373Y-11255412D02*
X19456373Y-11245888D01*
X19456373Y-11245888D02*
X19446849Y-11226841D01*
X19446849Y-11226841D02*
X19427801Y-11217317D01*
X19427801Y-11217317D02*
X19399230Y-11217317D01*
X19399230Y-11217317D02*
X19380182Y-11207793D01*
X19380182Y-11207793D02*
X19370658Y-11188746D01*
X19370658Y-11188746D02*
X19370658Y-11179222D01*
X19370658Y-11179222D02*
X19380182Y-11160174D01*
X19380182Y-11160174D02*
X19399230Y-11150650D01*
X19399230Y-11150650D02*
X19427801Y-11150650D01*
X19427801Y-11150650D02*
X19446849Y-11160174D01*
X19523039Y-11360174D02*
X19532563Y-11350650D01*
X19532563Y-11350650D02*
X19551611Y-11322079D01*
X19551611Y-11322079D02*
X19561134Y-11303031D01*
X19561134Y-11303031D02*
X19570658Y-11274460D01*
X19570658Y-11274460D02*
X19580182Y-11226841D01*
X19580182Y-11226841D02*
X19580182Y-11188746D01*
X19580182Y-11188746D02*
X19570658Y-11141127D01*
X19570658Y-11141127D02*
X19561134Y-11112555D01*
X19561134Y-11112555D02*
X19551611Y-11093508D01*
X19551611Y-11093508D02*
X19532563Y-11064936D01*
X19532563Y-11064936D02*
X19523039Y-11055412D01*
D12*
X14557500Y-11456500D02*
G75*
G02*
X14467500Y-11456500I-45000J0D01*
G01*
X14467500Y-11456500D02*
G75*
G02*
X14557500Y-11456500I45000J0D01*
G01*
D11*
X14856372Y-11347984D02*
X14875420Y-11347984D01*
X14875420Y-11347984D02*
X14894467Y-11357508D01*
X14894467Y-11357508D02*
X14903991Y-11367031D01*
X14903991Y-11367031D02*
X14913515Y-11386079D01*
X14913515Y-11386079D02*
X14923039Y-11424174D01*
X14923039Y-11424174D02*
X14923039Y-11471793D01*
X14923039Y-11471793D02*
X14913515Y-11509888D01*
X14913515Y-11509888D02*
X14903991Y-11528936D01*
X14903991Y-11528936D02*
X14894467Y-11538460D01*
X14894467Y-11538460D02*
X14875420Y-11547984D01*
X14875420Y-11547984D02*
X14856372Y-11547984D01*
X14856372Y-11547984D02*
X14837324Y-11538460D01*
X14837324Y-11538460D02*
X14827801Y-11528936D01*
X14827801Y-11528936D02*
X14818277Y-11509888D01*
X14818277Y-11509888D02*
X14808753Y-11471793D01*
X14808753Y-11471793D02*
X14808753Y-11424174D01*
X14808753Y-11424174D02*
X14818277Y-11386079D01*
X14818277Y-11386079D02*
X14827801Y-11367031D01*
X14827801Y-11367031D02*
X14837324Y-11357508D01*
X14837324Y-11357508D02*
X14856372Y-11347984D01*
X15008753Y-11528936D02*
X15018277Y-11538460D01*
X15018277Y-11538460D02*
X15008753Y-11547984D01*
X15008753Y-11547984D02*
X14999229Y-11538460D01*
X14999229Y-11538460D02*
X15008753Y-11528936D01*
X15008753Y-11528936D02*
X15008753Y-11547984D01*
X15113515Y-11547984D02*
X15151610Y-11547984D01*
X15151610Y-11547984D02*
X15170658Y-11538460D01*
X15170658Y-11538460D02*
X15180182Y-11528936D01*
X15180182Y-11528936D02*
X15199229Y-11500365D01*
X15199229Y-11500365D02*
X15208753Y-11462269D01*
X15208753Y-11462269D02*
X15208753Y-11386079D01*
X15208753Y-11386079D02*
X15199229Y-11367031D01*
X15199229Y-11367031D02*
X15189705Y-11357508D01*
X15189705Y-11357508D02*
X15170658Y-11347984D01*
X15170658Y-11347984D02*
X15132562Y-11347984D01*
X15132562Y-11347984D02*
X15113515Y-11357508D01*
X15113515Y-11357508D02*
X15103991Y-11367031D01*
X15103991Y-11367031D02*
X15094467Y-11386079D01*
X15094467Y-11386079D02*
X15094467Y-11433698D01*
X15094467Y-11433698D02*
X15103991Y-11452746D01*
X15103991Y-11452746D02*
X15113515Y-11462269D01*
X15113515Y-11462269D02*
X15132562Y-11471793D01*
X15132562Y-11471793D02*
X15170658Y-11471793D01*
X15170658Y-11471793D02*
X15189705Y-11462269D01*
X15189705Y-11462269D02*
X15199229Y-11452746D01*
X15199229Y-11452746D02*
X15208753Y-11433698D01*
X15332562Y-11347984D02*
X15351610Y-11347984D01*
X15351610Y-11347984D02*
X15370658Y-11357508D01*
X15370658Y-11357508D02*
X15380182Y-11367031D01*
X15380182Y-11367031D02*
X15389705Y-11386079D01*
X15389705Y-11386079D02*
X15399229Y-11424174D01*
X15399229Y-11424174D02*
X15399229Y-11471793D01*
X15399229Y-11471793D02*
X15389705Y-11509888D01*
X15389705Y-11509888D02*
X15380182Y-11528936D01*
X15380182Y-11528936D02*
X15370658Y-11538460D01*
X15370658Y-11538460D02*
X15351610Y-11547984D01*
X15351610Y-11547984D02*
X15332562Y-11547984D01*
X15332562Y-11547984D02*
X15313515Y-11538460D01*
X15313515Y-11538460D02*
X15303991Y-11528936D01*
X15303991Y-11528936D02*
X15294467Y-11509888D01*
X15294467Y-11509888D02*
X15284943Y-11471793D01*
X15284943Y-11471793D02*
X15284943Y-11424174D01*
X15284943Y-11424174D02*
X15294467Y-11386079D01*
X15294467Y-11386079D02*
X15303991Y-11367031D01*
X15303991Y-11367031D02*
X15313515Y-11357508D01*
X15313515Y-11357508D02*
X15332562Y-11347984D01*
X15523039Y-11347984D02*
X15542086Y-11347984D01*
X15542086Y-11347984D02*
X15561134Y-11357508D01*
X15561134Y-11357508D02*
X15570658Y-11367031D01*
X15570658Y-11367031D02*
X15580182Y-11386079D01*
X15580182Y-11386079D02*
X15589705Y-11424174D01*
X15589705Y-11424174D02*
X15589705Y-11471793D01*
X15589705Y-11471793D02*
X15580182Y-11509888D01*
X15580182Y-11509888D02*
X15570658Y-11528936D01*
X15570658Y-11528936D02*
X15561134Y-11538460D01*
X15561134Y-11538460D02*
X15542086Y-11547984D01*
X15542086Y-11547984D02*
X15523039Y-11547984D01*
X15523039Y-11547984D02*
X15503991Y-11538460D01*
X15503991Y-11538460D02*
X15494467Y-11528936D01*
X15494467Y-11528936D02*
X15484943Y-11509888D01*
X15484943Y-11509888D02*
X15475420Y-11471793D01*
X15475420Y-11471793D02*
X15475420Y-11424174D01*
X15475420Y-11424174D02*
X15484943Y-11386079D01*
X15484943Y-11386079D02*
X15494467Y-11367031D01*
X15494467Y-11367031D02*
X15503991Y-11357508D01*
X15503991Y-11357508D02*
X15523039Y-11347984D01*
X15675420Y-11547984D02*
X15675420Y-11414650D01*
X15675420Y-11433698D02*
X15684943Y-11424174D01*
X15684943Y-11424174D02*
X15703991Y-11414650D01*
X15703991Y-11414650D02*
X15732563Y-11414650D01*
X15732563Y-11414650D02*
X15751610Y-11424174D01*
X15751610Y-11424174D02*
X15761134Y-11443222D01*
X15761134Y-11443222D02*
X15761134Y-11547984D01*
X15761134Y-11443222D02*
X15770658Y-11424174D01*
X15770658Y-11424174D02*
X15789705Y-11414650D01*
X15789705Y-11414650D02*
X15818277Y-11414650D01*
X15818277Y-11414650D02*
X15837324Y-11424174D01*
X15837324Y-11424174D02*
X15846848Y-11443222D01*
X15846848Y-11443222D02*
X15846848Y-11547984D01*
X15942086Y-11547984D02*
X15942086Y-11414650D01*
X15942086Y-11433698D02*
X15951610Y-11424174D01*
X15951610Y-11424174D02*
X15970658Y-11414650D01*
X15970658Y-11414650D02*
X15999229Y-11414650D01*
X15999229Y-11414650D02*
X16018277Y-11424174D01*
X16018277Y-11424174D02*
X16027801Y-11443222D01*
X16027801Y-11443222D02*
X16027801Y-11547984D01*
X16027801Y-11443222D02*
X16037324Y-11424174D01*
X16037324Y-11424174D02*
X16056372Y-11414650D01*
X16056372Y-11414650D02*
X16084943Y-11414650D01*
X16084943Y-11414650D02*
X16103991Y-11424174D01*
X16103991Y-11424174D02*
X16113515Y-11443222D01*
X16113515Y-11443222D02*
X16113515Y-11547984D01*
X16503991Y-11338460D02*
X16332563Y-11595603D01*
X16761134Y-11347984D02*
X16780182Y-11347984D01*
X16780182Y-11347984D02*
X16799229Y-11357508D01*
X16799229Y-11357508D02*
X16808753Y-11367031D01*
X16808753Y-11367031D02*
X16818277Y-11386079D01*
X16818277Y-11386079D02*
X16827801Y-11424174D01*
X16827801Y-11424174D02*
X16827801Y-11471793D01*
X16827801Y-11471793D02*
X16818277Y-11509888D01*
X16818277Y-11509888D02*
X16808753Y-11528936D01*
X16808753Y-11528936D02*
X16799229Y-11538460D01*
X16799229Y-11538460D02*
X16780182Y-11547984D01*
X16780182Y-11547984D02*
X16761134Y-11547984D01*
X16761134Y-11547984D02*
X16742086Y-11538460D01*
X16742086Y-11538460D02*
X16732563Y-11528936D01*
X16732563Y-11528936D02*
X16723039Y-11509888D01*
X16723039Y-11509888D02*
X16713515Y-11471793D01*
X16713515Y-11471793D02*
X16713515Y-11424174D01*
X16713515Y-11424174D02*
X16723039Y-11386079D01*
X16723039Y-11386079D02*
X16732563Y-11367031D01*
X16732563Y-11367031D02*
X16742086Y-11357508D01*
X16742086Y-11357508D02*
X16761134Y-11347984D01*
X16913515Y-11528936D02*
X16923039Y-11538460D01*
X16923039Y-11538460D02*
X16913515Y-11547984D01*
X16913515Y-11547984D02*
X16903991Y-11538460D01*
X16903991Y-11538460D02*
X16913515Y-11528936D01*
X16913515Y-11528936D02*
X16913515Y-11547984D01*
X17046848Y-11347984D02*
X17065896Y-11347984D01*
X17065896Y-11347984D02*
X17084944Y-11357508D01*
X17084944Y-11357508D02*
X17094468Y-11367031D01*
X17094468Y-11367031D02*
X17103991Y-11386079D01*
X17103991Y-11386079D02*
X17113515Y-11424174D01*
X17113515Y-11424174D02*
X17113515Y-11471793D01*
X17113515Y-11471793D02*
X17103991Y-11509888D01*
X17103991Y-11509888D02*
X17094468Y-11528936D01*
X17094468Y-11528936D02*
X17084944Y-11538460D01*
X17084944Y-11538460D02*
X17065896Y-11547984D01*
X17065896Y-11547984D02*
X17046848Y-11547984D01*
X17046848Y-11547984D02*
X17027801Y-11538460D01*
X17027801Y-11538460D02*
X17018277Y-11528936D01*
X17018277Y-11528936D02*
X17008753Y-11509888D01*
X17008753Y-11509888D02*
X16999229Y-11471793D01*
X16999229Y-11471793D02*
X16999229Y-11424174D01*
X16999229Y-11424174D02*
X17008753Y-11386079D01*
X17008753Y-11386079D02*
X17018277Y-11367031D01*
X17018277Y-11367031D02*
X17027801Y-11357508D01*
X17027801Y-11357508D02*
X17046848Y-11347984D01*
X17180182Y-11347984D02*
X17303991Y-11347984D01*
X17303991Y-11347984D02*
X17237325Y-11424174D01*
X17237325Y-11424174D02*
X17265896Y-11424174D01*
X17265896Y-11424174D02*
X17284944Y-11433698D01*
X17284944Y-11433698D02*
X17294468Y-11443222D01*
X17294468Y-11443222D02*
X17303991Y-11462269D01*
X17303991Y-11462269D02*
X17303991Y-11509888D01*
X17303991Y-11509888D02*
X17294468Y-11528936D01*
X17294468Y-11528936D02*
X17284944Y-11538460D01*
X17284944Y-11538460D02*
X17265896Y-11547984D01*
X17265896Y-11547984D02*
X17208753Y-11547984D01*
X17208753Y-11547984D02*
X17189706Y-11538460D01*
X17189706Y-11538460D02*
X17180182Y-11528936D01*
X17484944Y-11347984D02*
X17389706Y-11347984D01*
X17389706Y-11347984D02*
X17380182Y-11443222D01*
X17380182Y-11443222D02*
X17389706Y-11433698D01*
X17389706Y-11433698D02*
X17408753Y-11424174D01*
X17408753Y-11424174D02*
X17456372Y-11424174D01*
X17456372Y-11424174D02*
X17475420Y-11433698D01*
X17475420Y-11433698D02*
X17484944Y-11443222D01*
X17484944Y-11443222D02*
X17494468Y-11462269D01*
X17494468Y-11462269D02*
X17494468Y-11509888D01*
X17494468Y-11509888D02*
X17484944Y-11528936D01*
X17484944Y-11528936D02*
X17475420Y-11538460D01*
X17475420Y-11538460D02*
X17456372Y-11547984D01*
X17456372Y-11547984D02*
X17408753Y-11547984D01*
X17408753Y-11547984D02*
X17389706Y-11538460D01*
X17389706Y-11538460D02*
X17380182Y-11528936D01*
X17665896Y-11414650D02*
X17665896Y-11547984D01*
X17618277Y-11338460D02*
X17570658Y-11481317D01*
X17570658Y-11481317D02*
X17694468Y-11481317D01*
X17761134Y-11347984D02*
X17761134Y-11386079D01*
X17837325Y-11347984D02*
X17837325Y-11386079D01*
X18132563Y-11624174D02*
X18123039Y-11614650D01*
X18123039Y-11614650D02*
X18103991Y-11586079D01*
X18103991Y-11586079D02*
X18094468Y-11567031D01*
X18094468Y-11567031D02*
X18084944Y-11538460D01*
X18084944Y-11538460D02*
X18075420Y-11490841D01*
X18075420Y-11490841D02*
X18075420Y-11452746D01*
X18075420Y-11452746D02*
X18084944Y-11405127D01*
X18084944Y-11405127D02*
X18094468Y-11376555D01*
X18094468Y-11376555D02*
X18103991Y-11357508D01*
X18103991Y-11357508D02*
X18123039Y-11328936D01*
X18123039Y-11328936D02*
X18132563Y-11319412D01*
X18294468Y-11414650D02*
X18294468Y-11547984D01*
X18246849Y-11338460D02*
X18199230Y-11481317D01*
X18199230Y-11481317D02*
X18323039Y-11481317D01*
X18551611Y-11547984D02*
X18551611Y-11347984D01*
X18637325Y-11547984D02*
X18637325Y-11443222D01*
X18637325Y-11443222D02*
X18627801Y-11424174D01*
X18627801Y-11424174D02*
X18608753Y-11414650D01*
X18608753Y-11414650D02*
X18580182Y-11414650D01*
X18580182Y-11414650D02*
X18561134Y-11424174D01*
X18561134Y-11424174D02*
X18551611Y-11433698D01*
X18761134Y-11547984D02*
X18742087Y-11538460D01*
X18742087Y-11538460D02*
X18732563Y-11528936D01*
X18732563Y-11528936D02*
X18723039Y-11509888D01*
X18723039Y-11509888D02*
X18723039Y-11452746D01*
X18723039Y-11452746D02*
X18732563Y-11433698D01*
X18732563Y-11433698D02*
X18742087Y-11424174D01*
X18742087Y-11424174D02*
X18761134Y-11414650D01*
X18761134Y-11414650D02*
X18789706Y-11414650D01*
X18789706Y-11414650D02*
X18808753Y-11424174D01*
X18808753Y-11424174D02*
X18818277Y-11433698D01*
X18818277Y-11433698D02*
X18827801Y-11452746D01*
X18827801Y-11452746D02*
X18827801Y-11509888D01*
X18827801Y-11509888D02*
X18818277Y-11528936D01*
X18818277Y-11528936D02*
X18808753Y-11538460D01*
X18808753Y-11538460D02*
X18789706Y-11547984D01*
X18789706Y-11547984D02*
X18761134Y-11547984D01*
X18942087Y-11547984D02*
X18923039Y-11538460D01*
X18923039Y-11538460D02*
X18913515Y-11519412D01*
X18913515Y-11519412D02*
X18913515Y-11347984D01*
X19094468Y-11538460D02*
X19075420Y-11547984D01*
X19075420Y-11547984D02*
X19037325Y-11547984D01*
X19037325Y-11547984D02*
X19018277Y-11538460D01*
X19018277Y-11538460D02*
X19008753Y-11519412D01*
X19008753Y-11519412D02*
X19008753Y-11443222D01*
X19008753Y-11443222D02*
X19018277Y-11424174D01*
X19018277Y-11424174D02*
X19037325Y-11414650D01*
X19037325Y-11414650D02*
X19075420Y-11414650D01*
X19075420Y-11414650D02*
X19094468Y-11424174D01*
X19094468Y-11424174D02*
X19103992Y-11443222D01*
X19103992Y-11443222D02*
X19103992Y-11462269D01*
X19103992Y-11462269D02*
X19008753Y-11481317D01*
X19180182Y-11538460D02*
X19199230Y-11547984D01*
X19199230Y-11547984D02*
X19237325Y-11547984D01*
X19237325Y-11547984D02*
X19256373Y-11538460D01*
X19256373Y-11538460D02*
X19265896Y-11519412D01*
X19265896Y-11519412D02*
X19265896Y-11509888D01*
X19265896Y-11509888D02*
X19256373Y-11490841D01*
X19256373Y-11490841D02*
X19237325Y-11481317D01*
X19237325Y-11481317D02*
X19208753Y-11481317D01*
X19208753Y-11481317D02*
X19189706Y-11471793D01*
X19189706Y-11471793D02*
X19180182Y-11452746D01*
X19180182Y-11452746D02*
X19180182Y-11443222D01*
X19180182Y-11443222D02*
X19189706Y-11424174D01*
X19189706Y-11424174D02*
X19208753Y-11414650D01*
X19208753Y-11414650D02*
X19237325Y-11414650D01*
X19237325Y-11414650D02*
X19256373Y-11424174D01*
X19332563Y-11624174D02*
X19342087Y-11614650D01*
X19342087Y-11614650D02*
X19361134Y-11586079D01*
X19361134Y-11586079D02*
X19370658Y-11567031D01*
X19370658Y-11567031D02*
X19380182Y-11538460D01*
X19380182Y-11538460D02*
X19389706Y-11490841D01*
X19389706Y-11490841D02*
X19389706Y-11452746D01*
X19389706Y-11452746D02*
X19380182Y-11405127D01*
X19380182Y-11405127D02*
X19370658Y-11376555D01*
X19370658Y-11376555D02*
X19361134Y-11357508D01*
X19361134Y-11357508D02*
X19342087Y-11328936D01*
X19342087Y-11328936D02*
X19332563Y-11319412D01*
D12*
X14507500Y-11670500D02*
X14507500Y-11770500D01*
X14457500Y-11720500D02*
X14557500Y-11720500D01*
D11*
X14923039Y-11811984D02*
X14808753Y-11811984D01*
X14865896Y-11811984D02*
X14865896Y-11611984D01*
X14865896Y-11611984D02*
X14846848Y-11640555D01*
X14846848Y-11640555D02*
X14827801Y-11659603D01*
X14827801Y-11659603D02*
X14808753Y-11669127D01*
X15008753Y-11792936D02*
X15018277Y-11802460D01*
X15018277Y-11802460D02*
X15008753Y-11811984D01*
X15008753Y-11811984D02*
X14999229Y-11802460D01*
X14999229Y-11802460D02*
X15008753Y-11792936D01*
X15008753Y-11792936D02*
X15008753Y-11811984D01*
X15142086Y-11611984D02*
X15161134Y-11611984D01*
X15161134Y-11611984D02*
X15180182Y-11621508D01*
X15180182Y-11621508D02*
X15189705Y-11631031D01*
X15189705Y-11631031D02*
X15199229Y-11650079D01*
X15199229Y-11650079D02*
X15208753Y-11688174D01*
X15208753Y-11688174D02*
X15208753Y-11735793D01*
X15208753Y-11735793D02*
X15199229Y-11773888D01*
X15199229Y-11773888D02*
X15189705Y-11792936D01*
X15189705Y-11792936D02*
X15180182Y-11802460D01*
X15180182Y-11802460D02*
X15161134Y-11811984D01*
X15161134Y-11811984D02*
X15142086Y-11811984D01*
X15142086Y-11811984D02*
X15123039Y-11802460D01*
X15123039Y-11802460D02*
X15113515Y-11792936D01*
X15113515Y-11792936D02*
X15103991Y-11773888D01*
X15103991Y-11773888D02*
X15094467Y-11735793D01*
X15094467Y-11735793D02*
X15094467Y-11688174D01*
X15094467Y-11688174D02*
X15103991Y-11650079D01*
X15103991Y-11650079D02*
X15113515Y-11631031D01*
X15113515Y-11631031D02*
X15123039Y-11621508D01*
X15123039Y-11621508D02*
X15142086Y-11611984D01*
X15332562Y-11611984D02*
X15351610Y-11611984D01*
X15351610Y-11611984D02*
X15370658Y-11621508D01*
X15370658Y-11621508D02*
X15380182Y-11631031D01*
X15380182Y-11631031D02*
X15389705Y-11650079D01*
X15389705Y-11650079D02*
X15399229Y-11688174D01*
X15399229Y-11688174D02*
X15399229Y-11735793D01*
X15399229Y-11735793D02*
X15389705Y-11773888D01*
X15389705Y-11773888D02*
X15380182Y-11792936D01*
X15380182Y-11792936D02*
X15370658Y-11802460D01*
X15370658Y-11802460D02*
X15351610Y-11811984D01*
X15351610Y-11811984D02*
X15332562Y-11811984D01*
X15332562Y-11811984D02*
X15313515Y-11802460D01*
X15313515Y-11802460D02*
X15303991Y-11792936D01*
X15303991Y-11792936D02*
X15294467Y-11773888D01*
X15294467Y-11773888D02*
X15284943Y-11735793D01*
X15284943Y-11735793D02*
X15284943Y-11688174D01*
X15284943Y-11688174D02*
X15294467Y-11650079D01*
X15294467Y-11650079D02*
X15303991Y-11631031D01*
X15303991Y-11631031D02*
X15313515Y-11621508D01*
X15313515Y-11621508D02*
X15332562Y-11611984D01*
X15523039Y-11611984D02*
X15542086Y-11611984D01*
X15542086Y-11611984D02*
X15561134Y-11621508D01*
X15561134Y-11621508D02*
X15570658Y-11631031D01*
X15570658Y-11631031D02*
X15580182Y-11650079D01*
X15580182Y-11650079D02*
X15589705Y-11688174D01*
X15589705Y-11688174D02*
X15589705Y-11735793D01*
X15589705Y-11735793D02*
X15580182Y-11773888D01*
X15580182Y-11773888D02*
X15570658Y-11792936D01*
X15570658Y-11792936D02*
X15561134Y-11802460D01*
X15561134Y-11802460D02*
X15542086Y-11811984D01*
X15542086Y-11811984D02*
X15523039Y-11811984D01*
X15523039Y-11811984D02*
X15503991Y-11802460D01*
X15503991Y-11802460D02*
X15494467Y-11792936D01*
X15494467Y-11792936D02*
X15484943Y-11773888D01*
X15484943Y-11773888D02*
X15475420Y-11735793D01*
X15475420Y-11735793D02*
X15475420Y-11688174D01*
X15475420Y-11688174D02*
X15484943Y-11650079D01*
X15484943Y-11650079D02*
X15494467Y-11631031D01*
X15494467Y-11631031D02*
X15503991Y-11621508D01*
X15503991Y-11621508D02*
X15523039Y-11611984D01*
X15675420Y-11811984D02*
X15675420Y-11678650D01*
X15675420Y-11697698D02*
X15684943Y-11688174D01*
X15684943Y-11688174D02*
X15703991Y-11678650D01*
X15703991Y-11678650D02*
X15732563Y-11678650D01*
X15732563Y-11678650D02*
X15751610Y-11688174D01*
X15751610Y-11688174D02*
X15761134Y-11707222D01*
X15761134Y-11707222D02*
X15761134Y-11811984D01*
X15761134Y-11707222D02*
X15770658Y-11688174D01*
X15770658Y-11688174D02*
X15789705Y-11678650D01*
X15789705Y-11678650D02*
X15818277Y-11678650D01*
X15818277Y-11678650D02*
X15837324Y-11688174D01*
X15837324Y-11688174D02*
X15846848Y-11707222D01*
X15846848Y-11707222D02*
X15846848Y-11811984D01*
X15942086Y-11811984D02*
X15942086Y-11678650D01*
X15942086Y-11697698D02*
X15951610Y-11688174D01*
X15951610Y-11688174D02*
X15970658Y-11678650D01*
X15970658Y-11678650D02*
X15999229Y-11678650D01*
X15999229Y-11678650D02*
X16018277Y-11688174D01*
X16018277Y-11688174D02*
X16027801Y-11707222D01*
X16027801Y-11707222D02*
X16027801Y-11811984D01*
X16027801Y-11707222D02*
X16037324Y-11688174D01*
X16037324Y-11688174D02*
X16056372Y-11678650D01*
X16056372Y-11678650D02*
X16084943Y-11678650D01*
X16084943Y-11678650D02*
X16103991Y-11688174D01*
X16103991Y-11688174D02*
X16113515Y-11707222D01*
X16113515Y-11707222D02*
X16113515Y-11811984D01*
X16503991Y-11602460D02*
X16332563Y-11859603D01*
X16761134Y-11611984D02*
X16780182Y-11611984D01*
X16780182Y-11611984D02*
X16799229Y-11621508D01*
X16799229Y-11621508D02*
X16808753Y-11631031D01*
X16808753Y-11631031D02*
X16818277Y-11650079D01*
X16818277Y-11650079D02*
X16827801Y-11688174D01*
X16827801Y-11688174D02*
X16827801Y-11735793D01*
X16827801Y-11735793D02*
X16818277Y-11773888D01*
X16818277Y-11773888D02*
X16808753Y-11792936D01*
X16808753Y-11792936D02*
X16799229Y-11802460D01*
X16799229Y-11802460D02*
X16780182Y-11811984D01*
X16780182Y-11811984D02*
X16761134Y-11811984D01*
X16761134Y-11811984D02*
X16742086Y-11802460D01*
X16742086Y-11802460D02*
X16732563Y-11792936D01*
X16732563Y-11792936D02*
X16723039Y-11773888D01*
X16723039Y-11773888D02*
X16713515Y-11735793D01*
X16713515Y-11735793D02*
X16713515Y-11688174D01*
X16713515Y-11688174D02*
X16723039Y-11650079D01*
X16723039Y-11650079D02*
X16732563Y-11631031D01*
X16732563Y-11631031D02*
X16742086Y-11621508D01*
X16742086Y-11621508D02*
X16761134Y-11611984D01*
X16913515Y-11792936D02*
X16923039Y-11802460D01*
X16923039Y-11802460D02*
X16913515Y-11811984D01*
X16913515Y-11811984D02*
X16903991Y-11802460D01*
X16903991Y-11802460D02*
X16913515Y-11792936D01*
X16913515Y-11792936D02*
X16913515Y-11811984D01*
X17046848Y-11611984D02*
X17065896Y-11611984D01*
X17065896Y-11611984D02*
X17084944Y-11621508D01*
X17084944Y-11621508D02*
X17094468Y-11631031D01*
X17094468Y-11631031D02*
X17103991Y-11650079D01*
X17103991Y-11650079D02*
X17113515Y-11688174D01*
X17113515Y-11688174D02*
X17113515Y-11735793D01*
X17113515Y-11735793D02*
X17103991Y-11773888D01*
X17103991Y-11773888D02*
X17094468Y-11792936D01*
X17094468Y-11792936D02*
X17084944Y-11802460D01*
X17084944Y-11802460D02*
X17065896Y-11811984D01*
X17065896Y-11811984D02*
X17046848Y-11811984D01*
X17046848Y-11811984D02*
X17027801Y-11802460D01*
X17027801Y-11802460D02*
X17018277Y-11792936D01*
X17018277Y-11792936D02*
X17008753Y-11773888D01*
X17008753Y-11773888D02*
X16999229Y-11735793D01*
X16999229Y-11735793D02*
X16999229Y-11688174D01*
X16999229Y-11688174D02*
X17008753Y-11650079D01*
X17008753Y-11650079D02*
X17018277Y-11631031D01*
X17018277Y-11631031D02*
X17027801Y-11621508D01*
X17027801Y-11621508D02*
X17046848Y-11611984D01*
X17180182Y-11611984D02*
X17303991Y-11611984D01*
X17303991Y-11611984D02*
X17237325Y-11688174D01*
X17237325Y-11688174D02*
X17265896Y-11688174D01*
X17265896Y-11688174D02*
X17284944Y-11697698D01*
X17284944Y-11697698D02*
X17294468Y-11707222D01*
X17294468Y-11707222D02*
X17303991Y-11726269D01*
X17303991Y-11726269D02*
X17303991Y-11773888D01*
X17303991Y-11773888D02*
X17294468Y-11792936D01*
X17294468Y-11792936D02*
X17284944Y-11802460D01*
X17284944Y-11802460D02*
X17265896Y-11811984D01*
X17265896Y-11811984D02*
X17208753Y-11811984D01*
X17208753Y-11811984D02*
X17189706Y-11802460D01*
X17189706Y-11802460D02*
X17180182Y-11792936D01*
X17399229Y-11811984D02*
X17437325Y-11811984D01*
X17437325Y-11811984D02*
X17456372Y-11802460D01*
X17456372Y-11802460D02*
X17465896Y-11792936D01*
X17465896Y-11792936D02*
X17484944Y-11764365D01*
X17484944Y-11764365D02*
X17494468Y-11726269D01*
X17494468Y-11726269D02*
X17494468Y-11650079D01*
X17494468Y-11650079D02*
X17484944Y-11631031D01*
X17484944Y-11631031D02*
X17475420Y-11621508D01*
X17475420Y-11621508D02*
X17456372Y-11611984D01*
X17456372Y-11611984D02*
X17418277Y-11611984D01*
X17418277Y-11611984D02*
X17399229Y-11621508D01*
X17399229Y-11621508D02*
X17389706Y-11631031D01*
X17389706Y-11631031D02*
X17380182Y-11650079D01*
X17380182Y-11650079D02*
X17380182Y-11697698D01*
X17380182Y-11697698D02*
X17389706Y-11716746D01*
X17389706Y-11716746D02*
X17399229Y-11726269D01*
X17399229Y-11726269D02*
X17418277Y-11735793D01*
X17418277Y-11735793D02*
X17456372Y-11735793D01*
X17456372Y-11735793D02*
X17475420Y-11726269D01*
X17475420Y-11726269D02*
X17484944Y-11716746D01*
X17484944Y-11716746D02*
X17494468Y-11697698D01*
X17665896Y-11678650D02*
X17665896Y-11811984D01*
X17618277Y-11602460D02*
X17570658Y-11745317D01*
X17570658Y-11745317D02*
X17694468Y-11745317D01*
X17761134Y-11611984D02*
X17761134Y-11650079D01*
X17837325Y-11611984D02*
X17837325Y-11650079D01*
X18132563Y-11888174D02*
X18123039Y-11878650D01*
X18123039Y-11878650D02*
X18103991Y-11850079D01*
X18103991Y-11850079D02*
X18094468Y-11831031D01*
X18094468Y-11831031D02*
X18084944Y-11802460D01*
X18084944Y-11802460D02*
X18075420Y-11754841D01*
X18075420Y-11754841D02*
X18075420Y-11716746D01*
X18075420Y-11716746D02*
X18084944Y-11669127D01*
X18084944Y-11669127D02*
X18094468Y-11640555D01*
X18094468Y-11640555D02*
X18103991Y-11621508D01*
X18103991Y-11621508D02*
X18123039Y-11592936D01*
X18123039Y-11592936D02*
X18132563Y-11583412D01*
X18294468Y-11611984D02*
X18256372Y-11611984D01*
X18256372Y-11611984D02*
X18237325Y-11621508D01*
X18237325Y-11621508D02*
X18227801Y-11631031D01*
X18227801Y-11631031D02*
X18208753Y-11659603D01*
X18208753Y-11659603D02*
X18199230Y-11697698D01*
X18199230Y-11697698D02*
X18199230Y-11773888D01*
X18199230Y-11773888D02*
X18208753Y-11792936D01*
X18208753Y-11792936D02*
X18218277Y-11802460D01*
X18218277Y-11802460D02*
X18237325Y-11811984D01*
X18237325Y-11811984D02*
X18275420Y-11811984D01*
X18275420Y-11811984D02*
X18294468Y-11802460D01*
X18294468Y-11802460D02*
X18303991Y-11792936D01*
X18303991Y-11792936D02*
X18313515Y-11773888D01*
X18313515Y-11773888D02*
X18313515Y-11726269D01*
X18313515Y-11726269D02*
X18303991Y-11707222D01*
X18303991Y-11707222D02*
X18294468Y-11697698D01*
X18294468Y-11697698D02*
X18275420Y-11688174D01*
X18275420Y-11688174D02*
X18237325Y-11688174D01*
X18237325Y-11688174D02*
X18218277Y-11697698D01*
X18218277Y-11697698D02*
X18208753Y-11707222D01*
X18208753Y-11707222D02*
X18199230Y-11726269D01*
X18484944Y-11611984D02*
X18446849Y-11611984D01*
X18446849Y-11611984D02*
X18427801Y-11621508D01*
X18427801Y-11621508D02*
X18418277Y-11631031D01*
X18418277Y-11631031D02*
X18399230Y-11659603D01*
X18399230Y-11659603D02*
X18389706Y-11697698D01*
X18389706Y-11697698D02*
X18389706Y-11773888D01*
X18389706Y-11773888D02*
X18399230Y-11792936D01*
X18399230Y-11792936D02*
X18408753Y-11802460D01*
X18408753Y-11802460D02*
X18427801Y-11811984D01*
X18427801Y-11811984D02*
X18465896Y-11811984D01*
X18465896Y-11811984D02*
X18484944Y-11802460D01*
X18484944Y-11802460D02*
X18494468Y-11792936D01*
X18494468Y-11792936D02*
X18503991Y-11773888D01*
X18503991Y-11773888D02*
X18503991Y-11726269D01*
X18503991Y-11726269D02*
X18494468Y-11707222D01*
X18494468Y-11707222D02*
X18484944Y-11697698D01*
X18484944Y-11697698D02*
X18465896Y-11688174D01*
X18465896Y-11688174D02*
X18427801Y-11688174D01*
X18427801Y-11688174D02*
X18408753Y-11697698D01*
X18408753Y-11697698D02*
X18399230Y-11707222D01*
X18399230Y-11707222D02*
X18389706Y-11726269D01*
X18742087Y-11811984D02*
X18742087Y-11611984D01*
X18827801Y-11811984D02*
X18827801Y-11707222D01*
X18827801Y-11707222D02*
X18818277Y-11688174D01*
X18818277Y-11688174D02*
X18799230Y-11678650D01*
X18799230Y-11678650D02*
X18770658Y-11678650D01*
X18770658Y-11678650D02*
X18751611Y-11688174D01*
X18751611Y-11688174D02*
X18742087Y-11697698D01*
X18951611Y-11811984D02*
X18932563Y-11802460D01*
X18932563Y-11802460D02*
X18923039Y-11792936D01*
X18923039Y-11792936D02*
X18913515Y-11773888D01*
X18913515Y-11773888D02*
X18913515Y-11716746D01*
X18913515Y-11716746D02*
X18923039Y-11697698D01*
X18923039Y-11697698D02*
X18932563Y-11688174D01*
X18932563Y-11688174D02*
X18951611Y-11678650D01*
X18951611Y-11678650D02*
X18980182Y-11678650D01*
X18980182Y-11678650D02*
X18999230Y-11688174D01*
X18999230Y-11688174D02*
X19008753Y-11697698D01*
X19008753Y-11697698D02*
X19018277Y-11716746D01*
X19018277Y-11716746D02*
X19018277Y-11773888D01*
X19018277Y-11773888D02*
X19008753Y-11792936D01*
X19008753Y-11792936D02*
X18999230Y-11802460D01*
X18999230Y-11802460D02*
X18980182Y-11811984D01*
X18980182Y-11811984D02*
X18951611Y-11811984D01*
X19132563Y-11811984D02*
X19113515Y-11802460D01*
X19113515Y-11802460D02*
X19103992Y-11783412D01*
X19103992Y-11783412D02*
X19103992Y-11611984D01*
X19284944Y-11802460D02*
X19265896Y-11811984D01*
X19265896Y-11811984D02*
X19227801Y-11811984D01*
X19227801Y-11811984D02*
X19208753Y-11802460D01*
X19208753Y-11802460D02*
X19199230Y-11783412D01*
X19199230Y-11783412D02*
X19199230Y-11707222D01*
X19199230Y-11707222D02*
X19208753Y-11688174D01*
X19208753Y-11688174D02*
X19227801Y-11678650D01*
X19227801Y-11678650D02*
X19265896Y-11678650D01*
X19265896Y-11678650D02*
X19284944Y-11688174D01*
X19284944Y-11688174D02*
X19294468Y-11707222D01*
X19294468Y-11707222D02*
X19294468Y-11726269D01*
X19294468Y-11726269D02*
X19199230Y-11745317D01*
X19370658Y-11802460D02*
X19389706Y-11811984D01*
X19389706Y-11811984D02*
X19427801Y-11811984D01*
X19427801Y-11811984D02*
X19446849Y-11802460D01*
X19446849Y-11802460D02*
X19456373Y-11783412D01*
X19456373Y-11783412D02*
X19456373Y-11773888D01*
X19456373Y-11773888D02*
X19446849Y-11754841D01*
X19446849Y-11754841D02*
X19427801Y-11745317D01*
X19427801Y-11745317D02*
X19399230Y-11745317D01*
X19399230Y-11745317D02*
X19380182Y-11735793D01*
X19380182Y-11735793D02*
X19370658Y-11716746D01*
X19370658Y-11716746D02*
X19370658Y-11707222D01*
X19370658Y-11707222D02*
X19380182Y-11688174D01*
X19380182Y-11688174D02*
X19399230Y-11678650D01*
X19399230Y-11678650D02*
X19427801Y-11678650D01*
X19427801Y-11678650D02*
X19446849Y-11688174D01*
X19523039Y-11888174D02*
X19532563Y-11878650D01*
X19532563Y-11878650D02*
X19551611Y-11850079D01*
X19551611Y-11850079D02*
X19561134Y-11831031D01*
X19561134Y-11831031D02*
X19570658Y-11802460D01*
X19570658Y-11802460D02*
X19580182Y-11754841D01*
X19580182Y-11754841D02*
X19580182Y-11716746D01*
X19580182Y-11716746D02*
X19570658Y-11669127D01*
X19570658Y-11669127D02*
X19561134Y-11640555D01*
X19561134Y-11640555D02*
X19551611Y-11621508D01*
X19551611Y-11621508D02*
X19532563Y-11592936D01*
X19532563Y-11592936D02*
X19523039Y-11583412D01*
D13*
X14541391Y-12023391D02*
X14541391Y-11945609D01*
X14463609Y-11945609D01*
X14463609Y-12023391D01*
X14541391Y-12023391D01*
D11*
X14923039Y-12075984D02*
X14808753Y-12075984D01*
X14865896Y-12075984D02*
X14865896Y-11875984D01*
X14865896Y-11875984D02*
X14846848Y-11904555D01*
X14846848Y-11904555D02*
X14827801Y-11923603D01*
X14827801Y-11923603D02*
X14808753Y-11933127D01*
X15008753Y-12056936D02*
X15018277Y-12066460D01*
X15018277Y-12066460D02*
X15008753Y-12075984D01*
X15008753Y-12075984D02*
X14999229Y-12066460D01*
X14999229Y-12066460D02*
X15008753Y-12056936D01*
X15008753Y-12056936D02*
X15008753Y-12075984D01*
X15208753Y-12075984D02*
X15094467Y-12075984D01*
X15151610Y-12075984D02*
X15151610Y-11875984D01*
X15151610Y-11875984D02*
X15132562Y-11904555D01*
X15132562Y-11904555D02*
X15113515Y-11923603D01*
X15113515Y-11923603D02*
X15094467Y-11933127D01*
X15332562Y-11875984D02*
X15351610Y-11875984D01*
X15351610Y-11875984D02*
X15370658Y-11885508D01*
X15370658Y-11885508D02*
X15380182Y-11895031D01*
X15380182Y-11895031D02*
X15389705Y-11914079D01*
X15389705Y-11914079D02*
X15399229Y-11952174D01*
X15399229Y-11952174D02*
X15399229Y-11999793D01*
X15399229Y-11999793D02*
X15389705Y-12037888D01*
X15389705Y-12037888D02*
X15380182Y-12056936D01*
X15380182Y-12056936D02*
X15370658Y-12066460D01*
X15370658Y-12066460D02*
X15351610Y-12075984D01*
X15351610Y-12075984D02*
X15332562Y-12075984D01*
X15332562Y-12075984D02*
X15313515Y-12066460D01*
X15313515Y-12066460D02*
X15303991Y-12056936D01*
X15303991Y-12056936D02*
X15294467Y-12037888D01*
X15294467Y-12037888D02*
X15284943Y-11999793D01*
X15284943Y-11999793D02*
X15284943Y-11952174D01*
X15284943Y-11952174D02*
X15294467Y-11914079D01*
X15294467Y-11914079D02*
X15303991Y-11895031D01*
X15303991Y-11895031D02*
X15313515Y-11885508D01*
X15313515Y-11885508D02*
X15332562Y-11875984D01*
X15523039Y-11875984D02*
X15542086Y-11875984D01*
X15542086Y-11875984D02*
X15561134Y-11885508D01*
X15561134Y-11885508D02*
X15570658Y-11895031D01*
X15570658Y-11895031D02*
X15580182Y-11914079D01*
X15580182Y-11914079D02*
X15589705Y-11952174D01*
X15589705Y-11952174D02*
X15589705Y-11999793D01*
X15589705Y-11999793D02*
X15580182Y-12037888D01*
X15580182Y-12037888D02*
X15570658Y-12056936D01*
X15570658Y-12056936D02*
X15561134Y-12066460D01*
X15561134Y-12066460D02*
X15542086Y-12075984D01*
X15542086Y-12075984D02*
X15523039Y-12075984D01*
X15523039Y-12075984D02*
X15503991Y-12066460D01*
X15503991Y-12066460D02*
X15494467Y-12056936D01*
X15494467Y-12056936D02*
X15484943Y-12037888D01*
X15484943Y-12037888D02*
X15475420Y-11999793D01*
X15475420Y-11999793D02*
X15475420Y-11952174D01*
X15475420Y-11952174D02*
X15484943Y-11914079D01*
X15484943Y-11914079D02*
X15494467Y-11895031D01*
X15494467Y-11895031D02*
X15503991Y-11885508D01*
X15503991Y-11885508D02*
X15523039Y-11875984D01*
X15675420Y-12075984D02*
X15675420Y-11942650D01*
X15675420Y-11961698D02*
X15684943Y-11952174D01*
X15684943Y-11952174D02*
X15703991Y-11942650D01*
X15703991Y-11942650D02*
X15732563Y-11942650D01*
X15732563Y-11942650D02*
X15751610Y-11952174D01*
X15751610Y-11952174D02*
X15761134Y-11971222D01*
X15761134Y-11971222D02*
X15761134Y-12075984D01*
X15761134Y-11971222D02*
X15770658Y-11952174D01*
X15770658Y-11952174D02*
X15789705Y-11942650D01*
X15789705Y-11942650D02*
X15818277Y-11942650D01*
X15818277Y-11942650D02*
X15837324Y-11952174D01*
X15837324Y-11952174D02*
X15846848Y-11971222D01*
X15846848Y-11971222D02*
X15846848Y-12075984D01*
X15942086Y-12075984D02*
X15942086Y-11942650D01*
X15942086Y-11961698D02*
X15951610Y-11952174D01*
X15951610Y-11952174D02*
X15970658Y-11942650D01*
X15970658Y-11942650D02*
X15999229Y-11942650D01*
X15999229Y-11942650D02*
X16018277Y-11952174D01*
X16018277Y-11952174D02*
X16027801Y-11971222D01*
X16027801Y-11971222D02*
X16027801Y-12075984D01*
X16027801Y-11971222D02*
X16037324Y-11952174D01*
X16037324Y-11952174D02*
X16056372Y-11942650D01*
X16056372Y-11942650D02*
X16084943Y-11942650D01*
X16084943Y-11942650D02*
X16103991Y-11952174D01*
X16103991Y-11952174D02*
X16113515Y-11971222D01*
X16113515Y-11971222D02*
X16113515Y-12075984D01*
X16503991Y-11866460D02*
X16332563Y-12123603D01*
X16761134Y-11875984D02*
X16780182Y-11875984D01*
X16780182Y-11875984D02*
X16799229Y-11885508D01*
X16799229Y-11885508D02*
X16808753Y-11895031D01*
X16808753Y-11895031D02*
X16818277Y-11914079D01*
X16818277Y-11914079D02*
X16827801Y-11952174D01*
X16827801Y-11952174D02*
X16827801Y-11999793D01*
X16827801Y-11999793D02*
X16818277Y-12037888D01*
X16818277Y-12037888D02*
X16808753Y-12056936D01*
X16808753Y-12056936D02*
X16799229Y-12066460D01*
X16799229Y-12066460D02*
X16780182Y-12075984D01*
X16780182Y-12075984D02*
X16761134Y-12075984D01*
X16761134Y-12075984D02*
X16742086Y-12066460D01*
X16742086Y-12066460D02*
X16732563Y-12056936D01*
X16732563Y-12056936D02*
X16723039Y-12037888D01*
X16723039Y-12037888D02*
X16713515Y-11999793D01*
X16713515Y-11999793D02*
X16713515Y-11952174D01*
X16713515Y-11952174D02*
X16723039Y-11914079D01*
X16723039Y-11914079D02*
X16732563Y-11895031D01*
X16732563Y-11895031D02*
X16742086Y-11885508D01*
X16742086Y-11885508D02*
X16761134Y-11875984D01*
X16913515Y-12056936D02*
X16923039Y-12066460D01*
X16923039Y-12066460D02*
X16913515Y-12075984D01*
X16913515Y-12075984D02*
X16903991Y-12066460D01*
X16903991Y-12066460D02*
X16913515Y-12056936D01*
X16913515Y-12056936D02*
X16913515Y-12075984D01*
X17046848Y-11875984D02*
X17065896Y-11875984D01*
X17065896Y-11875984D02*
X17084944Y-11885508D01*
X17084944Y-11885508D02*
X17094468Y-11895031D01*
X17094468Y-11895031D02*
X17103991Y-11914079D01*
X17103991Y-11914079D02*
X17113515Y-11952174D01*
X17113515Y-11952174D02*
X17113515Y-11999793D01*
X17113515Y-11999793D02*
X17103991Y-12037888D01*
X17103991Y-12037888D02*
X17094468Y-12056936D01*
X17094468Y-12056936D02*
X17084944Y-12066460D01*
X17084944Y-12066460D02*
X17065896Y-12075984D01*
X17065896Y-12075984D02*
X17046848Y-12075984D01*
X17046848Y-12075984D02*
X17027801Y-12066460D01*
X17027801Y-12066460D02*
X17018277Y-12056936D01*
X17018277Y-12056936D02*
X17008753Y-12037888D01*
X17008753Y-12037888D02*
X16999229Y-11999793D01*
X16999229Y-11999793D02*
X16999229Y-11952174D01*
X16999229Y-11952174D02*
X17008753Y-11914079D01*
X17008753Y-11914079D02*
X17018277Y-11895031D01*
X17018277Y-11895031D02*
X17027801Y-11885508D01*
X17027801Y-11885508D02*
X17046848Y-11875984D01*
X17284944Y-11942650D02*
X17284944Y-12075984D01*
X17237325Y-11866460D02*
X17189706Y-12009317D01*
X17189706Y-12009317D02*
X17313515Y-12009317D01*
X17370658Y-11875984D02*
X17494468Y-11875984D01*
X17494468Y-11875984D02*
X17427801Y-11952174D01*
X17427801Y-11952174D02*
X17456372Y-11952174D01*
X17456372Y-11952174D02*
X17475420Y-11961698D01*
X17475420Y-11961698D02*
X17484944Y-11971222D01*
X17484944Y-11971222D02*
X17494468Y-11990269D01*
X17494468Y-11990269D02*
X17494468Y-12037888D01*
X17494468Y-12037888D02*
X17484944Y-12056936D01*
X17484944Y-12056936D02*
X17475420Y-12066460D01*
X17475420Y-12066460D02*
X17456372Y-12075984D01*
X17456372Y-12075984D02*
X17399229Y-12075984D01*
X17399229Y-12075984D02*
X17380182Y-12066460D01*
X17380182Y-12066460D02*
X17370658Y-12056936D01*
X17561134Y-11875984D02*
X17684944Y-11875984D01*
X17684944Y-11875984D02*
X17618277Y-11952174D01*
X17618277Y-11952174D02*
X17646849Y-11952174D01*
X17646849Y-11952174D02*
X17665896Y-11961698D01*
X17665896Y-11961698D02*
X17675420Y-11971222D01*
X17675420Y-11971222D02*
X17684944Y-11990269D01*
X17684944Y-11990269D02*
X17684944Y-12037888D01*
X17684944Y-12037888D02*
X17675420Y-12056936D01*
X17675420Y-12056936D02*
X17665896Y-12066460D01*
X17665896Y-12066460D02*
X17646849Y-12075984D01*
X17646849Y-12075984D02*
X17589706Y-12075984D01*
X17589706Y-12075984D02*
X17570658Y-12066460D01*
X17570658Y-12066460D02*
X17561134Y-12056936D01*
X17761134Y-11875984D02*
X17761134Y-11914079D01*
X17837325Y-11875984D02*
X17837325Y-11914079D01*
X18132563Y-12152174D02*
X18123039Y-12142650D01*
X18123039Y-12142650D02*
X18103991Y-12114079D01*
X18103991Y-12114079D02*
X18094468Y-12095031D01*
X18094468Y-12095031D02*
X18084944Y-12066460D01*
X18084944Y-12066460D02*
X18075420Y-12018841D01*
X18075420Y-12018841D02*
X18075420Y-11980746D01*
X18075420Y-11980746D02*
X18084944Y-11933127D01*
X18084944Y-11933127D02*
X18094468Y-11904555D01*
X18094468Y-11904555D02*
X18103991Y-11885508D01*
X18103991Y-11885508D02*
X18123039Y-11856936D01*
X18123039Y-11856936D02*
X18132563Y-11847412D01*
X18294468Y-11942650D02*
X18294468Y-12075984D01*
X18246849Y-11866460D02*
X18199230Y-12009317D01*
X18199230Y-12009317D02*
X18323039Y-12009317D01*
X18551611Y-12075984D02*
X18551611Y-11875984D01*
X18637325Y-12075984D02*
X18637325Y-11971222D01*
X18637325Y-11971222D02*
X18627801Y-11952174D01*
X18627801Y-11952174D02*
X18608753Y-11942650D01*
X18608753Y-11942650D02*
X18580182Y-11942650D01*
X18580182Y-11942650D02*
X18561134Y-11952174D01*
X18561134Y-11952174D02*
X18551611Y-11961698D01*
X18761134Y-12075984D02*
X18742087Y-12066460D01*
X18742087Y-12066460D02*
X18732563Y-12056936D01*
X18732563Y-12056936D02*
X18723039Y-12037888D01*
X18723039Y-12037888D02*
X18723039Y-11980746D01*
X18723039Y-11980746D02*
X18732563Y-11961698D01*
X18732563Y-11961698D02*
X18742087Y-11952174D01*
X18742087Y-11952174D02*
X18761134Y-11942650D01*
X18761134Y-11942650D02*
X18789706Y-11942650D01*
X18789706Y-11942650D02*
X18808753Y-11952174D01*
X18808753Y-11952174D02*
X18818277Y-11961698D01*
X18818277Y-11961698D02*
X18827801Y-11980746D01*
X18827801Y-11980746D02*
X18827801Y-12037888D01*
X18827801Y-12037888D02*
X18818277Y-12056936D01*
X18818277Y-12056936D02*
X18808753Y-12066460D01*
X18808753Y-12066460D02*
X18789706Y-12075984D01*
X18789706Y-12075984D02*
X18761134Y-12075984D01*
X18942087Y-12075984D02*
X18923039Y-12066460D01*
X18923039Y-12066460D02*
X18913515Y-12047412D01*
X18913515Y-12047412D02*
X18913515Y-11875984D01*
X19094468Y-12066460D02*
X19075420Y-12075984D01*
X19075420Y-12075984D02*
X19037325Y-12075984D01*
X19037325Y-12075984D02*
X19018277Y-12066460D01*
X19018277Y-12066460D02*
X19008753Y-12047412D01*
X19008753Y-12047412D02*
X19008753Y-11971222D01*
X19008753Y-11971222D02*
X19018277Y-11952174D01*
X19018277Y-11952174D02*
X19037325Y-11942650D01*
X19037325Y-11942650D02*
X19075420Y-11942650D01*
X19075420Y-11942650D02*
X19094468Y-11952174D01*
X19094468Y-11952174D02*
X19103992Y-11971222D01*
X19103992Y-11971222D02*
X19103992Y-11990269D01*
X19103992Y-11990269D02*
X19008753Y-12009317D01*
X19180182Y-12066460D02*
X19199230Y-12075984D01*
X19199230Y-12075984D02*
X19237325Y-12075984D01*
X19237325Y-12075984D02*
X19256373Y-12066460D01*
X19256373Y-12066460D02*
X19265896Y-12047412D01*
X19265896Y-12047412D02*
X19265896Y-12037888D01*
X19265896Y-12037888D02*
X19256373Y-12018841D01*
X19256373Y-12018841D02*
X19237325Y-12009317D01*
X19237325Y-12009317D02*
X19208753Y-12009317D01*
X19208753Y-12009317D02*
X19189706Y-11999793D01*
X19189706Y-11999793D02*
X19180182Y-11980746D01*
X19180182Y-11980746D02*
X19180182Y-11971222D01*
X19180182Y-11971222D02*
X19189706Y-11952174D01*
X19189706Y-11952174D02*
X19208753Y-11942650D01*
X19208753Y-11942650D02*
X19237325Y-11942650D01*
X19237325Y-11942650D02*
X19256373Y-11952174D01*
X19332563Y-12152174D02*
X19342087Y-12142650D01*
X19342087Y-12142650D02*
X19361134Y-12114079D01*
X19361134Y-12114079D02*
X19370658Y-12095031D01*
X19370658Y-12095031D02*
X19380182Y-12066460D01*
X19380182Y-12066460D02*
X19389706Y-12018841D01*
X19389706Y-12018841D02*
X19389706Y-11980746D01*
X19389706Y-11980746D02*
X19380182Y-11933127D01*
X19380182Y-11933127D02*
X19370658Y-11904555D01*
X19370658Y-11904555D02*
X19361134Y-11885508D01*
X19361134Y-11885508D02*
X19342087Y-11856936D01*
X19342087Y-11856936D02*
X19332563Y-11847412D01*
D14*
X14500000Y-12306000D02*
X14557500Y-12248500D01*
X14500000Y-12191000D01*
X14442500Y-12248500D01*
X14500000Y-12306000D01*
D11*
X14923039Y-12339984D02*
X14808753Y-12339984D01*
X14865896Y-12339984D02*
X14865896Y-12139984D01*
X14865896Y-12139984D02*
X14846848Y-12168555D01*
X14846848Y-12168555D02*
X14827801Y-12187603D01*
X14827801Y-12187603D02*
X14808753Y-12197127D01*
X15008753Y-12320936D02*
X15018277Y-12330460D01*
X15018277Y-12330460D02*
X15008753Y-12339984D01*
X15008753Y-12339984D02*
X14999229Y-12330460D01*
X14999229Y-12330460D02*
X15008753Y-12320936D01*
X15008753Y-12320936D02*
X15008753Y-12339984D01*
X15208753Y-12339984D02*
X15094467Y-12339984D01*
X15151610Y-12339984D02*
X15151610Y-12139984D01*
X15151610Y-12139984D02*
X15132562Y-12168555D01*
X15132562Y-12168555D02*
X15113515Y-12187603D01*
X15113515Y-12187603D02*
X15094467Y-12197127D01*
X15389705Y-12139984D02*
X15294467Y-12139984D01*
X15294467Y-12139984D02*
X15284943Y-12235222D01*
X15284943Y-12235222D02*
X15294467Y-12225698D01*
X15294467Y-12225698D02*
X15313515Y-12216174D01*
X15313515Y-12216174D02*
X15361134Y-12216174D01*
X15361134Y-12216174D02*
X15380182Y-12225698D01*
X15380182Y-12225698D02*
X15389705Y-12235222D01*
X15389705Y-12235222D02*
X15399229Y-12254269D01*
X15399229Y-12254269D02*
X15399229Y-12301888D01*
X15399229Y-12301888D02*
X15389705Y-12320936D01*
X15389705Y-12320936D02*
X15380182Y-12330460D01*
X15380182Y-12330460D02*
X15361134Y-12339984D01*
X15361134Y-12339984D02*
X15313515Y-12339984D01*
X15313515Y-12339984D02*
X15294467Y-12330460D01*
X15294467Y-12330460D02*
X15284943Y-12320936D01*
X15523039Y-12139984D02*
X15542086Y-12139984D01*
X15542086Y-12139984D02*
X15561134Y-12149508D01*
X15561134Y-12149508D02*
X15570658Y-12159031D01*
X15570658Y-12159031D02*
X15580182Y-12178079D01*
X15580182Y-12178079D02*
X15589705Y-12216174D01*
X15589705Y-12216174D02*
X15589705Y-12263793D01*
X15589705Y-12263793D02*
X15580182Y-12301888D01*
X15580182Y-12301888D02*
X15570658Y-12320936D01*
X15570658Y-12320936D02*
X15561134Y-12330460D01*
X15561134Y-12330460D02*
X15542086Y-12339984D01*
X15542086Y-12339984D02*
X15523039Y-12339984D01*
X15523039Y-12339984D02*
X15503991Y-12330460D01*
X15503991Y-12330460D02*
X15494467Y-12320936D01*
X15494467Y-12320936D02*
X15484943Y-12301888D01*
X15484943Y-12301888D02*
X15475420Y-12263793D01*
X15475420Y-12263793D02*
X15475420Y-12216174D01*
X15475420Y-12216174D02*
X15484943Y-12178079D01*
X15484943Y-12178079D02*
X15494467Y-12159031D01*
X15494467Y-12159031D02*
X15503991Y-12149508D01*
X15503991Y-12149508D02*
X15523039Y-12139984D01*
X15675420Y-12339984D02*
X15675420Y-12206650D01*
X15675420Y-12225698D02*
X15684943Y-12216174D01*
X15684943Y-12216174D02*
X15703991Y-12206650D01*
X15703991Y-12206650D02*
X15732563Y-12206650D01*
X15732563Y-12206650D02*
X15751610Y-12216174D01*
X15751610Y-12216174D02*
X15761134Y-12235222D01*
X15761134Y-12235222D02*
X15761134Y-12339984D01*
X15761134Y-12235222D02*
X15770658Y-12216174D01*
X15770658Y-12216174D02*
X15789705Y-12206650D01*
X15789705Y-12206650D02*
X15818277Y-12206650D01*
X15818277Y-12206650D02*
X15837324Y-12216174D01*
X15837324Y-12216174D02*
X15846848Y-12235222D01*
X15846848Y-12235222D02*
X15846848Y-12339984D01*
X15942086Y-12339984D02*
X15942086Y-12206650D01*
X15942086Y-12225698D02*
X15951610Y-12216174D01*
X15951610Y-12216174D02*
X15970658Y-12206650D01*
X15970658Y-12206650D02*
X15999229Y-12206650D01*
X15999229Y-12206650D02*
X16018277Y-12216174D01*
X16018277Y-12216174D02*
X16027801Y-12235222D01*
X16027801Y-12235222D02*
X16027801Y-12339984D01*
X16027801Y-12235222D02*
X16037324Y-12216174D01*
X16037324Y-12216174D02*
X16056372Y-12206650D01*
X16056372Y-12206650D02*
X16084943Y-12206650D01*
X16084943Y-12206650D02*
X16103991Y-12216174D01*
X16103991Y-12216174D02*
X16113515Y-12235222D01*
X16113515Y-12235222D02*
X16113515Y-12339984D01*
X16503991Y-12130460D02*
X16332563Y-12387603D01*
X16761134Y-12139984D02*
X16780182Y-12139984D01*
X16780182Y-12139984D02*
X16799229Y-12149508D01*
X16799229Y-12149508D02*
X16808753Y-12159031D01*
X16808753Y-12159031D02*
X16818277Y-12178079D01*
X16818277Y-12178079D02*
X16827801Y-12216174D01*
X16827801Y-12216174D02*
X16827801Y-12263793D01*
X16827801Y-12263793D02*
X16818277Y-12301888D01*
X16818277Y-12301888D02*
X16808753Y-12320936D01*
X16808753Y-12320936D02*
X16799229Y-12330460D01*
X16799229Y-12330460D02*
X16780182Y-12339984D01*
X16780182Y-12339984D02*
X16761134Y-12339984D01*
X16761134Y-12339984D02*
X16742086Y-12330460D01*
X16742086Y-12330460D02*
X16732563Y-12320936D01*
X16732563Y-12320936D02*
X16723039Y-12301888D01*
X16723039Y-12301888D02*
X16713515Y-12263793D01*
X16713515Y-12263793D02*
X16713515Y-12216174D01*
X16713515Y-12216174D02*
X16723039Y-12178079D01*
X16723039Y-12178079D02*
X16732563Y-12159031D01*
X16732563Y-12159031D02*
X16742086Y-12149508D01*
X16742086Y-12149508D02*
X16761134Y-12139984D01*
X16913515Y-12320936D02*
X16923039Y-12330460D01*
X16923039Y-12330460D02*
X16913515Y-12339984D01*
X16913515Y-12339984D02*
X16903991Y-12330460D01*
X16903991Y-12330460D02*
X16913515Y-12320936D01*
X16913515Y-12320936D02*
X16913515Y-12339984D01*
X17046848Y-12139984D02*
X17065896Y-12139984D01*
X17065896Y-12139984D02*
X17084944Y-12149508D01*
X17084944Y-12149508D02*
X17094468Y-12159031D01*
X17094468Y-12159031D02*
X17103991Y-12178079D01*
X17103991Y-12178079D02*
X17113515Y-12216174D01*
X17113515Y-12216174D02*
X17113515Y-12263793D01*
X17113515Y-12263793D02*
X17103991Y-12301888D01*
X17103991Y-12301888D02*
X17094468Y-12320936D01*
X17094468Y-12320936D02*
X17084944Y-12330460D01*
X17084944Y-12330460D02*
X17065896Y-12339984D01*
X17065896Y-12339984D02*
X17046848Y-12339984D01*
X17046848Y-12339984D02*
X17027801Y-12330460D01*
X17027801Y-12330460D02*
X17018277Y-12320936D01*
X17018277Y-12320936D02*
X17008753Y-12301888D01*
X17008753Y-12301888D02*
X16999229Y-12263793D01*
X16999229Y-12263793D02*
X16999229Y-12216174D01*
X16999229Y-12216174D02*
X17008753Y-12178079D01*
X17008753Y-12178079D02*
X17018277Y-12159031D01*
X17018277Y-12159031D02*
X17027801Y-12149508D01*
X17027801Y-12149508D02*
X17046848Y-12139984D01*
X17284944Y-12206650D02*
X17284944Y-12339984D01*
X17237325Y-12130460D02*
X17189706Y-12273317D01*
X17189706Y-12273317D02*
X17313515Y-12273317D01*
X17484944Y-12139984D02*
X17389706Y-12139984D01*
X17389706Y-12139984D02*
X17380182Y-12235222D01*
X17380182Y-12235222D02*
X17389706Y-12225698D01*
X17389706Y-12225698D02*
X17408753Y-12216174D01*
X17408753Y-12216174D02*
X17456372Y-12216174D01*
X17456372Y-12216174D02*
X17475420Y-12225698D01*
X17475420Y-12225698D02*
X17484944Y-12235222D01*
X17484944Y-12235222D02*
X17494468Y-12254269D01*
X17494468Y-12254269D02*
X17494468Y-12301888D01*
X17494468Y-12301888D02*
X17484944Y-12320936D01*
X17484944Y-12320936D02*
X17475420Y-12330460D01*
X17475420Y-12330460D02*
X17456372Y-12339984D01*
X17456372Y-12339984D02*
X17408753Y-12339984D01*
X17408753Y-12339984D02*
X17389706Y-12330460D01*
X17389706Y-12330460D02*
X17380182Y-12320936D01*
X17561134Y-12139984D02*
X17684944Y-12139984D01*
X17684944Y-12139984D02*
X17618277Y-12216174D01*
X17618277Y-12216174D02*
X17646849Y-12216174D01*
X17646849Y-12216174D02*
X17665896Y-12225698D01*
X17665896Y-12225698D02*
X17675420Y-12235222D01*
X17675420Y-12235222D02*
X17684944Y-12254269D01*
X17684944Y-12254269D02*
X17684944Y-12301888D01*
X17684944Y-12301888D02*
X17675420Y-12320936D01*
X17675420Y-12320936D02*
X17665896Y-12330460D01*
X17665896Y-12330460D02*
X17646849Y-12339984D01*
X17646849Y-12339984D02*
X17589706Y-12339984D01*
X17589706Y-12339984D02*
X17570658Y-12330460D01*
X17570658Y-12330460D02*
X17561134Y-12320936D01*
X17761134Y-12139984D02*
X17761134Y-12178079D01*
X17837325Y-12139984D02*
X17837325Y-12178079D01*
X18132563Y-12416174D02*
X18123039Y-12406650D01*
X18123039Y-12406650D02*
X18103991Y-12378079D01*
X18103991Y-12378079D02*
X18094468Y-12359031D01*
X18094468Y-12359031D02*
X18084944Y-12330460D01*
X18084944Y-12330460D02*
X18075420Y-12282841D01*
X18075420Y-12282841D02*
X18075420Y-12244746D01*
X18075420Y-12244746D02*
X18084944Y-12197127D01*
X18084944Y-12197127D02*
X18094468Y-12168555D01*
X18094468Y-12168555D02*
X18103991Y-12149508D01*
X18103991Y-12149508D02*
X18123039Y-12120936D01*
X18123039Y-12120936D02*
X18132563Y-12111412D01*
X18199230Y-12159031D02*
X18208753Y-12149508D01*
X18208753Y-12149508D02*
X18227801Y-12139984D01*
X18227801Y-12139984D02*
X18275420Y-12139984D01*
X18275420Y-12139984D02*
X18294468Y-12149508D01*
X18294468Y-12149508D02*
X18303991Y-12159031D01*
X18303991Y-12159031D02*
X18313515Y-12178079D01*
X18313515Y-12178079D02*
X18313515Y-12197127D01*
X18313515Y-12197127D02*
X18303991Y-12225698D01*
X18303991Y-12225698D02*
X18189706Y-12339984D01*
X18189706Y-12339984D02*
X18313515Y-12339984D01*
X18551611Y-12339984D02*
X18551611Y-12139984D01*
X18637325Y-12339984D02*
X18637325Y-12235222D01*
X18637325Y-12235222D02*
X18627801Y-12216174D01*
X18627801Y-12216174D02*
X18608753Y-12206650D01*
X18608753Y-12206650D02*
X18580182Y-12206650D01*
X18580182Y-12206650D02*
X18561134Y-12216174D01*
X18561134Y-12216174D02*
X18551611Y-12225698D01*
X18761134Y-12339984D02*
X18742087Y-12330460D01*
X18742087Y-12330460D02*
X18732563Y-12320936D01*
X18732563Y-12320936D02*
X18723039Y-12301888D01*
X18723039Y-12301888D02*
X18723039Y-12244746D01*
X18723039Y-12244746D02*
X18732563Y-12225698D01*
X18732563Y-12225698D02*
X18742087Y-12216174D01*
X18742087Y-12216174D02*
X18761134Y-12206650D01*
X18761134Y-12206650D02*
X18789706Y-12206650D01*
X18789706Y-12206650D02*
X18808753Y-12216174D01*
X18808753Y-12216174D02*
X18818277Y-12225698D01*
X18818277Y-12225698D02*
X18827801Y-12244746D01*
X18827801Y-12244746D02*
X18827801Y-12301888D01*
X18827801Y-12301888D02*
X18818277Y-12320936D01*
X18818277Y-12320936D02*
X18808753Y-12330460D01*
X18808753Y-12330460D02*
X18789706Y-12339984D01*
X18789706Y-12339984D02*
X18761134Y-12339984D01*
X18942087Y-12339984D02*
X18923039Y-12330460D01*
X18923039Y-12330460D02*
X18913515Y-12311412D01*
X18913515Y-12311412D02*
X18913515Y-12139984D01*
X19094468Y-12330460D02*
X19075420Y-12339984D01*
X19075420Y-12339984D02*
X19037325Y-12339984D01*
X19037325Y-12339984D02*
X19018277Y-12330460D01*
X19018277Y-12330460D02*
X19008753Y-12311412D01*
X19008753Y-12311412D02*
X19008753Y-12235222D01*
X19008753Y-12235222D02*
X19018277Y-12216174D01*
X19018277Y-12216174D02*
X19037325Y-12206650D01*
X19037325Y-12206650D02*
X19075420Y-12206650D01*
X19075420Y-12206650D02*
X19094468Y-12216174D01*
X19094468Y-12216174D02*
X19103992Y-12235222D01*
X19103992Y-12235222D02*
X19103992Y-12254269D01*
X19103992Y-12254269D02*
X19008753Y-12273317D01*
X19180182Y-12330460D02*
X19199230Y-12339984D01*
X19199230Y-12339984D02*
X19237325Y-12339984D01*
X19237325Y-12339984D02*
X19256373Y-12330460D01*
X19256373Y-12330460D02*
X19265896Y-12311412D01*
X19265896Y-12311412D02*
X19265896Y-12301888D01*
X19265896Y-12301888D02*
X19256373Y-12282841D01*
X19256373Y-12282841D02*
X19237325Y-12273317D01*
X19237325Y-12273317D02*
X19208753Y-12273317D01*
X19208753Y-12273317D02*
X19189706Y-12263793D01*
X19189706Y-12263793D02*
X19180182Y-12244746D01*
X19180182Y-12244746D02*
X19180182Y-12235222D01*
X19180182Y-12235222D02*
X19189706Y-12216174D01*
X19189706Y-12216174D02*
X19208753Y-12206650D01*
X19208753Y-12206650D02*
X19237325Y-12206650D01*
X19237325Y-12206650D02*
X19256373Y-12216174D01*
X19332563Y-12416174D02*
X19342087Y-12406650D01*
X19342087Y-12406650D02*
X19361134Y-12378079D01*
X19361134Y-12378079D02*
X19370658Y-12359031D01*
X19370658Y-12359031D02*
X19380182Y-12330460D01*
X19380182Y-12330460D02*
X19389706Y-12282841D01*
X19389706Y-12282841D02*
X19389706Y-12244746D01*
X19389706Y-12244746D02*
X19380182Y-12197127D01*
X19380182Y-12197127D02*
X19370658Y-12168555D01*
X19370658Y-12168555D02*
X19361134Y-12149508D01*
X19361134Y-12149508D02*
X19342087Y-12120936D01*
X19342087Y-12120936D02*
X19332563Y-12111412D01*
M02*
