M48
; DRILL file {KiCad 9.0.7} date 2026-02-02T13:12:37+0100
; FORMAT={-:-/ absolute / inch / decimal}
; #@! TF.CreationDate,2026-02-02T13:12:37+01:00
; #@! TF.GenerationSoftware,Kicad,Pcbnew,9.0.7
; #@! TF.FileFunction,Plated,1,2,PTH
FMAT,2
INCH
; #@! TA.AperFunction,Plated,PTH,ComponentDrill
T1C0.0315
; #@! TA.AperFunction,Plated,PTH,ComponentDrill
T2C0.0354
; #@! TA.AperFunction,Plated,PTH,ComponentDrill
T3C0.0394
; #@! TA.AperFunction,Plated,PTH,ComponentDrill
T4C0.0433
; #@! TA.AperFunction,Plated,PTH,ComponentDrill
T5C0.0453
%
G90
G05
T1
X6.2075Y-2.6083
X6.6075Y-2.6083
X6.9622Y-2.3622
X7.1161Y-2.7165
X7.3622Y-2.3622
X7.3657Y-2.5197
X7.5134Y-2.3622
X7.5161Y-2.7165
X7.7657Y-2.5197
X7.9134Y-2.3622
T2
X6.8002Y-2.9724
X6.8002Y-3.0709
X6.8002Y-3.1693
X6.8002Y-3.2677
X6.8012Y-3.5433
X6.8012Y-3.6417
X6.8012Y-3.7402
X6.8012Y-3.8386
X7.6461Y-2.7165
X7.7461Y-2.7165
X8.0906Y-2.3622
X8.1906Y-2.3622
T3
X5.9898Y-2.0297
X5.9898Y-2.1297
X6.0531Y-3.4909
X6.0531Y-3.5909
X6.0531Y-3.6909
X6.0531Y-3.7909
X6.0531Y-3.8909
X6.0898Y-2.0297
X6.0898Y-2.1297
X6.1898Y-2.0297
X6.1898Y-2.1297
X6.2898Y-2.0297
X6.2898Y-2.1297
X6.3898Y-2.0297
X6.3898Y-2.1297
X6.4551Y-2.8709
X6.4551Y-2.9709
X6.4551Y-3.0709
X6.4551Y-3.1709
X6.4551Y-3.2709
X6.4898Y-2.0297
X6.4898Y-2.1297
X6.5898Y-2.0297
X6.5898Y-2.1297
X6.6898Y-2.0297
X6.6898Y-2.1297
X6.7898Y-2.0297
X6.7898Y-2.1297
X6.8898Y-2.0297
X6.8898Y-2.1297
X6.9898Y-2.0297
X6.9898Y-2.1297
X7.0898Y-2.0297
X7.0898Y-2.1297
X7.1898Y-2.0297
X7.1898Y-2.1297
X7.2047Y-3.5433
X7.2047Y-3.6417
X7.2047Y-3.7402
X7.2047Y-3.8386
X7.2057Y-2.9724
X7.2057Y-3.0709
X7.2057Y-3.1693
X7.2057Y-3.2677
X7.2898Y-2.0297
X7.2898Y-2.1297
X7.3898Y-2.0297
X7.3898Y-2.1297
X7.4898Y-2.0297
X7.4898Y-2.1297
X7.5898Y-2.0297
X7.5898Y-2.1297
X7.6898Y-2.0297
X7.6898Y-2.1297
X7.7898Y-2.0297
X7.7898Y-2.1297
X7.8898Y-2.0297
X7.8898Y-2.1297
T4
X6.9685Y-2.5394
X6.9685Y-2.6378
X7.9921Y-2.5984
X7.9921Y-2.6969
T5
X5.9547Y-2.3622
X5.9547Y-2.5591
M30
